<?xml version="1.0" standalone="no"?>
<!DOCTYPE svg PUBLIC "-//W3C//DTD SVG 1.1//EN" "http://www.w3.org/Graphics/SVG/1.1/DTD/svg11.dtd" >
<svg xmlns="http://www.w3.org/2000/svg" xmlns:xlink="http://www.w3.org/1999/xlink" version="1.1">
<metadata>
Created by FontForge 20230101 at Tue Apr 13 00:38:00 2021
 By Unknown
Copyright \(c\) 2017 by Studio Kmzero &#38; Zetafonts. All rights reserved.
</metadata>
<defs>
<font id="HeadingNow-73Book" horiz-adv-x="0" >
  <font-face 
    font-family="Heading Now 73 Book"
    font-weight="300"
    font-stretch="normal"
    units-per-em="1000"
    panose-1="0 0 4 0 0 0 0 0 0 0"
    ascent="800"
    descent="-200"
    x-height="589"
    cap-height="743"
    bbox="-733 -265 1323 1098"
    underline-thickness="50"
    underline-position="-100"
    unicode-range="U+0020-267D"
  />
<missing-glyph horiz-adv-x="766" 
 />
    <glyph glyph-name="f_f" unicode="ff" horiz-adv-x="734" 
d="M653 704c-74 0 -88 -44 -89 -115h175v-81h-175v-508h-93v508h-256v-508h-92v508h-110v81h110c3 103 32 192 165 192c45 0 83 -7 114 -16l-6 -71c-32 6 -54 10 -91 10c-75 0 -89 -44 -90 -115h256c3 103 32 192 165 192c46 0 83 -7 115 -16l-7 -71c-32 6 -54 10 -91 10z
" />
    <glyph glyph-name=".notdef" horiz-adv-x="766" 
 />
    <glyph glyph-name="space" unicode=" " horiz-adv-x="305" 
 />
    <glyph glyph-name="A" unicode="A" horiz-adv-x="725" 
d="M712 0h-106l-72 195h-343l-72 -195h-106l286 743h127zM349 623l-129 -350h285l-129 350l-12 40h-3z" />
    <glyph glyph-name="B" unicode="B" horiz-adv-x="734" 
d="M439 0h-341v743h330c140 0 224 -58 224 -181c0 -79 -41 -147 -131 -169v-1c103 -18 163 -83 163 -184c0 -136 -80 -208 -245 -208zM197 659v-233h213c101 0 146 46 146 119c0 66 -33 114 -137 114h-222zM197 345v-261h230c98 0 156 40 156 131c0 93 -68 130 -171 130
h-215z" />
    <glyph glyph-name="C" unicode="C" horiz-adv-x="751" 
d="M380 -14c-211 0 -329 129 -329 381v9c0 252 118 380 330 380c210 0 312 -132 320 -275v-2h-98v2c-9 98 -79 189 -222 189c-146 0 -230 -97 -230 -290v-16c0 -195 84 -292 230 -292c130 0 217 70 224 192v4h98v-3c-8 -148 -108 -279 -323 -279z" />
    <glyph glyph-name="D" unicode="D" horiz-adv-x="771" 
d="M388 0h-290v743h289c225 0 333 -125 333 -363v-7c0 -243 -105 -373 -332 -373zM197 660v-577h178c161 0 246 89 246 284v19c0 189 -85 274 -246 274h-178z" />
    <glyph glyph-name="E" unicode="E" horiz-adv-x="647" 
d="M614 0h-516v743h512v-84h-413v-239h373v-78h-373v-258h417v-84z" />
    <glyph glyph-name="F" unicode="F" horiz-adv-x="630" 
d="M197 0h-99v743h509v-81h-410v-257h370v-84h-370v-321z" />
    <glyph glyph-name="G" unicode="G" horiz-adv-x="753" 
d="M386 -14c-216 0 -335 128 -335 378v12c0 252 119 380 335 380c203 0 310 -123 315 -261v-3h-99v3c-5 92 -80 175 -217 175c-150 0 -234 -96 -234 -290v-20c0 -192 85 -288 235 -288c124 0 213 69 219 217v6h-238v83h336v-47c0 -210 -104 -345 -317 -345z" />
    <glyph glyph-name="H" unicode="H" horiz-adv-x="801" 
d="M605 419v324h99v-743h-99v335h-408v-335h-99v743h99v-324h408z" />
    <glyph glyph-name="I" unicode="I" horiz-adv-x="294" 
d="M197 0h-99v743h99v-743z" />
    <glyph glyph-name="J" unicode="J" horiz-adv-x="531" 
d="M457 743v-461c0 -229 -100 -296 -279 -296c-64 0 -125 10 -166 22l6 81c43 -12 106 -22 159 -22c122 0 181 55 181 217v375h-306v84h405z" />
    <glyph glyph-name="K" unicode="K" horiz-adv-x="707" 
d="M197 0h-99v743h99v-322h133l210 322h114l-241 -360v-5l278 -378h-115l-246 339h-133v-339z" />
    <glyph glyph-name="L" unicode="L" horiz-adv-x="605" 
d="M583 0h-485v743h99v-659h386v-84z" />
    <glyph glyph-name="M" unicode="M" horiz-adv-x="946" 
d="M195 0h-97v743h130l232 -492l13 -35h1l13 35l231 492h131v-743h-97v564l1 47h-1l-15 -36l-221 -464h-86l-221 464l-14 36h-1l1 -47v-564z" />
    <glyph glyph-name="N" unicode="N" horiz-adv-x="819" 
d="M195 0h-97v743h112l396 -575l18 -30v605h97v-743h-112l-396 575l-18 30v-605z" />
    <glyph glyph-name="O" unicode="O" horiz-adv-x="777" 
d="M389 -14c-217 0 -338 129 -338 383v9c0 251 121 378 337 378c218 0 338 -127 338 -378v-9c0 -254 -120 -383 -337 -383zM389 72c152 0 237 98 237 294v15c0 193 -85 289 -237 289c-153 0 -238 -96 -238 -289v-15c0 -196 85 -294 238 -294z" />
    <glyph glyph-name="P" unicode="P" horiz-adv-x="691" 
d="M197 0h-99v743h304c168 0 266 -80 266 -237v-2c0 -165 -98 -252 -267 -252h-204v-252zM197 659v-324h199c112 0 172 55 172 168v2c0 99 -56 154 -167 154h-204z" />
    <glyph glyph-name="Q" unicode="Q" horiz-adv-x="777" 
d="M388 756c218 0 338 -127 338 -378v-9c0 -233 -101 -361 -285 -380v-131h-96v130c-189 17 -294 145 -294 381v9c0 251 121 378 337 378zM626 366v15c0 193 -85 289 -237 289c-153 0 -238 -96 -238 -289v-15c0 -196 85 -294 238 -294c152 0 237 98 237 294z" />
    <glyph glyph-name="R" unicode="R" horiz-adv-x="721" 
d="M197 0h-99v743h310c173 0 256 -72 256 -209c0 -110 -58 -178 -151 -196v-1c72 -16 107 -66 120 -146l13 -77c9 -52 19 -88 33 -114h-101c-10 22 -19 56 -30 116l-15 79c-12 63 -51 97 -158 97h-178v-292zM197 659v-284h196c104 0 172 42 172 151v2c0 83 -49 131 -159 131
h-209z" />
    <glyph glyph-name="S" unicode="S" horiz-adv-x="663" 
d="M338 -14c-204 0 -297 99 -301 239h98c1 -73 43 -159 203 -159c124 0 181 49 181 131c0 98 -55 126 -207 156c-177 34 -249 88 -249 212c0 110 86 191 265 191c191 0 275 -95 281 -228h-93c-5 76 -45 148 -185 148c-122 0 -169 -52 -169 -112c0 -80 50 -110 179 -134
c203 -37 278 -97 278 -232c0 -136 -102 -212 -281 -212z" />
    <glyph glyph-name="T" unicode="T" horiz-adv-x="612" 
d="M355 0h-99v659h-251v84h602v-84h-252v-659z" />
    <glyph glyph-name="U" unicode="U" horiz-adv-x="755" 
d="M378 -14c-207 0 -303 103 -303 309v448h99v-447c0 -149 71 -224 204 -224s204 75 204 224v447h99v-448c0 -205 -95 -309 -303 -309z" />
    <glyph glyph-name="V" unicode="V" horiz-adv-x="728" 
d="M299 0l-286 743h106l239 -646l5 -15h2l6 15l238 646h106l-287 -743h-129z" />
    <glyph glyph-name="W" unicode="W" horiz-adv-x="1028" 
d="M353 0h-129l-211 743h103l165 -620l6 -32h1l7 32l156 620h126l157 -620l7 -32l7 32l164 620h104l-211 -743h-129l-154 610l-7 32h-2l-6 -32z" />
    <glyph glyph-name="X" unicode="X" horiz-adv-x="694" 
d="M132 0h-119l256 385l-235 358h119l180 -280l14 -29h1l14 29l180 280h119l-235 -357l256 -386h-120l-199 309l-15 29h-1l-15 -30z" />
    <glyph glyph-name="Y" unicode="Y" horiz-adv-x="677" 
d="M389 0h-100v244l-276 499h115l202 -384l9 -24l10 24l201 384h115l-276 -499v-244z" />
    <glyph glyph-name="Z" unicode="Z" horiz-adv-x="628" 
d="M608 0h-584v79l445 578h-422v86h545v-78l-442 -579h458v-86z" />
    <glyph glyph-name="AE" unicode="&#xc6;" horiz-adv-x="995" 
d="M561 343v-263h401v-80h-499v213h-235l-111 -213h-104l391 743h556v-81h-399v-242h360v-77h-360zM448 634l-180 -345h195v378h-4z" />
    <glyph glyph-name="OE" unicode="&#x152;" horiz-adv-x="1035" 
d="M584 342v-258h417v-84h-516v1c-28 -10 -62 -15 -102 -15c-227 0 -332 134 -332 350v72c0 214 104 348 332 348c40 0 74 -5 102 -16v3h512v-84h-413v-239h373v-78h-373zM384 72c37 0 71 3 101 16v565c-28 12 -61 18 -101 18c-153 0 -233 -95 -233 -259v-80
c0 -168 80 -260 233 -260z" />
    <glyph glyph-name="Eth" unicode="&#xd0;" horiz-adv-x="771" 
d="M98 743h289c225 0 333 -125 333 -363v-7c0 -243 -105 -373 -332 -373h-290v337h-103v69h103v337zM621 367v19c0 189 -85 274 -246 274h-178v-254h165v-69h-165v-254h178c161 0 246 89 246 284z" />
    <glyph glyph-name="Thorn" unicode="&#xde;" horiz-adv-x="612" 
d="M197 626h150c149 0 242 -75 242 -229v-45c0 -161 -91 -241 -249 -241h-143v-111h-99v743h99v-117zM490 351v45c0 99 -54 150 -164 150h-129v-355h120c117 0 173 53 173 160z" />
    <glyph glyph-name="uni1E9E" unicode="&#x1e9e;" horiz-adv-x="692" 
d="M188 0h-95v513c0 168 82 230 229 230h269v-72l-160 -226c155 -7 202 -85 202 -183v-44c0 -143 -68 -218 -256 -218h-43v81h28c113 0 174 27 174 142v41c0 98 -56 129 -196 128v59l149 212h-143c-117 0 -158 -54 -158 -158v-505z" />
    <glyph glyph-name="a" unicode="a" horiz-adv-x="651" 
d="M315 603c212 0 258 -123 258 -250v-353h-92v83l5 52h-3c-33 -90 -114 -149 -220 -149c-170 0 -215 103 -215 189c0 94 56 186 233 186c84 0 162 -21 200 -35v42c0 89 -40 162 -167 162c-112 0 -150 -64 -155 -132h-91c7 83 51 205 247 205zM283 64c137 0 193 115 198 192
c-40 19 -118 37 -186 37c-124 0 -155 -59 -155 -115c0 -54 30 -114 143 -114z" />
    <glyph glyph-name="b" unicode="b" horiz-adv-x="676" 
d="M388 603c173 0 243 -136 243 -303v-11c0 -171 -70 -303 -243 -303c-101 0 -176 53 -211 140h-2l3 -60v-66h-92v765h92v-238l-3 -63h2c37 88 110 139 211 139zM538 291v5c0 101 -36 226 -176 226c-139 0 -184 -123 -184 -218v-19c0 -99 48 -217 184 -217
c140 0 176 111 176 223z" />
    <glyph glyph-name="c" unicode="c" horiz-adv-x="620" 
d="M320 -14c-172 0 -274 110 -274 306v8c0 194 102 303 274 303c157 0 251 -79 262 -222h-94c-9 95 -73 141 -169 141c-110 0 -181 -72 -181 -224v-5c0 -155 72 -225 181 -225c105 0 161 54 170 143h93c-10 -144 -105 -225 -262 -225z" />
    <glyph glyph-name="d" unicode="d" horiz-adv-x="676" 
d="M499 527v238h92v-765h-92v66l3 60h-3c-34 -87 -110 -140 -210 -140c-174 0 -243 132 -243 303v11c0 167 69 303 243 303c101 0 174 -51 211 -139h2zM314 68c137 0 185 118 185 217v19c0 95 -45 218 -185 218c-139 0 -175 -125 -175 -226v-5c0 -112 36 -223 175 -223z" />
    <glyph glyph-name="e" unicode="e" horiz-adv-x="627" 
d="M585 313v-41h-447c7 -137 72 -204 179 -204c110 0 163 49 173 131h92c-13 -128 -99 -213 -267 -213c-171 0 -269 108 -269 308v9c0 192 100 300 272 300c180 0 267 -108 267 -290zM318 522c-101 0 -168 -58 -178 -183h354c-3 115 -58 183 -176 183z" />
    <glyph glyph-name="f" unicode="f" horiz-adv-x="385" 
d="M305 704c-75 0 -89 -44 -90 -115h175v-81h-175v-508h-92v508h-110v81h110c3 103 32 192 165 192c45 0 83 -7 114 -16l-6 -71c-32 6 -54 10 -91 10z" />
    <glyph glyph-name="g" unicode="g" horiz-adv-x="677" 
d="M498 525v64h93v-510c0 -172 -87 -275 -273 -275c-78 0 -150 12 -216 37l11 73c58 -23 133 -35 196 -35c127 0 188 71 190 181l1 39l2 53h-3c-36 -87 -109 -139 -211 -139c-173 0 -242 131 -242 291v6c0 159 69 293 242 293c102 0 178 -53 212 -139h2zM314 94
c140 0 185 119 185 209v6c0 85 -42 213 -185 213c-139 0 -176 -123 -176 -215v-5c0 -99 37 -208 176 -208z" />
    <glyph glyph-name="h" unicode="h" horiz-adv-x="700" 
d="M400 603c141 0 222 -76 222 -253v-350h-93v338c0 124 -55 183 -156 183c-139 0 -195 -117 -195 -217v-304h-92v765h92v-251l-5 -60h3c35 93 115 149 224 149z" />
    <glyph glyph-name="i" unicode="i" horiz-adv-x="263" 
d="M132 683c-42 0 -62 18 -62 54s21 55 62 55c42 0 63 -19 63 -55s-21 -54 -63 -54zM178 0h-92v589h92v-589z" />
    <glyph glyph-name="dotlessi" unicode="&#x131;" horiz-adv-x="263" 
d="M178 0h-92v589h92v-589z" />
    <glyph glyph-name="j" unicode="j" horiz-adv-x="272" 
d="M140 683c-42 0 -62 18 -62 54s21 55 62 55c42 0 63 -19 63 -55s-21 -54 -63 -54zM12 -195c-41 0 -77 8 -100 16l5 72c21 -6 47 -12 78 -12c69 0 99 55 99 154v554h92v-571c0 -122 -55 -213 -174 -213z" />
    <glyph glyph-name="uni0237" unicode="&#x237;" horiz-adv-x="272" 
d="M12 -195c-41 0 -77 8 -100 16l5 72c21 -6 47 -12 78 -12c69 0 99 55 99 154v554h92v-571c0 -122 -55 -213 -174 -213z" />
    <glyph glyph-name="k" unicode="k" horiz-adv-x="613" 
d="M178 0h-92v765h92v-419h122l175 243h104l-204 -282l228 -307h-106l-199 271h-120v-271z" />
    <glyph glyph-name="l" unicode="l" horiz-adv-x="263" 
d="M178 0h-92v765h92v-765z" />
    <glyph glyph-name="m" unicode="m" horiz-adv-x="1087" 
d="M178 0h-92v589h92v-75l-5 -61h2c32 89 113 150 213 150c127 0 179 -76 196 -149h2c34 88 117 149 218 149c194 0 205 -172 205 -254v-349h-93v334c0 81 -18 187 -143 187c-117 0 -180 -111 -180 -209v-312h-92v338c0 70 -16 183 -146 183c-114 0 -177 -114 -177 -210
v-311z" />
    <glyph glyph-name="n" unicode="n" horiz-adv-x="700" 
d="M399 603c138 0 222 -79 222 -257v-346h-92v335c0 127 -55 186 -157 186c-138 0 -194 -115 -194 -218v-303h-92v589h92v-75l-5 -61h2c35 91 110 150 224 150z" />
    <glyph glyph-name="o" unicode="o" horiz-adv-x="650" 
d="M325 -14c-176 0 -279 105 -279 305v9c0 198 103 303 279 303s280 -105 280 -303v-9c0 -200 -104 -305 -280 -305zM325 68c117 0 188 69 188 225v4c0 155 -71 225 -188 225c-116 0 -187 -70 -187 -225v-4c0 -156 71 -225 187 -225z" />
    <glyph glyph-name="p" unicode="p" horiz-adv-x="676" 
d="M388 603c173 0 243 -131 243 -305v-8c0 -167 -70 -304 -243 -304c-101 0 -176 53 -211 140h-2l3 -63v-243h-92v769h92v-65l-3 -60h3c34 86 109 139 210 139zM538 295v1c0 109 -37 226 -176 226c-138 0 -184 -116 -184 -222v-12c0 -99 41 -220 184 -220
c140 0 176 120 176 227z" />
    <glyph glyph-name="q" unicode="q" horiz-adv-x="676" 
d="M499 524v65h92v-769h-92v243l2 63h-2c-34 -87 -109 -140 -210 -140c-174 0 -243 137 -243 304v8c0 174 69 305 243 305c100 0 176 -53 210 -139h3zM314 68c143 0 185 121 185 220v12c0 106 -46 222 -185 222c-138 0 -175 -117 -175 -226v-1c0 -107 36 -227 175 -227z" />
    <glyph glyph-name="r" unicode="r" horiz-adv-x="464" 
d="M384 603c25 0 48 -3 68 -8v-88c-21 6 -45 9 -72 9c-127 0 -202 -102 -202 -222v-294h-92v589h92v-80l-5 -59h3c31 92 109 153 208 153z" />
    <glyph glyph-name="s" unicode="s" horiz-adv-x="591" 
d="M304 -14c-179 0 -253 89 -255 196h90c4 -73 59 -121 168 -121c98 0 146 37 146 96v1c0 71 -57 89 -164 109c-137 25 -224 62 -224 171v1c0 91 63 164 225 164c177 0 245 -94 246 -179h-91c-2 49 -45 104 -156 104c-88 0 -130 -34 -130 -87v-1c0 -68 63 -84 156 -100
c150 -24 231 -65 231 -179c0 -109 -87 -175 -242 -175z" />
    <glyph glyph-name="t" unicode="t" horiz-adv-x="418" 
d="M311 68c37 0 63 4 89 9v-78c-28 -6 -68 -13 -114 -13c-132 0 -169 83 -169 191v331h-104v81h104v132h92v-132h175v-81h-175v-313c0 -79 22 -127 102 -127z" />
    <glyph glyph-name="u" unicode="u" horiz-adv-x="700" 
d="M522 286v303h92v-589h-92v75l5 61h-2c-35 -92 -111 -150 -224 -150c-138 0 -222 79 -222 257v346h92v-334c0 -128 55 -186 157 -186c138 0 194 115 194 217z" />
    <glyph glyph-name="v" unicode="v" horiz-adv-x="583" 
d="M352 0h-121l-218 589h98l175 -493l5 -16h1l5 16l175 493h98z" />
    <glyph glyph-name="w" unicode="w" horiz-adv-x="885" 
d="M300 0h-118l-169 589h97l131 -492l3 -16h2l4 16l139 492h108l138 -492l5 -16h1l4 16l131 492h97l-170 -589h-117l-139 491l-3 12h-2l-3 -12z" />
    <glyph glyph-name="x" unicode="x" horiz-adv-x="592" 
d="M126 0h-110l210 308l-187 281h110l138 -222l8 -15h2l9 16l138 221h110l-188 -281l211 -308h-110l-159 243l-10 17h-2l-10 -17z" />
    <glyph glyph-name="y" unicode="y" horiz-adv-x="582" 
d="M153 -189l-24 63c63 24 109 62 129 112l12 31h-38l-219 572h98l177 -479l4 -17h2l4 17l173 479h99l-228 -601c-36 -96 -100 -153 -189 -177z" />
    <glyph glyph-name="z" unicode="z" horiz-adv-x="541" 
d="M515 0h-484v67l352 447h-326v75h443v-69l-350 -444h365v-76z" />
    <glyph glyph-name="ae" unicode="&#xe6;" horiz-adv-x="1060" 
d="M1018 313v-41h-446v-2c6 -136 71 -201 178 -201c110 0 163 48 173 130v2h92v-2c-13 -128 -99 -212 -267 -212c-121 0 -207 55 -245 164c-47 -96 -142 -165 -245 -165c-173 0 -210 107 -210 185v3c0 74 37 185 228 185c84 0 165 -22 203 -38v47c0 89 -40 162 -167 162
c-112 0 -151 -64 -155 -128v-4h-91v5c5 78 51 200 247 200c129 0 190 -50 219 -114c43 75 119 114 219 114c180 0 267 -108 267 -290zM573 341v-2h353v2c-3 114 -58 181 -175 181c-101 0 -168 -59 -178 -181zM283 65c137 0 193 118 196 190c-41 20 -124 40 -189 40
c-134 0 -150 -73 -150 -115v-2c0 -52 25 -113 143 -113z" />
    <glyph glyph-name="oe" unicode="&#x153;" horiz-adv-x="1112" 
d="M1061 313v-41h-447c7 -137 72 -204 178 -204c110 0 163 49 174 131h91c-13 -128 -99 -213 -266 -213c-104 0 -181 40 -226 116c-46 -77 -126 -116 -234 -116c-176 0 -280 105 -280 305v9c0 198 104 303 280 303c108 0 188 -39 234 -115c45 75 124 115 229 115
c180 0 267 -108 267 -290zM518 293v4c0 155 -71 225 -187 225c-117 0 -187 -70 -187 -225v-4c0 -156 70 -225 187 -225c116 0 187 69 187 225zM793 522c-101 0 -167 -58 -177 -183h353c-3 115 -58 183 -176 183z" />
    <glyph glyph-name="eth" unicode="&#xf0;" horiz-adv-x="650" 
d="M517 777l-43 -53c76 -52 130 -145 131 -306v-131c0 -178 -86 -300 -280 -300c-193 0 -279 122 -279 294v10c0 161 85 282 264 282c110 0 186 -42 220 -115c-3 109 -44 173 -100 211l-49 -60l-41 30l45 55c-46 19 -97 27 -143 30l12 64c60 -4 121 -14 176 -39l46 57z
M513 270v26c0 91 -42 201 -188 201c-145 0 -186 -108 -186 -204v-23c0 -110 45 -207 186 -207s188 99 188 207z" />
    <glyph glyph-name="thorn" unicode="&#xfe;" horiz-adv-x="682" 
d="M388 603c173 0 243 -136 243 -301v-14c0 -170 -70 -302 -243 -302c-101 0 -176 54 -211 140h-6l7 -60v-246h-92v945h92v-238l-6 -63h6c36 86 109 139 210 139zM538 288v11c0 103 -36 228 -176 228c-141 0 -184 -128 -184 -224v-29c0 -88 47 -211 184 -211
c140 0 176 111 176 225z" />
    <glyph glyph-name="germandbls" unicode="&#xdf;" horiz-adv-x="625" 
d="M147 0h-96v516c0 159 63 261 243 261c173 0 237 -84 237 -183v-4c0 -90 -21 -146 -93 -174c102 -23 136 -92 136 -178v-21c0 -152 -76 -217 -267 -217h-55v81h53c109 0 171 21 171 140v26c0 82 -56 122 -161 122h-58v76h43c94 0 141 34 141 132v5c0 65 -40 114 -144 114
c-130 0 -150 -82 -150 -176v-520z" />
    <glyph glyph-name="zero" unicode="0" horiz-adv-x="718" 
d="M359 -14c-208 0 -308 133 -308 381v9c0 248 100 380 308 380c209 0 308 -132 308 -380v-9c0 -248 -99 -381 -308 -381zM359 72c145 0 209 101 209 292v15c0 190 -64 292 -209 292c-144 0 -209 -102 -209 -292v-15c0 -191 65 -292 209 -292z" />
    <glyph glyph-name="one" unicode="1" horiz-adv-x="396" 
d="M299 0h-92v647c-50 -39 -120 -67 -201 -81v79c86 17 159 51 209 98h84v-743z" />
    <glyph glyph-name="two" unicode="2" horiz-adv-x="648" 
d="M597 0h-546v77c172 158 446 309 446 473c-1 74 -58 126 -166 126c-145 0 -176 -83 -176 -155v-1h-94c0 124 66 236 270 236c164 0 264 -78 264 -203c0 -189 -252 -335 -409 -472h411v-81z" />
    <glyph glyph-name="three" unicode="3" horiz-adv-x="657" 
d="M326 -14c-178 0 -277 73 -277 228h97c0 -102 65 -147 179 -147c111 0 182 44 182 148v1c0 107 -72 132 -178 132h-76v77h78c98 0 163 34 163 123v1c0 78 -52 127 -166 127c-113 0 -172 -53 -172 -144h-94c0 131 85 224 267 224c170 0 264 -74 264 -195
c-1 -102 -64 -155 -133 -169v-3c85 -15 146 -64 146 -179v-1c0 -153 -106 -223 -280 -223z" />
    <glyph glyph-name="four" unicode="4" horiz-adv-x="667" 
d="M511 0h-97v133h-381v61l255 549h102l-249 -530h273v239h97v-239h123v-80h-123v-133z" />
    <glyph glyph-name="five" unicode="5" horiz-adv-x="615" 
d="M295 -14c-179 0 -258 103 -258 222v3h94v-1c0 -72 46 -143 167 -143s175 62 176 179v2c0 103 -41 169 -171 169c-58 0 -141 -22 -167 -75l-87 9l24 392h458v-80h-374l-15 -232c34 31 98 57 179 57c143 0 249 -64 250 -243v-1c0 -167 -79 -258 -276 -258z" />
    <glyph glyph-name="six" unicode="6" horiz-adv-x="656" 
d="M331 -14c-208 0 -280 125 -280 277v178c0 190 76 315 273 315c191 0 259 -106 259 -221h-94c0 78 -44 141 -165 141c-124 0 -179 -82 -179 -219v-79h3c34 56 93 95 202 95c195 0 255 -123 255 -233c0 -132 -69 -254 -274 -254zM330 67c146 0 180 93 180 173
c0 68 -34 162 -181 162c-127 0 -183 -74 -183 -158c0 -85 47 -177 184 -177z" />
    <glyph glyph-name="seven" unicode="7" horiz-adv-x="595" 
d="M264 0h-105l309 662h-332v-144h-94v225h540v-76z" />
    <glyph glyph-name="eight" unicode="8" horiz-adv-x="658" 
d="M329 -14c-178 0 -278 74 -278 221v3c0 94 47 161 142 191v4c-78 30 -119 85 -119 163c0 114 89 188 255 188c164 0 255 -73 255 -188c0 -78 -43 -135 -118 -163v-4c95 -30 141 -96 141 -192v-1c0 -147 -103 -222 -278 -222zM329 439c101 0 159 44 159 123v1
c0 74 -58 120 -159 120c-100 0 -159 -46 -159 -120v-1c0 -79 58 -123 159 -123zM329 65c116 0 179 54 179 146v2c0 105 -71 151 -179 151c-109 0 -178 -47 -178 -151v-2c0 -93 61 -146 178 -146z" />
    <glyph glyph-name="nine" unicode="9" horiz-adv-x="656" 
d="M325 756c209 0 280 -124 280 -276v-178c0 -191 -76 -316 -273 -316c-190 0 -259 106 -259 222h95c0 -79 44 -142 164 -142c125 0 179 82 179 220v78h-2c-34 -56 -93 -95 -203 -95c-195 0 -255 124 -255 233c0 132 69 254 274 254zM326 676c-146 0 -180 -93 -180 -174
c0 -68 34 -162 181 -162c128 0 183 75 183 159c0 85 -46 177 -184 177z" />
    <glyph glyph-name="Aacute" unicode="&#xc1;" horiz-adv-x="725" 
d="M372 943h98l-134 -139h-62zM712 0h-106l-72 195h-343l-72 -195h-106l286 743h127zM349 623l-129 -350h285l-129 350l-12 40h-3z" />
    <glyph glyph-name="Abreve" unicode="&#x102;" horiz-adv-x="725" 
d="M360 801c-98 0 -139 50 -134 139h60c-4 -57 18 -85 74 -85c55 0 77 28 74 85h60c5 -90 -37 -139 -134 -139zM712 0h-106l-72 195h-343l-72 -195h-106l286 743h127zM349 623l-129 -350h285l-129 350l-12 40h-3z" />
    <glyph glyph-name="uni1EAE" unicode="&#x1eae;" horiz-adv-x="725" 
d="M378 1060l78 -1l-108 -110l-49 1zM360 798c-98 0 -139 50 -134 139h60c-4 -57 18 -85 74 -85c55 0 77 28 74 85h60c5 -90 -37 -139 -134 -139zM712 0h-106l-72 195h-343l-72 -195h-106l286 743h127zM349 623l-129 -350h285l-129 350l-12 40h-3z" />
    <glyph glyph-name="uni1EB6" unicode="&#x1eb6;" horiz-adv-x="725" 
d="M360 801c-98 0 -139 50 -134 139h60c-4 -57 18 -85 74 -85c55 0 77 28 74 85h60c5 -90 -37 -139 -134 -139zM426 743l286 -743h-106l-72 195h-343l-72 -195h-106l286 743h127zM349 623l-129 -350h285l-129 350l-12 40h-3zM356 -48c39 0 56 -16 56 -43s-17 -42 -56 -42
s-56 15 -56 42s18 43 56 43z" />
    <glyph glyph-name="uni1EB0" unicode="&#x1eb0;" horiz-adv-x="725" 
d="M341 1060l79 -110l-49 -1l-108 110zM359 798c-97 0 -139 49 -134 139h60c-3 -57 19 -85 74 -85c56 0 78 28 74 85h60c5 -89 -36 -139 -134 -139zM712 0h-106l-72 195h-343l-72 -195h-106l286 743h127zM349 623l-129 -350h285l-129 350l-12 40h-3z" />
    <glyph glyph-name="uni1EB2" unicode="&#x1eb2;" horiz-adv-x="725" 
d="M360 1026c-13 0 -19 -5 -19 -24h-35c0 36 19 59 56 59c35 0 55 -15 55 -43c0 -20 -12 -43 -32 -69h-42c25 28 34 47 34 63c0 9 -6 14 -17 14zM360 797c-98 0 -139 49 -134 138h60c-4 -56 18 -84 74 -84c55 0 77 28 74 84h60c5 -89 -37 -138 -134 -138zM712 0h-106
l-72 195h-343l-72 -195h-106l286 743h127zM349 623l-129 -350h285l-129 350l-12 40h-3z" />
    <glyph glyph-name="uni1EB4" unicode="&#x1eb4;" horiz-adv-x="725" 
d="M314 1018c-17 0 -27 -9 -36 -31l-40 11c13 50 34 70 70 70c44 0 74 -36 102 -36c16 0 26 9 35 31l40 -12c-12 -49 -34 -70 -69 -70c-44 0 -75 37 -102 37zM358 796c-98 0 -139 50 -134 139h60c-4 -57 18 -85 74 -85c55 0 77 28 74 85h60c5 -90 -37 -139 -134 -139zM712 0
h-106l-72 195h-343l-72 -195h-106l286 743h127zM349 623l-129 -350h285l-129 350l-12 40h-3z" />
    <glyph glyph-name="uni01CD" unicode="&#x1cd;" horiz-adv-x="725" 
d="M506 941l-104 -139h-85l-103 139h57l89 -92l88 92h58zM712 0h-106l-72 195h-343l-72 -195h-106l286 743h127zM349 623l-129 -350h285l-129 350l-12 40h-3z" />
    <glyph glyph-name="Acircumflex" unicode="&#xc2;" horiz-adv-x="725" 
d="M448 805l-88 91l-89 -91h-57l103 138h85l104 -138h-58zM712 0h-106l-72 195h-343l-72 -195h-106l286 743h127zM349 623l-129 -350h285l-129 350l-12 40h-3z" />
    <glyph glyph-name="uni1EA4" unicode="&#x1ea4;" horiz-adv-x="725" 
d="M545 984h69l-92 -111l-43 -1zM448 805l-88 92l-89 -92h-57l103 139h85l104 -139h-58zM712 0h-106l-72 195h-343l-72 -195h-106l286 743h127zM349 623l-129 -350h285l-129 350l-12 40h-3z" />
    <glyph glyph-name="uni1EAC" unicode="&#x1eac;" horiz-adv-x="725" 
d="M448 805l-88 91l-89 -91h-57l103 138h85l104 -138h-58zM426 743l286 -743h-106l-72 195h-343l-72 -195h-106l286 743h127zM349 623l-129 -350h285l-129 350l-12 40h-3zM356 -48c39 0 56 -16 56 -43s-17 -42 -56 -42s-56 15 -56 42s18 43 56 43z" />
    <glyph glyph-name="uni1EA6" unicode="&#x1ea6;" horiz-adv-x="725" 
d="M467 1028l68 -111h-43l-94 111h69zM450 805l-89 92l-89 -92h-57l103 139h86l103 -139h-57zM712 0h-106l-72 195h-343l-72 -195h-106l286 743h127zM349 623l-129 -350h285l-129 350l-12 40h-3z" />
    <glyph glyph-name="uni1EA8" unicode="&#x1ea8;" horiz-adv-x="725" 
d="M493 958c-13 0 -19 -5 -19 -23h-34c0 35 19 58 55 58c33 0 53 -15 53 -43c0 -19 -11 -42 -31 -68h-41c24 28 34 47 34 62c0 10 -7 14 -17 14zM447 805l-88 91l-89 -91h-57l103 138h85l104 -138h-58zM712 0h-106l-72 195h-343l-72 -195h-106l286 743h127zM349 623
l-129 -350h285l-129 350l-12 40h-3z" />
    <glyph glyph-name="uni1EAA" unicode="&#x1eaa;" horiz-adv-x="725" 
d="M316 1022c-14 0 -23 -8 -31 -28l-36 11c11 44 30 62 62 62c40 0 67 -33 91 -33c15 0 24 9 32 28l36 -10c-11 -44 -31 -63 -62 -63c-40 0 -67 33 -92 33zM448 806l-88 92l-89 -92h-57l103 139h85l104 -139h-58zM712 0h-106l-72 195h-343l-72 -195h-106l286 743h127z
M349 623l-129 -350h285l-129 350l-12 40h-3z" />
    <glyph glyph-name="Adieresis" unicode="&#xc4;" horiz-adv-x="725" 
d="M273 801c-35 0 -53 16 -53 44c0 30 18 46 53 46c36 0 52 -16 52 -46c0 -28 -16 -44 -52 -44zM453 801c-35 0 -52 16 -52 44c0 30 17 46 52 46c37 0 53 -16 53 -46c0 -28 -16 -44 -53 -44zM712 0h-106l-72 195h-343l-72 -195h-106l286 743h127zM349 623l-129 -350h285
l-129 350l-12 40h-3z" />
    <glyph glyph-name="uni1EA0" unicode="&#x1ea0;" horiz-adv-x="725" 
d="M426 743l286 -743h-106l-72 195h-343l-72 -195h-106l286 743h127zM349 623l-129 -350h285l-129 350l-12 40h-3zM356 -48c39 0 56 -16 56 -43s-17 -42 -56 -42s-56 15 -56 42s18 43 56 43z" />
    <glyph glyph-name="Agrave" unicode="&#xc0;" horiz-adv-x="725" 
d="M358 943l97 -139h-61l-134 139h98zM712 0h-106l-72 195h-343l-72 -195h-106l286 743h127zM349 623l-129 -350h285l-129 350l-12 40h-3z" />
    <glyph glyph-name="uni1EA2" unicode="&#x1ea2;" horiz-adv-x="725" 
d="M335 866h-43c-1 44 23 72 68 72c42 0 67 -19 67 -53c0 -24 -14 -53 -39 -85h-52c31 35 43 59 43 77c0 12 -8 18 -21 18c-16 0 -23 -7 -23 -29zM712 0h-106l-72 195h-343l-72 -195h-106l286 743h127zM349 623l-129 -350h285l-129 350l-12 40h-3z" />
    <glyph glyph-name="Amacron" unicode="&#x100;" horiz-adv-x="725" 
d="M201 868h316v-64h-316v64zM712 0h-106l-72 195h-343l-72 -195h-106l286 743h127zM349 623l-129 -350h285l-129 350l-12 40h-3z" />
    <glyph glyph-name="Aogonek" unicode="&#x104;" horiz-adv-x="725" 
d="M665 -97h56c1 -53 -23 -95 -105 -95c-59 0 -95 27 -95 77s51 90 117 115h-32l-72 195h-343l-72 -195h-106l286 743h127l286 -743h-6c-71 -30 -122 -62 -122 -107c0 -21 12 -36 40 -36c29 0 40 17 41 46zM349 623l-129 -350h285l-129 350l-12 40h-3z" />
    <glyph glyph-name="Aring" unicode="&#xc5;" horiz-adv-x="725" 
d="M359 800c-72 0 -107 25 -107 75s35 76 107 76s109 -26 109 -76s-37 -75 -109 -75zM359 917c-33 0 -51 -14 -51 -42s18 -41 51 -41c34 0 52 13 52 41s-18 42 -52 42zM712 0h-106l-72 195h-343l-72 -195h-106l286 743h127zM349 623l-129 -350h285l-129 350l-12 40h-3z" />
    <glyph glyph-name="Aringacute" unicode="&#x1fa;" horiz-adv-x="725" 
d="M361 1062h69l-94 -97h-43zM360 800c-73 0 -108 25 -108 75s35 76 108 76c72 0 108 -26 108 -76s-36 -75 -108 -75zM360 917c-33 0 -52 -14 -52 -42s19 -41 52 -41s52 13 52 41s-19 42 -52 42zM712 0h-106l-72 195h-343l-72 -195h-106l286 743h127zM349 623l-129 -350h285
l-129 350l-12 40h-3z" />
    <glyph glyph-name="Atilde" unicode="&#xc3;" horiz-adv-x="725" 
d="M298 847c-21 0 -33 -12 -45 -40l-51 15c16 63 43 89 89 89c56 0 95 -47 130 -47c21 0 34 12 46 40l51 -15c-16 -63 -44 -90 -89 -90c-56 0 -95 48 -131 48zM712 0h-106l-72 195h-343l-72 -195h-106l286 743h127zM349 623l-129 -350h285l-129 350l-12 40h-3z" />
    <glyph glyph-name="AEacute" unicode="&#x1fc;" horiz-adv-x="995" 
d="M705 943h98l-134 -139h-62zM561 343v-263h401v-80h-499v213h-235l-111 -213h-104l391 743h556v-81h-399v-242h360v-77h-360zM448 634l-180 -345h195v378h-4z" />
    <glyph glyph-name="Cacute" unicode="&#x106;" horiz-adv-x="751" 
d="M487 943l-134 -139h-62l98 139h98zM380 -14c-211 0 -329 129 -329 381v9c0 252 118 380 330 380c210 0 312 -132 320 -275v-2h-98v2c-9 98 -79 189 -222 189c-146 0 -230 -97 -230 -290v-16c0 -195 84 -292 230 -292c130 0 217 70 224 192v4h98v-3
c-8 -148 -108 -279 -323 -279z" />
    <glyph glyph-name="Ccaron" unicode="&#x10c;" horiz-adv-x="751" 
d="M335 802l-103 139h57l89 -92l88 92h58l-104 -139h-85zM380 -14c-211 0 -329 129 -329 381v9c0 252 118 380 330 380c210 0 312 -132 320 -275v-2h-98v2c-9 98 -79 189 -222 189c-146 0 -230 -97 -230 -290v-16c0 -195 84 -292 230 -292c130 0 217 70 224 192v4h98v-3
c-8 -148 -108 -279 -323 -279z" />
    <glyph glyph-name="Ccedilla" unicode="&#xc7;" horiz-adv-x="751" 
d="M605 264v4h98v-3c-8 -145 -103 -273 -308 -279l-11 -31c32 6 86 -9 86 -65c0 -47 -36 -78 -94 -78c-57 0 -99 22 -100 83h54c0 -32 19 -41 46 -41c22 0 37 13 37 39s-22 42 -55 32l-21 15l16 47c-194 10 -302 139 -302 380v9c0 252 118 380 330 380
c210 0 312 -132 320 -275v-2h-98v2c-9 98 -79 189 -222 189c-146 0 -230 -97 -230 -290v-16c0 -195 84 -292 230 -292c130 0 217 70 224 192z" />
    <glyph glyph-name="Ccircumflex" unicode="&#x108;" horiz-adv-x="751" 
d="M289 805h-57l103 138h85l104 -138h-58l-88 91zM380 -14c-211 0 -329 129 -329 381v9c0 252 118 380 330 380c210 0 312 -132 320 -275v-2h-98v2c-9 98 -79 189 -222 189c-146 0 -230 -97 -230 -290v-16c0 -195 84 -292 230 -292c130 0 217 70 224 192v4h98v-3
c-8 -148 -108 -279 -323 -279z" />
    <glyph glyph-name="Cdotaccent" unicode="&#x10a;" horiz-adv-x="751" 
d="M378 800c-33 0 -48 15 -48 42c0 26 15 42 48 42c34 0 48 -16 48 -42c0 -27 -14 -42 -48 -42zM380 -14c-211 0 -329 129 -329 381v9c0 252 118 380 330 380c210 0 312 -132 320 -275v-2h-98v2c-9 98 -79 189 -222 189c-146 0 -230 -97 -230 -290v-16
c0 -195 84 -292 230 -292c130 0 217 70 224 192v4h98v-3c-8 -148 -108 -279 -323 -279z" />
    <glyph glyph-name="Dcaron" unicode="&#x10e;" horiz-adv-x="771" 
d="M344 802l-103 139h57l89 -92l88 92h58l-104 -139h-85zM388 0h-290v743h289c225 0 333 -125 333 -363v-7c0 -243 -105 -373 -332 -373zM197 660v-577h178c161 0 246 89 246 284v19c0 189 -85 274 -246 274h-178z" />
    <glyph glyph-name="Dcroat" unicode="&#x110;" horiz-adv-x="771" 
d="M98 743h289c225 0 333 -125 333 -363v-7c0 -243 -105 -373 -332 -373h-290v337h-103v69h103v337zM621 367v19c0 189 -85 274 -246 274h-178v-254h165v-69h-165v-254h178c161 0 246 89 246 284z" />
    <glyph glyph-name="uni1E0C" unicode="&#x1e0c;" horiz-adv-x="771" 
d="M388 0h-290v743h289c225 0 333 -125 333 -363v-7c0 -243 -105 -373 -332 -373zM197 660v-577h178c161 0 246 89 246 284v19c0 189 -85 274 -246 274h-178zM389 -133c-39 0 -56 15 -56 42s18 43 56 43c39 0 56 -16 56 -43s-17 -42 -56 -42z" />
    <glyph glyph-name="uni1E0E" unicode="&#x1e0e;" horiz-adv-x="771" 
d="M388 0h-290v743h289c225 0 333 -125 333 -363v-7c0 -243 -105 -373 -332 -373zM197 660v-577h178c161 0 246 89 246 284v19c0 189 -85 274 -246 274h-178zM543 -116h-316v57h316v-57z" />
    <glyph glyph-name="Eacute" unicode="&#xc9;" horiz-adv-x="647" 
d="M441 943l-134 -139h-62l98 139h98zM614 0h-516v743h512v-84h-413v-239h373v-78h-373v-258h417v-84z" />
    <glyph glyph-name="Ebreve" unicode="&#x114;" horiz-adv-x="647" 
d="M332 801c-98 0 -139 50 -134 139h60c-4 -57 18 -85 74 -85c55 0 77 28 74 85h60c5 -90 -37 -139 -134 -139zM614 0h-516v743h512v-84h-413v-239h373v-78h-373v-258h417v-84z" />
    <glyph glyph-name="Ecaron" unicode="&#x11a;" horiz-adv-x="647" 
d="M289 802l-103 139h57l89 -92l88 92h58l-104 -139h-85zM614 0h-516v743h512v-84h-413v-239h373v-78h-373v-258h417v-84z" />
    <glyph glyph-name="Ecircumflex" unicode="&#xca;" horiz-adv-x="647" 
d="M243 805h-57l103 138h85l104 -138h-58l-88 91zM614 0h-516v743h512v-84h-413v-239h373v-78h-373v-258h417v-84z" />
    <glyph glyph-name="uni1EBE" unicode="&#x1ebe;" horiz-adv-x="647" 
d="M585 984l-92 -111l-43 -1l66 112h69zM242 805h-57l103 139h85l104 -139h-58l-88 92zM614 0h-516v743h512v-84h-413v-239h373v-78h-373v-258h417v-84z" />
    <glyph glyph-name="uni1EC6" unicode="&#x1ec6;" horiz-adv-x="647" 
d="M243 805h-57l103 138h85l104 -138h-58l-88 91zM614 0h-516v743h512v-84h-413v-239h373v-78h-373v-258h417v-84zM350 -133c-39 0 -56 15 -56 42s18 43 56 43c39 0 56 -16 56 -43s-17 -42 -56 -42z" />
    <glyph glyph-name="uni1EC0" unicode="&#x1ec0;" horiz-adv-x="647" 
d="M506 917h-43l-94 111h69zM375 944l103 -139h-57l-89 92l-89 -92h-57l103 139h86zM614 0h-516v743h512v-84h-413v-239h373v-78h-373v-258h417v-84z" />
    <glyph glyph-name="uni1EC2" unicode="&#x1ec2;" horiz-adv-x="647" 
d="M489 882h-41c24 28 34 47 34 62c0 10 -7 14 -17 14c-13 0 -19 -5 -19 -23h-34c0 35 19 58 55 58c33 0 53 -15 53 -43c0 -19 -11 -42 -31 -68zM242 805h-57l103 138h85l104 -138h-58l-88 91zM614 0h-516v743h512v-84h-413v-239h373v-78h-373v-258h417v-84z" />
    <glyph glyph-name="uni1EC4" unicode="&#x1ec4;" horiz-adv-x="647" 
d="M380 989c-40 0 -67 33 -92 33c-14 0 -23 -8 -31 -28l-36 11c11 44 30 62 62 62c40 0 67 -33 91 -33c15 0 24 9 32 28l36 -10c-11 -44 -31 -63 -62 -63zM243 806h-57l103 139h85l104 -139h-58l-88 92zM614 0h-516v743h512v-84h-413v-239h373v-78h-373v-258h417v-84z" />
    <glyph glyph-name="Edieresis" unicode="&#xcb;" horiz-adv-x="647" 
d="M244 801c-35 0 -53 16 -53 44c0 30 18 46 53 46c36 0 52 -16 52 -46c0 -28 -16 -44 -52 -44zM424 801c-35 0 -52 16 -52 44c0 30 17 46 52 46c37 0 53 -16 53 -46c0 -28 -16 -44 -53 -44zM614 0h-516v743h512v-84h-413v-239h373v-78h-373v-258h417v-84z" />
    <glyph glyph-name="Edotaccent" unicode="&#x116;" horiz-adv-x="647" 
d="M332 800c-33 0 -48 15 -48 42c0 26 15 42 48 42c34 0 48 -16 48 -42c0 -27 -14 -42 -48 -42zM614 0h-516v743h512v-84h-413v-239h373v-78h-373v-258h417v-84z" />
    <glyph glyph-name="uni1EB8" unicode="&#x1eb8;" horiz-adv-x="647" 
d="M614 0h-516v743h512v-84h-413v-239h373v-78h-373v-258h417v-84zM350 -133c-39 0 -56 15 -56 42s18 43 56 43c39 0 56 -16 56 -43s-17 -42 -56 -42z" />
    <glyph glyph-name="Egrave" unicode="&#xc8;" horiz-adv-x="647" 
d="M426 804h-61l-134 139h98zM614 0h-516v743h512v-84h-413v-239h373v-78h-373v-258h417v-84z" />
    <glyph glyph-name="uni1EBA" unicode="&#x1eba;" horiz-adv-x="647" 
d="M360 800h-52c31 35 43 59 43 77c0 12 -8 18 -21 18c-16 0 -23 -7 -23 -29h-43c-1 44 23 72 68 72c42 0 67 -19 67 -53c0 -24 -14 -53 -39 -85zM614 0h-516v743h512v-84h-413v-239h373v-78h-373v-258h417v-84z" />
    <glyph glyph-name="Emacron" unicode="&#x112;" horiz-adv-x="647" 
d="M488 804h-316v64h316v-64zM614 0h-516v743h512v-84h-413v-239h373v-78h-373v-258h417v-84z" />
    <glyph glyph-name="Eogonek" unicode="&#x118;" horiz-adv-x="647" 
d="M571 -97h56c1 -53 -23 -95 -105 -95c-59 0 -95 27 -95 77s51 90 117 115h-446v743h512v-84h-413v-239h373v-78h-373v-258h417v-84h-2c-71 -30 -122 -62 -122 -107c0 -21 12 -36 40 -36c29 0 40 17 41 46z" />
    <glyph glyph-name="uni1EBC" unicode="&#x1ebc;" horiz-adv-x="647" 
d="M401 799c-56 0 -95 48 -131 48c-21 0 -33 -12 -45 -40l-51 15c16 63 43 89 89 89c56 0 95 -47 130 -47c21 0 34 12 46 40l51 -15c-16 -63 -44 -90 -89 -90zM614 0h-516v743h512v-84h-413v-239h373v-78h-373v-258h417v-84z" />
    <glyph glyph-name="Gbreve" unicode="&#x11e;" horiz-adv-x="753" 
d="M378 801c-98 0 -139 50 -134 139h60c-4 -57 18 -85 74 -85c55 0 77 28 74 85h60c5 -90 -37 -139 -134 -139zM386 -14c-216 0 -335 128 -335 378v12c0 252 119 380 335 380c203 0 310 -123 315 -261v-3h-99v3c-5 92 -80 175 -217 175c-150 0 -234 -96 -234 -290v-20
c0 -192 85 -288 235 -288c124 0 213 69 219 217v6h-238v83h336v-47c0 -210 -104 -345 -317 -345z" />
    <glyph glyph-name="Gcaron" unicode="&#x1e6;" horiz-adv-x="753" 
d="M335 802l-103 139h57l89 -92l88 92h58l-104 -139h-85zM386 -14c-216 0 -335 128 -335 378v12c0 252 119 380 335 380c203 0 310 -123 315 -261v-3h-99v3c-5 92 -80 175 -217 175c-150 0 -234 -96 -234 -290v-20c0 -192 85 -288 235 -288c124 0 213 69 219 217v6h-238v83
h336v-47c0 -210 -104 -345 -317 -345z" />
    <glyph glyph-name="Gcircumflex" unicode="&#x11c;" horiz-adv-x="753" 
d="M289 805h-57l103 138h85l104 -138h-58l-88 91zM386 -14c-216 0 -335 128 -335 378v12c0 252 119 380 335 380c203 0 310 -123 315 -261v-3h-99v3c-5 92 -80 175 -217 175c-150 0 -234 -96 -234 -290v-20c0 -192 85 -288 235 -288c124 0 213 69 219 217v6h-238v83h336v-47
c0 -210 -104 -345 -317 -345z" />
    <glyph glyph-name="uni0122" unicode="&#x122;" horiz-adv-x="753" 
d="M386 -14c-216 0 -335 128 -335 378v12c0 252 119 380 335 380c203 0 310 -123 315 -261v-3h-99v3c-5 92 -80 175 -217 175c-150 0 -234 -96 -234 -290v-20c0 -192 85 -288 235 -288c124 0 213 69 219 217v6h-238v83h336v-47c0 -210 -104 -345 -317 -345zM322 -177v29
c38 -1 50 7 51 34c-39 0 -59 10 -59 34s19 34 56 34c42 0 61 -12 61 -39c0 -81 -47 -96 -109 -92z" />
    <glyph glyph-name="Gdotaccent" unicode="&#x120;" horiz-adv-x="753" 
d="M379 800c-33 0 -48 15 -48 42c0 26 15 42 48 42c34 0 48 -16 48 -42c0 -27 -14 -42 -48 -42zM386 -14c-216 0 -335 128 -335 378v12c0 252 119 380 335 380c203 0 310 -123 315 -261v-3h-99v3c-5 92 -80 175 -217 175c-150 0 -234 -96 -234 -290v-20
c0 -192 85 -288 235 -288c124 0 213 69 219 217v6h-238v83h336v-47c0 -210 -104 -345 -317 -345z" />
    <glyph glyph-name="uni1E20" unicode="&#x1e20;" horiz-adv-x="753" 
d="M535 804h-316v64h316v-64zM386 -14c-216 0 -335 128 -335 378v12c0 252 119 380 335 380c203 0 310 -123 315 -261v-3h-99v3c-5 92 -80 175 -217 175c-150 0 -234 -96 -234 -290v-20c0 -192 85 -288 235 -288c124 0 213 69 219 217v6h-238v83h336v-47
c0 -210 -104 -345 -317 -345z" />
    <glyph glyph-name="Hbar" unicode="&#x126;" horiz-adv-x="801" 
d="M704 609h68v-56h-68v-553h-99v335h-408v-335h-99v553h-57v56h57v134h99v-134h408v134h99v-134zM197 419h408v134h-408v-134z" />
    <glyph glyph-name="uni1E2A" unicode="&#x1e2a;" horiz-adv-x="801" 
d="M605 419v324h99v-743h-99v335h-408v-335h-99v743h99v-324h408zM465 -41h49c4 -67 -30 -104 -110 -104c-81 0 -114 37 -110 104h49c-3 -42 15 -64 61 -64c45 0 63 22 61 64z" />
    <glyph glyph-name="Hcircumflex" unicode="&#x124;" horiz-adv-x="801" 
d="M488 805l-88 91l-89 -91h-57l103 138h85l104 -138h-58zM605 419v324h99v-743h-99v335h-408v-335h-99v743h99v-324h408z" />
    <glyph glyph-name="uni1E24" unicode="&#x1e24;" horiz-adv-x="801" 
d="M605 419v324h99v-743h-99v335h-408v-335h-99v743h99v-324h408zM402 -48c39 0 56 -16 56 -43s-17 -42 -56 -42s-56 15 -56 42s18 43 56 43z" />
    <glyph glyph-name="IJ" unicode="&#x132;" horiz-adv-x="825" 
d="M197 0h-99v743h99v-743zM751 743v-461c0 -229 -100 -296 -279 -296c-64 0 -125 10 -166 22l6 81c43 -12 106 -22 159 -22c122 0 181 55 181 217v375h-306v84h405z" />
    <glyph glyph-name="Iacute" unicode="&#xcd;" horiz-adv-x="294" 
d="M258 943l-134 -139h-62l98 139h98zM197 0h-99v743h99v-743z" />
    <glyph glyph-name="Ibreve" unicode="&#x12c;" horiz-adv-x="294" 
d="M148 801c-98 0 -139 50 -134 139h60c-4 -57 18 -85 74 -85c55 0 77 28 74 85h60c5 -90 -37 -139 -134 -139zM197 0h-99v743h99v-743z" />
    <glyph glyph-name="uni01CF" unicode="&#x1cf;" horiz-adv-x="294" 
d="M105 802l-103 139h57l89 -92l88 92h58l-104 -139h-85zM197 0h-99v743h99v-743z" />
    <glyph glyph-name="Icircumflex" unicode="&#xce;" horiz-adv-x="294" 
d="M59 805h-57l103 138h85l104 -138h-58l-88 91zM197 0h-99v743h99v-743z" />
    <glyph glyph-name="Idieresis" unicode="&#xcf;" horiz-adv-x="294" 
d="M60 801c-35 0 -53 16 -53 44c0 30 18 46 53 46c36 0 52 -16 52 -46c0 -28 -16 -44 -52 -44zM240 801c-35 0 -52 16 -52 44c0 30 17 46 52 46c37 0 53 -16 53 -46c0 -28 -16 -44 -53 -44zM197 0h-99v743h99v-743z" />
    <glyph glyph-name="Idotaccent" unicode="&#x130;" horiz-adv-x="294" 
d="M149 800c-33 0 -48 15 -48 42c0 26 15 42 48 42c34 0 48 -16 48 -42c0 -27 -14 -42 -48 -42zM197 0h-99v743h99v-743z" />
    <glyph glyph-name="uni1ECA" unicode="&#x1eca;" horiz-adv-x="294" 
d="M197 0h-99v743h99v-743zM151 -133c-39 0 -56 15 -56 42s18 43 56 43c39 0 56 -16 56 -43s-17 -42 -56 -42z" />
    <glyph glyph-name="Igrave" unicode="&#xcc;" horiz-adv-x="294" 
d="M243 804h-61l-134 139h98zM197 0h-99v743h99v-743z" />
    <glyph glyph-name="uni1EC8" unicode="&#x1ec8;" horiz-adv-x="294" 
d="M176 800h-52c31 35 43 59 43 77c0 12 -8 18 -21 18c-16 0 -23 -7 -23 -29h-43c-1 44 23 72 68 72c42 0 67 -19 67 -53c0 -24 -14 -53 -39 -85zM197 0h-99v743h99v-743z" />
    <glyph glyph-name="Imacron" unicode="&#x12a;" horiz-adv-x="294" 
d="M304 804h-317v64h317v-64zM197 0h-99v743h99v-743z" />
    <glyph glyph-name="Iogonek" unicode="&#x12e;" horiz-adv-x="294" 
d="M197 0h-18c-71 -30 -122 -62 -122 -107c0 -21 12 -36 40 -36c29 0 40 17 41 46h56c1 -53 -23 -95 -105 -95c-59 0 -96 27 -96 77s52 90 118 115h-13v743h99v-743z" />
    <glyph glyph-name="Itilde" unicode="&#x128;" horiz-adv-x="294" 
d="M217 799c-56 0 -95 48 -131 48c-21 0 -33 -12 -45 -40l-52 15c17 63 44 89 90 89c56 0 95 -47 130 -47c21 0 34 12 46 40l51 -15c-16 -63 -44 -90 -89 -90zM197 0h-99v743h99v-743z" />
    <glyph glyph-name="Jcircumflex" unicode="&#x134;" horiz-adv-x="531" 
d="M374 943h85l104 -138h-58l-88 91l-89 -91h-57zM52 743h405v-461c0 -229 -100 -296 -279 -296c-64 0 -125 10 -166 22l6 81c43 -12 106 -22 159 -22c122 0 181 55 181 217v375h-306v84z" />
    <glyph glyph-name="uni0136" unicode="&#x136;" horiz-adv-x="707" 
d="M197 0h-99v743h99v-322h133l210 322h114l-241 -360v-5l278 -378h-115l-246 339h-133v-339zM298 -177v29c38 -1 50 7 51 34c-39 0 -59 10 -59 34s19 34 56 34c42 0 61 -12 61 -39c0 -81 -47 -96 -109 -92z" />
    <glyph glyph-name="Lacute" unicode="&#x139;" horiz-adv-x="605" 
d="M262 943l-134 -139h-62l98 139h98zM583 0h-485v743h99v-659h386v-84z" />
    <glyph glyph-name="Lcaron" unicode="&#x13d;" horiz-adv-x="595" 
d="M583 0h-485v743h99v-659h386v-84zM530 743l-6 -230h-55l-6 230h67z" />
    <glyph glyph-name="uni013B" unicode="&#x13b;" horiz-adv-x="605" 
d="M583 0h-485v743h99v-659h386v-84zM252 -177v29c38 -1 50 7 51 34c-39 0 -59 10 -59 34s19 34 56 34c42 0 61 -12 61 -39c0 -81 -47 -96 -109 -92z" />
    <glyph glyph-name="Ldot" unicode="&#x13f;" horiz-adv-x="605" 
d="M583 0h-485v743h99v-659h386v-84zM429 394c-37 0 -55 15 -55 47s19 48 55 48c37 0 56 -16 56 -48s-19 -47 -56 -47z" />
    <glyph glyph-name="uni1E36" unicode="&#x1e36;" horiz-adv-x="605" 
d="M583 0h-485v743h99v-659h386v-84zM311 -133c-39 0 -56 15 -56 42s18 43 56 43c39 0 56 -16 56 -43s-17 -42 -56 -42z" />
    <glyph glyph-name="uni1E38" unicode="&#x1e38;" horiz-adv-x="605" 
d="M308 804h-317v64h317v-64zM583 0h-485v743h99v-659h386v-84zM311 -133c-39 0 -56 15 -56 42s18 43 56 43c39 0 56 -16 56 -43s-17 -42 -56 -42z" />
    <glyph glyph-name="uni1E3A" unicode="&#x1e3a;" horiz-adv-x="605" 
d="M583 0h-485v743h99v-659h386v-84zM465 -116h-316v57h316v-57z" />
    <glyph glyph-name="Lslash" unicode="&#x141;" horiz-adv-x="587" 
d="M179 374v-290h386v-84h-485v330l-56 -25l-20 45l76 33v360h99v-316l86 38l21 -44z" />
    <glyph glyph-name="uni1E42" unicode="&#x1e42;" horiz-adv-x="946" 
d="M195 0h-97v743h130l232 -492l13 -35h1l13 35l231 492h131v-743h-97v564l1 47h-1l-15 -36l-221 -464h-86l-221 464l-14 36h-1l1 -47v-564zM472 -133c-39 0 -56 15 -56 42s18 43 56 43c39 0 56 -16 56 -43s-17 -42 -56 -42z" />
    <glyph glyph-name="Nacute" unicode="&#x143;" horiz-adv-x="819" 
d="M519 943l-134 -139h-62l98 139h98zM195 0h-97v743h112l396 -575l18 -30v605h97v-743h-112l-396 575l-18 30v-605z" />
    <glyph glyph-name="Ncaron" unicode="&#x147;" horiz-adv-x="819" 
d="M367 802l-103 139h57l89 -92l88 92h58l-104 -139h-85zM195 0h-97v743h112l396 -575l18 -30v605h97v-743h-112l-396 575l-18 30v-605z" />
    <glyph glyph-name="uni0145" unicode="&#x145;" horiz-adv-x="819" 
d="M195 0h-97v743h112l396 -575l18 -30v605h97v-743h-112l-396 575l-18 30v-605zM353 -177v29c38 -1 50 7 51 34c-39 0 -59 10 -59 34s19 34 56 34c42 0 61 -12 61 -39c0 -81 -47 -96 -109 -92z" />
    <glyph glyph-name="uni1E44" unicode="&#x1e44;" horiz-adv-x="819" 
d="M410 800c-33 0 -48 15 -48 42c0 26 15 42 48 42c34 0 48 -16 48 -42c0 -27 -14 -42 -48 -42zM195 0h-97v743h112l396 -575l18 -30v605h97v-743h-112l-396 575l-18 30v-605z" />
    <glyph glyph-name="uni1E46" unicode="&#x1e46;" horiz-adv-x="819" 
d="M195 0h-97v743h112l396 -575l18 -30v605h97v-743h-112l-396 575l-18 30v-605zM412 -133c-39 0 -56 15 -56 42s18 43 56 43c39 0 56 -16 56 -43s-17 -42 -56 -42z" />
    <glyph glyph-name="uni019D" unicode="&#x19d;" horiz-adv-x="819" 
d="M624 743h97v-743h-112l-396 575l-18 30v-605h-6c0 -125 -69 -187 -209 -187v55c81 0 118 43 118 132v743h112l396 -575l18 -30v605z" />
    <glyph glyph-name="uni1E48" unicode="&#x1e48;" horiz-adv-x="819" 
d="M195 0h-97v743h112l396 -575l18 -30v605h97v-743h-112l-396 575l-18 30v-605zM566 -116h-316v57h316v-57z" />
    <glyph glyph-name="Ntilde" unicode="&#xd1;" horiz-adv-x="819" 
d="M479 799c-56 0 -95 48 -131 48c-21 0 -33 -12 -45 -40l-51 15c16 63 43 89 89 89c56 0 95 -47 130 -47c21 0 34 12 46 40l51 -15c-16 -63 -44 -90 -89 -90zM195 0h-97v743h112l396 -575l18 -30v605h97v-743h-112l-396 575l-18 30v-605z" />
    <glyph glyph-name="Eng" unicode="&#x14a;" horiz-adv-x="819" 
d="M624 743h97v-743c0 -125 -76 -187 -244 -187v56c103 0 157 46 157 131h-25l-396 575l-18 30v-605h-97v743h112l396 -575l18 -30v605z" />
    <glyph glyph-name="Oacute" unicode="&#xd3;" horiz-adv-x="777" 
d="M504 943l-134 -139h-62l98 139h98zM389 -14c-217 0 -338 129 -338 383v9c0 251 121 378 337 378c218 0 338 -127 338 -378v-9c0 -254 -120 -383 -337 -383zM389 72c152 0 237 98 237 294v15c0 193 -85 289 -237 289c-153 0 -238 -96 -238 -289v-15
c0 -196 85 -294 238 -294z" />
    <glyph glyph-name="Obreve" unicode="&#x14e;" horiz-adv-x="777" 
d="M394 801c-98 0 -139 50 -134 139h60c-4 -57 18 -85 74 -85c55 0 77 28 74 85h60c5 -90 -37 -139 -134 -139zM389 -14c-217 0 -338 129 -338 383v9c0 251 121 378 337 378c218 0 338 -127 338 -378v-9c0 -254 -120 -383 -337 -383zM389 72c152 0 237 98 237 294v15
c0 193 -85 289 -237 289c-153 0 -238 -96 -238 -289v-15c0 -196 85 -294 238 -294z" />
    <glyph glyph-name="uni01D1" unicode="&#x1d1;" horiz-adv-x="777" 
d="M351 802l-103 139h57l89 -92l88 92h58l-104 -139h-85zM389 -14c-217 0 -338 129 -338 383v9c0 251 121 378 337 378c218 0 338 -127 338 -378v-9c0 -254 -120 -383 -337 -383zM389 72c152 0 237 98 237 294v15c0 193 -85 289 -237 289c-153 0 -238 -96 -238 -289v-15
c0 -196 85 -294 238 -294z" />
    <glyph glyph-name="Ocircumflex" unicode="&#xd4;" horiz-adv-x="777" 
d="M305 805h-57l103 138h85l104 -138h-58l-88 91zM389 -14c-217 0 -338 129 -338 383v9c0 251 121 378 337 378c218 0 338 -127 338 -378v-9c0 -254 -120 -383 -337 -383zM389 72c152 0 237 98 237 294v15c0 193 -85 289 -237 289c-153 0 -238 -96 -238 -289v-15
c0 -196 85 -294 238 -294z" />
    <glyph glyph-name="uni1ED0" unicode="&#x1ed0;" horiz-adv-x="777" 
d="M648 984l-92 -111l-43 -1l66 112h69zM305 805h-57l103 139h85l104 -139h-58l-88 92zM389 -14c-217 0 -338 129 -338 383v9c0 251 121 378 337 378c218 0 338 -127 338 -378v-9c0 -254 -120 -383 -337 -383zM389 72c152 0 237 98 237 294v15c0 193 -85 289 -237 289
c-153 0 -238 -96 -238 -289v-15c0 -196 85 -294 238 -294z" />
    <glyph glyph-name="uni1ED8" unicode="&#x1ed8;" horiz-adv-x="777" 
d="M305 805h-57l103 138h85l104 -138h-58l-88 91zM389 -14c-217 0 -338 129 -338 383v9c0 251 121 378 337 378c218 0 338 -127 338 -378v-9c0 -254 -120 -383 -337 -383zM389 72c152 0 237 98 237 294v15c0 193 -85 289 -237 289c-153 0 -238 -96 -238 -289v-15
c0 -196 85 -294 238 -294zM397 -133c-39 0 -56 15 -56 42s18 43 56 43c39 0 56 -16 56 -43s-17 -42 -56 -42z" />
    <glyph glyph-name="uni1ED2" unicode="&#x1ed2;" horiz-adv-x="777" 
d="M569 917h-43l-94 111h69zM438 944l103 -139h-57l-89 92l-89 -92h-57l103 139h86zM389 -14c-217 0 -338 129 -338 383v9c0 251 121 378 337 378c218 0 338 -127 338 -378v-9c0 -254 -120 -383 -337 -383zM389 72c152 0 237 98 237 294v15c0 193 -85 289 -237 289
c-153 0 -238 -96 -238 -289v-15c0 -196 85 -294 238 -294z" />
    <glyph glyph-name="uni1ED4" unicode="&#x1ed4;" horiz-adv-x="777" 
d="M551 882h-41c24 28 34 47 34 62c0 10 -7 14 -17 14c-13 0 -19 -5 -19 -23h-34c0 35 19 58 55 58c33 0 53 -15 53 -43c0 -19 -11 -42 -31 -68zM304 805h-57l103 138h85l104 -138h-58l-88 91zM389 -14c-217 0 -338 129 -338 383v9c0 251 121 378 337 378
c218 0 338 -127 338 -378v-9c0 -254 -120 -383 -337 -383zM389 72c152 0 237 98 237 294v15c0 193 -85 289 -237 289c-153 0 -238 -96 -238 -289v-15c0 -196 85 -294 238 -294z" />
    <glyph glyph-name="uni1ED6" unicode="&#x1ed6;" horiz-adv-x="777" 
d="M442 989c-40 0 -67 33 -92 33c-14 0 -23 -8 -31 -28l-36 11c11 44 30 62 62 62c40 0 67 -33 91 -33c15 0 24 9 32 28l36 -10c-11 -44 -31 -63 -62 -63zM305 806h-57l103 139h85l104 -139h-58l-88 92zM389 -14c-217 0 -338 129 -338 383v9c0 251 121 378 337 378
c218 0 338 -127 338 -378v-9c0 -254 -120 -383 -337 -383zM389 72c152 0 237 98 237 294v15c0 193 -85 289 -237 289c-153 0 -238 -96 -238 -289v-15c0 -196 85 -294 238 -294z" />
    <glyph glyph-name="Odieresis" unicode="&#xd6;" horiz-adv-x="777" 
d="M307 801c-35 0 -53 16 -53 44c0 30 18 46 53 46c36 0 52 -16 52 -46c0 -28 -16 -44 -52 -44zM487 801c-35 0 -52 16 -52 44c0 30 17 46 52 46c37 0 53 -16 53 -46c0 -28 -16 -44 -53 -44zM389 -14c-217 0 -338 129 -338 383v9c0 251 121 378 337 378
c218 0 338 -127 338 -378v-9c0 -254 -120 -383 -337 -383zM389 72c152 0 237 98 237 294v15c0 193 -85 289 -237 289c-153 0 -238 -96 -238 -289v-15c0 -196 85 -294 238 -294z" />
    <glyph glyph-name="uni1ECC" unicode="&#x1ecc;" horiz-adv-x="777" 
d="M389 -14c-217 0 -338 129 -338 383v9c0 251 121 378 337 378c218 0 338 -127 338 -378v-9c0 -254 -120 -383 -337 -383zM389 72c152 0 237 98 237 294v15c0 193 -85 289 -237 289c-153 0 -238 -96 -238 -289v-15c0 -196 85 -294 238 -294zM397 -133c-39 0 -56 15 -56 42
s18 43 56 43c39 0 56 -16 56 -43s-17 -42 -56 -42z" />
    <glyph glyph-name="Ograve" unicode="&#xd2;" horiz-adv-x="777" 
d="M489 804h-61l-134 139h98zM389 -14c-217 0 -338 129 -338 383v9c0 251 121 378 337 378c218 0 338 -127 338 -378v-9c0 -254 -120 -383 -337 -383zM389 72c152 0 237 98 237 294v15c0 193 -85 289 -237 289c-153 0 -238 -96 -238 -289v-15c0 -196 85 -294 238 -294z" />
    <glyph glyph-name="uni1ECE" unicode="&#x1ece;" horiz-adv-x="777" 
d="M422 800h-52c31 35 43 59 43 77c0 12 -8 18 -21 18c-16 0 -23 -7 -23 -29h-43c-1 44 23 72 68 72c42 0 67 -19 67 -53c0 -24 -14 -53 -39 -85zM389 -14c-217 0 -338 129 -338 383v9c0 251 121 378 337 378c218 0 338 -127 338 -378v-9c0 -254 -120 -383 -337 -383z
M389 72c152 0 237 98 237 294v15c0 193 -85 289 -237 289c-153 0 -238 -96 -238 -289v-15c0 -196 85 -294 238 -294z" />
    <glyph glyph-name="Ohorn" unicode="&#x1a0;" horiz-adv-x="777" 
d="M573 713c100 -56 153 -168 153 -335v-9c0 -254 -120 -383 -337 -383s-338 129 -338 383v9c0 251 121 378 337 378c32 0 61 -3 88 -8c78 1 121 26 103 111l64 6c17 -84 -11 -131 -70 -152zM626 366v15c0 193 -85 289 -237 289c-153 0 -238 -96 -238 -289v-15
c0 -196 85 -294 238 -294c152 0 237 98 237 294z" />
    <glyph glyph-name="uni1EDA" unicode="&#x1eda;" horiz-adv-x="777" 
d="M394 943h98l-134 -139h-62zM573 713c100 -56 153 -168 153 -335v-9c0 -254 -120 -383 -337 -383s-338 129 -338 383v9c0 251 121 378 337 378c32 0 61 -3 88 -8c78 1 121 26 103 111l64 6c17 -84 -11 -131 -70 -152zM626 366v15c0 193 -85 289 -237 289
c-153 0 -238 -96 -238 -289v-15c0 -196 85 -294 238 -294c152 0 237 98 237 294z" />
    <glyph glyph-name="uni1EE2" unicode="&#x1ee2;" horiz-adv-x="777" 
d="M573 713c100 -56 153 -168 153 -335v-9c0 -254 -120 -383 -337 -383s-338 129 -338 383v9c0 251 121 378 337 378c32 0 61 -3 88 -8c78 1 121 26 103 111l64 6c17 -84 -11 -131 -70 -152zM626 366v15c0 193 -85 289 -237 289c-153 0 -238 -96 -238 -289v-15
c0 -196 85 -294 238 -294c152 0 237 98 237 294zM385 -48c39 0 56 -16 56 -43s-17 -42 -56 -42s-56 15 -56 42s18 43 56 43z" />
    <glyph glyph-name="uni1EDC" unicode="&#x1edc;" horiz-adv-x="777" 
d="M380 943l97 -139h-61l-134 139h98zM573 713c100 -56 153 -168 153 -335v-9c0 -254 -120 -383 -337 -383s-338 129 -338 383v9c0 251 121 378 337 378c32 0 61 -3 88 -8c78 1 121 26 103 111l64 6c17 -84 -11 -131 -70 -152zM626 366v15c0 193 -85 289 -237 289
c-153 0 -238 -96 -238 -289v-15c0 -196 85 -294 238 -294c152 0 237 98 237 294z" />
    <glyph glyph-name="uni1EDE" unicode="&#x1ede;" horiz-adv-x="777" 
d="M357 866h-43c-1 44 23 72 68 72c42 0 67 -19 67 -53c0 -24 -14 -53 -39 -85h-52c31 35 43 59 43 77c0 12 -8 18 -21 18c-16 0 -23 -7 -23 -29zM573 713c100 -56 153 -168 153 -335v-9c0 -254 -120 -383 -337 -383s-338 129 -338 383v9c0 251 121 378 337 378
c32 0 61 -3 88 -8c78 1 121 26 103 111l64 6c17 -84 -11 -131 -70 -152zM626 366v15c0 193 -85 289 -237 289c-153 0 -238 -96 -238 -289v-15c0 -196 85 -294 238 -294c152 0 237 98 237 294z" />
    <glyph glyph-name="uni1EE0" unicode="&#x1ee0;" horiz-adv-x="777" 
d="M320 847c-21 0 -33 -12 -45 -40l-51 15c16 63 43 89 89 89c56 0 95 -47 130 -47c21 0 34 12 46 40l51 -15c-16 -63 -44 -90 -89 -90c-56 0 -95 48 -131 48zM573 713c100 -56 153 -168 153 -335v-9c0 -254 -120 -383 -337 -383s-338 129 -338 383v9c0 251 121 378 337 378
c32 0 61 -3 88 -8c78 1 121 26 103 111l64 6c17 -84 -11 -131 -70 -152zM626 366v15c0 193 -85 289 -237 289c-153 0 -238 -96 -238 -289v-15c0 -196 85 -294 238 -294c152 0 237 98 237 294z" />
    <glyph glyph-name="Ohungarumlaut" unicode="&#x150;" horiz-adv-x="777" 
d="M460 943l-131 -138h-59l95 138h95zM602 943l-131 -138h-59l95 138h95zM389 -14c-217 0 -338 129 -338 383v9c0 251 121 378 337 378c218 0 338 -127 338 -378v-9c0 -254 -120 -383 -337 -383zM389 72c152 0 237 98 237 294v15c0 193 -85 289 -237 289
c-153 0 -238 -96 -238 -289v-15c0 -196 85 -294 238 -294z" />
    <glyph glyph-name="Omacron" unicode="&#x14c;" horiz-adv-x="777" 
d="M551 804h-316v64h316v-64zM389 -14c-217 0 -338 129 -338 383v9c0 251 121 378 337 378c218 0 338 -127 338 -378v-9c0 -254 -120 -383 -337 -383zM389 72c152 0 237 98 237 294v15c0 193 -85 289 -237 289c-153 0 -238 -96 -238 -289v-15c0 -196 85 -294 238 -294z" />
    <glyph glyph-name="uni01EA" unicode="&#x1ea;" horiz-adv-x="777" 
d="M388 756c218 0 338 -127 338 -378v-9c0 -184 -63 -302 -179 -353l3 -1c-72 -30 -124 -62 -124 -108c0 -21 12 -36 40 -36c29 0 40 17 41 46h56c1 -53 -23 -95 -105 -95c-59 0 -95 27 -95 77c0 35 24 65 61 88c-11 -1 -23 -1 -35 -1c-217 0 -338 129 -338 383v9
c0 251 121 378 337 378zM626 366v15c0 193 -85 289 -237 289c-153 0 -238 -96 -238 -289v-15c0 -196 85 -294 238 -294c152 0 237 98 237 294z" />
    <glyph glyph-name="Oslash" unicode="&#xd8;" horiz-adv-x="777" 
d="M643 766l-39 -73c80 -61 122 -166 122 -315v-9c0 -254 -120 -383 -337 -383c-55 0 -104 8 -146 25l-34 -64l-64 31l35 67c-84 61 -129 169 -129 324v9c0 251 121 378 337 378c59 0 110 -9 154 -28l37 70zM151 381v-15c0 -108 26 -187 75 -235l274 517
c-32 15 -69 22 -111 22c-153 0 -238 -96 -238 -289zM626 366v15c0 102 -24 176 -68 224l-273 -514c30 -13 65 -19 104 -19c152 0 237 98 237 294z" />
    <glyph glyph-name="Otilde" unicode="&#xd5;" horiz-adv-x="777" 
d="M463 799c-56 0 -95 48 -131 48c-21 0 -33 -12 -45 -40l-51 15c16 63 43 89 89 89c56 0 95 -47 130 -47c21 0 34 12 46 40l51 -15c-16 -63 -44 -90 -89 -90zM389 -14c-217 0 -338 129 -338 383v9c0 251 121 378 337 378c218 0 338 -127 338 -378v-9
c0 -254 -120 -383 -337 -383zM389 72c152 0 237 98 237 294v15c0 193 -85 289 -237 289c-153 0 -238 -96 -238 -289v-15c0 -196 85 -294 238 -294z" />
    <glyph glyph-name="Racute" unicode="&#x154;" horiz-adv-x="721" 
d="M475 943l-134 -139h-62l98 139h98zM197 0h-99v743h310c173 0 256 -72 256 -209c0 -110 -58 -178 -151 -196v-1c72 -16 107 -66 120 -146l13 -77c9 -52 19 -88 33 -114h-101c-10 22 -19 56 -30 116l-15 79c-12 63 -51 97 -158 97h-178v-292zM197 659v-284h196
c104 0 172 42 172 151v2c0 83 -49 131 -159 131h-209z" />
    <glyph glyph-name="Rcaron" unicode="&#x158;" horiz-adv-x="721" 
d="M322 802l-103 139h57l89 -92l88 92h58l-104 -139h-85zM197 0h-99v743h310c173 0 256 -72 256 -209c0 -110 -58 -178 -151 -196v-1c72 -16 107 -66 120 -146l13 -77c9 -52 19 -88 33 -114h-101c-10 22 -19 56 -30 116l-15 79c-12 63 -51 97 -158 97h-178v-292zM197 659
v-284h196c104 0 172 42 172 151v2c0 83 -49 131 -159 131h-209z" />
    <glyph glyph-name="uni0156" unicode="&#x156;" horiz-adv-x="721" 
d="M197 0h-99v743h310c173 0 256 -72 256 -209c0 -110 -58 -178 -151 -196v-1c72 -16 107 -66 120 -146l13 -77c9 -52 19 -88 33 -114h-101c-10 22 -19 56 -30 116l-15 79c-12 63 -51 97 -158 97h-178v-292zM197 659v-284h196c104 0 172 42 172 151v2c0 83 -49 131 -159 131
h-209zM309 -177v29c38 -1 50 7 51 34c-39 0 -59 10 -59 34s19 34 56 34c42 0 61 -12 61 -39c0 -81 -47 -96 -109 -92z" />
    <glyph glyph-name="uni1E5A" unicode="&#x1e5a;" horiz-adv-x="721" 
d="M197 0h-99v743h310c173 0 256 -72 256 -209c0 -110 -58 -178 -151 -196v-1c72 -16 107 -66 120 -146l13 -77c9 -52 19 -88 33 -114h-101c-10 22 -19 56 -30 116l-15 79c-12 63 -51 97 -158 97h-178v-292zM197 659v-284h196c104 0 172 42 172 151v2c0 83 -49 131 -159 131
h-209zM368 -133c-39 0 -56 15 -56 42s18 43 56 43c39 0 56 -16 56 -43s-17 -42 -56 -42z" />
    <glyph glyph-name="uni1E5C" unicode="&#x1e5c;" horiz-adv-x="721" 
d="M522 804h-316v64h316v-64zM197 0h-99v743h310c173 0 256 -72 256 -209c0 -110 -58 -178 -151 -196v-1c72 -16 107 -66 120 -146l13 -77c9 -52 19 -88 33 -114h-101c-10 22 -19 56 -30 116l-15 79c-12 63 -51 97 -158 97h-178v-292zM197 659v-284h196
c104 0 172 42 172 151v2c0 83 -49 131 -159 131h-209zM368 -133c-39 0 -56 15 -56 42s18 43 56 43c39 0 56 -16 56 -43s-17 -42 -56 -42z" />
    <glyph glyph-name="uni1E5E" unicode="&#x1e5e;" horiz-adv-x="721" 
d="M197 0h-99v743h310c173 0 256 -72 256 -209c0 -110 -58 -178 -151 -196v-1c72 -16 107 -66 120 -146l13 -77c9 -52 19 -88 33 -114h-101c-10 22 -19 56 -30 116l-15 79c-12 63 -51 97 -158 97h-178v-292zM197 659v-284h196c104 0 172 42 172 151v2c0 83 -49 131 -159 131
h-209zM522 -116h-316v57h316v-57z" />
    <glyph glyph-name="Sacute" unicode="&#x15a;" horiz-adv-x="663" 
d="M439 943l-134 -139h-62l98 139h98zM338 -14c-204 0 -297 99 -301 239h98c1 -73 43 -159 203 -159c124 0 181 49 181 131c0 98 -55 126 -207 156c-177 34 -249 88 -249 212c0 110 86 191 265 191c191 0 275 -95 281 -228h-93c-5 76 -45 148 -185 148
c-122 0 -169 -52 -169 -112c0 -80 50 -110 179 -134c203 -37 278 -97 278 -232c0 -136 -102 -212 -281 -212z" />
    <glyph glyph-name="Scaron" unicode="&#x160;" horiz-adv-x="663" 
d="M287 802l-103 139h57l89 -92l88 92h58l-104 -139h-85zM338 -14c-204 0 -297 99 -301 239h98c1 -73 43 -159 203 -159c124 0 181 49 181 131c0 98 -55 126 -207 156c-177 34 -249 88 -249 212c0 110 86 191 265 191c191 0 275 -95 281 -228h-93c-5 76 -45 148 -185 148
c-122 0 -169 -52 -169 -112c0 -80 50 -110 179 -134c203 -37 278 -97 278 -232c0 -136 -102 -212 -281 -212z" />
    <glyph glyph-name="Scedilla" unicode="&#x15e;" horiz-adv-x="663" 
d="M619 198c0 -133 -98 -209 -270 -212l-11 -31c32 6 86 -9 86 -65c0 -47 -36 -78 -94 -78c-57 0 -99 22 -100 83h54c0 -32 19 -41 46 -41c22 0 37 13 37 39s-22 42 -55 32l-21 15l16 47c-182 9 -266 105 -270 238h98c1 -73 43 -159 203 -159c124 0 181 49 181 131
c0 98 -55 126 -207 156c-177 34 -249 88 -249 212c0 110 86 191 265 191c191 0 275 -95 281 -228h-93c-5 76 -45 148 -185 148c-122 0 -169 -52 -169 -112c0 -80 50 -110 179 -134c203 -37 278 -97 278 -232z" />
    <glyph glyph-name="Scircumflex" unicode="&#x15c;" horiz-adv-x="663" 
d="M241 805h-57l103 138h85l104 -138h-58l-88 91zM338 -14c-204 0 -297 99 -301 239h98c1 -73 43 -159 203 -159c124 0 181 49 181 131c0 98 -55 126 -207 156c-177 34 -249 88 -249 212c0 110 86 191 265 191c191 0 275 -95 281 -228h-93c-5 76 -45 148 -185 148
c-122 0 -169 -52 -169 -112c0 -80 50 -110 179 -134c203 -37 278 -97 278 -232c0 -136 -102 -212 -281 -212z" />
    <glyph glyph-name="uni0218" unicode="&#x218;" horiz-adv-x="663" 
d="M338 -14c-204 0 -297 99 -301 239h98c1 -73 43 -159 203 -159c124 0 181 49 181 131c0 98 -55 126 -207 156c-177 34 -249 88 -249 212c0 110 86 191 265 191c191 0 275 -95 281 -228h-93c-5 76 -45 148 -185 148c-122 0 -169 -52 -169 -112c0 -80 50 -110 179 -134
c203 -37 278 -97 278 -232c0 -136 -102 -212 -281 -212zM273 -177v29c38 -1 50 7 51 34c-39 0 -59 10 -59 34s19 34 56 34c42 0 61 -12 61 -39c0 -81 -47 -96 -109 -92z" />
    <glyph glyph-name="uni1E60" unicode="&#x1e60;" horiz-adv-x="663" 
d="M330 800c-33 0 -48 15 -48 42c0 26 15 42 48 42c34 0 48 -16 48 -42c0 -27 -14 -42 -48 -42zM338 -14c-204 0 -297 99 -301 239h98c1 -73 43 -159 203 -159c124 0 181 49 181 131c0 98 -55 126 -207 156c-177 34 -249 88 -249 212c0 110 86 191 265 191
c191 0 275 -95 281 -228h-93c-5 76 -45 148 -185 148c-122 0 -169 -52 -169 -112c0 -80 50 -110 179 -134c203 -37 278 -97 278 -232c0 -136 -102 -212 -281 -212z" />
    <glyph glyph-name="uni1E62" unicode="&#x1e62;" horiz-adv-x="663" 
d="M338 -14c-204 0 -297 99 -301 239h98c1 -73 43 -159 203 -159c124 0 181 49 181 131c0 98 -55 126 -207 156c-177 34 -249 88 -249 212c0 110 86 191 265 191c191 0 275 -95 281 -228h-93c-5 76 -45 148 -185 148c-122 0 -169 -52 -169 -112c0 -80 50 -110 179 -134
c203 -37 278 -97 278 -232c0 -136 -102 -212 -281 -212zM332 -133c-39 0 -56 15 -56 42s18 43 56 43c39 0 56 -16 56 -43s-17 -42 -56 -42z" />
    <glyph glyph-name="uni018F" unicode="&#x18f;" horiz-adv-x="749" 
d="M367 -14c-197 0 -318 117 -318 313v99h552v38c-5 146 -87 240 -233 240c-141 0 -211 -90 -219 -198h-99c13 144 110 278 317 278c213 0 334 -116 334 -323v-123c0 -207 -122 -324 -334 -324zM368 67c143 0 219 91 229 225v34h-449v-51c8 -141 99 -208 220 -208z" />
    <glyph glyph-name="Tbar" unicode="&#x166;" horiz-adv-x="612" 
d="M607 743v-84h-252v-260h145v-69h-145v-330h-99v330h-142v69h142v260h-251v84h602z" />
    <glyph glyph-name="Tcaron" unicode="&#x164;" horiz-adv-x="612" 
d="M264 802l-103 139h57l89 -92l88 92h58l-104 -139h-85zM355 0h-99v659h-251v84h602v-84h-252v-659z" />
    <glyph glyph-name="uni0162" unicode="&#x162;" horiz-adv-x="612" 
d="M355 659v-659h-29l-17 -48c32 6 86 -9 86 -65c0 -47 -36 -78 -94 -78c-57 0 -99 22 -100 83h54c0 -32 19 -41 46 -41c22 0 37 13 37 39s-22 42 -55 32l-21 15l22 63h-28v659h-251v84h602v-84h-252z" />
    <glyph glyph-name="uni021A" unicode="&#x21a;" horiz-adv-x="612" 
d="M355 0h-99v659h-251v84h602v-84h-252v-659zM247 -180v29c38 -1 50 7 51 34c-39 0 -59 10 -59 34s19 34 56 34c42 0 61 -12 61 -39c0 -81 -47 -96 -109 -92z" />
    <glyph glyph-name="uni1E6C" unicode="&#x1e6c;" horiz-adv-x="612" 
d="M355 0h-99v659h-251v84h602v-84h-252v-659zM306 -136c-39 0 -56 15 -56 42s18 43 56 43c39 0 56 -16 56 -43s-17 -42 -56 -42z" />
    <glyph glyph-name="uni1E6E" unicode="&#x1e6e;" horiz-adv-x="612" 
d="M355 0h-99v659h-251v84h602v-84h-252v-659zM460 -119h-316v57h316v-57z" />
    <glyph glyph-name="Uacute" unicode="&#xda;" horiz-adv-x="755" 
d="M487 943l-134 -139h-62l98 139h98zM378 -14c-207 0 -303 103 -303 309v448h99v-447c0 -149 71 -224 204 -224s204 75 204 224v447h99v-448c0 -205 -95 -309 -303 -309z" />
    <glyph glyph-name="Ubreve" unicode="&#x16c;" horiz-adv-x="755" 
d="M377 801c-98 0 -139 50 -134 139h60c-4 -57 18 -85 74 -85c55 0 77 28 74 85h60c5 -90 -37 -139 -134 -139zM378 -14c-207 0 -303 103 -303 309v448h99v-447c0 -149 71 -224 204 -224s204 75 204 224v447h99v-448c0 -205 -95 -309 -303 -309z" />
    <glyph glyph-name="uni01D3" unicode="&#x1d3;" horiz-adv-x="755" 
d="M334 802l-103 139h57l89 -92l88 92h58l-104 -139h-85zM378 -14c-207 0 -303 103 -303 309v448h99v-447c0 -149 71 -224 204 -224s204 75 204 224v447h99v-448c0 -205 -95 -309 -303 -309z" />
    <glyph glyph-name="Ucircumflex" unicode="&#xdb;" horiz-adv-x="755" 
d="M288 805h-57l103 138h85l104 -138h-58l-88 91zM378 -14c-207 0 -303 103 -303 309v448h99v-447c0 -149 71 -224 204 -224s204 75 204 224v447h99v-448c0 -205 -95 -309 -303 -309z" />
    <glyph glyph-name="Udieresis" unicode="&#xdc;" horiz-adv-x="755" 
d="M290 801c-35 0 -53 16 -53 44c0 30 18 46 53 46c36 0 52 -16 52 -46c0 -28 -16 -44 -52 -44zM470 801c-35 0 -52 16 -52 44c0 30 17 46 52 46c37 0 53 -16 53 -46c0 -28 -16 -44 -53 -44zM378 -14c-207 0 -303 103 -303 309v448h99v-447c0 -149 71 -224 204 -224
s204 75 204 224v447h99v-448c0 -205 -95 -309 -303 -309z" />
    <glyph glyph-name="uni01D7" unicode="&#x1d7;" horiz-adv-x="755" 
d="M482 1094l-134 -139h-62l98 139h98zM290 801c-35 0 -53 16 -53 44c0 30 18 46 53 46c36 0 52 -16 52 -46c0 -28 -16 -44 -52 -44zM470 801c-35 0 -52 16 -52 44c0 30 17 46 52 46c37 0 53 -16 53 -46c0 -28 -16 -44 -53 -44zM378 -14c-207 0 -303 103 -303 309v448h99
v-447c0 -149 71 -224 204 -224s204 75 204 224v447h99v-448c0 -205 -95 -309 -303 -309z" />
    <glyph glyph-name="uni01D9" unicode="&#x1d9;" horiz-adv-x="755" 
d="M330 953l-103 139h57l89 -92l88 92h58l-104 -139h-85zM290 801c-35 0 -53 16 -53 44c0 30 18 46 53 46c36 0 52 -16 52 -46c0 -28 -16 -44 -52 -44zM470 801c-35 0 -52 16 -52 44c0 30 17 46 52 46c37 0 53 -16 53 -46c0 -28 -16 -44 -53 -44zM378 -14
c-207 0 -303 103 -303 309v448h99v-447c0 -149 71 -224 204 -224s204 75 204 224v447h99v-448c0 -205 -95 -309 -303 -309z" />
    <glyph glyph-name="uni01DB" unicode="&#x1db;" horiz-adv-x="755" 
d="M467 955h-61l-134 139h98zM290 801c-35 0 -53 16 -53 44c0 30 18 46 53 46c36 0 52 -16 52 -46c0 -28 -16 -44 -52 -44zM470 801c-35 0 -52 16 -52 44c0 30 17 46 52 46c37 0 53 -16 53 -46c0 -28 -16 -44 -53 -44zM378 -14c-207 0 -303 103 -303 309v448h99v-447
c0 -149 71 -224 204 -224s204 75 204 224v447h99v-448c0 -205 -95 -309 -303 -309z" />
    <glyph glyph-name="uni01D5" unicode="&#x1d5;" horiz-adv-x="755" 
d="M529 955h-316v64h316v-64zM290 801c-35 0 -53 16 -53 44c0 30 18 46 53 46c36 0 52 -16 52 -46c0 -28 -16 -44 -52 -44zM470 801c-35 0 -52 16 -52 44c0 30 17 46 52 46c37 0 53 -16 53 -46c0 -28 -16 -44 -53 -44zM378 -14c-207 0 -303 103 -303 309v448h99v-447
c0 -149 71 -224 204 -224s204 75 204 224v447h99v-448c0 -205 -95 -309 -303 -309z" />
    <glyph glyph-name="uni1EE4" unicode="&#x1ee4;" horiz-adv-x="755" 
d="M378 -14c-207 0 -303 103 -303 309v448h99v-447c0 -149 71 -224 204 -224s204 75 204 224v447h99v-448c0 -205 -95 -309 -303 -309zM380 -133c-39 0 -56 15 -56 42s18 43 56 43c39 0 56 -16 56 -43s-17 -42 -56 -42z" />
    <glyph glyph-name="Ugrave" unicode="&#xd9;" horiz-adv-x="755" 
d="M472 804h-61l-134 139h98zM378 -14c-207 0 -303 103 -303 309v448h99v-447c0 -149 71 -224 204 -224s204 75 204 224v447h99v-448c0 -205 -95 -309 -303 -309z" />
    <glyph glyph-name="uni1EE6" unicode="&#x1ee6;" horiz-adv-x="755" 
d="M405 800h-52c31 35 43 59 43 77c0 12 -8 18 -21 18c-16 0 -23 -7 -23 -29h-43c-1 44 23 72 68 72c42 0 67 -19 67 -53c0 -24 -14 -53 -39 -85zM378 -14c-207 0 -303 103 -303 309v448h99v-447c0 -149 71 -224 204 -224s204 75 204 224v447h99v-448
c0 -205 -95 -309 -303 -309z" />
    <glyph glyph-name="Uhorn" unicode="&#x1af;" horiz-adv-x="799" 
d="M732 853l65 6c20 -104 -27 -151 -116 -162v-402c0 -205 -95 -309 -303 -309c-207 0 -303 103 -303 309v448h99v-447c0 -149 71 -224 204 -224s204 75 204 224v447h70c64 5 96 34 80 110z" />
    <glyph glyph-name="uni1EE8" unicode="&#x1ee8;" horiz-adv-x="799" 
d="M389 943h98l-134 -139h-62zM732 853l65 6c20 -104 -27 -151 -116 -162v-402c0 -205 -95 -309 -303 -309c-207 0 -303 103 -303 309v448h99v-447c0 -149 71 -224 204 -224s204 75 204 224v447h70c64 5 96 34 80 110z" />
    <glyph glyph-name="uni1EF0" unicode="&#x1ef0;" horiz-adv-x="799" 
d="M732 853l65 6c20 -104 -27 -151 -116 -162v-402c0 -205 -95 -309 -303 -309c-207 0 -303 103 -303 309v448h99v-447c0 -149 71 -224 204 -224s204 75 204 224v447h70c64 5 96 34 80 110zM380 -48c39 0 56 -16 56 -43s-17 -42 -56 -42s-56 15 -56 42s18 43 56 43z" />
    <glyph glyph-name="uni1EEA" unicode="&#x1eea;" horiz-adv-x="799" 
d="M375 943l97 -139h-61l-134 139h98zM732 853l65 6c20 -104 -27 -151 -116 -162v-402c0 -205 -95 -309 -303 -309c-207 0 -303 103 -303 309v448h99v-447c0 -149 71 -224 204 -224s204 75 204 224v447h70c64 5 96 34 80 110z" />
    <glyph glyph-name="uni1EEC" unicode="&#x1eec;" horiz-adv-x="799" 
d="M353 866h-43c-1 44 23 72 68 72c42 0 67 -19 67 -53c0 -24 -14 -53 -39 -85h-52c31 35 43 59 43 77c0 12 -8 18 -21 18c-16 0 -23 -7 -23 -29zM732 853l65 6c20 -104 -27 -151 -116 -162v-402c0 -205 -95 -309 -303 -309c-207 0 -303 103 -303 309v448h99v-447
c0 -149 71 -224 204 -224s204 75 204 224v447h70c64 5 96 34 80 110z" />
    <glyph glyph-name="uni1EEE" unicode="&#x1eee;" horiz-adv-x="799" 
d="M316 847c-21 0 -33 -12 -45 -40l-51 15c16 63 43 89 89 89c56 0 95 -47 130 -47c21 0 34 12 46 40l51 -15c-16 -63 -44 -90 -89 -90c-56 0 -95 48 -131 48zM732 853l65 6c20 -104 -27 -151 -116 -162v-402c0 -205 -95 -309 -303 -309c-207 0 -303 103 -303 309v448h99
v-447c0 -149 71 -224 204 -224s204 75 204 224v447h70c64 5 96 34 80 110z" />
    <glyph glyph-name="Uhungarumlaut" unicode="&#x170;" horiz-adv-x="755" 
d="M443 943l-131 -138h-59l95 138h95zM585 943l-131 -138h-59l95 138h95zM378 -14c-207 0 -303 103 -303 309v448h99v-447c0 -149 71 -224 204 -224s204 75 204 224v447h99v-448c0 -205 -95 -309 -303 -309z" />
    <glyph glyph-name="Umacron" unicode="&#x16a;" horiz-adv-x="755" 
d="M534 804h-316v64h316v-64zM378 -14c-207 0 -303 103 -303 309v448h99v-447c0 -149 71 -224 204 -224s204 75 204 224v447h99v-448c0 -205 -95 -309 -303 -309z" />
    <glyph glyph-name="Uogonek" unicode="&#x172;" horiz-adv-x="755" 
d="M582 296v447h99v-448c0 -155 -54 -252 -170 -290c-56 -27 -94 -56 -94 -95c0 -21 12 -36 40 -36c29 0 40 17 41 46h56c1 -53 -23 -95 -105 -95c-59 0 -95 27 -95 77c0 33 22 62 56 85c-10 -1 -21 -1 -32 -1c-207 0 -303 103 -303 309v448h99v-447
c0 -149 71 -224 204 -224s204 75 204 224z" />
    <glyph glyph-name="Uring" unicode="&#x16e;" horiz-adv-x="755" 
d="M376 800c-72 0 -107 25 -107 75s35 76 107 76s109 -26 109 -76s-37 -75 -109 -75zM376 834c34 0 52 13 52 41s-18 42 -52 42c-33 0 -51 -14 -51 -42s18 -41 51 -41zM378 -14c-207 0 -303 103 -303 309v448h99v-447c0 -149 71 -224 204 -224s204 75 204 224v447h99v-448
c0 -205 -95 -309 -303 -309z" />
    <glyph glyph-name="Utilde" unicode="&#x168;" horiz-adv-x="755" 
d="M446 799c-56 0 -95 48 -131 48c-21 0 -33 -12 -45 -40l-51 15c16 63 43 89 89 89c56 0 95 -47 130 -47c21 0 34 12 46 40l51 -15c-16 -63 -44 -90 -89 -90zM378 -14c-207 0 -303 103 -303 309v448h99v-447c0 -149 71 -224 204 -224s204 75 204 224v447h99v-448
c0 -205 -95 -309 -303 -309z" />
    <glyph glyph-name="Wacute" unicode="&#x1e82;" horiz-adv-x="1028" 
d="M618 943l-134 -139h-62l98 139h98zM353 0h-129l-211 743h103l165 -620l6 -32h1l7 32l156 620h126l157 -620l7 -32l7 32l164 620h104l-211 -743h-129l-154 610l-7 32h-2l-6 -32z" />
    <glyph glyph-name="Wcircumflex" unicode="&#x174;" horiz-adv-x="1028" 
d="M420 805h-57l103 138h85l104 -138h-58l-88 91zM353 0h-129l-211 743h103l165 -620l6 -32h1l7 32l156 620h126l157 -620l7 -32l7 32l164 620h104l-211 -743h-129l-154 610l-7 32h-2l-6 -32z" />
    <glyph glyph-name="Wdieresis" unicode="&#x1e84;" horiz-adv-x="1028" 
d="M421 801c-35 0 -53 16 -53 44c0 30 18 46 53 46c36 0 52 -16 52 -46c0 -28 -16 -44 -52 -44zM601 801c-35 0 -52 16 -52 44c0 30 17 46 52 46c37 0 53 -16 53 -46c0 -28 -16 -44 -53 -44zM353 0h-129l-211 743h103l165 -620l6 -32h1l7 32l156 620h126l157 -620l7 -32
l7 32l164 620h104l-211 -743h-129l-154 610l-7 32h-2l-6 -32z" />
    <glyph glyph-name="Wgrave" unicode="&#x1e80;" horiz-adv-x="1028" 
d="M603 804h-61l-134 139h98zM353 0h-129l-211 743h103l165 -620l6 -32h1l7 32l156 620h126l157 -620l7 -32l7 32l164 620h104l-211 -743h-129l-154 610l-7 32h-2l-6 -32z" />
    <glyph glyph-name="Yacute" unicode="&#xdd;" horiz-adv-x="677" 
d="M444 943l-134 -139h-62l98 139h98zM389 0h-100v244l-276 499h115l202 -384l9 -24l10 24l201 384h115l-276 -499v-244z" />
    <glyph glyph-name="Ycircumflex" unicode="&#x176;" horiz-adv-x="677" 
d="M246 805h-57l103 138h85l104 -138h-58l-88 91zM389 0h-100v244l-276 499h115l202 -384l9 -24l10 24l201 384h115l-276 -499v-244z" />
    <glyph glyph-name="Ydieresis" unicode="&#x178;" horiz-adv-x="677" 
d="M247 801c-35 0 -53 16 -53 44c0 30 18 46 53 46c36 0 52 -16 52 -46c0 -28 -16 -44 -52 -44zM427 801c-35 0 -52 16 -52 44c0 30 17 46 52 46c37 0 53 -16 53 -46c0 -28 -16 -44 -53 -44zM389 0h-100v244l-276 499h115l202 -384l9 -24l10 24l201 384h115l-276 -499v-244z
" />
    <glyph glyph-name="uni1E8E" unicode="&#x1e8e;" horiz-adv-x="677" 
d="M335 800c-33 0 -48 15 -48 42c0 26 15 42 48 42c34 0 48 -16 48 -42c0 -27 -14 -42 -48 -42zM389 0h-100v244l-276 499h115l202 -384l9 -24l10 24l201 384h115l-276 -499v-244z" />
    <glyph glyph-name="uni1EF4" unicode="&#x1ef4;" horiz-adv-x="677" 
d="M389 0h-100v244l-276 499h115l202 -384l9 -24l10 24l201 384h115l-276 -499v-244zM336 -133c-39 0 -56 15 -56 42s18 43 56 43c39 0 56 -16 56 -43s-17 -42 -56 -42z" />
    <glyph glyph-name="Ygrave" unicode="&#x1ef2;" horiz-adv-x="677" 
d="M429 804h-61l-134 139h98zM389 0h-100v244l-276 499h115l202 -384l9 -24l10 24l201 384h115l-276 -499v-244z" />
    <glyph glyph-name="uni1EF6" unicode="&#x1ef6;" horiz-adv-x="677" 
d="M363 800h-52c31 35 43 59 43 77c0 12 -8 18 -21 18c-16 0 -23 -7 -23 -29h-43c-1 44 23 72 68 72c42 0 67 -19 67 -53c0 -24 -14 -53 -39 -85zM389 0h-100v244l-276 499h115l202 -384l9 -24l10 24l201 384h115l-276 -499v-244z" />
    <glyph glyph-name="uni0232" unicode="&#x232;" horiz-adv-x="677" 
d="M491 804h-316v64h316v-64zM389 0h-100v244l-276 499h115l202 -384l9 -24l10 24l201 384h115l-276 -499v-244z" />
    <glyph glyph-name="uni1EF8" unicode="&#x1ef8;" horiz-adv-x="677" 
d="M404 799c-56 0 -95 48 -131 48c-21 0 -33 -12 -45 -40l-51 15c16 63 43 89 89 89c56 0 95 -47 130 -47c21 0 34 12 46 40l51 -15c-16 -63 -44 -90 -89 -90zM389 0h-100v244l-276 499h115l202 -384l9 -24l10 24l201 384h115l-276 -499v-244z" />
    <glyph glyph-name="Zacute" unicode="&#x179;" horiz-adv-x="628" 
d="M424 943l-134 -139h-62l98 139h98zM608 0h-584v79l445 578h-422v86h545v-78l-442 -579h458v-86z" />
    <glyph glyph-name="Zcaron" unicode="&#x17d;" horiz-adv-x="628" 
d="M272 802l-103 139h57l89 -92l88 92h58l-104 -139h-85zM608 0h-584v79l445 578h-422v86h545v-78l-442 -579h458v-86z" />
    <glyph glyph-name="Zdotaccent" unicode="&#x17b;" horiz-adv-x="628" 
d="M315 800c-33 0 -48 15 -48 42c0 26 15 42 48 42c34 0 48 -16 48 -42c0 -27 -14 -42 -48 -42zM608 0h-584v79l445 578h-422v86h545v-78l-442 -579h458v-86z" />
    <glyph glyph-name="uni1E92" unicode="&#x1e92;" horiz-adv-x="628" 
d="M608 0h-584v79l445 578h-422v86h545v-78l-442 -579h458v-86zM317 -133c-39 0 -56 15 -56 42s18 43 56 43c39 0 56 -16 56 -43s-17 -42 -56 -42z" />
    <glyph glyph-name="G.ss03" horiz-adv-x="754" 
d="M374 -14c-201 0 -323 124 -323 378v13c0 256 123 379 332 379c212 0 309 -129 318 -268h-98c-8 93 -78 182 -219 182c-147 0 -233 -99 -233 -289v-20c0 -194 86 -289 234 -289c139 0 217 74 217 185v41h-235v83h337v-381h-79v85l10 57h-4c-26 -76 -98 -156 -257 -156z
" />
    <glyph glyph-name="Gbreve.ss03" horiz-adv-x="754" 
d="M378 801c-98 0 -139 50 -134 139h60c-4 -57 18 -85 74 -85c55 0 77 28 74 85h60c5 -90 -37 -139 -134 -139zM374 -14c-201 0 -323 124 -323 378v13c0 256 123 379 332 379c212 0 309 -129 318 -268h-98c-8 93 -78 182 -219 182c-147 0 -233 -99 -233 -289v-20
c0 -194 86 -289 234 -289c139 0 217 74 217 185v41h-235v83h337v-381h-79v85l10 57h-4c-26 -76 -98 -156 -257 -156z" />
    <glyph glyph-name="Gcaron.ss03" horiz-adv-x="754" 
d="M335 802l-103 139h57l89 -92l88 92h58l-104 -139h-85zM374 -14c-201 0 -323 124 -323 378v13c0 256 123 379 332 379c212 0 309 -129 318 -268h-98c-8 93 -78 182 -219 182c-147 0 -233 -99 -233 -289v-20c0 -194 86 -289 234 -289c139 0 217 74 217 185v41h-235v83h337
v-381h-79v85l10 57h-4c-26 -76 -98 -156 -257 -156z" />
    <glyph glyph-name="Gcircumflex.ss03" horiz-adv-x="754" 
d="M289 805h-57l103 138h85l104 -138h-58l-88 91zM374 -14c-201 0 -323 124 -323 378v13c0 256 123 379 332 379c212 0 309 -129 318 -268h-98c-8 93 -78 182 -219 182c-147 0 -233 -99 -233 -289v-20c0 -194 86 -289 234 -289c139 0 217 74 217 185v41h-235v83h337v-381
h-79v85l10 57h-4c-26 -76 -98 -156 -257 -156z" />
    <glyph glyph-name="uni0122.ss03" horiz-adv-x="754" 
d="M374 -14c-201 0 -323 124 -323 378v13c0 256 123 379 332 379c212 0 309 -129 318 -268h-98c-8 93 -78 182 -219 182c-147 0 -233 -99 -233 -289v-20c0 -194 86 -289 234 -289c139 0 217 74 217 185v41h-235v83h337v-381h-79v85l10 57h-4c-26 -76 -98 -156 -257 -156z
M322 -177v29c38 -1 50 7 51 34c-39 0 -59 10 -59 34s19 34 56 34c42 0 61 -12 61 -39c0 -81 -47 -96 -109 -92z" />
    <glyph glyph-name="Gdotaccent.ss03" horiz-adv-x="754" 
d="M379 800c-33 0 -48 15 -48 42c0 26 15 42 48 42c34 0 48 -16 48 -42c0 -27 -14 -42 -48 -42zM374 -14c-201 0 -323 124 -323 378v13c0 256 123 379 332 379c212 0 309 -129 318 -268h-98c-8 93 -78 182 -219 182c-147 0 -233 -99 -233 -289v-20c0 -194 86 -289 234 -289
c139 0 217 74 217 185v41h-235v83h337v-381h-79v85l10 57h-4c-26 -76 -98 -156 -257 -156z" />
    <glyph glyph-name="uni1E20.ss03" horiz-adv-x="754" 
d="M535 804h-316v64h316v-64zM374 -14c-201 0 -323 124 -323 378v13c0 256 123 379 332 379c212 0 309 -129 318 -268h-98c-8 93 -78 182 -219 182c-147 0 -233 -99 -233 -289v-20c0 -194 86 -289 234 -289c139 0 217 74 217 185v41h-235v83h337v-381h-79v85l10 57h-4
c-26 -76 -98 -156 -257 -156z" />
    <glyph glyph-name="I.ss03" horiz-adv-x="280" 
d="M275 743v-81h-89v-581h89v-81h-270v81h87v581h-87v81h270z" />
    <glyph glyph-name="Iacute.ss03" horiz-adv-x="280" 
d="M152 943h98l-134 -139h-62zM275 743v-81h-89v-581h89v-81h-270v81h87v581h-87v81h270z" />
    <glyph glyph-name="Ibreve.ss03" horiz-adv-x="280" 
d="M140 801c-98 0 -139 50 -134 139h60c-4 -57 18 -85 74 -85c55 0 77 28 74 85h60c5 -90 -37 -139 -134 -139zM275 743v-81h-89v-581h89v-81h-270v81h87v581h-87v81h270z" />
    <glyph glyph-name="uni01CF.ss03" horiz-adv-x="280" 
d="M286 941l-104 -139h-85l-104 139h58l89 -92l88 92h58zM5 743h270v-81h-89v-581h89v-81h-270v81h87v581h-87v81z" />
    <glyph glyph-name="Icircumflex.ss03" horiz-adv-x="280" 
d="M228 805l-88 91l-89 -91h-58l104 138h85l104 -138h-58zM5 743h270v-81h-89v-581h89v-81h-270v81h87v581h-87v81z" />
    <glyph glyph-name="Idieresis.ss03" horiz-adv-x="280" 
d="M52 801c-35 0 -53 16 -53 44c0 30 18 46 53 46c36 0 52 -16 52 -46c0 -28 -16 -44 -52 -44zM232 801c-35 0 -52 16 -52 44c0 30 17 46 52 46c37 0 53 -16 53 -46c0 -28 -16 -44 -53 -44zM5 743h270v-81h-89v-581h89v-81h-270v81h87v581h-87v81z" />
    <glyph glyph-name="Idotaccent.ss03" horiz-adv-x="280" 
d="M141 800c-33 0 -48 15 -48 42c0 26 15 42 48 42c34 0 48 -16 48 -42c0 -27 -14 -42 -48 -42zM275 743v-81h-89v-581h89v-81h-270v81h87v581h-87v81h270z" />
    <glyph glyph-name="uni1ECA.ss03" horiz-adv-x="280" 
d="M275 743v-81h-89v-581h89v-81h-270v81h87v581h-87v81h270zM143 -48c39 0 56 -16 56 -43s-17 -42 -56 -42s-56 15 -56 42s18 43 56 43z" />
    <glyph glyph-name="Igrave.ss03" horiz-adv-x="280" 
d="M137 943l97 -139h-61l-134 139h98zM275 743v-81h-89v-581h89v-81h-270v81h87v581h-87v81h270z" />
    <glyph glyph-name="uni1EC8.ss03" horiz-adv-x="280" 
d="M115 866h-43c-1 44 23 72 68 72c42 0 67 -19 67 -53c0 -24 -14 -53 -39 -85h-52c31 35 43 59 43 77c0 12 -8 18 -21 18c-16 0 -23 -7 -23 -29zM275 743v-81h-89v-581h89v-81h-270v81h87v581h-87v81h270z" />
    <glyph glyph-name="Imacron.ss03" horiz-adv-x="280" 
d="M-21 804v64h317v-64h-317zM5 743h270v-81h-89v-581h89v-81h-270v81h87v581h-87v81z" />
    <glyph glyph-name="Iogonek.ss03" horiz-adv-x="280" 
d="M275 743v-81h-89v-581h89v-81h-19c-71 -30 -122 -62 -122 -107c0 -21 12 -36 40 -36c29 0 40 17 41 46h56c1 -53 -23 -95 -105 -95c-59 0 -95 27 -95 77s51 90 117 115h-183v81h87v581h-87v81h270z" />
    <glyph glyph-name="Itilde.ss03" horiz-adv-x="280" 
d="M78 847c-21 0 -33 -12 -45 -40l-52 15c17 63 44 89 90 89c56 0 95 -47 130 -47c21 0 34 12 46 40l51 -15c-16 -63 -44 -90 -89 -90c-56 0 -95 48 -131 48zM5 743h270v-81h-89v-581h89v-81h-270v81h87v581h-87v81z" />
    <glyph glyph-name="J.ss03" horiz-adv-x="719" 
d="M342 -14c-192 0 -297 126 -300 279v8h97v-8c4 -126 80 -198 204 -198c127 0 202 82 202 236v359h-357v81h456v-436c0 -211 -114 -321 -302 -321z" />
    <glyph glyph-name="Jcircumflex.ss03" horiz-adv-x="531" 
d="M374 943h85l104 -138h-58l-88 91l-89 -91h-57zM52 743h405v-461c0 -229 -100 -296 -279 -296c-64 0 -125 10 -166 22l6 81c43 -12 106 -22 159 -22c122 0 181 55 181 217v375h-306v84z" />
    <glyph glyph-name="K.ss03" horiz-adv-x="707" 
d="M197 0h-99v743h99v-417h2l30 40l311 377h115l-256 -310l292 -433h-114l-215 319l-24 39h-2l-139 -160v-198z" />
    <glyph glyph-name="uni0136.ss03" horiz-adv-x="707" 
d="M197 0h-99v743h99v-417h2l30 40l311 377h115l-256 -310l292 -433h-114l-215 319l-24 39h-2l-139 -160v-198zM299 -177v29c38 -1 50 7 51 34c-39 0 -59 10 -59 34s19 34 56 34c42 0 61 -12 61 -39c0 -81 -47 -96 -109 -92z" />
    <glyph glyph-name="Q.ss03" horiz-adv-x="768" 
d="M384 756c212 0 333 -119 333 -319v-108c0 -133 -47 -252 -187 -293v-1c61 -21 100 -65 100 -156v-32h-102v34c0 83 -40 105 -144 105c-212 0 -333 120 -333 324v124c0 203 121 322 333 322zM617 306v131c0 152 -88 239 -233 239s-233 -87 -233 -239v-130
c0 -153 88 -240 233 -240c166 0 233 118 233 239z" />
    <glyph glyph-name="R.ss03" horiz-adv-x="708" 
d="M197 0h-99v743h322c161 0 244 -75 244 -207v-3c0 -106 -51 -169 -140 -192v-3c57 -14 81 -49 99 -133l42 -205h-100l-38 188c-15 72 -42 107 -158 107h-172v-295zM197 662v-287h200c104 0 168 40 168 152v3c0 78 -42 132 -155 132h-213z" />
    <glyph glyph-name="Racute.ss03" horiz-adv-x="708" 
d="M475 943l-134 -139h-62l98 139h98zM197 0h-99v743h322c161 0 244 -75 244 -207v-3c0 -106 -51 -169 -140 -192v-3c57 -14 81 -49 99 -133l42 -205h-100l-38 188c-15 72 -42 107 -158 107h-172v-295zM197 662v-287h200c104 0 168 40 168 152v3c0 78 -42 132 -155 132h-213
z" />
    <glyph glyph-name="Rcaron.ss03" horiz-adv-x="708" 
d="M322 802l-103 139h57l89 -92l88 92h58l-104 -139h-85zM197 0h-99v743h322c161 0 244 -75 244 -207v-3c0 -106 -51 -169 -140 -192v-3c57 -14 81 -49 99 -133l42 -205h-100l-38 188c-15 72 -42 107 -158 107h-172v-295zM197 662v-287h200c104 0 168 40 168 152v3
c0 78 -42 132 -155 132h-213z" />
    <glyph glyph-name="uni0156.ss03" horiz-adv-x="708" 
d="M197 0h-99v743h322c161 0 244 -75 244 -207v-3c0 -106 -51 -169 -140 -192v-3c57 -14 81 -49 99 -133l42 -205h-100l-38 188c-15 72 -42 107 -158 107h-172v-295zM197 662v-287h200c104 0 168 40 168 152v3c0 78 -42 132 -155 132h-213zM309 -177v29c38 -1 50 7 51 34
c-39 0 -59 10 -59 34s19 34 56 34c42 0 61 -12 61 -39c0 -81 -47 -96 -109 -92z" />
    <glyph glyph-name="uni1E5A.ss03" horiz-adv-x="708" 
d="M197 0h-99v743h322c161 0 244 -75 244 -207v-3c0 -106 -51 -169 -140 -192v-3c57 -14 81 -49 99 -133l42 -205h-100l-38 188c-15 72 -42 107 -158 107h-172v-295zM197 662v-287h200c104 0 168 40 168 152v3c0 78 -42 132 -155 132h-213zM368 -133c-39 0 -56 15 -56 42
s18 43 56 43c39 0 56 -16 56 -43s-17 -42 -56 -42z" />
    <glyph glyph-name="uni1E5C.ss03" horiz-adv-x="708" 
d="M522 804h-316v64h316v-64zM197 0h-99v743h322c161 0 244 -75 244 -207v-3c0 -106 -51 -169 -140 -192v-3c57 -14 81 -49 99 -133l42 -205h-100l-38 188c-15 72 -42 107 -158 107h-172v-295zM197 662v-287h200c104 0 168 40 168 152v3c0 78 -42 132 -155 132h-213z
M368 -133c-39 0 -56 15 -56 42s18 43 56 43c39 0 56 -16 56 -43s-17 -42 -56 -42z" />
    <glyph glyph-name="uni1E5E.ss03" horiz-adv-x="708" 
d="M197 0h-99v743h322c161 0 244 -75 244 -207v-3c0 -106 -51 -169 -140 -192v-3c57 -14 81 -49 99 -133l42 -205h-100l-38 188c-15 72 -42 107 -158 107h-172v-295zM197 662v-287h200c104 0 168 40 168 152v3c0 78 -42 132 -155 132h-213zM522 -116h-316v57h316v-57z" />
    <glyph glyph-name="J.ss04" horiz-adv-x="531" 
d="M457 743v-491c0 -189 -95 -266 -254 -266c-74 0 -140 16 -183 33l21 75c35 -13 98 -27 151 -27c112 0 166 60 166 187v405h-211v84h310z" />
    <glyph glyph-name="aacute" unicode="&#xe1;" horiz-adv-x="651" 
d="M348 809h98l-134 -138h-61zM315 603c212 0 258 -123 258 -250v-353h-92v83l5 52h-3c-33 -90 -114 -149 -220 -149c-170 0 -215 103 -215 189c0 94 56 186 233 186c84 0 162 -21 200 -35v42c0 89 -40 162 -167 162c-112 0 -150 -64 -155 -132h-91c7 83 51 205 247 205z
M283 64c137 0 193 115 198 192c-40 19 -118 37 -186 37c-124 0 -155 -59 -155 -115c0 -54 30 -114 143 -114z" />
    <glyph glyph-name="abreve" unicode="&#x103;" horiz-adv-x="651" 
d="M326 667c-98 0 -139 50 -134 139h60c-4 -57 18 -85 74 -85c55 0 77 28 74 85h60c5 -90 -37 -139 -134 -139zM315 603c212 0 258 -123 258 -250v-353h-92v83l5 52h-3c-33 -90 -114 -149 -220 -149c-170 0 -215 103 -215 189c0 94 56 186 233 186c84 0 162 -21 200 -35v42
c0 89 -40 162 -167 162c-112 0 -150 -64 -155 -132h-91c7 83 51 205 247 205zM283 64c137 0 193 115 198 192c-40 19 -118 37 -186 37c-124 0 -155 -59 -155 -115c0 -54 30 -114 143 -114z" />
    <glyph glyph-name="uni1EAF" unicode="&#x1eaf;" horiz-adv-x="651" 
d="M360 929l78 -1l-108 -110l-49 1zM326 667c-98 0 -139 50 -134 139h60c-4 -57 18 -85 74 -85c55 0 77 28 74 85h60c5 -90 -37 -139 -134 -139zM315 603c212 0 258 -123 258 -250v-353h-92v83l5 52h-3c-33 -90 -114 -149 -220 -149c-170 0 -215 103 -215 189
c0 94 56 186 233 186c84 0 162 -21 200 -35v42c0 89 -40 162 -167 162c-112 0 -150 -64 -155 -132h-91c7 83 51 205 247 205zM283 64c137 0 193 115 198 192c-40 19 -118 37 -186 37c-124 0 -155 -59 -155 -115c0 -54 30 -114 143 -114z" />
    <glyph glyph-name="uni1EB7" unicode="&#x1eb7;" horiz-adv-x="651" 
d="M326 667c-98 0 -139 50 -134 139h60c-4 -57 18 -85 74 -85c55 0 77 28 74 85h60c5 -90 -37 -139 -134 -139zM315 603c212 0 258 -123 258 -250v-353h-92v83l5 52h-3c-33 -90 -114 -149 -220 -149c-170 0 -215 103 -215 189c0 94 56 186 233 186c84 0 162 -21 200 -35v42
c0 89 -40 162 -167 162c-112 0 -150 -64 -155 -132h-91c7 83 51 205 247 205zM283 64c137 0 193 115 198 192c-40 19 -118 37 -186 37c-124 0 -155 -59 -155 -115c0 -54 30 -114 143 -114zM329 -48c39 0 56 -16 56 -43s-17 -42 -56 -42s-56 15 -56 42s18 43 56 43z" />
    <glyph glyph-name="uni1EB1" unicode="&#x1eb1;" horiz-adv-x="651" 
d="M290 929l79 -110l-49 -1l-108 110zM325 667c-97 0 -139 49 -134 139h60c-3 -57 19 -85 74 -85c56 0 78 28 74 85h60c5 -89 -36 -139 -134 -139zM315 603c212 0 258 -123 258 -250v-353h-92v83l5 52h-3c-33 -90 -114 -149 -220 -149c-170 0 -215 103 -215 189
c0 94 56 186 233 186c84 0 162 -21 200 -35v42c0 89 -40 162 -167 162c-112 0 -150 -64 -155 -132h-91c7 83 51 205 247 205zM283 64c137 0 193 115 198 192c-40 19 -118 37 -186 37c-124 0 -155 -59 -155 -115c0 -54 30 -114 143 -114z" />
    <glyph glyph-name="uni1EB3" unicode="&#x1eb3;" horiz-adv-x="651" 
d="M326 896c-13 0 -19 -5 -19 -23h-35c0 36 19 59 56 59c35 0 55 -15 55 -43c0 -20 -12 -44 -32 -70h-42c25 29 34 48 34 63c0 10 -6 14 -17 14zM326 667c-98 0 -139 50 -134 139h60c-4 -57 18 -85 74 -85c55 0 77 28 74 85h60c5 -90 -37 -139 -134 -139zM315 603
c212 0 258 -123 258 -250v-353h-92v83l5 52h-3c-33 -90 -114 -149 -220 -149c-170 0 -215 103 -215 189c0 94 56 186 233 186c84 0 162 -21 200 -35v42c0 89 -40 162 -167 162c-112 0 -150 -64 -155 -132h-91c7 83 51 205 247 205zM283 64c137 0 193 115 198 192
c-40 19 -118 37 -186 37c-124 0 -155 -59 -155 -115c0 -54 30 -114 143 -114z" />
    <glyph glyph-name="uni1EB5" unicode="&#x1eb5;" horiz-adv-x="651" 
d="M280 889c-17 0 -27 -9 -36 -31l-40 11c13 50 34 70 70 70c44 0 74 -36 102 -36c16 0 26 9 35 31l40 -12c-12 -49 -34 -70 -69 -70c-44 0 -75 37 -102 37zM324 667c-98 0 -139 50 -134 139h60c-4 -57 18 -85 74 -85c55 0 77 28 74 85h60c5 -90 -37 -139 -134 -139z
M315 603c212 0 258 -123 258 -250v-353h-92v83l5 52h-3c-33 -90 -114 -149 -220 -149c-170 0 -215 103 -215 189c0 94 56 186 233 186c84 0 162 -21 200 -35v42c0 89 -40 162 -167 162c-112 0 -150 -64 -155 -132h-91c7 83 51 205 247 205zM283 64c137 0 193 115 198 192
c-40 19 -118 37 -186 37c-124 0 -155 -59 -155 -115c0 -54 30 -114 143 -114z" />
    <glyph glyph-name="uni01CE" unicode="&#x1ce;" horiz-adv-x="651" 
d="M472 807l-104 -139h-85l-103 139h57l89 -92l88 92h58zM315 603c212 0 258 -123 258 -250v-353h-92v83l5 52h-3c-33 -90 -114 -149 -220 -149c-170 0 -215 103 -215 189c0 94 56 186 233 186c84 0 162 -21 200 -35v42c0 89 -40 162 -167 162c-112 0 -150 -64 -155 -132
h-91c7 83 51 205 247 205zM283 64c137 0 193 115 198 192c-40 19 -118 37 -186 37c-124 0 -155 -59 -155 -115c0 -54 30 -114 143 -114z" />
    <glyph glyph-name="acircumflex" unicode="&#xe2;" horiz-adv-x="651" 
d="M414 667l-88 92l-89 -92h-57l103 139h85l104 -139h-58zM315 603c212 0 258 -123 258 -250v-353h-92v83l5 52h-3c-33 -90 -114 -149 -220 -149c-170 0 -215 103 -215 189c0 94 56 186 233 186c84 0 162 -21 200 -35v42c0 89 -40 162 -167 162c-112 0 -150 -64 -155 -132
h-91c7 83 51 205 247 205zM283 64c137 0 193 115 198 192c-40 19 -118 37 -186 37c-124 0 -155 -59 -155 -115c0 -54 30 -114 143 -114z" />
    <glyph glyph-name="uni1EA5" unicode="&#x1ea5;" horiz-adv-x="651" 
d="M527 846l68 1l-92 -112l-43 -1zM415 667l-88 92l-89 -92h-57l103 139h85l104 -139h-58zM315 603c212 0 258 -123 258 -250v-353h-92v83l5 52h-3c-33 -90 -114 -149 -220 -149c-170 0 -215 103 -215 189c0 94 56 186 233 186c84 0 162 -21 200 -35v42
c0 89 -40 162 -167 162c-112 0 -150 -64 -155 -132h-91c7 83 51 205 247 205zM283 64c137 0 193 115 198 192c-40 19 -118 37 -186 37c-124 0 -155 -59 -155 -115c0 -54 30 -114 143 -114z" />
    <glyph glyph-name="uni1EAD" unicode="&#x1ead;" horiz-adv-x="651" 
d="M414 667l-88 92l-89 -92h-57l103 139h85l104 -139h-58zM315 603c212 0 258 -123 258 -250v-353h-92v83l5 52h-3c-33 -90 -114 -149 -220 -149c-170 0 -215 103 -215 189c0 94 56 186 233 186c84 0 162 -21 200 -35v42c0 89 -40 162 -167 162c-112 0 -150 -64 -155 -132
h-91c7 83 51 205 247 205zM283 64c137 0 193 115 198 192c-40 19 -118 37 -186 37c-124 0 -155 -59 -155 -115c0 -54 30 -114 143 -114zM329 -48c39 0 56 -16 56 -43s-17 -42 -56 -42s-56 15 -56 42s18 43 56 43z" />
    <glyph glyph-name="uni1EA7" unicode="&#x1ea7;" horiz-adv-x="651" 
d="M417 890l68 -111h-43l-93 111h68zM415 667l-89 92l-89 -92h-57l103 139h86l103 -139h-57zM315 603c212 0 258 -123 258 -250v-353h-92v83l5 52h-3c-33 -90 -114 -149 -220 -149c-170 0 -215 103 -215 189c0 94 56 186 233 186c84 0 162 -21 200 -35v42
c0 89 -40 162 -167 162c-112 0 -150 -64 -155 -132h-91c7 83 51 205 247 205zM283 64c137 0 193 115 198 192c-40 19 -118 37 -186 37c-124 0 -155 -59 -155 -115c0 -54 30 -114 143 -114z" />
    <glyph glyph-name="uni1EA9" unicode="&#x1ea9;" horiz-adv-x="651" 
d="M442 797h-34c-1 36 19 59 55 59c34 0 54 -15 54 -43c0 -19 -12 -43 -32 -68h-41c24 28 34 47 34 62c0 9 -7 14 -17 14c-13 0 -19 -5 -19 -24zM415 667l-88 92l-89 -92h-57l103 139h85l104 -139h-58zM315 603c212 0 258 -123 258 -250v-353h-92v83l5 52h-3
c-33 -90 -114 -149 -220 -149c-170 0 -215 103 -215 189c0 94 56 186 233 186c84 0 162 -21 200 -35v42c0 89 -40 162 -167 162c-112 0 -150 -64 -155 -132h-91c7 83 51 205 247 205zM283 64c137 0 193 115 198 192c-40 19 -118 37 -186 37c-124 0 -155 -59 -155 -115
c0 -54 30 -114 143 -114z" />
    <glyph glyph-name="uni1EAB" unicode="&#x1eab;" horiz-adv-x="651" 
d="M282 883c-14 0 -23 -8 -31 -28l-36 11c11 44 30 62 62 62c40 0 67 -33 91 -33c15 0 24 9 32 28l36 -10c-11 -44 -31 -63 -62 -63c-40 0 -67 33 -92 33zM414 667l-88 92l-89 -92h-57l103 139h85l104 -139h-58zM315 603c212 0 258 -123 258 -250v-353h-92v83l5 52h-3
c-33 -90 -114 -149 -220 -149c-170 0 -215 103 -215 189c0 94 56 186 233 186c84 0 162 -21 200 -35v42c0 89 -40 162 -167 162c-112 0 -150 -64 -155 -132h-91c7 83 51 205 247 205zM283 64c137 0 193 115 198 192c-40 19 -118 37 -186 37c-124 0 -155 -59 -155 -115
c0 -54 30 -114 143 -114z" />
    <glyph glyph-name="adieresis" unicode="&#xe4;" horiz-adv-x="651" 
d="M220 668c-40 0 -60 17 -60 52c0 36 21 54 60 54c40 0 60 -18 60 -54c0 -35 -20 -52 -60 -52zM415 668c-39 0 -59 17 -59 52c0 36 20 54 59 54c41 0 60 -18 60 -54c0 -35 -19 -52 -60 -52zM315 603c212 0 258 -123 258 -250v-353h-92v83l5 52h-3
c-33 -90 -114 -149 -220 -149c-170 0 -215 103 -215 189c0 94 56 186 233 186c84 0 162 -21 200 -35v42c0 89 -40 162 -167 162c-112 0 -150 -64 -155 -132h-91c7 83 51 205 247 205zM283 64c137 0 193 115 198 192c-40 19 -118 37 -186 37c-124 0 -155 -59 -155 -115
c0 -54 30 -114 143 -114z" />
    <glyph glyph-name="uni1EA1" unicode="&#x1ea1;" horiz-adv-x="651" 
d="M315 603c212 0 258 -123 258 -250v-353h-92v83l5 52h-3c-33 -90 -114 -149 -220 -149c-170 0 -215 103 -215 189c0 94 56 186 233 186c84 0 162 -21 200 -35v42c0 89 -40 162 -167 162c-112 0 -150 -64 -155 -132h-91c7 83 51 205 247 205zM283 64c137 0 193 115 198 192
c-40 19 -118 37 -186 37c-124 0 -155 -59 -155 -115c0 -54 30 -114 143 -114zM329 -48c39 0 56 -16 56 -43s-17 -42 -56 -42s-56 15 -56 42s18 43 56 43z" />
    <glyph glyph-name="agrave" unicode="&#xe0;" horiz-adv-x="651" 
d="M303 809l98 -138h-62l-134 138h98zM315 603c212 0 258 -123 258 -250v-353h-92v83l5 52h-3c-33 -90 -114 -149 -220 -149c-170 0 -215 103 -215 189c0 94 56 186 233 186c84 0 162 -21 200 -35v42c0 89 -40 162 -167 162c-112 0 -150 -64 -155 -132h-91
c7 83 51 205 247 205zM283 64c137 0 193 115 198 192c-40 19 -118 37 -186 37c-124 0 -155 -59 -155 -115c0 -54 30 -114 143 -114z" />
    <glyph glyph-name="uni1EA3" unicode="&#x1ea3;" horiz-adv-x="651" 
d="M302 734h-43c-1 44 23 73 68 73c42 0 67 -19 67 -53c0 -24 -14 -53 -39 -85h-52c31 35 43 58 43 77c0 11 -8 17 -21 17c-16 0 -23 -6 -23 -29zM315 603c212 0 258 -123 258 -250v-353h-92v83l5 52h-3c-33 -90 -114 -149 -220 -149c-170 0 -215 103 -215 189
c0 94 56 186 233 186c84 0 162 -21 200 -35v42c0 89 -40 162 -167 162c-112 0 -150 -64 -155 -132h-91c7 83 51 205 247 205zM283 64c137 0 193 115 198 192c-40 19 -118 37 -186 37c-124 0 -155 -59 -155 -115c0 -54 30 -114 143 -114z" />
    <glyph glyph-name="amacron" unicode="&#x101;" horiz-adv-x="651" 
d="M168 734h316v-64h-316v64zM315 603c212 0 258 -123 258 -250v-353h-92v83l5 52h-3c-33 -90 -114 -149 -220 -149c-170 0 -215 103 -215 189c0 94 56 186 233 186c84 0 162 -21 200 -35v42c0 89 -40 162 -167 162c-112 0 -150 -64 -155 -132h-91c7 83 51 205 247 205z
M283 64c137 0 193 115 198 192c-40 19 -118 37 -186 37c-124 0 -155 -59 -155 -115c0 -54 30 -114 143 -114z" />
    <glyph glyph-name="aogonek" unicode="&#x105;" horiz-adv-x="651" 
d="M530 -97h56c1 -53 -23 -95 -105 -95c-59 0 -95 27 -95 77s51 90 117 115h-22v83l5 52h-3c-33 -90 -114 -149 -220 -149c-170 0 -215 103 -215 189c0 94 56 186 233 186c84 0 162 -21 200 -35v42c0 89 -40 162 -167 162c-112 0 -150 -64 -155 -132h-91
c7 83 51 205 247 205c212 0 258 -123 258 -250v-353h-2c-71 -30 -122 -62 -122 -107c0 -21 12 -36 40 -36c29 0 40 17 41 46zM283 64c137 0 193 115 198 192c-40 19 -118 37 -186 37c-124 0 -155 -59 -155 -115c0 -54 30 -114 143 -114z" />
    <glyph glyph-name="aring" unicode="&#xe5;" horiz-adv-x="651" 
d="M325 664c-72 0 -107 30 -107 88c0 59 35 90 107 90s109 -31 109 -90c0 -58 -37 -88 -109 -88zM325 802c-33 0 -51 -16 -51 -50c0 -32 18 -47 51 -47c34 0 52 15 52 47c0 34 -18 50 -52 50zM315 603c212 0 258 -123 258 -250v-353h-92v83l5 52h-3
c-33 -90 -114 -149 -220 -149c-170 0 -215 103 -215 189c0 94 56 186 233 186c84 0 162 -21 200 -35v42c0 89 -40 162 -167 162c-112 0 -150 -64 -155 -132h-91c7 83 51 205 247 205zM283 64c137 0 193 115 198 192c-40 19 -118 37 -186 37c-124 0 -155 -59 -155 -115
c0 -54 30 -114 143 -114z" />
    <glyph glyph-name="aringacute" unicode="&#x1fb;" horiz-adv-x="651" 
d="M350 950h68l-93 -97h-44zM325 666c-72 0 -107 30 -107 88c0 59 35 89 107 89s109 -30 109 -89c0 -58 -37 -88 -109 -88zM325 803c-33 0 -51 -16 -51 -49s18 -48 51 -48c34 0 52 15 52 48s-18 49 -52 49zM315 603c212 0 258 -123 258 -250v-353h-92v83l5 52h-3
c-33 -90 -114 -149 -220 -149c-170 0 -215 103 -215 189c0 94 56 186 233 186c84 0 162 -21 200 -35v42c0 89 -40 162 -167 162c-112 0 -150 -64 -155 -132h-91c7 83 51 205 247 205zM283 64c137 0 193 115 198 192c-40 19 -118 37 -186 37c-124 0 -155 -59 -155 -115
c0 -54 30 -114 143 -114z" />
    <glyph glyph-name="atilde" unicode="&#xe3;" horiz-adv-x="651" 
d="M264 713c-21 0 -33 -12 -45 -39l-51 14c16 64 43 90 89 90c56 0 95 -47 130 -47c21 0 34 12 46 40l51 -15c-16 -63 -44 -90 -89 -90c-56 0 -95 47 -131 47zM315 603c212 0 258 -123 258 -250v-353h-92v83l5 52h-3c-33 -90 -114 -149 -220 -149c-170 0 -215 103 -215 189
c0 94 56 186 233 186c84 0 162 -21 200 -35v42c0 89 -40 162 -167 162c-112 0 -150 -64 -155 -132h-91c7 83 51 205 247 205zM283 64c137 0 193 115 198 192c-40 19 -118 37 -186 37c-124 0 -155 -59 -155 -115c0 -54 30 -114 143 -114z" />
    <glyph glyph-name="aeacute" unicode="&#x1fd;" horiz-adv-x="1060" 
d="M552 809h98l-134 -138h-61zM1018 313v-41h-446v-2c6 -136 71 -201 178 -201c110 0 163 48 173 130v2h92v-2c-13 -128 -99 -212 -267 -212c-121 0 -207 55 -245 164c-47 -96 -142 -165 -245 -165c-173 0 -210 107 -210 185v3c0 74 37 185 228 185c84 0 165 -22 203 -38v47
c0 89 -40 162 -167 162c-112 0 -151 -64 -155 -128v-4h-91v5c5 78 51 200 247 200c129 0 190 -50 219 -114c43 75 119 114 219 114c180 0 267 -108 267 -290zM573 341v-2h353v2c-3 114 -58 181 -175 181c-101 0 -168 -59 -178 -181zM283 65c137 0 193 118 196 190
c-41 20 -124 40 -189 40c-134 0 -150 -73 -150 -115v-2c0 -52 25 -113 143 -113z" />
    <glyph glyph-name="cacute" unicode="&#x107;" horiz-adv-x="620" 
d="M435 809l-134 -138h-61l97 138h98zM320 -14c-172 0 -274 110 -274 306v8c0 194 102 303 274 303c157 0 251 -79 262 -222h-94c-9 95 -73 141 -169 141c-110 0 -181 -72 -181 -224v-5c0 -155 72 -225 181 -225c105 0 161 54 170 143h93c-10 -144 -105 -225 -262 -225z" />
    <glyph glyph-name="ccaron" unicode="&#x10d;" horiz-adv-x="620" 
d="M273 668l-103 139h57l89 -92l88 92h58l-104 -139h-85zM320 -14c-172 0 -274 110 -274 306v8c0 194 102 303 274 303c157 0 251 -79 262 -222h-94c-9 95 -73 141 -169 141c-110 0 -181 -72 -181 -224v-5c0 -155 72 -225 181 -225c105 0 161 54 170 143h93
c-10 -144 -105 -225 -262 -225z" />
    <glyph glyph-name="ccedilla" unicode="&#xe7;" horiz-adv-x="620" 
d="M319 68c105 0 161 54 170 143h93c-10 -140 -100 -220 -249 -225l-11 -31c32 6 86 -9 86 -65c0 -47 -36 -78 -94 -78c-57 0 -99 22 -100 83h54c0 -32 19 -41 46 -41c22 0 37 13 37 39s-22 42 -55 32l-21 15l16 47c-154 12 -245 120 -245 305v8c0 194 102 303 274 303
c157 0 251 -79 262 -222h-94c-9 95 -73 141 -169 141c-110 0 -181 -72 -181 -224v-5c0 -155 72 -225 181 -225z" />
    <glyph glyph-name="ccircumflex" unicode="&#x109;" horiz-adv-x="620" 
d="M227 667h-57l103 139h85l104 -139h-58l-88 92zM320 -14c-172 0 -274 110 -274 306v8c0 194 102 303 274 303c157 0 251 -79 262 -222h-94c-9 95 -73 141 -169 141c-110 0 -181 -72 -181 -224v-5c0 -155 72 -225 181 -225c105 0 161 54 170 143h93
c-10 -144 -105 -225 -262 -225z" />
    <glyph glyph-name="cdotaccent" unicode="&#x10b;" horiz-adv-x="620" 
d="M316 671c-42 0 -60 17 -60 46s19 46 60 46c42 0 60 -17 60 -46s-18 -46 -60 -46zM320 -14c-172 0 -274 110 -274 306v8c0 194 102 303 274 303c157 0 251 -79 262 -222h-94c-9 95 -73 141 -169 141c-110 0 -181 -72 -181 -224v-5c0 -155 72 -225 181 -225
c105 0 161 54 170 143h93c-10 -144 -105 -225 -262 -225z" />
    <glyph glyph-name="dcaron" unicode="&#x10f;" horiz-adv-x="727" 
d="M502 464l-3 63v238h92v-765h-92v66l3 60h-3c-34 -87 -110 -140 -210 -140c-174 0 -243 132 -243 303v11c0 167 69 303 243 303c101 0 174 -51 211 -139h2zM660 553l-5 212h59l-6 -212h-48zM314 68c137 0 185 118 185 217v19c0 95 -45 218 -185 218
c-139 0 -175 -125 -175 -226v-5c0 -112 36 -223 175 -223z" />
    <glyph glyph-name="dcroat" unicode="&#x111;" horiz-adv-x="676" 
d="M591 722h50v-63h-50v-659h-92v66l3 60h-3c-34 -87 -110 -140 -210 -140c-174 0 -243 132 -243 303v11c0 167 69 303 243 303c101 0 174 -51 211 -139h2l-3 63v132h-244v63h244v43h92v-43zM314 68c137 0 185 118 185 217v19c0 95 -45 218 -185 218
c-139 0 -175 -125 -175 -226v-5c0 -112 36 -223 175 -223z" />
    <glyph glyph-name="uni1E0D" unicode="&#x1e0d;" horiz-adv-x="676" 
d="M499 527v238h92v-765h-92v66l3 60h-3c-34 -87 -110 -140 -210 -140c-174 0 -243 132 -243 303v11c0 167 69 303 243 303c101 0 174 -51 211 -139h2zM314 68c137 0 185 118 185 217v19c0 95 -45 218 -185 218c-139 0 -175 -125 -175 -226v-5c0 -112 36 -223 175 -223z
M340 -48c39 0 56 -16 56 -43s-17 -42 -56 -42s-56 15 -56 42s18 43 56 43z" />
    <glyph glyph-name="uni1E0F" unicode="&#x1e0f;" horiz-adv-x="676" 
d="M499 527v238h92v-765h-92v66l3 60h-3c-34 -87 -110 -140 -210 -140c-174 0 -243 132 -243 303v11c0 167 69 303 243 303c101 0 174 -51 211 -139h2zM314 68c137 0 185 118 185 217v19c0 95 -45 218 -185 218c-139 0 -175 -125 -175 -226v-5c0 -112 36 -223 175 -223z
M494 -116h-316v57h316v-57z" />
    <glyph glyph-name="eacute" unicode="&#xe9;" horiz-adv-x="627" 
d="M338 809h98l-134 -138h-61zM585 313v-41h-447c7 -137 72 -204 179 -204c110 0 163 49 173 131h92c-13 -128 -99 -213 -267 -213c-171 0 -269 108 -269 308v9c0 192 100 300 272 300c180 0 267 -108 267 -290zM318 522c-101 0 -168 -58 -178 -183h354
c-3 115 -58 183 -176 183z" />
    <glyph glyph-name="ebreve" unicode="&#x115;" horiz-adv-x="627" 
d="M317 667c-98 0 -139 50 -134 139h60c-4 -57 18 -85 74 -85c55 0 77 28 74 85h60c5 -90 -37 -139 -134 -139zM585 313v-41h-447c7 -137 72 -204 179 -204c110 0 163 49 173 131h92c-13 -128 -99 -213 -267 -213c-171 0 -269 108 -269 308v9c0 192 100 300 272 300
c180 0 267 -108 267 -290zM318 522c-101 0 -168 -58 -178 -183h354c-3 115 -58 183 -176 183z" />
    <glyph glyph-name="ecaron" unicode="&#x11b;" horiz-adv-x="627" 
d="M463 807l-104 -139h-85l-103 139h57l89 -92l88 92h58zM585 313v-41h-447c7 -137 72 -204 179 -204c110 0 163 49 173 131h92c-13 -128 -99 -213 -267 -213c-171 0 -269 108 -269 308v9c0 192 100 300 272 300c180 0 267 -108 267 -290zM318 522
c-101 0 -168 -58 -178 -183h354c-3 115 -58 183 -176 183z" />
    <glyph glyph-name="ecircumflex" unicode="&#xea;" horiz-adv-x="627" 
d="M405 667l-88 92l-89 -92h-57l103 139h85l104 -139h-58zM585 313v-41h-447c7 -137 72 -204 179 -204c110 0 163 49 173 131h92c-13 -128 -99 -213 -267 -213c-171 0 -269 108 -269 308v9c0 192 100 300 272 300c180 0 267 -108 267 -290zM318 522
c-101 0 -168 -58 -178 -183h354c-3 115 -58 183 -176 183z" />
    <glyph glyph-name="uni1EBF" unicode="&#x1ebf;" horiz-adv-x="627" 
d="M517 846l68 1l-92 -112l-43 -1zM405 667l-88 92l-89 -92h-57l103 139h85l104 -139h-58zM318 603c180 0 267 -108 267 -290v-41h-447c7 -137 72 -204 179 -204c110 0 163 49 173 131h92c-13 -128 -99 -213 -267 -213c-171 0 -269 108 -269 308v9c0 192 100 300 272 300z
M318 522c-101 0 -168 -58 -178 -183h354c-3 115 -58 183 -176 183z" />
    <glyph glyph-name="uni1EC7" unicode="&#x1ec7;" horiz-adv-x="627" 
d="M405 667l-88 92l-89 -92h-57l103 139h85l104 -139h-58zM585 313v-41h-447c7 -137 72 -204 179 -204c110 0 163 49 173 131h92c-13 -128 -99 -213 -267 -213c-171 0 -269 108 -269 308v9c0 192 100 300 272 300c180 0 267 -108 267 -290zM318 522
c-101 0 -168 -58 -178 -183h354c-3 115 -58 183 -176 183zM319 -48c39 0 56 -16 56 -43s-17 -42 -56 -42s-56 15 -56 42s18 43 56 43z" />
    <glyph glyph-name="uni1EC1" unicode="&#x1ec1;" horiz-adv-x="627" 
d="M408 890l68 -111h-43l-93 111h68zM406 667l-89 92l-89 -92h-57l103 139h86l103 -139h-57zM585 313v-41h-447c7 -137 72 -204 179 -204c110 0 163 49 173 131h92c-13 -128 -99 -213 -267 -213c-171 0 -269 108 -269 308v9c0 192 100 300 272 300c180 0 267 -108 267 -290z
M318 522c-101 0 -168 -58 -178 -183h354c-3 115 -58 183 -176 183z" />
    <glyph glyph-name="uni1EC3" unicode="&#x1ec3;" horiz-adv-x="627" 
d="M432 797h-34c-1 36 19 59 55 59c34 0 54 -15 54 -43c0 -19 -12 -43 -32 -68h-41c24 28 34 47 34 62c0 9 -7 14 -17 14c-13 0 -19 -5 -19 -24zM405 667l-88 92l-89 -92h-57l103 139h85l104 -139h-58zM585 313v-41h-447c7 -137 72 -204 179 -204c110 0 163 49 173 131h92
c-13 -128 -99 -213 -267 -213c-171 0 -269 108 -269 308v9c0 192 100 300 272 300c180 0 267 -108 267 -290zM318 522c-101 0 -168 -58 -178 -183h354c-3 115 -58 183 -176 183z" />
    <glyph glyph-name="uni1EC5" unicode="&#x1ec5;" horiz-adv-x="627" 
d="M273 883c-14 0 -23 -8 -31 -28l-36 11c11 44 30 62 62 62c40 0 67 -33 91 -33c15 0 24 9 32 28l36 -10c-11 -44 -31 -63 -62 -63c-40 0 -67 33 -92 33zM405 667l-88 92l-89 -92h-57l103 139h85l104 -139h-58zM585 313v-41h-447c7 -137 72 -204 179 -204
c110 0 163 49 173 131h92c-13 -128 -99 -213 -267 -213c-171 0 -269 108 -269 308v9c0 192 100 300 272 300c180 0 267 -108 267 -290zM318 522c-101 0 -168 -58 -178 -183h354c-3 115 -58 183 -176 183z" />
    <glyph glyph-name="edieresis" unicode="&#xeb;" horiz-adv-x="627" 
d="M210 668c-40 0 -60 17 -60 52c0 36 21 54 60 54c40 0 60 -18 60 -54c0 -35 -20 -52 -60 -52zM405 668c-39 0 -59 17 -59 52c0 36 20 54 59 54c41 0 60 -18 60 -54c0 -35 -19 -52 -60 -52zM585 313v-41h-447c7 -137 72 -204 179 -204c110 0 163 49 173 131h92
c-13 -128 -99 -213 -267 -213c-171 0 -269 108 -269 308v9c0 192 100 300 272 300c180 0 267 -108 267 -290zM318 522c-101 0 -168 -58 -178 -183h354c-3 115 -58 183 -176 183z" />
    <glyph glyph-name="edotaccent" unicode="&#x117;" horiz-adv-x="627" 
d="M317 671c-42 0 -60 17 -60 46s19 46 60 46c42 0 60 -17 60 -46s-18 -46 -60 -46zM585 313v-41h-447c7 -137 72 -204 179 -204c110 0 163 49 173 131h92c-13 -128 -99 -213 -267 -213c-171 0 -269 108 -269 308v9c0 192 100 300 272 300c180 0 267 -108 267 -290zM318 522
c-101 0 -168 -58 -178 -183h354c-3 115 -58 183 -176 183z" />
    <glyph glyph-name="uni1EB9" unicode="&#x1eb9;" horiz-adv-x="627" 
d="M585 313v-41h-447c7 -137 72 -204 179 -204c110 0 163 49 173 131h92c-13 -128 -99 -213 -267 -213c-171 0 -269 108 -269 308v9c0 192 100 300 272 300c180 0 267 -108 267 -290zM318 522c-101 0 -168 -58 -178 -183h354c-3 115 -58 183 -176 183zM319 -48
c39 0 56 -16 56 -43s-17 -42 -56 -42s-56 15 -56 42s18 43 56 43z" />
    <glyph glyph-name="egrave" unicode="&#xe8;" horiz-adv-x="627" 
d="M293 809l98 -138h-62l-134 138h98zM585 313v-41h-447c7 -137 72 -204 179 -204c110 0 163 49 173 131h92c-13 -128 -99 -213 -267 -213c-171 0 -269 108 -269 308v9c0 192 100 300 272 300c180 0 267 -108 267 -290zM318 522c-101 0 -168 -58 -178 -183h354
c-3 115 -58 183 -176 183z" />
    <glyph glyph-name="uni1EBB" unicode="&#x1ebb;" horiz-adv-x="627" 
d="M293 734h-43c-1 44 23 73 68 73c42 0 67 -19 67 -53c0 -24 -14 -53 -39 -85h-52c31 35 43 58 43 77c0 11 -8 17 -21 17c-16 0 -23 -6 -23 -29zM585 313v-41h-447c7 -137 72 -204 179 -204c110 0 163 49 173 131h92c-13 -128 -99 -213 -267 -213c-171 0 -269 108 -269 308
v9c0 192 100 300 272 300c180 0 267 -108 267 -290zM318 522c-101 0 -168 -58 -178 -183h354c-3 115 -58 183 -176 183z" />
    <glyph glyph-name="emacron" unicode="&#x113;" horiz-adv-x="627" 
d="M158 734h316v-64h-316v64zM585 313v-41h-447c7 -137 72 -204 179 -204c110 0 163 49 173 131h92c-13 -128 -99 -213 -267 -213c-171 0 -269 108 -269 308v9c0 192 100 300 272 300c180 0 267 -108 267 -290zM318 522c-101 0 -168 -58 -178 -183h354
c-3 115 -58 183 -176 183z" />
    <glyph glyph-name="eogonek" unicode="&#x119;" horiz-adv-x="627" 
d="M585 313v-41h-447c7 -137 72 -204 179 -204c110 0 163 49 173 131h92c-9 -92 -56 -162 -145 -194c-64 -28 -110 -59 -110 -102c0 -21 12 -36 40 -36c29 0 40 17 41 46h56c1 -53 -23 -95 -105 -95c-59 0 -95 27 -95 77c0 37 27 68 67 91h-16c-171 0 -269 108 -269 308v9
c0 192 100 300 272 300c180 0 267 -108 267 -290zM318 522c-101 0 -168 -58 -178 -183h354c-3 115 -58 183 -176 183z" />
    <glyph glyph-name="uni1EBD" unicode="&#x1ebd;" horiz-adv-x="627" 
d="M255 713c-21 0 -33 -12 -45 -39l-51 14c16 64 43 90 89 90c56 0 95 -47 130 -47c21 0 34 12 46 40l51 -15c-16 -63 -44 -90 -89 -90c-56 0 -95 47 -131 47zM585 313v-41h-447c7 -137 72 -204 179 -204c110 0 163 49 173 131h92c-13 -128 -99 -213 -267 -213
c-171 0 -269 108 -269 308v9c0 192 100 300 272 300c180 0 267 -108 267 -290zM318 522c-101 0 -168 -58 -178 -183h354c-3 115 -58 183 -176 183z" />
    <glyph glyph-name="uni0259" unicode="&#x259;" horiz-adv-x="627" 
d="M312 603c171 0 270 -108 270 -307v-10c0 -192 -100 -300 -273 -300c-180 0 -267 108 -267 291v40h447c-6 138 -71 205 -178 205c-110 0 -163 -49 -174 -131h-91c13 127 99 212 266 212zM310 68c101 0 167 57 177 183h-353c3 -116 58 -183 176 -183z" />
    <glyph glyph-name="gbreve" unicode="&#x11f;" horiz-adv-x="677" 
d="M342 667c-98 0 -139 50 -134 139h60c-4 -57 18 -85 74 -85c55 0 77 28 74 85h60c5 -90 -37 -139 -134 -139zM498 525v64h93v-510c0 -172 -87 -275 -273 -275c-78 0 -150 12 -216 37l11 73c58 -23 133 -35 196 -35c127 0 188 71 190 181l1 39l2 53h-3
c-36 -87 -109 -139 -211 -139c-173 0 -242 131 -242 291v6c0 159 69 293 242 293c102 0 178 -53 212 -139h2zM314 94c140 0 185 119 185 209v6c0 85 -42 213 -185 213c-139 0 -176 -123 -176 -215v-5c0 -99 37 -208 176 -208z" />
    <glyph glyph-name="gcaron" unicode="&#x1e7;" horiz-adv-x="677" 
d="M488 807l-104 -139h-85l-103 139h57l89 -92l88 92h58zM498 525v64h93v-510c0 -172 -87 -275 -273 -275c-78 0 -150 12 -216 37l11 73c58 -23 133 -35 196 -35c127 0 188 71 190 181l1 39l2 53h-3c-36 -87 -109 -139 -211 -139c-173 0 -242 131 -242 291v6
c0 159 69 293 242 293c102 0 178 -53 212 -139h2zM314 94c140 0 185 119 185 209v6c0 85 -42 213 -185 213c-139 0 -176 -123 -176 -215v-5c0 -99 37 -208 176 -208z" />
    <glyph glyph-name="gcircumflex" unicode="&#x11d;" horiz-adv-x="677" 
d="M430 667l-88 92l-89 -92h-57l103 139h85l104 -139h-58zM498 525v64h93v-510c0 -172 -87 -275 -273 -275c-78 0 -150 12 -216 37l11 73c58 -23 133 -35 196 -35c127 0 188 71 190 181l1 39l2 53h-3c-36 -87 -109 -139 -211 -139c-173 0 -242 131 -242 291v6
c0 159 69 293 242 293c102 0 178 -53 212 -139h2zM314 94c140 0 185 119 185 209v6c0 85 -42 213 -185 213c-139 0 -176 -123 -176 -215v-5c0 -99 37 -208 176 -208z" />
    <glyph glyph-name="uni0123" unicode="&#x123;" horiz-adv-x="677" 
d="M349 659c-35 0 -50 14 -50 49c0 99 39 118 90 113v-36c-32 1 -42 -8 -42 -42c32 0 49 -13 49 -41c0 -30 -16 -43 -47 -43zM498 525v64h93v-510c0 -172 -87 -275 -273 -275c-78 0 -150 12 -216 37l11 73c58 -23 133 -35 196 -35c127 0 188 71 190 181l1 39l2 53h-3
c-36 -87 -109 -139 -211 -139c-173 0 -242 131 -242 291v6c0 159 69 293 242 293c102 0 178 -53 212 -139h2zM314 94c140 0 185 119 185 209v6c0 85 -42 213 -185 213c-139 0 -176 -123 -176 -215v-5c0 -99 37 -208 176 -208z" />
    <glyph glyph-name="gdotaccent" unicode="&#x121;" horiz-adv-x="677" 
d="M342 671c-42 0 -60 17 -60 46s19 46 60 46c42 0 60 -17 60 -46s-18 -46 -60 -46zM498 525v64h93v-510c0 -172 -87 -275 -273 -275c-78 0 -150 12 -216 37l11 73c58 -23 133 -35 196 -35c127 0 188 71 190 181l1 39l2 53h-3c-36 -87 -109 -139 -211 -139
c-173 0 -242 131 -242 291v6c0 159 69 293 242 293c102 0 178 -53 212 -139h2zM314 94c140 0 185 119 185 209v6c0 85 -42 213 -185 213c-139 0 -176 -123 -176 -215v-5c0 -99 37 -208 176 -208z" />
    <glyph glyph-name="uni1E21" unicode="&#x1e21;" horiz-adv-x="677" 
d="M183 734h316v-64h-316v64zM498 525v64h93v-510c0 -172 -87 -275 -273 -275c-78 0 -150 12 -216 37l11 73c58 -23 133 -35 196 -35c127 0 188 71 190 181l1 39l2 53h-3c-36 -87 -109 -139 -211 -139c-173 0 -242 131 -242 291v6c0 159 69 293 242 293
c102 0 178 -53 212 -139h2zM314 94c140 0 185 119 185 209v6c0 85 -42 213 -185 213c-139 0 -176 -123 -176 -215v-5c0 -99 37 -208 176 -208z" />
    <glyph glyph-name="hbar" unicode="&#x127;" horiz-adv-x="671" 
d="M371 603c141 0 222 -76 222 -253v-350h-93v338c0 124 -55 183 -156 183c-139 0 -195 -117 -195 -217v-304h-92v647h-53v64h53v54h92v-54h240v-64h-240v-133l-5 -60h3c35 93 115 149 224 149z" />
    <glyph glyph-name="uni1E2B" unicode="&#x1e2b;" horiz-adv-x="700" 
d="M400 603c141 0 222 -76 222 -253v-350h-93v338c0 124 -55 183 -156 183c-139 0 -195 -117 -195 -217v-304h-92v765h92v-251l-5 -60h3c35 93 115 149 224 149zM411 -41h49c4 -67 -30 -104 -110 -104c-81 0 -114 37 -110 104h49c-3 -42 15 -64 61 -64c45 0 63 22 61 64z
" />
    <glyph glyph-name="hcircumflex" unicode="&#x125;" horiz-adv-x="700" 
d="M279 784h-58l-88 91l-89 -91h-58l104 138h85zM400 603c141 0 222 -76 222 -253v-350h-93v338c0 124 -55 183 -156 183c-139 0 -195 -117 -195 -217v-304h-92v765h92v-251l-5 -60h3c35 93 115 149 224 149z" />
    <glyph glyph-name="uni1E25" unicode="&#x1e25;" horiz-adv-x="700" 
d="M400 603c141 0 222 -76 222 -253v-350h-93v338c0 124 -55 183 -156 183c-139 0 -195 -117 -195 -217v-304h-92v765h92v-251l-5 -60h3c35 93 115 149 224 149zM349 -48c39 0 56 -16 56 -43s-17 -42 -56 -42s-56 15 -56 42s18 43 56 43z" />
    <glyph glyph-name="iacute" unicode="&#xed;" horiz-adv-x="263" 
d="M252 809l-134 -138h-61l97 138h98zM178 0h-92v589h92v-589z" />
    <glyph glyph-name="ibreve" unicode="&#x12d;" horiz-adv-x="263" 
d="M132 667c-98 0 -139 50 -135 139h61c-4 -57 18 -85 74 -85c55 0 77 28 74 85h60c5 -90 -37 -139 -134 -139zM178 0h-92v589h92v-589z" />
    <glyph glyph-name="uni01D0" unicode="&#x1d0;" horiz-adv-x="263" 
d="M89 668l-104 139h58l89 -92l88 92h58l-104 -139h-85zM178 0h-92v589h92v-589z" />
    <glyph glyph-name="icircumflex" unicode="&#xee;" horiz-adv-x="263" 
d="M43 667h-58l104 139h85l104 -139h-58l-88 92zM178 0h-92v589h92v-589z" />
    <glyph glyph-name="idieresis" unicode="&#xef;" horiz-adv-x="263" 
d="M26 668c-40 0 -60 17 -60 52c0 36 21 54 60 54c40 0 60 -18 60 -54c0 -35 -20 -52 -60 -52zM221 668c-39 0 -59 17 -59 52c0 36 20 54 59 54c41 0 60 -18 60 -54c0 -35 -19 -52 -60 -52zM178 0h-92v589h92v-589z" />
    <glyph glyph-name="i.loclTRK" horiz-adv-x="263" 
d="M133 671c-42 0 -60 17 -60 46s19 46 60 46c42 0 60 -17 60 -46s-18 -46 -60 -46zM178 0h-92v589h92v-589z" />
    <glyph glyph-name="uni1ECB" unicode="&#x1ecb;" horiz-adv-x="263" 
d="M132 683c-42 0 -62 18 -62 54s21 55 62 55c42 0 63 -19 63 -55s-21 -54 -63 -54zM178 0h-92v589h92v-589zM136 -133c-39 0 -56 15 -56 42s18 43 56 43c39 0 56 -16 56 -43s-17 -42 -56 -42z" />
    <glyph glyph-name="igrave" unicode="&#xec;" horiz-adv-x="263" 
d="M207 671h-62l-134 138h98zM178 0h-92v589h92v-589z" />
    <glyph glyph-name="uni1EC9" unicode="&#x1ec9;" horiz-adv-x="263" 
d="M162 669h-52c31 35 43 58 43 77c0 11 -8 17 -21 17c-16 0 -23 -6 -23 -29h-43c-1 44 23 73 68 73c42 0 67 -19 67 -53c0 -24 -14 -53 -39 -85zM178 0h-92v589h92v-589z" />
    <glyph glyph-name="ij" unicode="&#x133;" horiz-adv-x="535" 
d="M132 683c-42 0 -62 18 -62 54s21 55 62 55c42 0 63 -19 63 -55s-21 -54 -63 -54zM403 683c-42 0 -62 18 -62 54s21 55 62 55c42 0 63 -19 63 -55s-21 -54 -63 -54zM178 0h-92v589h92v-589zM275 -195c-41 0 -77 8 -99 16l4 72c21 -6 48 -12 78 -12c69 0 99 55 99 154v554
h92v-571c0 -122 -55 -213 -174 -213z" />
    <glyph glyph-name="imacron" unicode="&#x12b;" horiz-adv-x="263" 
d="M290 670h-317v64h317v-64zM178 0h-92v589h92v-589z" />
    <glyph glyph-name="iogonek" unicode="&#x12f;" horiz-adv-x="263" 
d="M132 792c42 0 63 -19 63 -55s-21 -54 -63 -54s-62 18 -62 54s21 55 62 55zM95 0h-9v589h92v-589c-88 -25 -138 -57 -138 -107c0 -21 12 -36 40 -36c29 0 40 17 41 46h56c1 -53 -23 -95 -105 -95c-59 0 -96 27 -96 77c0 52 54 91 119 115z" />
    <glyph glyph-name="itilde" unicode="&#x129;" horiz-adv-x="263" 
d="M201 666c-56 0 -95 47 -131 47c-21 0 -33 -12 -45 -39l-52 14c17 64 44 90 90 90c56 0 95 -47 130 -47c21 0 34 12 46 40l51 -15c-16 -63 -44 -90 -89 -90zM178 0h-92v589h92v-589z" />
    <glyph glyph-name="jcircumflex" unicode="&#x135;" horiz-adv-x="272" 
d="M51 667h-58l104 139h85l104 -139h-58l-88 92zM12 -195c-41 0 -77 8 -100 16l5 72c21 -6 47 -12 78 -12c69 0 99 55 99 154v554h92v-571c0 -122 -55 -213 -174 -213z" />
    <glyph glyph-name="uni0137" unicode="&#x137;" horiz-adv-x="613" 
d="M178 0h-92v765h92v-419h122l175 243h104l-204 -282l228 -307h-106l-199 271h-120v-271zM253 -177v29c38 -1 50 7 51 34c-39 0 -59 10 -59 34s19 34 56 34c42 0 61 -12 61 -39c0 -81 -47 -96 -109 -92z" />
    <glyph glyph-name="kgreenlandic" unicode="&#x138;" horiz-adv-x="616" 
d="M178 0h-92v589h92v-249h143l157 249h103l-184 -288l209 -301h-106l-181 265h-141v-265z" />
    <glyph glyph-name="lacute" unicode="&#x13a;" horiz-adv-x="263" 
d="M242 919l-134 -139h-62l98 139h98zM178 0h-92v765h92v-765z" />
    <glyph glyph-name="lcaron" unicode="&#x13e;" horiz-adv-x="320" 
d="M307 766l-6 -230h-55l-6 230h67zM178 0h-92v765h92v-765z" />
    <glyph glyph-name="uni013C" unicode="&#x13c;" horiz-adv-x="263" 
d="M178 0h-92v765h92v-765zM76 -177v29c38 -1 50 7 51 34c-39 0 -59 10 -59 34s19 34 56 34c42 0 61 -12 61 -39c0 -81 -47 -96 -109 -92z" />
    <glyph glyph-name="ldot" unicode="&#x140;" horiz-adv-x="351" 
d="M178 0h-92v765h92v-765zM299 357c-30 0 -44 13 -44 38s15 38 44 38s44 -13 44 -38s-15 -38 -44 -38z" />
    <glyph glyph-name="uni1E37" unicode="&#x1e37;" horiz-adv-x="263" 
d="M178 0h-92v765h92v-765zM135 -133c-39 0 -56 15 -56 42s18 43 56 43c39 0 56 -16 56 -43s-17 -42 -56 -42z" />
    <glyph glyph-name="uni1E39" unicode="&#x1e39;" horiz-adv-x="263" 
d="M289 780h-317v64h317v-64zM178 0h-92v765h92v-765zM135 -133c-39 0 -56 15 -56 42s18 43 56 43c39 0 56 -16 56 -43s-17 -42 -56 -42z" />
    <glyph glyph-name="uni1E3B" unicode="&#x1e3b;" horiz-adv-x="263" 
d="M178 0h-92v765h92v-765zM289 -116h-317v57h317v-57z" />
    <glyph glyph-name="lslash" unicode="&#x142;" horiz-adv-x="282" 
d="M259 468l22 -43l-94 -45v-380h-92v336l-72 -35l-21 43l93 45v376h92v-332z" />
    <glyph glyph-name="uni1E43" unicode="&#x1e43;" horiz-adv-x="1087" 
d="M178 0h-92v589h92v-75l-5 -61h2c32 89 113 150 213 150c127 0 179 -76 196 -149h2c34 88 117 149 218 149c194 0 205 -172 205 -254v-349h-93v334c0 81 -18 187 -143 187c-117 0 -180 -111 -180 -209v-312h-92v338c0 70 -16 183 -146 183c-114 0 -177 -114 -177 -210
v-311zM541 -133c-39 0 -56 15 -56 42s18 43 56 43c39 0 56 -16 56 -43s-17 -42 -56 -42z" />
    <glyph glyph-name="nacute" unicode="&#x144;" horiz-adv-x="700" 
d="M366 809h98l-134 -138h-61zM399 603c138 0 222 -79 222 -257v-346h-92v335c0 127 -55 186 -157 186c-138 0 -194 -115 -194 -218v-303h-92v589h92v-75l-5 -61h2c35 91 110 150 224 150z" />
    <glyph glyph-name="ncaron" unicode="&#x148;" horiz-adv-x="700" 
d="M491 807l-104 -139h-85l-103 139h57l89 -92l88 92h58zM399 603c138 0 222 -79 222 -257v-346h-92v335c0 127 -55 186 -157 186c-138 0 -194 -115 -194 -218v-303h-92v589h92v-75l-5 -61h2c35 91 110 150 224 150z" />
    <glyph glyph-name="uni0146" unicode="&#x146;" horiz-adv-x="700" 
d="M399 603c138 0 222 -79 222 -257v-346h-92v335c0 127 -55 186 -157 186c-138 0 -194 -115 -194 -218v-303h-92v589h92v-75l-5 -61h2c35 91 110 150 224 150zM336 -46c42 0 61 -12 61 -39c0 -81 -47 -96 -109 -92v29c38 -1 50 7 51 34c-39 0 -59 10 -59 34s19 34 56 34z
" />
    <glyph glyph-name="uni1E45" unicode="&#x1e45;" horiz-adv-x="700" 
d="M345 671c-42 0 -60 17 -60 46s19 46 60 46c42 0 60 -17 60 -46s-18 -46 -60 -46zM399 603c138 0 222 -79 222 -257v-346h-92v335c0 127 -55 186 -157 186c-138 0 -194 -115 -194 -218v-303h-92v589h92v-75l-5 -61h2c35 91 110 150 224 150z" />
    <glyph glyph-name="uni1E47" unicode="&#x1e47;" horiz-adv-x="700" 
d="M399 603c138 0 222 -79 222 -257v-346h-92v335c0 127 -55 186 -157 186c-138 0 -194 -115 -194 -218v-303h-92v589h92v-75l-5 -61h2c35 91 110 150 224 150zM347 -48c39 0 56 -16 56 -43s-17 -42 -56 -42s-56 15 -56 42s18 43 56 43z" />
    <glyph glyph-name="uni0272" unicode="&#x272;" horiz-adv-x="700" 
d="M399 603c138 0 222 -79 222 -257v-346h-92v335c0 127 -55 186 -157 186c-138 0 -194 -115 -194 -218v-303h1c0 -125 -83 -187 -251 -187v56c103 0 158 46 158 131v589h92v-75l-5 -61h2c35 91 110 150 224 150z" />
    <glyph glyph-name="uni1E49" unicode="&#x1e49;" horiz-adv-x="700" 
d="M399 603c138 0 222 -79 222 -257v-346h-92v335c0 127 -55 186 -157 186c-138 0 -194 -115 -194 -218v-303h-92v589h92v-75l-5 -61h2c35 91 110 150 224 150zM501 -116h-316v57h316v-57z" />
    <glyph glyph-name="ntilde" unicode="&#xf1;" horiz-adv-x="700" 
d="M283 713c-21 0 -33 -12 -45 -39l-51 14c16 64 43 90 89 90c56 0 95 -47 130 -47c21 0 34 12 46 40l51 -15c-16 -63 -44 -90 -89 -90c-56 0 -95 47 -131 47zM399 603c138 0 222 -79 222 -257v-346h-92v335c0 127 -55 186 -157 186c-138 0 -194 -115 -194 -218v-303h-92
v589h92v-75l-5 -61h2c35 91 110 150 224 150z" />
    <glyph glyph-name="eng" unicode="&#x14b;" horiz-adv-x="700" 
d="M621 346v-346h1c0 -125 -82 -187 -250 -187v56c103 0 157 46 157 131v335c0 127 -55 186 -157 186c-138 0 -194 -115 -194 -218v-303h-92v589h92v-75l-5 -61h2c35 91 110 150 224 150c138 0 222 -79 222 -257z" />
    <glyph glyph-name="oacute" unicode="&#xf3;" horiz-adv-x="650" 
d="M445 809l-134 -138h-61l97 138h98zM325 -14c-176 0 -279 105 -279 305v9c0 198 103 303 279 303s280 -105 280 -303v-9c0 -200 -104 -305 -280 -305zM325 68c117 0 188 69 188 225v4c0 155 -71 225 -188 225c-116 0 -187 -70 -187 -225v-4c0 -156 71 -225 187 -225z" />
    <glyph glyph-name="obreve" unicode="&#x14f;" horiz-adv-x="650" 
d="M326 667c-98 0 -139 50 -134 139h60c-4 -57 18 -85 74 -85c55 0 77 28 74 85h60c5 -90 -37 -139 -134 -139zM325 -14c-176 0 -279 105 -279 305v9c0 198 103 303 279 303s280 -105 280 -303v-9c0 -200 -104 -305 -280 -305zM325 68c117 0 188 69 188 225v4
c0 155 -71 225 -188 225c-116 0 -187 -70 -187 -225v-4c0 -156 71 -225 187 -225z" />
    <glyph glyph-name="uni01D2" unicode="&#x1d2;" horiz-adv-x="650" 
d="M283 668l-103 139h57l89 -92l88 92h58l-104 -139h-85zM325 -14c-176 0 -279 105 -279 305v9c0 198 103 303 279 303s280 -105 280 -303v-9c0 -200 -104 -305 -280 -305zM325 68c117 0 188 69 188 225v4c0 155 -71 225 -188 225c-116 0 -187 -70 -187 -225v-4
c0 -156 71 -225 187 -225z" />
    <glyph glyph-name="ocircumflex" unicode="&#xf4;" horiz-adv-x="650" 
d="M237 667h-57l103 139h85l104 -139h-58l-88 92zM325 -14c-176 0 -279 105 -279 305v9c0 198 103 303 279 303s280 -105 280 -303v-9c0 -200 -104 -305 -280 -305zM325 68c117 0 188 69 188 225v4c0 155 -71 225 -188 225c-116 0 -187 -70 -187 -225v-4
c0 -156 71 -225 187 -225z" />
    <glyph glyph-name="uni1ED1" unicode="&#x1ed1;" horiz-adv-x="650" 
d="M594 847l-92 -112l-43 -1l67 112zM237 667h-57l103 139h85l104 -139h-58l-88 92zM325 -14c-176 0 -279 105 -279 305v9c0 198 103 303 279 303s280 -105 280 -303v-9c0 -200 -104 -305 -280 -305zM325 68c117 0 188 69 188 225v4c0 155 -71 225 -188 225
c-116 0 -187 -70 -187 -225v-4c0 -156 71 -225 187 -225z" />
    <glyph glyph-name="uni1ED9" unicode="&#x1ed9;" horiz-adv-x="650" 
d="M237 667h-57l103 139h85l104 -139h-58l-88 92zM325 -14c-176 0 -279 105 -279 305v9c0 198 103 303 279 303s280 -105 280 -303v-9c0 -200 -104 -305 -280 -305zM325 68c117 0 188 69 188 225v4c0 155 -71 225 -188 225c-116 0 -187 -70 -187 -225v-4
c0 -156 71 -225 187 -225zM328 -133c-39 0 -56 15 -56 42s18 43 56 43c39 0 56 -16 56 -43s-17 -42 -56 -42z" />
    <glyph glyph-name="uni1ED3" unicode="&#x1ed3;" horiz-adv-x="650" 
d="M485 779h-43l-93 111h68zM369 806l103 -139h-57l-89 92l-89 -92h-57l103 139h86zM325 -14c-176 0 -279 105 -279 305v9c0 198 103 303 279 303s280 -105 280 -303v-9c0 -200 -104 -305 -280 -305zM325 68c117 0 188 69 188 225v4c0 155 -71 225 -188 225
c-116 0 -187 -70 -187 -225v-4c0 -156 71 -225 187 -225z" />
    <glyph glyph-name="uni1ED5" unicode="&#x1ed5;" horiz-adv-x="650" 
d="M484 745h-41c24 28 34 47 34 62c0 9 -7 14 -17 14c-13 0 -19 -5 -19 -24h-34c-1 36 19 59 55 59c34 0 54 -15 54 -43c0 -19 -12 -43 -32 -68zM237 667h-57l103 139h85l104 -139h-58l-88 92zM325 -14c-176 0 -279 105 -279 305v9c0 198 103 303 279 303s280 -105 280 -303
v-9c0 -200 -104 -305 -280 -305zM325 68c117 0 188 69 188 225v4c0 155 -71 225 -188 225c-116 0 -187 -70 -187 -225v-4c0 -156 71 -225 187 -225z" />
    <glyph glyph-name="uni1ED7" unicode="&#x1ed7;" horiz-adv-x="650" 
d="M374 850c-40 0 -67 33 -92 33c-14 0 -23 -8 -31 -28l-36 11c11 44 30 62 62 62c40 0 67 -33 91 -33c15 0 24 9 32 28l36 -10c-11 -44 -31 -63 -62 -63zM237 667h-57l103 139h85l104 -139h-58l-88 92zM325 -14c-176 0 -279 105 -279 305v9c0 198 103 303 279 303
s280 -105 280 -303v-9c0 -200 -104 -305 -280 -305zM325 68c117 0 188 69 188 225v4c0 155 -71 225 -188 225c-116 0 -187 -70 -187 -225v-4c0 -156 71 -225 187 -225z" />
    <glyph glyph-name="odieresis" unicode="&#xf6;" horiz-adv-x="650" 
d="M219 668c-40 0 -60 17 -60 52c0 36 21 54 60 54c40 0 60 -18 60 -54c0 -35 -20 -52 -60 -52zM414 668c-39 0 -59 17 -59 52c0 36 20 54 59 54c41 0 60 -18 60 -54c0 -35 -19 -52 -60 -52zM325 -14c-176 0 -279 105 -279 305v9c0 198 103 303 279 303s280 -105 280 -303
v-9c0 -200 -104 -305 -280 -305zM325 68c117 0 188 69 188 225v4c0 155 -71 225 -188 225c-116 0 -187 -70 -187 -225v-4c0 -156 71 -225 187 -225z" />
    <glyph glyph-name="uni1ECD" unicode="&#x1ecd;" horiz-adv-x="650" 
d="M325 -14c-176 0 -279 105 -279 305v9c0 198 103 303 279 303s280 -105 280 -303v-9c0 -200 -104 -305 -280 -305zM325 68c117 0 188 69 188 225v4c0 155 -71 225 -188 225c-116 0 -187 -70 -187 -225v-4c0 -156 71 -225 187 -225zM328 -133c-39 0 -56 15 -56 42
s18 43 56 43c39 0 56 -16 56 -43s-17 -42 -56 -42z" />
    <glyph glyph-name="ograve" unicode="&#xf2;" horiz-adv-x="650" 
d="M400 671h-62l-134 138h98zM325 -14c-176 0 -279 105 -279 305v9c0 198 103 303 279 303s280 -105 280 -303v-9c0 -200 -104 -305 -280 -305zM325 68c117 0 188 69 188 225v4c0 155 -71 225 -188 225c-116 0 -187 -70 -187 -225v-4c0 -156 71 -225 187 -225z" />
    <glyph glyph-name="uni1ECF" unicode="&#x1ecf;" horiz-adv-x="650" 
d="M355 669h-52c31 35 43 58 43 77c0 11 -8 17 -21 17c-16 0 -23 -6 -23 -29h-43c-1 44 23 73 68 73c42 0 67 -19 67 -53c0 -24 -14 -53 -39 -85zM325 -14c-176 0 -279 105 -279 305v9c0 198 103 303 279 303s280 -105 280 -303v-9c0 -200 -104 -305 -280 -305zM325 68
c117 0 188 69 188 225v4c0 155 -71 225 -188 225c-116 0 -187 -70 -187 -225v-4c0 -156 71 -225 187 -225z" />
    <glyph glyph-name="ohorn" unicode="&#x1a1;" horiz-adv-x="650" 
d="M452 580c98 -41 153 -136 153 -280v-9c0 -200 -104 -305 -280 -305s-279 105 -279 305v9c0 198 103 303 279 303h1v0c80 0 124 25 106 111l64 6c14 -71 -4 -115 -44 -140zM513 293v4c0 155 -71 225 -188 225c-116 0 -187 -70 -187 -225v-4c0 -156 71 -225 187 -225
c117 0 188 69 188 225z" />
    <glyph glyph-name="uni1EDB" unicode="&#x1edb;" horiz-adv-x="650" 
d="M343 809h98l-134 -138h-61zM452 580c98 -41 153 -136 153 -280v-9c0 -200 -104 -305 -280 -305s-279 105 -279 305v9c0 198 103 303 279 303h1v0c80 0 124 25 106 111l64 6c14 -71 -4 -115 -44 -140zM513 293v4c0 155 -71 225 -188 225c-116 0 -187 -70 -187 -225v-4
c0 -156 71 -225 187 -225c117 0 188 69 188 225z" />
    <glyph glyph-name="uni1EE3" unicode="&#x1ee3;" horiz-adv-x="650" 
d="M452 580c98 -41 153 -136 153 -280v-9c0 -200 -104 -305 -280 -305s-279 105 -279 305v9c0 198 103 303 279 303h1v0c80 0 124 25 106 111l64 6c14 -71 -4 -115 -44 -140zM513 293v4c0 155 -71 225 -188 225c-116 0 -187 -70 -187 -225v-4c0 -156 71 -225 187 -225
c117 0 188 69 188 225zM324 -48c39 0 56 -16 56 -43s-17 -42 -56 -42s-56 15 -56 42s18 43 56 43z" />
    <glyph glyph-name="uni1EDD" unicode="&#x1edd;" horiz-adv-x="650" 
d="M298 809l98 -138h-62l-134 138h98zM452 580c98 -41 153 -136 153 -280v-9c0 -200 -104 -305 -280 -305s-279 105 -279 305v9c0 198 103 303 279 303h1v0c80 0 124 25 106 111l64 6c14 -71 -4 -115 -44 -140zM513 293v4c0 155 -71 225 -188 225c-116 0 -187 -70 -187 -225
v-4c0 -156 71 -225 187 -225c117 0 188 69 188 225z" />
    <glyph glyph-name="uni1EDF" unicode="&#x1edf;" horiz-adv-x="650" 
d="M298 734h-43c-1 44 23 73 68 73c42 0 67 -19 67 -53c0 -24 -14 -53 -39 -85h-52c31 35 43 58 43 77c0 11 -8 17 -21 17c-16 0 -23 -6 -23 -29zM452 580c98 -41 153 -136 153 -280v-9c0 -200 -104 -305 -280 -305s-279 105 -279 305v9c0 198 103 303 279 303h1v0
c80 0 124 25 106 111l64 6c14 -71 -4 -115 -44 -140zM513 293v4c0 155 -71 225 -188 225c-116 0 -187 -70 -187 -225v-4c0 -156 71 -225 187 -225c117 0 188 69 188 225z" />
    <glyph glyph-name="uni1EE1" unicode="&#x1ee1;" horiz-adv-x="650" 
d="M452 580c98 -41 153 -136 153 -280v-9c0 -200 -104 -305 -280 -305s-279 105 -279 305v9c0 198 103 303 279 303h1v0c68 0 110 18 110 76c-13 -9 -28 -13 -45 -13c-56 0 -95 47 -131 47c-21 0 -33 -12 -45 -39l-51 14c16 64 43 90 89 90c56 0 95 -47 130 -47
c21 0 34 12 46 40l51 -15c-4 -15 -8 -28 -13 -39l29 3c14 -71 -4 -115 -44 -140zM513 293v4c0 155 -71 225 -188 225c-116 0 -187 -70 -187 -225v-4c0 -156 71 -225 187 -225c117 0 188 69 188 225z" />
    <glyph glyph-name="ohungarumlaut" unicode="&#x151;" horiz-adv-x="650" 
d="M352 808l-131 -139h-61l96 139h96zM494 808l-131 -139h-61l96 139h96zM325 -14c-176 0 -279 105 -279 305v9c0 198 103 303 279 303s280 -105 280 -303v-9c0 -200 -104 -305 -280 -305zM325 68c117 0 188 69 188 225v4c0 155 -71 225 -188 225c-116 0 -187 -70 -187 -225
v-4c0 -156 71 -225 187 -225z" />
    <glyph glyph-name="omacron" unicode="&#x14d;" horiz-adv-x="650" 
d="M483 670h-316v64h316v-64zM325 -14c-176 0 -279 105 -279 305v9c0 198 103 303 279 303s280 -105 280 -303v-9c0 -200 -104 -305 -280 -305zM325 68c117 0 188 69 188 225v4c0 155 -71 225 -188 225c-116 0 -187 -70 -187 -225v-4c0 -156 71 -225 187 -225z" />
    <glyph glyph-name="uni01EB" unicode="&#x1eb;" horiz-adv-x="650" 
d="M325 603c176 0 280 -105 280 -303v-9c0 -140 -51 -234 -142 -277h-1c-5 -3 -11 -5 -16 -7c-63 -28 -107 -59 -107 -101c0 -21 12 -36 40 -36c29 0 40 17 41 46h56c1 -53 -23 -95 -105 -95c-59 0 -95 27 -95 77c0 35 24 65 61 88h-12c-176 0 -279 105 -279 305v9
c0 198 103 303 279 303zM513 293v4c0 155 -71 225 -188 225c-116 0 -187 -70 -187 -225v-4c0 -156 71 -225 187 -225c117 0 188 69 188 225z" />
    <glyph glyph-name="oslash" unicode="&#xf8;" horiz-adv-x="650" 
d="M521 622l-31 -62c74 -48 115 -136 115 -260v-9c0 -200 -104 -305 -280 -305c-40 0 -76 5 -108 16l-29 -58l-58 25l30 61c-74 48 -114 136 -114 261v9c0 198 103 303 279 303c40 0 76 -5 108 -16l30 61zM138 297v-4c0 -87 22 -147 61 -183l197 401c-21 8 -45 11 -71 11
c-116 0 -187 -70 -187 -225zM513 293v4c0 86 -22 146 -62 183l-197 -401c21 -8 45 -11 71 -11c117 0 188 69 188 225z" />
    <glyph glyph-name="oslashacute" unicode="&#x1ff;" horiz-adv-x="650" 
d="M343 809h98l-134 -138h-61zM521 622l-31 -62c74 -48 115 -136 115 -260v-9c0 -200 -104 -305 -280 -305c-40 0 -76 5 -108 16l-29 -58l-58 25l30 61c-74 48 -114 136 -114 261v9c0 198 103 303 279 303c40 0 76 -5 108 -16l30 61zM138 297v-4c0 -87 22 -147 61 -183
l197 401c-21 8 -45 11 -71 11c-116 0 -187 -70 -187 -225zM513 293v4c0 86 -22 146 -62 183l-197 -401c21 -8 45 -11 71 -11c117 0 188 69 188 225z" />
    <glyph glyph-name="otilde" unicode="&#xf5;" horiz-adv-x="650" 
d="M395 666c-56 0 -95 47 -131 47c-21 0 -33 -12 -45 -39l-51 14c16 64 43 90 89 90c56 0 95 -47 130 -47c21 0 34 12 46 40l51 -15c-16 -63 -44 -90 -89 -90zM325 -14c-176 0 -279 105 -279 305v9c0 198 103 303 279 303s280 -105 280 -303v-9c0 -200 -104 -305 -280 -305z
M325 68c117 0 188 69 188 225v4c0 155 -71 225 -188 225c-116 0 -187 -70 -187 -225v-4c0 -156 71 -225 187 -225z" />
    <glyph glyph-name="racute" unicode="&#x155;" horiz-adv-x="464" 
d="M268 809h98l-134 -138h-61zM384 603c25 0 48 -3 68 -8v-88c-21 6 -45 9 -72 9c-127 0 -202 -102 -202 -222v-294h-92v589h92v-80l-5 -59h3c31 92 109 153 208 153z" />
    <glyph glyph-name="rcaron" unicode="&#x159;" horiz-adv-x="464" 
d="M392 807l-104 -139h-85l-103 139h57l89 -92l88 92h58zM384 603c25 0 48 -3 68 -8v-88c-21 6 -45 9 -72 9c-127 0 -202 -102 -202 -222v-294h-92v589h92v-80l-5 -59h3c31 92 109 153 208 153z" />
    <glyph glyph-name="uni0157" unicode="&#x157;" horiz-adv-x="464" 
d="M384 603c25 0 48 -3 68 -8v-88c-21 6 -45 9 -72 9c-127 0 -202 -102 -202 -222v-294h-92v589h92v-80l-5 -59h3c31 92 109 153 208 153zM122 -46c42 0 61 -12 61 -39c0 -81 -47 -96 -109 -92v29c38 -1 50 7 51 34c-39 0 -59 10 -59 34s19 34 56 34z" />
    <glyph glyph-name="uni1E5B" unicode="&#x1e5b;" horiz-adv-x="464" 
d="M384 603c25 0 48 -3 68 -8v-88c-21 6 -45 9 -72 9c-127 0 -202 -102 -202 -222v-294h-92v589h92v-80l-5 -59h3c31 92 109 153 208 153zM133 -48c39 0 56 -16 56 -43s-17 -42 -56 -42s-56 15 -56 42s18 43 56 43z" />
    <glyph glyph-name="uni1E5D" unicode="&#x1e5d;" horiz-adv-x="464" 
d="M88 734h316v-64h-316v64zM384 603c25 0 48 -3 68 -8v-88c-21 6 -45 9 -72 9c-127 0 -202 -102 -202 -222v-294h-92v589h92v-80l-5 -59h3c31 92 109 153 208 153zM133 -48c39 0 56 -16 56 -43s-17 -42 -56 -42s-56 15 -56 42s18 43 56 43z" />
    <glyph glyph-name="uni1E5F" unicode="&#x1e5f;" horiz-adv-x="464" 
d="M384 603c25 0 48 -3 68 -8v-88c-21 6 -45 9 -72 9c-127 0 -202 -102 -202 -222v-294h-92v589h92v-80l-5 -59h3c31 92 109 153 208 153zM286 -116h-317v57h317v-57z" />
    <glyph glyph-name="sacute" unicode="&#x15b;" horiz-adv-x="591" 
d="M413 809l-134 -138h-61l97 138h98zM304 -14c-179 0 -253 89 -255 196h90c4 -73 59 -121 168 -121c98 0 146 37 146 96v1c0 71 -57 89 -164 109c-137 25 -224 62 -224 171v1c0 91 63 164 225 164c177 0 245 -94 246 -179h-91c-2 49 -45 104 -156 104
c-88 0 -130 -34 -130 -87v-1c0 -68 63 -84 156 -100c150 -24 231 -65 231 -179c0 -109 -87 -175 -242 -175z" />
    <glyph glyph-name="scaron" unicode="&#x161;" horiz-adv-x="591" 
d="M251 668l-103 139h57l89 -92l88 92h58l-104 -139h-85zM304 -14c-179 0 -253 89 -255 196h90c4 -73 59 -121 168 -121c98 0 146 37 146 96v1c0 71 -57 89 -164 109c-137 25 -224 62 -224 171v1c0 91 63 164 225 164c177 0 245 -94 246 -179h-91c-2 49 -45 104 -156 104
c-88 0 -130 -34 -130 -87v-1c0 -68 63 -84 156 -100c150 -24 231 -65 231 -179c0 -109 -87 -175 -242 -175z" />
    <glyph glyph-name="scedilla" unicode="&#x15f;" horiz-adv-x="591" 
d="M546 161c0 -106 -82 -171 -229 -175l-11 -31c32 6 87 -9 87 -65c0 -47 -37 -78 -94 -78s-100 22 -101 83h54c1 -32 20 -41 46 -41c22 0 38 13 38 39s-23 42 -55 32l-22 15l17 47c-159 9 -225 94 -227 195h90c4 -73 59 -121 168 -121c98 0 146 37 146 96v1
c0 71 -57 89 -164 109c-137 25 -224 62 -224 171v1c0 91 63 164 225 164c177 0 245 -94 246 -179h-91c-2 49 -45 104 -156 104c-88 0 -130 -34 -130 -87v-1c0 -68 63 -84 156 -100c150 -24 231 -65 231 -179z" />
    <glyph glyph-name="scircumflex" unicode="&#x15d;" horiz-adv-x="591" 
d="M205 667h-57l103 139h85l104 -139h-58l-88 92zM304 -14c-179 0 -253 89 -255 196h90c4 -73 59 -121 168 -121c98 0 146 37 146 96v1c0 71 -57 89 -164 109c-137 25 -224 62 -224 171v1c0 91 63 164 225 164c177 0 245 -94 246 -179h-91c-2 49 -45 104 -156 104
c-88 0 -130 -34 -130 -87v-1c0 -68 63 -84 156 -100c150 -24 231 -65 231 -179c0 -109 -87 -175 -242 -175z" />
    <glyph glyph-name="uni0219" unicode="&#x219;" horiz-adv-x="591" 
d="M304 -14c-179 0 -253 89 -255 196h90c4 -73 59 -121 168 -121c98 0 146 37 146 96v1c0 71 -57 89 -164 109c-137 25 -224 62 -224 171v1c0 91 63 164 225 164c177 0 245 -94 246 -179h-91c-2 49 -45 104 -156 104c-88 0 -130 -34 -130 -87v-1c0 -68 63 -84 156 -100
c150 -24 231 -65 231 -179c0 -109 -87 -175 -242 -175zM244 -177v29c38 -1 50 7 51 34c-39 0 -59 10 -59 34s19 34 56 34c42 0 61 -12 61 -39c0 -81 -47 -96 -109 -92z" />
    <glyph glyph-name="uni1E61" unicode="&#x1e61;" horiz-adv-x="591" 
d="M294 671c-42 0 -60 17 -60 46s19 46 60 46c42 0 60 -17 60 -46s-18 -46 -60 -46zM304 -14c-179 0 -253 89 -255 196h90c4 -73 59 -121 168 -121c98 0 146 37 146 96v1c0 71 -57 89 -164 109c-137 25 -224 62 -224 171v1c0 91 63 164 225 164c177 0 245 -94 246 -179h-91
c-2 49 -45 104 -156 104c-88 0 -130 -34 -130 -87v-1c0 -68 63 -84 156 -100c150 -24 231 -65 231 -179c0 -109 -87 -175 -242 -175z" />
    <glyph glyph-name="uni1E63" unicode="&#x1e63;" horiz-adv-x="591" 
d="M304 -14c-179 0 -253 89 -255 196h90c4 -73 59 -121 168 -121c98 0 146 37 146 96v1c0 71 -57 89 -164 109c-137 25 -224 62 -224 171v1c0 91 63 164 225 164c177 0 245 -94 246 -179h-91c-2 49 -45 104 -156 104c-88 0 -130 -34 -130 -87v-1c0 -68 63 -84 156 -100
c150 -24 231 -65 231 -179c0 -109 -87 -175 -242 -175zM303 -133c-39 0 -56 15 -56 42s18 43 56 43c39 0 56 -16 56 -43s-17 -42 -56 -42z" />
    <glyph glyph-name="tbar" unicode="&#x167;" horiz-adv-x="418" 
d="M311 68c37 0 63 4 89 9v-78c-28 -6 -68 -13 -114 -13c-132 0 -169 83 -169 191v98h-84v66h84v167h-104v81h104v132h92v-132h175v-81h-175v-167h136v-66h-136v-80c0 -79 22 -127 102 -127z" />
    <glyph glyph-name="tcaron" unicode="&#x165;" horiz-adv-x="418" 
d="M368 879l-7 -194h-55l-5 194h67zM311 68c37 0 63 4 89 9v-78c-28 -6 -68 -13 -114 -13c-132 0 -169 83 -169 191v331h-104v81h104v132h92v-132h175v-81h-175v-313c0 -79 22 -127 102 -127z" />
    <glyph glyph-name="uni0163" unicode="&#x163;" horiz-adv-x="418" 
d="M400 77v-78c-27 -6 -66 -13 -110 -13l-11 -31c32 6 86 -9 86 -65c0 -47 -36 -78 -94 -78c-57 0 -99 22 -100 83h54c0 -32 19 -41 46 -41c22 0 37 13 37 39s-22 42 -55 32l-21 15l17 48c-102 15 -132 92 -132 189v331h-104v81h104v132h92v-132h175v-81h-175v-313
c0 -79 22 -127 102 -127c37 0 63 4 89 9z" />
    <glyph glyph-name="uni021B" unicode="&#x21b;" horiz-adv-x="418" 
d="M311 68c37 0 63 4 89 9v-78c-28 -6 -68 -13 -114 -13c-132 0 -169 83 -169 191v331h-104v81h104v132h92v-132h175v-81h-175v-313c0 -79 22 -127 102 -127zM264 -46c42 0 61 -12 61 -39c0 -81 -47 -96 -109 -92v29c38 -1 50 7 51 34c-39 0 -59 10 -59 34s19 34 56 34z" />
    <glyph glyph-name="uni1E97" unicode="&#x1e97;" horiz-adv-x="418" 
d="M311 68c37 0 63 4 89 9v-78c-28 -6 -68 -13 -114 -13c-132 0 -169 83 -169 191v331h-104v81h104v121c-9 -3 -19 -5 -32 -5c-40 0 -60 17 -60 52c0 36 21 54 60 54c40 0 60 -18 60 -54c0 -16 -4 -27 -12 -36h76v-132h175v-81h-175v-313c0 -79 22 -127 102 -127zM280 705
c-39 0 -59 17 -59 52c0 36 20 54 59 54c41 0 60 -18 60 -54c0 -35 -19 -52 -60 -52z" />
    <glyph glyph-name="uni1E6D" unicode="&#x1e6d;" horiz-adv-x="418" 
d="M311 68c37 0 63 4 89 9v-78c-28 -6 -68 -13 -114 -13c-132 0 -169 83 -169 191v331h-104v81h104v132h92v-132h175v-81h-175v-313c0 -79 22 -127 102 -127zM275 -48c39 0 56 -16 56 -43s-17 -42 -56 -42s-56 15 -56 42s18 43 56 43z" />
    <glyph glyph-name="uni1E6F" unicode="&#x1e6f;" horiz-adv-x="418" 
d="M117 177v331h-104v81h104v132h92v-132h175v-81h-175v-313c0 -79 22 -127 102 -127c37 0 63 4 89 9v-78c-28 -6 -68 -13 -114 -13c-132 0 -169 83 -169 191zM113 -116v57h316v-57h-316z" />
    <glyph glyph-name="uacute" unicode="&#xfa;" horiz-adv-x="700" 
d="M368 809h98l-134 -138h-61zM522 286v303h92v-589h-92v75l5 61h-2c-35 -92 -111 -150 -224 -150c-138 0 -222 79 -222 257v346h92v-334c0 -128 55 -186 157 -186c138 0 194 115 194 217z" />
    <glyph glyph-name="ubreve" unicode="&#x16d;" horiz-adv-x="700" 
d="M347 667c-98 0 -139 50 -134 139h60c-4 -57 18 -85 74 -85c55 0 77 28 74 85h60c5 -90 -37 -139 -134 -139zM522 286v303h92v-589h-92v75l5 61h-2c-35 -92 -111 -150 -224 -150c-138 0 -222 79 -222 257v346h92v-334c0 -128 55 -186 157 -186c138 0 194 115 194 217z" />
    <glyph glyph-name="uni01D4" unicode="&#x1d4;" horiz-adv-x="700" 
d="M493 807l-104 -139h-85l-103 139h57l89 -92l88 92h58zM522 286v303h92v-589h-92v75l5 61h-2c-35 -92 -111 -150 -224 -150c-138 0 -222 79 -222 257v346h92v-334c0 -128 55 -186 157 -186c138 0 194 115 194 217z" />
    <glyph glyph-name="ucircumflex" unicode="&#xfb;" horiz-adv-x="700" 
d="M435 667l-88 92l-89 -92h-57l103 139h85l104 -139h-58zM522 286v303h92v-589h-92v75l5 61h-2c-35 -92 -111 -150 -224 -150c-138 0 -222 79 -222 257v346h92v-334c0 -128 55 -186 157 -186c138 0 194 115 194 217z" />
    <glyph glyph-name="udieresis" unicode="&#xfc;" horiz-adv-x="700" 
d="M240 668c-40 0 -60 17 -60 52c0 36 21 54 60 54c40 0 60 -18 60 -54c0 -35 -20 -52 -60 -52zM435 668c-39 0 -59 17 -59 52c0 36 20 54 59 54c41 0 60 -18 60 -54c0 -35 -19 -52 -60 -52zM522 286v303h92v-589h-92v75l5 61h-2c-35 -92 -111 -150 -224 -150
c-138 0 -222 79 -222 257v346h92v-334c0 -128 55 -186 157 -186c138 0 194 115 194 217z" />
    <glyph glyph-name="uni01D8" unicode="&#x1d8;" horiz-adv-x="700" 
d="M361 1008h98l-134 -138h-61zM240 668c-40 0 -60 17 -60 52c0 36 21 54 60 54c40 0 60 -18 60 -54c0 -35 -20 -52 -60 -52zM376 720c0 36 20 54 59 54c41 0 60 -18 60 -54c0 -35 -19 -52 -60 -52c-39 0 -59 17 -59 52zM522 286v303h92v-589h-92v75l5 61h-2
c-35 -92 -111 -150 -224 -150c-138 0 -222 79 -222 257v346h92v-334c0 -128 55 -186 157 -186c138 0 194 115 194 217z" />
    <glyph glyph-name="uni01DA" unicode="&#x1da;" horiz-adv-x="700" 
d="M485 1006l-104 -139h-85l-103 139h57l89 -92l88 92h58zM240 668c-40 0 -60 17 -60 52c0 36 21 54 60 54c40 0 60 -18 60 -54c0 -35 -20 -52 -60 -52zM435 774c41 0 60 -18 60 -54c0 -35 -19 -52 -60 -52c-39 0 -59 17 -59 52c0 36 20 54 59 54zM522 286v303h92v-589h-92
v75l5 61h-2c-35 -92 -111 -150 -224 -150c-138 0 -222 79 -222 257v346h92v-334c0 -128 55 -186 157 -186c138 0 194 115 194 217z" />
    <glyph glyph-name="uni01D6" unicode="&#x1d6;" horiz-adv-x="700" 
d="M181 933h316v-64h-316v64zM240 668c-40 0 -60 17 -60 52c0 36 21 54 60 54c40 0 60 -18 60 -54c0 -35 -20 -52 -60 -52zM376 720c0 36 20 54 59 54c41 0 60 -18 60 -54c0 -35 -19 -52 -60 -52c-39 0 -59 17 -59 52zM522 286v303h92v-589h-92v75l5 61h-2
c-35 -92 -111 -150 -224 -150c-138 0 -222 79 -222 257v346h92v-334c0 -128 55 -186 157 -186c138 0 194 115 194 217z" />
    <glyph glyph-name="uni1EE5" unicode="&#x1ee5;" horiz-adv-x="700" 
d="M522 286v303h92v-589h-92v75l5 61h-2c-35 -92 -111 -150 -224 -150c-138 0 -222 79 -222 257v346h92v-334c0 -128 55 -186 157 -186c138 0 194 115 194 217zM351 -48c39 0 56 -16 56 -43s-17 -42 -56 -42s-56 15 -56 42s18 43 56 43z" />
    <glyph glyph-name="ugrave" unicode="&#xf9;" horiz-adv-x="700" 
d="M323 809l98 -138h-62l-134 138h98zM522 286v303h92v-589h-92v75l5 61h-2c-35 -92 -111 -150 -224 -150c-138 0 -222 79 -222 257v346h92v-334c0 -128 55 -186 157 -186c138 0 194 115 194 217z" />
    <glyph glyph-name="uni1EE7" unicode="&#x1ee7;" horiz-adv-x="700" 
d="M323 734h-43c-1 44 23 73 68 73c42 0 67 -19 67 -53c0 -24 -14 -53 -39 -85h-52c31 35 43 58 43 77c0 11 -8 17 -21 17c-16 0 -23 -6 -23 -29zM522 286v303h92v-589h-92v75l5 61h-2c-35 -92 -111 -150 -224 -150c-138 0 -222 79 -222 257v346h92v-334
c0 -128 55 -186 157 -186c138 0 194 115 194 217z" />
    <glyph glyph-name="uhorn" unicode="&#x1b0;" horiz-adv-x="740" 
d="M658 700l64 6c20 -101 -24 -148 -108 -161v-545h-92v75l5 61h-2c-35 -92 -111 -150 -224 -150c-138 0 -222 79 -222 257v346h92v-334c0 -128 55 -186 157 -186c138 0 194 115 194 217v303h30c80 0 124 25 106 111z" />
    <glyph glyph-name="uni1EE9" unicode="&#x1ee9;" horiz-adv-x="740" 
d="M361 809h98l-134 -138h-61zM658 700l64 6c20 -101 -24 -148 -108 -161v-545h-92v75l5 61h-2c-35 -92 -111 -150 -224 -150c-138 0 -222 79 -222 257v346h92v-334c0 -128 55 -186 157 -186c138 0 194 115 194 217v303h30c80 0 124 25 106 111z" />
    <glyph glyph-name="uni1EF1" unicode="&#x1ef1;" horiz-adv-x="740" 
d="M658 700l64 6c20 -101 -24 -148 -108 -161v-545h-92v75l5 61h-2c-35 -92 -111 -150 -224 -150c-138 0 -222 79 -222 257v346h92v-334c0 -128 55 -186 157 -186c138 0 194 115 194 217v303h30c80 0 124 25 106 111zM342 -48c39 0 56 -16 56 -43s-17 -42 -56 -42
s-56 15 -56 42s18 43 56 43z" />
    <glyph glyph-name="uni1EEB" unicode="&#x1eeb;" horiz-adv-x="740" 
d="M316 809l98 -138h-62l-134 138h98zM658 700l64 6c20 -101 -24 -148 -108 -161v-545h-92v75l5 61h-2c-35 -92 -111 -150 -224 -150c-138 0 -222 79 -222 257v346h92v-334c0 -128 55 -186 157 -186c138 0 194 115 194 217v303h30c80 0 124 25 106 111z" />
    <glyph glyph-name="uni1EED" unicode="&#x1eed;" horiz-adv-x="740" 
d="M316 734h-43c-1 44 23 73 68 73c42 0 67 -19 67 -53c0 -24 -14 -53 -39 -85h-52c31 35 43 58 43 77c0 11 -8 17 -21 17c-16 0 -23 -6 -23 -29zM658 700l64 6c20 -101 -24 -148 -108 -161v-545h-92v75l5 61h-2c-35 -92 -111 -150 -224 -150c-138 0 -222 79 -222 257v346
h92v-334c0 -128 55 -186 157 -186c138 0 194 115 194 217v303h30c80 0 124 25 106 111z" />
    <glyph glyph-name="uni1EEF" unicode="&#x1eef;" horiz-adv-x="740" 
d="M278 713c-21 0 -33 -12 -45 -39l-51 14c16 64 43 90 89 90c56 0 95 -47 130 -47c21 0 34 12 46 40l51 -15c-16 -63 -44 -90 -89 -90c-56 0 -95 47 -131 47zM658 700l64 6c20 -101 -24 -148 -108 -161v-545h-92v75l5 61h-2c-35 -92 -111 -150 -224 -150
c-138 0 -222 79 -222 257v346h92v-334c0 -128 55 -186 157 -186c138 0 194 115 194 217v303h30c80 0 124 25 106 111z" />
    <glyph glyph-name="uhungarumlaut" unicode="&#x171;" horiz-adv-x="700" 
d="M277 808h96l-131 -139h-61zM515 808l-131 -139h-61l96 139h96zM522 286v303h92v-589h-92v75l5 61h-2c-35 -92 -111 -150 -224 -150c-138 0 -222 79 -222 257v346h92v-334c0 -128 55 -186 157 -186c138 0 194 115 194 217z" />
    <glyph glyph-name="umacron" unicode="&#x16b;" horiz-adv-x="700" 
d="M188 734h316v-64h-316v64zM522 286v303h92v-589h-92v75l5 61h-2c-35 -92 -111 -150 -224 -150c-138 0 -222 79 -222 257v346h92v-334c0 -128 55 -186 157 -186c138 0 194 115 194 217z" />
    <glyph glyph-name="uogonek" unicode="&#x173;" horiz-adv-x="700" 
d="M571 -97h56c1 -53 -23 -95 -105 -95c-59 0 -95 27 -95 77s51 90 117 115h-22v75l5 61h-2c-35 -92 -111 -150 -224 -150c-138 0 -222 79 -222 257v346h92v-334c0 -128 55 -186 157 -186c138 0 194 115 194 217v303h92v-589h-2c-71 -30 -122 -62 -122 -107
c0 -21 12 -36 40 -36c29 0 40 17 41 46z" />
    <glyph glyph-name="uring" unicode="&#x16f;" horiz-adv-x="700" 
d="M346 664c-72 0 -107 30 -107 88c0 59 35 90 107 90s109 -31 109 -90c0 -58 -37 -88 -109 -88zM346 802c-33 0 -51 -16 -51 -50c0 -32 18 -47 51 -47c34 0 52 15 52 47c0 34 -18 50 -52 50zM522 286v303h92v-589h-92v75l5 61h-2c-35 -92 -111 -150 -224 -150
c-138 0 -222 79 -222 257v346h92v-334c0 -128 55 -186 157 -186c138 0 194 115 194 217z" />
    <glyph glyph-name="utilde" unicode="&#x169;" horiz-adv-x="700" 
d="M285 713c-21 0 -33 -12 -45 -39l-51 14c16 64 43 90 89 90c56 0 95 -47 130 -47c21 0 34 12 46 40l51 -15c-16 -63 -44 -90 -89 -90c-56 0 -95 47 -131 47zM522 286v303h92v-589h-92v75l5 61h-2c-35 -92 -111 -150 -224 -150c-138 0 -222 79 -222 257v346h92v-334
c0 -128 55 -186 157 -186c138 0 194 115 194 217z" />
    <glyph glyph-name="wacute" unicode="&#x1e83;" horiz-adv-x="885" 
d="M563 809l-134 -138h-61l97 138h98zM300 0h-118l-169 589h97l131 -492l3 -16h2l4 16l139 492h108l138 -492l5 -16h1l4 16l131 492h97l-170 -589h-117l-139 491l-3 12h-2l-3 -12z" />
    <glyph glyph-name="wcircumflex" unicode="&#x175;" horiz-adv-x="885" 
d="M355 667h-57l103 139h85l104 -139h-58l-88 92zM300 0h-118l-169 589h97l131 -492l3 -16h2l4 16l139 492h108l138 -492l5 -16h1l4 16l131 492h97l-170 -589h-117l-139 491l-3 12h-2l-3 -12z" />
    <glyph glyph-name="wdieresis" unicode="&#x1e85;" horiz-adv-x="885" 
d="M337 668c-40 0 -60 17 -60 52c0 36 21 54 60 54c40 0 60 -18 60 -54c0 -35 -20 -52 -60 -52zM532 668c-39 0 -59 17 -59 52c0 36 20 54 59 54c41 0 60 -18 60 -54c0 -35 -19 -52 -60 -52zM300 0h-118l-169 589h97l131 -492l3 -16h2l4 16l139 492h108l138 -492l5 -16h1
l4 16l131 492h97l-170 -589h-117l-139 491l-3 12h-2l-3 -12z" />
    <glyph glyph-name="wgrave" unicode="&#x1e81;" horiz-adv-x="885" 
d="M518 671h-62l-134 138h98zM300 0h-118l-169 589h97l131 -492l3 -16h2l4 16l139 492h108l138 -492l5 -16h1l4 16l131 492h97l-170 -589h-117l-139 491l-3 12h-2l-3 -12z" />
    <glyph glyph-name="yacute" unicode="&#xfd;" horiz-adv-x="582" 
d="M411 809l-134 -138h-61l97 138h98zM153 -189l-24 63c63 24 109 62 129 112l12 31h-38l-219 572h98l177 -479l4 -17h2l4 17l173 479h99l-228 -601c-36 -96 -100 -153 -189 -177z" />
    <glyph glyph-name="ycircumflex" unicode="&#x177;" horiz-adv-x="582" 
d="M203 667h-57l103 139h85l104 -139h-58l-88 92zM153 -189l-24 63c63 24 109 62 129 112l12 31h-38l-219 572h98l177 -479l4 -17h2l4 17l173 479h99l-228 -601c-36 -96 -100 -153 -189 -177z" />
    <glyph glyph-name="ydieresis" unicode="&#xff;" horiz-adv-x="582" 
d="M185 668c-40 0 -60 17 -60 52c0 36 21 54 60 54c40 0 60 -18 60 -54c0 -35 -20 -52 -60 -52zM380 668c-39 0 -59 17 -59 52c0 36 20 54 59 54c41 0 60 -18 60 -54c0 -35 -19 -52 -60 -52zM153 -189l-24 63c63 24 109 62 129 112l12 31h-38l-219 572h98l177 -479l4 -17h2
l4 17l173 479h99l-228 -601c-36 -96 -100 -153 -189 -177z" />
    <glyph glyph-name="uni1E8F" unicode="&#x1e8f;" horiz-adv-x="582" 
d="M292 671c-42 0 -60 17 -60 46s19 46 60 46c42 0 60 -17 60 -46s-18 -46 -60 -46zM153 -189l-24 63c63 24 109 62 129 112l12 31h-38l-219 572h98l177 -479l4 -17h2l4 17l173 479h99l-228 -601c-36 -96 -100 -153 -189 -177z" />
    <glyph glyph-name="uni1EF5" unicode="&#x1ef5;" horiz-adv-x="582" 
d="M153 -189l-24 63c63 24 109 62 129 112l12 31h-38l-219 572h98l177 -479l4 -17h2l4 17l173 479h99l-228 -601c-36 -96 -100 -153 -189 -177zM296 -265c-39 0 -56 15 -56 42s18 43 56 43c39 0 56 -16 56 -43s-17 -42 -56 -42z" />
    <glyph glyph-name="ygrave" unicode="&#x1ef3;" horiz-adv-x="582" 
d="M366 671h-62l-134 138h98zM153 -189l-24 63c63 24 109 62 129 112l12 31h-38l-219 572h98l177 -479l4 -17h2l4 17l173 479h99l-228 -601c-36 -96 -100 -153 -189 -177z" />
    <glyph glyph-name="uni1EF7" unicode="&#x1ef7;" horiz-adv-x="582" 
d="M321 669h-52c31 35 43 58 43 77c0 11 -8 17 -21 17c-16 0 -23 -6 -23 -29h-43c-1 44 23 73 68 73c42 0 67 -19 67 -53c0 -24 -14 -53 -39 -85zM153 -189l-24 63c63 24 109 62 129 112l12 31h-38l-219 572h98l177 -479l4 -17h2l4 17l173 479h99l-228 -601
c-36 -96 -100 -153 -189 -177z" />
    <glyph glyph-name="uni0233" unicode="&#x233;" horiz-adv-x="582" 
d="M449 670h-316v64h316v-64zM153 -189l-24 63c63 24 109 62 129 112l12 31h-38l-219 572h98l177 -479l4 -17h2l4 17l173 479h99l-228 -601c-36 -96 -100 -153 -189 -177z" />
    <glyph glyph-name="uni1EF9" unicode="&#x1ef9;" horiz-adv-x="582" 
d="M361 666c-56 0 -95 47 -131 47c-21 0 -33 -12 -45 -39l-51 14c16 64 43 90 89 90c56 0 95 -47 130 -47c21 0 34 12 46 40l51 -15c-16 -63 -44 -90 -89 -90zM153 -189l-24 63c63 24 109 62 129 112l12 31h-38l-219 572h98l177 -479l4 -17h2l4 17l173 479h99l-228 -601
c-36 -96 -100 -153 -189 -177z" />
    <glyph glyph-name="zacute" unicode="&#x17a;" horiz-adv-x="541" 
d="M396 809l-134 -138h-61l97 138h98zM515 0h-484v67l352 447h-326v75h443v-69l-350 -444h365v-76z" />
    <glyph glyph-name="zcaron" unicode="&#x17e;" horiz-adv-x="541" 
d="M233 668l-103 139h57l89 -92l88 92h58l-104 -139h-85zM515 0h-484v67l352 447h-326v75h443v-69l-350 -444h365v-76z" />
    <glyph glyph-name="zdotaccent" unicode="&#x17c;" horiz-adv-x="541" 
d="M276 671c-42 0 -60 17 -60 46s19 46 60 46c42 0 60 -17 60 -46s-18 -46 -60 -46zM515 0h-484v67l352 447h-326v75h443v-69l-350 -444h365v-76z" />
    <glyph glyph-name="uni1E93" unicode="&#x1e93;" horiz-adv-x="541" 
d="M515 0h-484v67l352 447h-326v75h443v-69l-350 -444h365v-76zM279 -133c-39 0 -56 15 -56 42s18 43 56 43c39 0 56 -16 56 -43s-17 -42 -56 -42z" />
    <glyph glyph-name="f.calt" horiz-adv-x="385" 
d="M305 704c-75 0 -89 -44 -90 -115h175v-81h-175v-508h-92v508h-110v81h110c3 103 32 192 165 192c45 0 83 -7 114 -16l-6 -71c-32 6 -54 10 -91 10z" />
    <glyph glyph-name="j.calt" horiz-adv-x="272" 
d="M140 683c-42 0 -62 18 -62 54s21 55 62 55c42 0 63 -19 63 -55s-21 -54 -63 -54zM-12 -195c-52 0 -99 8 -128 16l6 72c27 -6 61 -12 100 -12c89 0 128 55 128 154v554h92v-571c0 -122 -57 -213 -198 -213z" />
    <glyph glyph-name="uni0237.calt" horiz-adv-x="272" 
d="M-12 -195c-52 0 -99 8 -128 16l6 72c27 -6 61 -12 100 -12c89 0 128 55 128 154v554h92v-571c0 -122 -57 -213 -198 -213z" />
    <glyph glyph-name="a.ss01" horiz-adv-x="678" 
d="M499 525v64h93v-589h-93v64l6 62h-6c-34 -87 -111 -140 -215 -140c-169 0 -238 135 -238 300v16c0 168 69 301 242 301c102 0 178 -55 211 -140h6zM313 63c142 0 186 126 186 229v19c0 92 -45 216 -185 216s-176 -118 -176 -226v-11c0 -110 36 -227 175 -227z" />
    <glyph glyph-name="aacute.ss01" horiz-adv-x="678" 
d="M349 809h98l-134 -138h-61zM499 525v64h93v-589h-93v64l6 62h-6c-34 -87 -111 -140 -215 -140c-169 0 -238 135 -238 300v16c0 168 69 301 242 301c102 0 178 -55 211 -140h6zM313 63c142 0 186 126 186 229v19c0 92 -45 216 -185 216s-176 -118 -176 -226v-11
c0 -110 36 -227 175 -227z" />
    <glyph glyph-name="abreve.ss01" horiz-adv-x="678" 
d="M327 667c-98 0 -139 50 -134 139h60c-4 -57 18 -85 74 -85c55 0 77 28 74 85h60c5 -90 -37 -139 -134 -139zM499 525v64h93v-589h-93v64l6 62h-6c-34 -87 -111 -140 -215 -140c-169 0 -238 135 -238 300v16c0 168 69 301 242 301c102 0 178 -55 211 -140h6zM313 63
c142 0 186 126 186 229v19c0 92 -45 216 -185 216s-176 -118 -176 -226v-11c0 -110 36 -227 175 -227z" />
    <glyph glyph-name="uni1EAF.ss01" horiz-adv-x="678" 
d="M361 929l78 -1l-108 -110l-49 1zM327 667c-98 0 -139 50 -134 139h60c-4 -57 18 -85 74 -85c55 0 77 28 74 85h60c5 -90 -37 -139 -134 -139zM499 525v64h93v-589h-93v64l6 62h-6c-34 -87 -111 -140 -215 -140c-169 0 -238 135 -238 300v16c0 168 69 301 242 301
c102 0 178 -55 211 -140h6zM313 63c142 0 186 126 186 229v19c0 92 -45 216 -185 216s-176 -118 -176 -226v-11c0 -110 36 -227 175 -227z" />
    <glyph glyph-name="uni1EB7.ss01" horiz-adv-x="678" 
d="M327 667c-98 0 -139 50 -134 139h60c-4 -57 18 -85 74 -85c55 0 77 28 74 85h60c5 -90 -37 -139 -134 -139zM499 525v64h93v-589h-93v64l6 62h-6c-34 -87 -111 -140 -215 -140c-169 0 -238 135 -238 300v16c0 168 69 301 242 301c102 0 178 -55 211 -140h6zM313 63
c142 0 186 126 186 229v19c0 92 -45 216 -185 216s-176 -118 -176 -226v-11c0 -110 36 -227 175 -227zM330 -48c39 0 56 -16 56 -43s-17 -42 -56 -42s-56 15 -56 42s18 43 56 43z" />
    <glyph glyph-name="uni1EB1.ss01" horiz-adv-x="678" 
d="M291 929l79 -110l-49 -1l-108 110zM326 667c-97 0 -139 49 -134 139h60c-3 -57 19 -85 74 -85c56 0 78 28 74 85h60c5 -89 -36 -139 -134 -139zM499 525v64h93v-589h-93v64l6 62h-6c-34 -87 -111 -140 -215 -140c-169 0 -238 135 -238 300v16c0 168 69 301 242 301
c102 0 178 -55 211 -140h6zM313 63c142 0 186 126 186 229v19c0 92 -45 216 -185 216s-176 -118 -176 -226v-11c0 -110 36 -227 175 -227z" />
    <glyph glyph-name="uni1EB3.ss01" horiz-adv-x="678" 
d="M327 896c-13 0 -19 -5 -19 -23h-35c0 36 19 59 56 59c35 0 55 -15 55 -43c0 -20 -12 -44 -32 -70h-42c25 29 34 48 34 63c0 10 -6 14 -17 14zM327 667c-98 0 -139 50 -134 139h60c-4 -57 18 -85 74 -85c55 0 77 28 74 85h60c5 -90 -37 -139 -134 -139zM499 525v64h93
v-589h-93v64l6 62h-6c-34 -87 -111 -140 -215 -140c-169 0 -238 135 -238 300v16c0 168 69 301 242 301c102 0 178 -55 211 -140h6zM313 63c142 0 186 126 186 229v19c0 92 -45 216 -185 216s-176 -118 -176 -226v-11c0 -110 36 -227 175 -227z" />
    <glyph glyph-name="uni1EB5.ss01" horiz-adv-x="678" 
d="M281 889c-17 0 -27 -9 -36 -31l-40 11c13 50 34 70 70 70c44 0 74 -36 102 -36c16 0 26 9 35 31l40 -12c-12 -49 -34 -70 -69 -70c-44 0 -75 37 -102 37zM325 667c-98 0 -139 50 -134 139h60c-4 -57 18 -85 74 -85c55 0 77 28 74 85h60c5 -90 -37 -139 -134 -139z
M499 525v64h93v-589h-93v64l6 62h-6c-34 -87 -111 -140 -215 -140c-169 0 -238 135 -238 300v16c0 168 69 301 242 301c102 0 178 -55 211 -140h6zM313 63c142 0 186 126 186 229v19c0 92 -45 216 -185 216s-176 -118 -176 -226v-11c0 -110 36 -227 175 -227z" />
    <glyph glyph-name="uni01CE.ss01" horiz-adv-x="678" 
d="M473 807l-104 -139h-85l-103 139h57l89 -92l88 92h58zM499 525v64h93v-589h-93v64l6 62h-6c-34 -87 -111 -140 -215 -140c-169 0 -238 135 -238 300v16c0 168 69 301 242 301c102 0 178 -55 211 -140h6zM313 63c142 0 186 126 186 229v19c0 92 -45 216 -185 216
s-176 -118 -176 -226v-11c0 -110 36 -227 175 -227z" />
    <glyph glyph-name="acircumflex.ss01" horiz-adv-x="678" 
d="M415 667l-88 92l-89 -92h-57l103 139h85l104 -139h-58zM499 525v64h93v-589h-93v64l6 62h-6c-34 -87 -111 -140 -215 -140c-169 0 -238 135 -238 300v16c0 168 69 301 242 301c102 0 178 -55 211 -140h6zM313 63c142 0 186 126 186 229v19c0 92 -45 216 -185 216
s-176 -118 -176 -226v-11c0 -110 36 -227 175 -227z" />
    <glyph glyph-name="uni1EA5.ss01" horiz-adv-x="678" 
d="M528 846l68 1l-92 -112l-43 -1zM416 667l-88 92l-89 -92h-57l103 139h85l104 -139h-58zM505 463l-6 62v64h93v-589h-93v64l6 62h-6c-34 -87 -111 -140 -215 -140c-169 0 -238 135 -238 300v16c0 168 69 301 242 301c102 0 178 -55 211 -140h6zM313 63
c142 0 186 126 186 229v19c0 92 -45 216 -185 216s-176 -118 -176 -226v-11c0 -110 36 -227 175 -227z" />
    <glyph glyph-name="uni1EAD.ss01" horiz-adv-x="678" 
d="M415 667l-88 92l-89 -92h-57l103 139h85l104 -139h-58zM499 525v64h93v-589h-93v64l6 62h-6c-34 -87 -111 -140 -215 -140c-169 0 -238 135 -238 300v16c0 168 69 301 242 301c102 0 178 -55 211 -140h6zM313 63c142 0 186 126 186 229v19c0 92 -45 216 -185 216
s-176 -118 -176 -226v-11c0 -110 36 -227 175 -227zM330 -48c39 0 56 -16 56 -43s-17 -42 -56 -42s-56 15 -56 42s18 43 56 43z" />
    <glyph glyph-name="uni1EA7.ss01" horiz-adv-x="678" 
d="M418 890l68 -111h-43l-93 111h68zM416 667l-89 92l-89 -92h-57l103 139h86l103 -139h-57zM499 525v64h93v-589h-93v64l6 62h-6c-34 -87 -111 -140 -215 -140c-169 0 -238 135 -238 300v16c0 168 69 301 242 301c102 0 178 -55 211 -140h6zM313 63c142 0 186 126 186 229
v19c0 92 -45 216 -185 216s-176 -118 -176 -226v-11c0 -110 36 -227 175 -227z" />
    <glyph glyph-name="uni1EA9.ss01" horiz-adv-x="678" 
d="M443 797h-34c-1 36 19 59 55 59c34 0 54 -15 54 -43c0 -19 -12 -43 -32 -68h-41c24 28 34 47 34 62c0 9 -7 14 -17 14c-13 0 -19 -5 -19 -24zM416 667l-88 92l-89 -92h-57l103 139h85l104 -139h-58zM499 525v64h93v-589h-93v64l6 62h-6c-34 -87 -111 -140 -215 -140
c-169 0 -238 135 -238 300v16c0 168 69 301 242 301c102 0 178 -55 211 -140h6zM313 63c142 0 186 126 186 229v19c0 92 -45 216 -185 216s-176 -118 -176 -226v-11c0 -110 36 -227 175 -227z" />
    <glyph glyph-name="uni1EAB.ss01" horiz-adv-x="678" 
d="M283 883c-14 0 -23 -8 -31 -28l-36 11c11 44 30 62 62 62c40 0 67 -33 91 -33c15 0 24 9 32 28l36 -10c-11 -44 -31 -63 -62 -63c-40 0 -67 33 -92 33zM415 667l-88 92l-89 -92h-57l103 139h85l104 -139h-58zM499 525v64h93v-589h-93v64l6 62h-6
c-34 -87 -111 -140 -215 -140c-169 0 -238 135 -238 300v16c0 168 69 301 242 301c102 0 178 -55 211 -140h6zM313 63c142 0 186 126 186 229v19c0 92 -45 216 -185 216s-176 -118 -176 -226v-11c0 -110 36 -227 175 -227z" />
    <glyph glyph-name="adieresis.ss01" horiz-adv-x="678" 
d="M221 668c-40 0 -60 17 -60 52c0 36 21 54 60 54c40 0 60 -18 60 -54c0 -35 -20 -52 -60 -52zM416 668c-39 0 -59 17 -59 52c0 36 20 54 59 54c41 0 60 -18 60 -54c0 -35 -19 -52 -60 -52zM499 525v64h93v-589h-93v64l6 62h-6c-34 -87 -111 -140 -215 -140
c-169 0 -238 135 -238 300v16c0 168 69 301 242 301c102 0 178 -55 211 -140h6zM313 63c142 0 186 126 186 229v19c0 92 -45 216 -185 216s-176 -118 -176 -226v-11c0 -110 36 -227 175 -227z" />
    <glyph glyph-name="uni1EA1.ss01" horiz-adv-x="678" 
d="M499 525v64h93v-589h-93v64l6 62h-6c-34 -87 -111 -140 -215 -140c-169 0 -238 135 -238 300v16c0 168 69 301 242 301c102 0 178 -55 211 -140h6zM313 63c142 0 186 126 186 229v19c0 92 -45 216 -185 216s-176 -118 -176 -226v-11c0 -110 36 -227 175 -227zM330 -48
c39 0 56 -16 56 -43s-17 -42 -56 -42s-56 15 -56 42s18 43 56 43z" />
    <glyph glyph-name="agrave.ss01" horiz-adv-x="678" 
d="M304 809l98 -138h-62l-134 138h98zM499 525v64h93v-589h-93v64l6 62h-6c-34 -87 -111 -140 -215 -140c-169 0 -238 135 -238 300v16c0 168 69 301 242 301c102 0 178 -55 211 -140h6zM313 63c142 0 186 126 186 229v19c0 92 -45 216 -185 216s-176 -118 -176 -226v-11
c0 -110 36 -227 175 -227z" />
    <glyph glyph-name="uni1EA3.ss01" horiz-adv-x="678" 
d="M303 734h-43c-1 44 23 73 68 73c42 0 67 -19 67 -53c0 -24 -14 -53 -39 -85h-52c31 35 43 58 43 77c0 11 -8 17 -21 17c-16 0 -23 -6 -23 -29zM499 525v64h93v-589h-93v64l6 62h-6c-34 -87 -111 -140 -215 -140c-169 0 -238 135 -238 300v16c0 168 69 301 242 301
c102 0 178 -55 211 -140h6zM313 63c142 0 186 126 186 229v19c0 92 -45 216 -185 216s-176 -118 -176 -226v-11c0 -110 36 -227 175 -227z" />
    <glyph glyph-name="amacron.ss01" horiz-adv-x="678" 
d="M169 734h316v-64h-316v64zM499 525v64h93v-589h-93v64l6 62h-6c-34 -87 -111 -140 -215 -140c-169 0 -238 135 -238 300v16c0 168 69 301 242 301c102 0 178 -55 211 -140h6zM313 63c142 0 186 126 186 229v19c0 92 -45 216 -185 216s-176 -118 -176 -226v-11
c0 -110 36 -227 175 -227z" />
    <glyph glyph-name="aogonek.ss01" horiz-adv-x="678" 
d="M549 -97h56c1 -53 -23 -95 -105 -95c-59 0 -95 27 -95 77s51 90 117 115h-23v64l6 62h-6c-34 -87 -111 -140 -215 -140c-169 0 -238 135 -238 300v16c0 168 69 301 242 301c102 0 178 -55 211 -140h6l-6 62v64h93v-589h-2c-71 -30 -122 -62 -122 -107
c0 -21 12 -36 40 -36c29 0 40 17 41 46zM313 63c142 0 186 126 186 229v19c0 92 -45 216 -185 216s-176 -118 -176 -226v-11c0 -110 36 -227 175 -227z" />
    <glyph glyph-name="aring.ss01" horiz-adv-x="678" 
d="M326 664c-72 0 -107 30 -107 88c0 59 35 90 107 90s109 -31 109 -90c0 -58 -37 -88 -109 -88zM326 802c-33 0 -51 -16 -51 -50c0 -32 18 -47 51 -47c34 0 52 15 52 47c0 34 -18 50 -52 50zM499 525v64h93v-589h-93v64l6 62h-6c-34 -87 -111 -140 -215 -140
c-169 0 -238 135 -238 300v16c0 168 69 301 242 301c102 0 178 -55 211 -140h6zM313 63c142 0 186 126 186 229v19c0 92 -45 216 -185 216s-176 -118 -176 -226v-11c0 -110 36 -227 175 -227z" />
    <glyph glyph-name="aringacute.ss01" horiz-adv-x="678" 
d="M349 1098h98l-134 -138h-61zM326 664c-72 0 -107 30 -107 88c0 59 35 90 107 90s109 -31 109 -90c0 -58 -37 -88 -109 -88zM326 802c-33 0 -51 -16 -51 -50c0 -32 18 -47 51 -47c34 0 52 15 52 47c0 34 -18 50 -52 50zM499 525v64h93v-589h-93v64l6 62h-6
c-34 -87 -111 -140 -215 -140c-169 0 -238 135 -238 300v16c0 168 69 301 242 301c102 0 178 -55 211 -140h6zM313 63c142 0 186 126 186 229v19c0 92 -45 216 -185 216s-176 -118 -176 -226v-11c0 -110 36 -227 175 -227z" />
    <glyph glyph-name="atilde.ss01" horiz-adv-x="678" 
d="M265 713c-21 0 -33 -12 -45 -39l-51 14c16 64 43 90 89 90c56 0 95 -47 130 -47c21 0 34 12 46 40l51 -15c-16 -63 -44 -90 -89 -90c-56 0 -95 47 -131 47zM499 525v64h93v-589h-93v64l6 62h-6c-34 -87 -111 -140 -215 -140c-169 0 -238 135 -238 300v16
c0 168 69 301 242 301c102 0 178 -55 211 -140h6zM313 63c142 0 186 126 186 229v19c0 92 -45 216 -185 216s-176 -118 -176 -226v-11c0 -110 36 -227 175 -227z" />
    <glyph glyph-name="g.ss02" horiz-adv-x="598" 
d="M211 115l174 -13c144 -12 205 -61 205 -144c0 -107 -101 -154 -282 -154c-205 0 -276 62 -276 145c0 53 36 94 70 116c-32 16 -48 41 -48 78s34 75 69 97c-45 37 -68 90 -68 152v2c0 124 86 209 242 209h1h285v-76c-39 7 -77 12 -116 16c54 -39 78 -93 78 -151v-2
c0 -120 -80 -203 -243 -203c-52 0 -96 9 -131 24c-17 -12 -34 -31 -34 -53c0 -32 28 -40 74 -43zM146 395v-2c0 -83 51 -138 156 -138c104 0 154 54 154 138v2c0 82 -50 138 -154 138c-105 0 -156 -56 -156 -138zM308 -127c134 0 192 25 192 80c0 47 -35 70 -137 78l-160 12
c-14 1 -27 2 -39 4c-23 -19 -48 -46 -48 -87c0 -54 47 -87 192 -87z" />
    <glyph glyph-name="gbreve.ss02" horiz-adv-x="598" 
d="M300 667c-98 0 -139 50 -134 139h60c-4 -57 18 -85 74 -85c55 0 77 28 74 85h60c5 -90 -37 -139 -134 -139zM211 115l174 -13c144 -12 205 -61 205 -144c0 -107 -101 -154 -282 -154c-205 0 -276 62 -276 145c0 53 36 94 70 116c-32 16 -48 41 -48 78s34 75 69 97
c-45 37 -68 90 -68 152v2c0 124 86 209 242 209h1h285v-76c-39 7 -77 12 -116 16c54 -39 78 -93 78 -151v-2c0 -120 -80 -203 -243 -203c-52 0 -96 9 -131 24c-17 -12 -34 -31 -34 -53c0 -32 28 -40 74 -43zM146 395v-2c0 -83 51 -138 156 -138c104 0 154 54 154 138v2
c0 82 -50 138 -154 138c-105 0 -156 -56 -156 -138zM308 -127c134 0 192 25 192 80c0 47 -35 70 -137 78l-160 12c-14 1 -27 2 -39 4c-23 -19 -48 -46 -48 -87c0 -54 47 -87 192 -87z" />
    <glyph glyph-name="gcaron.ss02" horiz-adv-x="598" 
d="M446 807l-104 -139h-85l-103 139h57l89 -92l88 92h58zM211 115l174 -13c144 -12 205 -61 205 -144c0 -107 -101 -154 -282 -154c-205 0 -276 62 -276 145c0 53 36 94 70 116c-32 16 -48 41 -48 78s34 75 69 97c-45 37 -68 90 -68 152v2c0 124 86 209 242 209h1h285v-76
c-39 7 -77 12 -116 16c54 -39 78 -93 78 -151v-2c0 -120 -80 -203 -243 -203c-52 0 -96 9 -131 24c-17 -12 -34 -31 -34 -53c0 -32 28 -40 74 -43zM146 395v-2c0 -83 51 -138 156 -138c104 0 154 54 154 138v2c0 82 -50 138 -154 138c-105 0 -156 -56 -156 -138zM308 -127
c134 0 192 25 192 80c0 47 -35 70 -137 78l-160 12c-14 1 -27 2 -39 4c-23 -19 -48 -46 -48 -87c0 -54 47 -87 192 -87z" />
    <glyph glyph-name="gcircumflex.ss02" horiz-adv-x="598" 
d="M388 667l-88 92l-89 -92h-57l103 139h85l104 -139h-58zM211 115l174 -13c144 -12 205 -61 205 -144c0 -107 -101 -154 -282 -154c-205 0 -276 62 -276 145c0 53 36 94 70 116c-32 16 -48 41 -48 78s34 75 69 97c-45 37 -68 90 -68 152v2c0 124 86 209 242 209h1h285v-76
c-39 7 -77 12 -116 16c54 -39 78 -93 78 -151v-2c0 -120 -80 -203 -243 -203c-52 0 -96 9 -131 24c-17 -12 -34 -31 -34 -53c0 -32 28 -40 74 -43zM146 395v-2c0 -83 51 -138 156 -138c104 0 154 54 154 138v2c0 82 -50 138 -154 138c-105 0 -156 -56 -156 -138zM308 -127
c134 0 192 25 192 80c0 47 -35 70 -137 78l-160 12c-14 1 -27 2 -39 4c-23 -19 -48 -46 -48 -87c0 -54 47 -87 192 -87z" />
    <glyph glyph-name="uni0123.ss02" horiz-adv-x="598" 
d="M307 659c-35 0 -50 14 -50 49c0 99 39 118 90 113v-36c-32 1 -42 -8 -42 -42c32 0 49 -13 49 -41c0 -30 -16 -43 -47 -43zM211 115l174 -13c144 -12 205 -61 205 -144c0 -107 -101 -154 -282 -154c-205 0 -276 62 -276 145c0 53 36 94 70 116c-32 16 -48 41 -48 78
s34 75 69 97c-45 37 -68 90 -68 152v2c0 124 86 209 242 209h1h285v-76c-39 7 -77 12 -116 16c54 -39 78 -93 78 -151v-2c0 -120 -80 -203 -243 -203c-52 0 -96 9 -131 24c-17 -12 -34 -31 -34 -53c0 -32 28 -40 74 -43zM146 395v-2c0 -83 51 -138 156 -138
c104 0 154 54 154 138v2c0 82 -50 138 -154 138c-105 0 -156 -56 -156 -138zM308 -127c134 0 192 25 192 80c0 47 -35 70 -137 78l-160 12c-14 1 -27 2 -39 4c-23 -19 -48 -46 -48 -87c0 -54 47 -87 192 -87z" />
    <glyph glyph-name="gdotaccent.ss02" horiz-adv-x="598" 
d="M300 671c-42 0 -60 17 -60 46s19 46 60 46c42 0 60 -17 60 -46s-18 -46 -60 -46zM211 115l174 -13c144 -12 205 -61 205 -144c0 -107 -101 -154 -282 -154c-205 0 -276 62 -276 145c0 53 36 94 70 116c-32 16 -48 41 -48 78s34 75 69 97c-45 37 -68 90 -68 152v2
c0 124 86 209 242 209h1h285v-76c-39 7 -77 12 -116 16c54 -39 78 -93 78 -151v-2c0 -120 -80 -203 -243 -203c-52 0 -96 9 -131 24c-17 -12 -34 -31 -34 -53c0 -32 28 -40 74 -43zM146 395v-2c0 -83 51 -138 156 -138c104 0 154 54 154 138v2c0 82 -50 138 -154 138
c-105 0 -156 -56 -156 -138zM308 -127c134 0 192 25 192 80c0 47 -35 70 -137 78l-160 12c-14 1 -27 2 -39 4c-23 -19 -48 -46 -48 -87c0 -54 47 -87 192 -87z" />
    <glyph glyph-name="uni1E21.ss02" horiz-adv-x="598" 
d="M141 734h316v-64h-316v64zM211 115l174 -13c144 -12 205 -61 205 -144c0 -107 -101 -154 -282 -154c-205 0 -276 62 -276 145c0 53 36 94 70 116c-32 16 -48 41 -48 78s34 75 69 97c-45 37 -68 90 -68 152v2c0 124 86 209 242 209h1h285v-76c-39 7 -77 12 -116 16
c54 -39 78 -93 78 -151v-2c0 -120 -80 -203 -243 -203c-52 0 -96 9 -131 24c-17 -12 -34 -31 -34 -53c0 -32 28 -40 74 -43zM146 395v-2c0 -83 51 -138 156 -138c104 0 154 54 154 138v2c0 82 -50 138 -154 138c-105 0 -156 -56 -156 -138zM308 -127c134 0 192 25 192 80
c0 47 -35 70 -137 78l-160 12c-14 1 -27 2 -39 4c-23 -19 -48 -46 -48 -87c0 -54 47 -87 192 -87z" />
    <glyph glyph-name="e.ss03" horiz-adv-x="628" 
d="M587 324v-34l-447 -22c0 -142 71 -205 181 -205c107 0 161 50 171 142h92c-12 -135 -100 -219 -264 -219c-166 0 -273 97 -273 296v33c0 192 108 288 271 288c177 0 269 -106 269 -279zM319 530c-105 0 -175 -63 -179 -193l355 18c-5 106 -63 175 -176 175z" />
    <glyph glyph-name="eacute.ss03" horiz-adv-x="628" 
d="M340 809h98l-134 -138h-61zM587 324v-34l-447 -22c0 -142 71 -205 181 -205c107 0 161 50 171 142h92c-12 -135 -100 -219 -264 -219c-166 0 -273 97 -273 296v33c0 192 108 288 271 288c177 0 269 -106 269 -279zM319 530c-105 0 -175 -63 -179 -193l355 18
c-5 106 -63 175 -176 175z" />
    <glyph glyph-name="ebreve.ss03" horiz-adv-x="628" 
d="M318 667c-98 0 -139 50 -134 139h60c-4 -57 18 -85 74 -85c55 0 77 28 74 85h60c5 -90 -37 -139 -134 -139zM587 324v-34l-447 -22c0 -142 71 -205 181 -205c107 0 161 50 171 142h92c-12 -135 -100 -219 -264 -219c-166 0 -273 97 -273 296v33c0 192 108 288 271 288
c177 0 269 -106 269 -279zM319 530c-105 0 -175 -63 -179 -193l355 18c-5 106 -63 175 -176 175z" />
    <glyph glyph-name="ecaron.ss03" horiz-adv-x="628" 
d="M464 807l-104 -139h-85l-103 139h57l89 -92l88 92h58zM587 324v-34l-447 -22c0 -142 71 -205 181 -205c107 0 161 50 171 142h92c-12 -135 -100 -219 -264 -219c-166 0 -273 97 -273 296v33c0 192 108 288 271 288c177 0 269 -106 269 -279zM319 530
c-105 0 -175 -63 -179 -193l355 18c-5 106 -63 175 -176 175z" />
    <glyph glyph-name="ecircumflex.ss03" horiz-adv-x="628" 
d="M406 667l-88 92l-89 -92h-57l103 139h85l104 -139h-58zM587 324v-34l-447 -22c0 -142 71 -205 181 -205c107 0 161 50 171 142h92c-12 -135 -100 -219 -264 -219c-166 0 -273 97 -273 296v33c0 192 108 288 271 288c177 0 269 -106 269 -279zM319 530
c-105 0 -175 -63 -179 -193l355 18c-5 106 -63 175 -176 175z" />
    <glyph glyph-name="uni1EBF.ss03" horiz-adv-x="628" 
d="M519 846l68 1l-92 -112l-43 -1zM407 667l-88 92l-89 -92h-57l103 139h85l104 -139h-58zM318 603c177 0 269 -106 269 -279v-34l-447 -22c0 -142 71 -205 181 -205c107 0 161 50 171 142h92c-12 -135 -100 -219 -264 -219c-166 0 -273 97 -273 296v33
c0 192 108 288 271 288zM319 530c-105 0 -175 -63 -179 -193l355 18c-5 106 -63 175 -176 175z" />
    <glyph glyph-name="uni1EC7.ss03" horiz-adv-x="628" 
d="M406 667l-88 92l-89 -92h-57l103 139h85l104 -139h-58zM587 324v-34l-447 -22c0 -142 71 -205 181 -205c107 0 161 50 171 142h92c-12 -135 -100 -219 -264 -219c-166 0 -273 97 -273 296v33c0 192 108 288 271 288c177 0 269 -106 269 -279zM319 530
c-105 0 -175 -63 -179 -193l355 18c-5 106 -63 175 -176 175zM321 -48c39 0 56 -16 56 -43s-17 -42 -56 -42s-56 15 -56 42s18 43 56 43z" />
    <glyph glyph-name="uni1EC1.ss03" horiz-adv-x="628" 
d="M409 890l68 -111h-43l-93 111h68zM407 667l-89 92l-89 -92h-57l103 139h86l103 -139h-57zM587 324v-34l-447 -22c0 -142 71 -205 181 -205c107 0 161 50 171 142h92c-12 -135 -100 -219 -264 -219c-166 0 -273 97 -273 296v33c0 192 108 288 271 288
c177 0 269 -106 269 -279zM319 530c-105 0 -175 -63 -179 -193l355 18c-5 106 -63 175 -176 175z" />
    <glyph glyph-name="uni1EC3.ss03" horiz-adv-x="628" 
d="M434 797h-34c-1 36 19 59 55 59c34 0 54 -15 54 -43c0 -19 -12 -43 -32 -68h-41c24 28 34 47 34 62c0 9 -7 14 -17 14c-13 0 -19 -5 -19 -24zM407 667l-88 92l-89 -92h-57l103 139h85l104 -139h-58zM587 324v-34l-447 -22c0 -142 71 -205 181 -205c107 0 161 50 171 142
h92c-12 -135 -100 -219 -264 -219c-166 0 -273 97 -273 296v33c0 192 108 288 271 288c177 0 269 -106 269 -279zM319 530c-105 0 -175 -63 -179 -193l355 18c-5 106 -63 175 -176 175z" />
    <glyph glyph-name="uni1EC5.ss03" horiz-adv-x="628" 
d="M274 883c-14 0 -23 -8 -31 -28l-36 11c11 44 30 62 62 62c40 0 67 -33 91 -33c15 0 24 9 32 28l36 -10c-11 -44 -31 -63 -62 -63c-40 0 -67 33 -92 33zM406 667l-88 92l-89 -92h-57l103 139h85l104 -139h-58zM587 324v-34l-447 -22c0 -142 71 -205 181 -205
c107 0 161 50 171 142h92c-12 -135 -100 -219 -264 -219c-166 0 -273 97 -273 296v33c0 192 108 288 271 288c177 0 269 -106 269 -279zM319 530c-105 0 -175 -63 -179 -193l355 18c-5 106 -63 175 -176 175z" />
    <glyph glyph-name="edieresis.ss03" horiz-adv-x="628" 
d="M212 668c-40 0 -60 17 -60 52c0 36 21 54 60 54c40 0 60 -18 60 -54c0 -35 -20 -52 -60 -52zM407 668c-39 0 -59 17 -59 52c0 36 20 54 59 54c41 0 60 -18 60 -54c0 -35 -19 -52 -60 -52zM587 324v-34l-447 -22c0 -142 71 -205 181 -205c107 0 161 50 171 142h92
c-12 -135 -100 -219 -264 -219c-166 0 -273 97 -273 296v33c0 192 108 288 271 288c177 0 269 -106 269 -279zM319 530c-105 0 -175 -63 -179 -193l355 18c-5 106 -63 175 -176 175z" />
    <glyph glyph-name="edotaccent.ss03" horiz-adv-x="628" 
d="M318 671c-42 0 -60 17 -60 46s19 46 60 46c42 0 60 -17 60 -46s-18 -46 -60 -46zM587 324v-34l-447 -22c0 -142 71 -205 181 -205c107 0 161 50 171 142h92c-12 -135 -100 -219 -264 -219c-166 0 -273 97 -273 296v33c0 192 108 288 271 288c177 0 269 -106 269 -279z
M319 530c-105 0 -175 -63 -179 -193l355 18c-5 106 -63 175 -176 175z" />
    <glyph glyph-name="uni1EB9.ss03" horiz-adv-x="628" 
d="M587 324v-34l-447 -22c0 -142 71 -205 181 -205c107 0 161 50 171 142h92c-12 -135 -100 -219 -264 -219c-166 0 -273 97 -273 296v33c0 192 108 288 271 288c177 0 269 -106 269 -279zM319 530c-105 0 -175 -63 -179 -193l355 18c-5 106 -63 175 -176 175zM321 -48
c39 0 56 -16 56 -43s-17 -42 -56 -42s-56 15 -56 42s18 43 56 43z" />
    <glyph glyph-name="egrave.ss03" horiz-adv-x="628" 
d="M295 809l98 -138h-62l-134 138h98zM587 324v-34l-447 -22c0 -142 71 -205 181 -205c107 0 161 50 171 142h92c-12 -135 -100 -219 -264 -219c-166 0 -273 97 -273 296v33c0 192 108 288 271 288c177 0 269 -106 269 -279zM319 530c-105 0 -175 -63 -179 -193l355 18
c-5 106 -63 175 -176 175z" />
    <glyph glyph-name="uni1EBB.ss03" horiz-adv-x="628" 
d="M294 734h-43c-1 44 23 73 68 73c42 0 67 -19 67 -53c0 -24 -14 -53 -39 -85h-52c31 35 43 58 43 77c0 11 -8 17 -21 17c-16 0 -23 -6 -23 -29zM587 324v-34l-447 -22c0 -142 71 -205 181 -205c107 0 161 50 171 142h92c-12 -135 -100 -219 -264 -219
c-166 0 -273 97 -273 296v33c0 192 108 288 271 288c177 0 269 -106 269 -279zM319 530c-105 0 -175 -63 -179 -193l355 18c-5 106 -63 175 -176 175z" />
    <glyph glyph-name="emacron.ss03" horiz-adv-x="628" 
d="M160 734h316v-64h-316v64zM587 324v-34l-447 -22c0 -142 71 -205 181 -205c107 0 161 50 171 142h92c-12 -135 -100 -219 -264 -219c-166 0 -273 97 -273 296v33c0 192 108 288 271 288c177 0 269 -106 269 -279zM319 530c-105 0 -175 -63 -179 -193l355 18
c-5 106 -63 175 -176 175z" />
    <glyph glyph-name="eogonek.ss03" horiz-adv-x="628" 
d="M587 324v-34l-447 -22c0 -142 71 -205 181 -205c107 0 161 50 171 142h92c-9 -99 -58 -170 -149 -202c-62 -27 -106 -58 -106 -100c0 -21 12 -36 40 -36c29 0 40 17 41 46h56c1 -53 -23 -95 -105 -95c-59 0 -95 27 -95 77c0 37 27 67 67 91h-13c-166 0 -273 97 -273 296
v33c0 192 108 288 271 288c177 0 269 -106 269 -279zM319 530c-105 0 -175 -63 -179 -193l355 18c-5 106 -63 175 -176 175z" />
    <glyph glyph-name="uni1EBD.ss03" horiz-adv-x="628" 
d="M256 713c-21 0 -33 -12 -45 -39l-51 14c16 64 43 90 89 90c56 0 95 -47 130 -47c21 0 34 12 46 40l51 -15c-16 -63 -44 -90 -89 -90c-56 0 -95 47 -131 47zM587 324v-34l-447 -22c0 -142 71 -205 181 -205c107 0 161 50 171 142h92c-12 -135 -100 -219 -264 -219
c-166 0 -273 97 -273 296v33c0 192 108 288 271 288c177 0 269 -106 269 -279zM319 530c-105 0 -175 -63 -179 -193l355 18c-5 106 -63 175 -176 175z" />
    <glyph glyph-name="i.ss03" horiz-adv-x="284" 
d="M143 683c-42 0 -62 18 -62 54s21 55 62 55c42 0 63 -19 63 -55s-21 -54 -63 -54zM4 589h194v-589h-92v513h-102v76z" />
    <glyph glyph-name="dotlessi.ss03" horiz-adv-x="284" 
d="M198 589v-589h-92v513h-102v76h194z" />
    <glyph glyph-name="iacute.ss03" horiz-adv-x="284" 
d="M164 809h98l-134 -138h-61zM4 589h194v-589h-92v513h-102v76z" />
    <glyph glyph-name="ibreve.ss03" horiz-adv-x="284" 
d="M217 806h60c5 -90 -37 -139 -134 -139c-98 0 -139 50 -134 139h60c-4 -57 18 -85 74 -85c55 0 77 28 74 85zM4 589h194v-589h-92v513h-102v76z" />
    <glyph glyph-name="uni01D0.ss03" horiz-adv-x="284" 
d="M289 807l-104 -139h-85l-104 139h58l89 -92l88 92h58zM4 589h194v-589h-92v513h-102v76z" />
    <glyph glyph-name="icircumflex.ss03" horiz-adv-x="284" 
d="M100 806h85l104 -139h-58l-88 92l-89 -92h-58zM4 589h194v-589h-92v513h-102v76z" />
    <glyph glyph-name="idieresis.ss03" horiz-adv-x="284" 
d="M96 720c0 -35 -20 -52 -60 -52s-60 17 -60 52c0 36 21 54 60 54c40 0 60 -18 60 -54zM231 774c41 0 60 -18 60 -54c0 -35 -19 -52 -60 -52c-39 0 -59 17 -59 52c0 36 20 54 59 54zM4 589h194v-589h-92v513h-102v76z" />
    <glyph glyph-name="i.loclTRK.ss03" horiz-adv-x="284" 
d="M143 671c-42 0 -60 17 -60 46s19 46 60 46c42 0 60 -17 60 -46s-18 -46 -60 -46zM4 589h194v-589h-92v513h-102v76z" />
    <glyph glyph-name="uni1ECB.ss03" horiz-adv-x="284" 
d="M143 683c-42 0 -62 18 -62 54s21 55 62 55c42 0 63 -19 63 -55s-21 -54 -63 -54zM198 0h-92v513h-102v76h194v-589zM155 -48c39 0 56 -16 56 -43s-17 -42 -56 -42s-56 15 -56 42s18 43 56 43z" />
    <glyph glyph-name="igrave.ss03" horiz-adv-x="284" 
d="M119 809l98 -138h-62l-134 138h98zM4 589h194v-589h-92v513h-102v76z" />
    <glyph glyph-name="uni1EC9.ss03" horiz-adv-x="284" 
d="M119 734h-43c-1 44 23 73 68 73c42 0 67 -19 67 -53c0 -24 -14 -53 -39 -85h-52c31 35 43 58 43 77c0 11 -8 17 -21 17c-16 0 -23 -6 -23 -29zM4 589h194v-589h-92v513h-102v76z" />
    <glyph glyph-name="imacron.ss03" horiz-adv-x="284" 
d="M-17 670v64h317v-64h-317zM4 589h194v-589h-92v513h-102v76z" />
    <glyph glyph-name="iogonek.ss03" horiz-adv-x="284" 
d="M143 671c-42 0 -60 17 -60 46s19 46 60 46c42 0 60 -17 60 -46s-18 -46 -60 -46zM154 -96h56c1 -53 -23 -95 -105 -95c-59 0 -95 27 -95 77s50 89 114 114h-18v513h-102v76h194v-589h-6c-69 -29 -119 -61 -119 -106c0 -21 12 -36 40 -36c29 0 40 17 41 46z" />
    <glyph glyph-name="itilde.ss03" horiz-adv-x="284" 
d="M250 771l51 -15c-16 -63 -44 -90 -89 -90c-56 0 -95 47 -131 47c-21 0 -33 -12 -45 -39l-52 14c17 64 44 90 90 90c56 0 95 -47 130 -47c21 0 34 12 46 40zM4 589h194v-589h-92v513h-102v76z" />
    <glyph glyph-name="j.ss03" horiz-adv-x="268" 
d="M134 683c-42 0 -62 18 -62 54s21 55 62 55c42 0 63 -19 63 -55s-21 -54 -63 -54zM-9 589h199v-571c0 -122 -57 -213 -198 -213c-52 0 -99 8 -128 16l6 72c27 -6 61 -12 100 -12c89 0 127 55 127 154v478h-106v76z" />
    <glyph glyph-name="uni0237.ss03" horiz-adv-x="268" 
d="M190 589v-571c0 -122 -57 -213 -198 -213c-52 0 -99 8 -128 16l6 72c27 -6 61 -12 100 -12c89 0 127 55 127 154v478h-106v76h199z" />
    <glyph glyph-name="jcircumflex.ss03" horiz-adv-x="268" 
d="M91 806h85l104 -139h-58l-88 92l-89 -92h-58zM-9 589h199v-571c0 -122 -57 -213 -198 -213c-52 0 -99 8 -128 16l6 72c27 -6 61 -12 100 -12c89 0 127 55 127 154v478h-106v76z" />
    <glyph glyph-name="k.ss03" horiz-adv-x="623" 
d="M612 0h-108l-194 294l-132 -122v-172h-92v765h92v-491l301 315h111l-222 -239z" />
    <glyph glyph-name="uni0137.ss03" horiz-adv-x="623" 
d="M590 589l-222 -239l244 -350h-108l-194 294l-132 -122v-172h-92v765h92v-491l301 315h111zM308 -46c42 0 61 -12 61 -39c0 -81 -47 -96 -109 -92v29c38 -1 50 7 51 34c-39 0 -59 10 -59 34s19 34 56 34z" />
    <glyph glyph-name="l.ss03" horiz-adv-x="284" 
d="M198 765v-765h-92v689h-102v76h194z" />
    <glyph glyph-name="lacute.ss03" horiz-adv-x="284" 
d="M154 966h98l-134 -139h-62zM4 765h194v-765h-92v689h-102v76z" />
    <glyph glyph-name="lcaron.ss03" horiz-adv-x="284" 
d="M269 536l-5 230h67l-7 -230h-55zM4 765h194v-765h-92v689h-102v76z" />
    <glyph glyph-name="uni013C.ss03" horiz-adv-x="284" 
d="M198 765v-765h-92v689h-102v76h194zM134 -46c42 0 61 -12 61 -39c0 -81 -47 -96 -109 -92v29c38 -1 50 7 51 34c-39 0 -59 10 -59 34s19 34 56 34z" />
    <glyph glyph-name="ldot.ss03" horiz-adv-x="500" 
d="M4 765h194v-765h-92v689h-102v76zM392 456c43 0 63 -18 63 -54c0 -35 -20 -52 -63 -52c-41 0 -62 17 -62 52c0 36 21 54 62 54z" />
    <glyph glyph-name="uni1E37.ss03" horiz-adv-x="284" 
d="M198 0h-92v689h-102v76h194v-765zM145 -48c39 0 56 -16 56 -43s-17 -42 -56 -42s-56 15 -56 42s18 43 56 43z" />
    <glyph glyph-name="uni1E39.ss03" horiz-adv-x="284" 
d="M-18 827v64h317v-64h-317zM198 765v-765h-92v689h-102v76h194zM145 -48c39 0 56 -16 56 -43s-17 -42 -56 -42s-56 15 -56 42s18 43 56 43z" />
    <glyph glyph-name="uni1E3B.ss03" horiz-adv-x="284" 
d="M198 0h-92v689h-102v76h194v-765zM-18 -116v57h317v-57h-317z" />
    <glyph glyph-name="lslash.ss03" horiz-adv-x="284" 
d="M269 469l22 -44l-93 -45v-380h-92v336l-73 -35l-21 44l94 45v299h-102v76h194v-330z" />
    <glyph glyph-name="a.sc" horiz-adv-x="593" 
d="M592 0h-99l-53 142h-274l-52 -142h-100l223 589h132zM294 489l-100 -273h219l-101 273l-7 32h-4z" />
    <glyph glyph-name="aacute.sc" horiz-adv-x="593" 
d="M325 809h98l-134 -138h-61zM592 0h-99l-53 142h-274l-52 -142h-100l223 589h132zM294 489l-100 -273h219l-101 273l-7 32h-4z" />
    <glyph glyph-name="abreve.sc" horiz-adv-x="593" 
d="M304 667c-98 0 -139 50 -134 139h60c-4 -57 18 -85 74 -85c55 0 77 28 74 85h60c5 -90 -37 -139 -134 -139zM592 0h-99l-53 142h-274l-52 -142h-100l223 589h132zM294 489l-100 -273h219l-101 273l-7 32h-4z" />
    <glyph glyph-name="acircumflex.sc" horiz-adv-x="593" 
d="M392 667l-88 92l-89 -92h-57l103 139h85l104 -139h-58zM592 0h-99l-53 142h-274l-52 -142h-100l223 589h132zM294 489l-100 -273h219l-101 273l-7 32h-4z" />
    <glyph glyph-name="adieresis.sc" horiz-adv-x="593" 
d="M197 668c-40 0 -60 17 -60 52c0 36 21 54 60 54c40 0 60 -18 60 -54c0 -35 -20 -52 -60 -52zM392 668c-39 0 -59 17 -59 52c0 36 20 54 59 54c41 0 60 -18 60 -54c0 -35 -19 -52 -60 -52zM592 0h-99l-53 142h-274l-52 -142h-100l223 589h132zM294 489l-100 -273h219
l-101 273l-7 32h-4z" />
    <glyph glyph-name="agrave.sc" horiz-adv-x="593" 
d="M280 809l98 -138h-62l-134 138h98zM592 0h-99l-53 142h-274l-52 -142h-100l223 589h132zM294 489l-100 -273h219l-101 273l-7 32h-4z" />
    <glyph glyph-name="amacron.sc" horiz-adv-x="593" 
d="M145 734h316v-64h-316v64zM592 0h-99l-53 142h-274l-52 -142h-100l223 589h132zM294 489l-100 -273h219l-101 273l-7 32h-4z" />
    <glyph glyph-name="aogonek.sc" horiz-adv-x="593" 
d="M549 -97h56c1 -53 -23 -95 -105 -95c-59 0 -95 27 -95 77s51 90 117 115h-29l-53 142h-274l-52 -142h-100l223 589h132l223 -588v-1h-2c-71 -30 -122 -62 -122 -107c0 -21 12 -36 40 -36c29 0 40 17 41 46zM294 489l-100 -273h219l-101 273l-7 32h-4z" />
    <glyph glyph-name="aring.sc" horiz-adv-x="593" 
d="M303 664c-72 0 -107 30 -107 88c0 59 35 90 107 90s109 -31 109 -90c0 -58 -37 -88 -109 -88zM303 802c-33 0 -51 -16 -51 -50c0 -32 18 -47 51 -47c34 0 52 15 52 47c0 34 -18 50 -52 50zM592 0h-99l-53 142h-274l-52 -142h-100l223 589h132zM294 489l-100 -273h219
l-101 273l-7 32h-4z" />
    <glyph glyph-name="atilde.sc" horiz-adv-x="593" 
d="M242 713c-21 0 -33 -12 -45 -39l-51 14c16 64 43 90 89 90c56 0 95 -47 130 -47c21 0 34 12 46 40l51 -15c-16 -63 -44 -90 -89 -90c-56 0 -95 47 -131 47zM592 0h-99l-53 142h-274l-52 -142h-100l223 589h132zM294 489l-100 -273h219l-101 273l-7 32h-4z" />
    <glyph glyph-name="ae.sc" horiz-adv-x="816" 
d="M470 267v-191h308v-76h-399v166h-180l-84 -166h-101l295 589h465v-75h-304v-180h276v-67h-276zM365 493l-133 -262h147v287h-4z" />
    <glyph glyph-name="aeacute.sc" horiz-adv-x="816" 
d="M549 808h98l-134 -138h-61zM470 267v-191h308v-76h-399v166h-180l-84 -166h-101l295 589h465v-75h-304v-180h276v-67h-276zM365 493l-133 -262h147v287h-4z" />
    <glyph glyph-name="b.sc" horiz-adv-x="598" 
d="M360 0h-295v589h284c111 0 181 -43 181 -140v-14c0 -59 -36 -116 -104 -126v-2c80 -10 127 -64 127 -136v-16c0 -93 -53 -155 -193 -155zM157 517v-178h184c70 0 103 32 103 85v13c0 43 -24 80 -99 80h-188zM157 272v-200h189c56 0 115 10 115 96v14c0 62 -46 90 -120 90
h-184z" />
    <glyph glyph-name="c.sc" horiz-adv-x="620" 
d="M320 -14c-172 0 -274 110 -274 306v8c0 194 102 303 274 303c157 0 251 -79 262 -222h-94c-9 95 -73 141 -169 141c-110 0 -181 -72 -181 -224v-5c0 -155 72 -225 181 -225c105 0 161 54 170 143h93c-10 -144 -105 -225 -262 -225z" />
    <glyph glyph-name="cacute.sc" horiz-adv-x="620" 
d="M430 808l-134 -138h-61l97 138h98zM320 -14c-172 0 -274 110 -274 306v8c0 194 102 303 274 303c157 0 251 -79 262 -222h-94c-9 95 -73 141 -169 141c-110 0 -181 -72 -181 -224v-5c0 -155 72 -225 181 -225c105 0 161 54 170 143h93c-10 -144 -105 -225 -262 -225z" />
    <glyph glyph-name="ccaron.sc" horiz-adv-x="620" 
d="M268 667l-103 139h57l89 -92l88 92h58l-104 -139h-85zM320 -14c-172 0 -274 110 -274 306v8c0 194 102 303 274 303c157 0 251 -79 262 -222h-94c-9 95 -73 141 -169 141c-110 0 -181 -72 -181 -224v-5c0 -155 72 -225 181 -225c105 0 161 54 170 143h93
c-10 -144 -105 -225 -262 -225z" />
    <glyph glyph-name="ccedilla.sc" horiz-adv-x="620" 
d="M319 68c105 0 161 54 170 143h93c-10 -142 -102 -223 -255 -225l-11 -31c32 6 87 -9 87 -65c0 -47 -37 -78 -94 -78s-100 22 -101 83h54c1 -32 20 -41 46 -41c22 0 38 13 38 39s-23 42 -55 32l-22 15l17 47c-151 14 -240 122 -240 305v8c0 194 102 303 274 303
c157 0 251 -79 262 -222h-94c-9 95 -73 141 -169 141c-110 0 -181 -72 -181 -224v-5c0 -155 72 -225 181 -225z" />
    <glyph glyph-name="ccircumflex.sc" horiz-adv-x="620" 
d="M222 666h-57l103 139h85l104 -139h-58l-88 92zM320 -14c-172 0 -274 110 -274 306v8c0 194 102 303 274 303c157 0 251 -79 262 -222h-94c-9 95 -73 141 -169 141c-110 0 -181 -72 -181 -224v-5c0 -155 72 -225 181 -225c105 0 161 54 170 143h93
c-10 -144 -105 -225 -262 -225z" />
    <glyph glyph-name="cdotaccent.sc" horiz-adv-x="620" 
d="M311 670c-42 0 -60 17 -60 46s19 46 60 46c42 0 60 -17 60 -46s-18 -46 -60 -46zM320 -14c-172 0 -274 110 -274 306v8c0 194 102 303 274 303c157 0 251 -79 262 -222h-94c-9 95 -73 141 -169 141c-110 0 -181 -72 -181 -224v-5c0 -155 72 -225 181 -225
c105 0 161 54 170 143h93c-10 -144 -105 -225 -262 -225z" />
    <glyph glyph-name="d.sc" horiz-adv-x="625" 
d="M302 0h-237v589h236c193 0 278 -104 278 -271v-47c0 -168 -79 -271 -277 -271zM158 513v-437h137c118 0 192 54 192 195v47c0 136 -74 195 -193 195h-136z" />
    <glyph glyph-name="eth.sc" horiz-adv-x="626" 
d="M66 589h236c193 0 278 -104 278 -271v-47c0 -168 -79 -271 -277 -271h-237v259h-61v67h61v263zM488 271v47c0 136 -74 195 -193 195h-136v-187h103v-67h-103v-183h137c118 0 192 54 192 195z" />
    <glyph glyph-name="dcaron.sc" horiz-adv-x="625" 
d="M259 667l-103 139h57l89 -92l88 92h58l-104 -139h-85zM302 0h-237v589h236c193 0 278 -104 278 -271v-47c0 -168 -79 -271 -277 -271zM158 513v-437h137c118 0 192 54 192 195v47c0 136 -74 195 -193 195h-136z" />
    <glyph glyph-name="dcroat.sc" horiz-adv-x="626" 
d="M66 589h236c193 0 278 -104 278 -271v-47c0 -168 -79 -271 -277 -271h-237v259h-61v67h61v263zM488 271v47c0 136 -74 195 -193 195h-136v-187h103v-67h-103v-183h137c118 0 192 54 192 195z" />
    <glyph glyph-name="e.sc" horiz-adv-x="519" 
d="M481 0h-416v589h413v-76h-320v-178h292v-68h-292v-191h323v-76z" />
    <glyph glyph-name="eacute.sc" horiz-adv-x="519" 
d="M391 809l-134 -138h-61l97 138h98zM481 0h-416v589h413v-76h-320v-178h292v-68h-292v-191h323v-76z" />
    <glyph glyph-name="ebreve.sc" horiz-adv-x="519" 
d="M271 667c-98 0 -139 50 -134 139h60c-4 -57 18 -85 74 -85c55 0 77 28 74 85h60c5 -90 -37 -139 -134 -139zM481 0h-416v589h413v-76h-320v-178h292v-68h-292v-191h323v-76z" />
    <glyph glyph-name="ecaron.sc" horiz-adv-x="519" 
d="M228 668l-103 139h57l89 -92l88 92h58l-104 -139h-85zM481 0h-416v589h413v-76h-320v-178h292v-68h-292v-191h323v-76z" />
    <glyph glyph-name="ecircumflex.sc" horiz-adv-x="519" 
d="M182 667h-57l103 139h85l104 -139h-58l-88 92zM481 0h-416v589h413v-76h-320v-178h292v-68h-292v-191h323v-76z" />
    <glyph glyph-name="edieresis.sc" horiz-adv-x="519" 
d="M165 668c-40 0 -60 17 -60 52c0 36 21 54 60 54c40 0 60 -18 60 -54c0 -35 -20 -52 -60 -52zM360 668c-39 0 -59 17 -59 52c0 36 20 54 59 54c41 0 60 -18 60 -54c0 -35 -19 -52 -60 -52zM481 0h-416v589h413v-76h-320v-178h292v-68h-292v-191h323v-76z" />
    <glyph glyph-name="edotaccent.sc" horiz-adv-x="519" 
d="M271 671c-42 0 -60 17 -60 46s19 46 60 46c42 0 60 -17 60 -46s-18 -46 -60 -46zM481 0h-416v589h413v-76h-320v-178h292v-68h-292v-191h323v-76z" />
    <glyph glyph-name="egrave.sc" horiz-adv-x="519" 
d="M346 671h-62l-134 138h98zM481 0h-416v589h413v-76h-320v-178h292v-68h-292v-191h323v-76z" />
    <glyph glyph-name="emacron.sc" horiz-adv-x="519" 
d="M429 670h-316v64h316v-64zM481 0h-416v589h413v-76h-320v-178h292v-68h-292v-191h323v-76z" />
    <glyph glyph-name="eogonek.sc" horiz-adv-x="519" 
d="M438 -97h56c1 -53 -23 -95 -105 -95c-59 0 -95 27 -95 77s51 90 117 115h-346v589h413v-76h-320v-178h292v-68h-292v-191h323v-76h-2c-71 -30 -122 -62 -122 -107c0 -21 12 -36 40 -36c29 0 40 17 41 46z" />
    <glyph glyph-name="f.sc" horiz-adv-x="506" 
d="M159 0h-94v589h413v-76h-319v-195h285v-70h-285v-248z" />
    <glyph glyph-name="g.sc" horiz-adv-x="630" 
d="M292 307h292l-3 -18h3v-51c-1 -169 -106 -252 -264 -252c-198 0 -274 136 -274 296v26c0 168 81 295 274 295c158 0 251 -78 262 -218h-94c-9 98 -70 142 -169 142c-133 0 -180 -109 -180 -211v-43c0 -109 49 -210 178 -210c113 0 176 55 176 171v3h-201v70z" />
    <glyph glyph-name="gbreve.sc" horiz-adv-x="630" 
d="M315 666c-98 0 -139 50 -134 139h60c-4 -57 18 -85 74 -85c55 0 77 28 74 85h60c5 -90 -37 -139 -134 -139zM292 307h292l-3 -18h3v-51c-1 -169 -106 -252 -264 -252c-198 0 -274 136 -274 296v26c0 168 81 295 274 295c158 0 251 -78 262 -218h-94
c-9 98 -70 142 -169 142c-133 0 -180 -109 -180 -211v-43c0 -109 49 -210 178 -210c113 0 176 55 176 171v3h-201v70z" />
    <glyph glyph-name="gcircumflex.sc" horiz-adv-x="630" 
d="M403 666l-88 92l-89 -92h-57l103 139h85l104 -139h-58zM292 307h292l-3 -18h3v-51c-1 -169 -106 -252 -264 -252c-198 0 -274 136 -274 296v26c0 168 81 295 274 295c158 0 251 -78 262 -218h-94c-9 98 -70 142 -169 142c-133 0 -180 -109 -180 -211v-43
c0 -109 49 -210 178 -210c113 0 176 55 176 171v3h-201v70z" />
    <glyph glyph-name="uni0123.sc" horiz-adv-x="630" 
d="M292 307h292l-3 -18h3v-51c-1 -169 -106 -252 -264 -252c-198 0 -274 136 -274 296v26c0 168 81 295 274 295c158 0 251 -78 262 -218h-94c-9 98 -70 142 -169 142c-133 0 -180 -109 -180 -211v-43c0 -109 49 -210 178 -210c113 0 176 55 176 171v3h-201v70zM307 -46
c42 0 61 -12 61 -39c0 -81 -47 -96 -109 -92v29c38 -1 50 7 51 34c-39 0 -59 10 -59 34s19 34 56 34z" />
    <glyph glyph-name="gdotaccent.sc" horiz-adv-x="630" 
d="M315 670c-42 0 -60 17 -60 46s19 46 60 46c42 0 60 -17 60 -46s-18 -46 -60 -46zM292 307h292l-3 -18h3v-51c-1 -169 -106 -252 -264 -252c-198 0 -274 136 -274 296v26c0 168 81 295 274 295c158 0 251 -78 262 -218h-94c-9 98 -70 142 -169 142
c-133 0 -180 -109 -180 -211v-43c0 -109 49 -210 178 -210c113 0 176 55 176 171v3h-201v70z" />
    <glyph glyph-name="h.sc" horiz-adv-x="633" 
d="M475 336v253h93v-589h-93v260h-317v-260h-93v589h93v-253h317z" />
    <glyph glyph-name="hbar.sc" horiz-adv-x="627" 
d="M555 489h71v-56h-71v-433h-92v260h-318v-260h-92v433h-49v56h49v100h92v-100h318v100h92v-100zM145 336h318v97h-318v-97z" />
    <glyph glyph-name="hcircumflex.sc" horiz-adv-x="633" 
d="M406 667l-88 92l-89 -92h-57l103 139h85l104 -139h-58zM475 336v253h93v-589h-93v260h-317v-260h-93v589h93v-253h317z" />
    <glyph glyph-name="i.sc" horiz-adv-x="223" 
d="M158 0h-93v589h93v-589z" />
    <glyph glyph-name="iacute.sc" horiz-adv-x="223" 
d="M231 809l-134 -138h-61l97 138h98zM158 0h-93v589h93v-589z" />
    <glyph glyph-name="ibreve.sc" horiz-adv-x="223" 
d="M111 667c-98 0 -139 50 -135 139h61c-4 -57 18 -85 74 -85c55 0 77 28 74 85h60c5 -90 -37 -139 -134 -139zM158 0h-93v589h93v-589z" />
    <glyph glyph-name="icircumflex.sc" horiz-adv-x="223" 
d="M22 667h-58l104 139h85l104 -139h-58l-88 92zM158 0h-93v589h93v-589z" />
    <glyph glyph-name="idieresis.sc" horiz-adv-x="223" 
d="M5 668c-40 0 -60 17 -60 52c0 36 21 54 60 54c40 0 60 -18 60 -54c0 -35 -20 -52 -60 -52zM200 668c-39 0 -59 17 -59 52c0 36 20 54 59 54c41 0 60 -18 60 -54c0 -35 -19 -52 -60 -52zM158 0h-93v589h93v-589z" />
    <glyph glyph-name="i.sc.loclTRK" horiz-adv-x="223" 
d="M112 671c-42 0 -60 17 -60 46s19 46 60 46c42 0 60 -17 60 -46s-18 -46 -60 -46zM158 0h-93v589h93v-589z" />
    <glyph glyph-name="igrave.sc" horiz-adv-x="223" 
d="M186 671h-62l-134 138h98zM158 0h-93v589h93v-589z" />
    <glyph glyph-name="ij.sc" horiz-adv-x="649" 
d="M158 0h-93v589h93v-589zM385 -14c-64 0 -125 20 -155 38l29 71c24 -12 68 -27 111 -27c92 0 134 46 134 135v310h-165v76h259v-393c0 -103 -45 -210 -213 -210z" />
    <glyph glyph-name="imacron.sc" horiz-adv-x="223" 
d="M269 670h-317v64h317v-64zM158 0h-93v589h93v-589z" />
    <glyph glyph-name="iogonek.sc" horiz-adv-x="223" 
d="M114 -97h56c1 -53 -23 -95 -105 -95c-59 0 -96 27 -96 77s52 90 118 115h-22v589h93v-589h-3c-71 -30 -122 -62 -122 -107c0 -21 12 -36 40 -36c29 0 40 17 41 46z" />
    <glyph glyph-name="itilde.sc" horiz-adv-x="223" 
d="M180 666c-56 0 -95 47 -131 47c-21 0 -33 -12 -45 -39l-52 14c17 64 44 90 90 90c56 0 95 -47 130 -47c21 0 34 12 46 40l51 -15c-16 -63 -44 -90 -89 -90zM158 0h-93v589h93v-589z" />
    <glyph glyph-name="j.sc" horiz-adv-x="426" 
d="M162 -14c-64 0 -125 20 -155 38l29 71c24 -12 68 -27 111 -27c92 0 134 46 134 135v310h-165v76h259v-393c0 -103 -45 -210 -213 -210z" />
    <glyph glyph-name="jcircumflex.sc" horiz-adv-x="426" 
d="M123 667h-57l103 139h85l104 -139h-58l-88 92zM162 -14c-64 0 -125 20 -155 38l29 71c24 -12 68 -27 111 -27c92 0 134 46 134 135v310h-165v76h259v-393c0 -103 -45 -210 -213 -210z" />
    <glyph glyph-name="k.sc" horiz-adv-x="571" 
d="M556 0h-107l-166 263h-125v-263h-93v589h93v-250h123l142 250h105l-171 -284v-4z" />
    <glyph glyph-name="uni0137.sc" horiz-adv-x="571" 
d="M357 301l199 -301h-107l-166 263h-125v-263h-93v589h93v-250h123l142 250h105l-171 -284v-4zM269 -46c42 0 61 -12 61 -39c0 -81 -47 -96 -109 -92v29c38 -1 50 7 51 34c-39 0 -59 10 -59 34s19 34 56 34z" />
    <glyph glyph-name="l.sc" horiz-adv-x="481" 
d="M458 0h-393v589h93v-512h300v-77z" />
    <glyph glyph-name="lacute.sc" horiz-adv-x="481" 
d="M234 809l-134 -138h-61l97 138h98zM458 0h-393v589h93v-512h300v-77z" />
    <glyph glyph-name="lcaron.sc" horiz-adv-x="481" 
d="M458 0h-393v589h93v-512h300v-77zM448 589l-7 -230h-55l-5 230h67z" />
    <glyph glyph-name="uni013C.sc" horiz-adv-x="481" 
d="M458 0h-393v589h93v-512h300v-77zM180 -177v29c38 -1 50 7 51 34c-39 0 -59 10 -59 34s19 34 56 34c42 0 61 -12 61 -39c0 -81 -47 -96 -109 -92z" />
    <glyph glyph-name="ldot.sc" horiz-adv-x="482" 
d="M458 0h-393v589h93v-512h300v-77zM365 276c-36 0 -54 15 -54 46s19 47 54 47c38 0 56 -16 56 -47s-18 -46 -56 -46z" />
    <glyph glyph-name="lslash.sc" horiz-adv-x="506" 
d="M184 295v-218h300v-77h-393v250l-57 -27l-21 44l78 38v284h93v-239l86 41l22 -44z" />
    <glyph glyph-name="m.sc" horiz-adv-x="750" 
d="M157 0h-92v589h123l176 -384l9 -32h3l10 32l176 384h123v-589h-92v432l3 37h-4l-10 -28l-163 -358h-88l-163 358l-11 28h-3l3 -37v-432z" />
    <glyph glyph-name="n.sc" horiz-adv-x="624" 
d="M153 0h-88v589h107l287 -437l13 -26h3l-4 40v423h88v-589h-106l-288 437l-13 27h-4l5 -37v-427z" />
    <glyph glyph-name="nacute.sc" horiz-adv-x="624" 
d="M432 809l-134 -138h-61l97 138h98zM153 0h-88v589h107l287 -437l13 -26h3l-4 40v423h88v-589h-106l-288 437l-13 27h-4l5 -37v-427z" />
    <glyph glyph-name="ncaron.sc" horiz-adv-x="624" 
d="M269 668l-103 139h57l89 -92l88 92h58l-104 -139h-85zM153 0h-88v589h107l287 -437l13 -26h3l-4 40v423h88v-589h-106l-288 437l-13 27h-4l5 -37v-427z" />
    <glyph glyph-name="uni0146.sc" horiz-adv-x="624" 
d="M153 0h-88v589h107l287 -437l13 -26h3l-4 40v423h88v-589h-106l-288 437l-13 27h-4l5 -37v-427zM256 -177v29c38 -1 50 7 51 34c-39 0 -59 10 -59 34s19 34 56 34c42 0 61 -12 61 -39c0 -81 -47 -96 -109 -92z" />
    <glyph glyph-name="ntilde.sc" horiz-adv-x="624" 
d="M381 666c-56 0 -95 47 -131 47c-21 0 -33 -12 -45 -39l-51 14c16 64 43 90 89 90c56 0 95 -47 130 -47c21 0 34 12 46 40l51 -15c-16 -63 -44 -90 -89 -90zM153 0h-88v589h107l287 -437l13 -26h3l-4 40v423h88v-589h-106l-288 437l-13 27h-4l5 -37v-427z" />
    <glyph glyph-name="o.sc" horiz-adv-x="650" 
d="M325 -14c-176 0 -279 105 -279 305v9c0 198 103 303 279 303s280 -105 280 -303v-9c0 -200 -104 -305 -280 -305zM325 68c117 0 188 69 188 225v4c0 155 -71 225 -188 225c-116 0 -187 -70 -187 -225v-4c0 -156 71 -225 187 -225z" />
    <glyph glyph-name="oacute.sc" horiz-adv-x="650" 
d="M442 808l-134 -138h-61l97 138h98zM325 -14c-176 0 -279 105 -279 305v9c0 198 103 303 279 303s280 -105 280 -303v-9c0 -200 -104 -305 -280 -305zM325 68c117 0 188 69 188 225v4c0 155 -71 225 -188 225c-116 0 -187 -70 -187 -225v-4c0 -156 71 -225 187 -225z" />
    <glyph glyph-name="obreve.sc" horiz-adv-x="650" 
d="M322 666c-98 0 -139 50 -134 139h60c-4 -57 18 -85 74 -85c55 0 77 28 74 85h60c5 -90 -37 -139 -134 -139zM325 -14c-176 0 -279 105 -279 305v9c0 198 103 303 279 303s280 -105 280 -303v-9c0 -200 -104 -305 -280 -305zM325 68c117 0 188 69 188 225v4
c0 155 -71 225 -188 225c-116 0 -187 -70 -187 -225v-4c0 -156 71 -225 187 -225z" />
    <glyph glyph-name="ocircumflex.sc" horiz-adv-x="650" 
d="M233 666h-57l103 139h85l104 -139h-58l-88 92zM325 -14c-176 0 -279 105 -279 305v9c0 198 103 303 279 303s280 -105 280 -303v-9c0 -200 -104 -305 -280 -305zM325 68c117 0 188 69 188 225v4c0 155 -71 225 -188 225c-116 0 -187 -70 -187 -225v-4
c0 -156 71 -225 187 -225z" />
    <glyph glyph-name="odieresis.sc" horiz-adv-x="650" 
d="M216 667c-40 0 -60 17 -60 52c0 36 21 54 60 54c40 0 60 -18 60 -54c0 -35 -20 -52 -60 -52zM411 667c-39 0 -59 17 -59 52c0 36 20 54 59 54c41 0 60 -18 60 -54c0 -35 -19 -52 -60 -52zM325 -14c-176 0 -279 105 -279 305v9c0 198 103 303 279 303s280 -105 280 -303
v-9c0 -200 -104 -305 -280 -305zM325 68c117 0 188 69 188 225v4c0 155 -71 225 -188 225c-116 0 -187 -70 -187 -225v-4c0 -156 71 -225 187 -225z" />
    <glyph glyph-name="ograve.sc" horiz-adv-x="650" 
d="M397 670h-62l-134 138h98zM325 -14c-176 0 -279 105 -279 305v9c0 198 103 303 279 303s280 -105 280 -303v-9c0 -200 -104 -305 -280 -305zM325 68c117 0 188 69 188 225v4c0 155 -71 225 -188 225c-116 0 -187 -70 -187 -225v-4c0 -156 71 -225 187 -225z" />
    <glyph glyph-name="ohungarumlaut.sc" horiz-adv-x="650" 
d="M349 807l-131 -139h-61l96 139h96zM491 807l-131 -139h-61l96 139h96zM325 -14c-176 0 -279 105 -279 305v9c0 198 103 303 279 303s280 -105 280 -303v-9c0 -200 -104 -305 -280 -305zM325 68c117 0 188 69 188 225v4c0 155 -71 225 -188 225c-116 0 -187 -70 -187 -225
v-4c0 -156 71 -225 187 -225z" />
    <glyph glyph-name="omacron.sc" horiz-adv-x="650" 
d="M480 669h-316v64h316v-64zM325 -14c-176 0 -279 105 -279 305v9c0 198 103 303 279 303s280 -105 280 -303v-9c0 -200 -104 -305 -280 -305zM325 68c117 0 188 69 188 225v4c0 155 -71 225 -188 225c-116 0 -187 -70 -187 -225v-4c0 -156 71 -225 187 -225z" />
    <glyph glyph-name="oslash.sc" horiz-adv-x="650" 
d="M517 621l-29 -60c75 -47 117 -135 117 -261v-9c0 -200 -104 -305 -280 -305c-41 0 -79 6 -111 17l-30 -60l-58 25l31 63c-72 49 -111 136 -111 260v9c0 198 103 303 279 303c39 0 74 -5 105 -15l29 59zM138 297v-4c0 -85 21 -144 59 -180l196 399c-20 7 -43 10 -68 10
c-116 0 -187 -70 -187 -225zM513 293v4c0 88 -23 149 -64 185l-198 -402c22 -8 47 -12 74 -12c117 0 188 69 188 225z" />
    <glyph glyph-name="oslashacute.sc" horiz-adv-x="650" 
d="M343 809h98l-134 -138h-61zM521 622l-31 -62c74 -48 115 -136 115 -260v-9c0 -200 -104 -305 -280 -305c-40 0 -76 5 -108 16l-29 -58l-58 25l30 61c-74 48 -114 136 -114 261v9c0 198 103 303 279 303c40 0 76 -5 108 -16l30 61zM138 297v-4c0 -87 22 -147 61 -183
l197 401c-21 8 -45 11 -71 11c-116 0 -187 -70 -187 -225zM513 293v4c0 86 -22 146 -62 183l-197 -401c21 -8 45 -11 71 -11c117 0 188 69 188 225z" />
    <glyph glyph-name="otilde.sc" horiz-adv-x="650" 
d="M391 665c-56 0 -95 47 -131 47c-21 0 -33 -12 -45 -39l-51 14c16 64 43 90 89 90c56 0 95 -47 130 -47c21 0 34 12 46 40l51 -15c-16 -63 -44 -90 -89 -90zM325 -14c-176 0 -279 105 -279 305v9c0 198 103 303 279 303s280 -105 280 -303v-9c0 -200 -104 -305 -280 -305z
M325 68c117 0 188 69 188 225v4c0 155 -71 225 -188 225c-116 0 -187 -70 -187 -225v-4c0 -156 71 -225 187 -225z" />
    <glyph glyph-name="oe.sc" horiz-adv-x="967" 
d="M605 267v-191h323v-76h-415v46c-47 -40 -110 -60 -188 -60c-176 0 -279 105 -279 305v9c0 198 103 303 279 303c78 0 141 -20 188 -60v46h412v-76h-320v-178h292v-68h-292zM325 68c117 0 188 69 188 225v4c0 155 -71 225 -188 225c-116 0 -187 -70 -187 -225v-4
c0 -156 71 -225 187 -225z" />
    <glyph glyph-name="p.sc" horiz-adv-x="576" 
d="M158 0h-93v589h261c132 0 204 -60 204 -185v-17c0 -130 -70 -194 -201 -194h-171v-193zM158 513v-244h157c88 0 124 44 124 118v17c0 64 -30 109 -122 109h-159z" />
    <glyph glyph-name="thorn.sc" horiz-adv-x="576" 
d="M158 489h172c129 0 200 -59 200 -182v-17c0 -127 -68 -190 -201 -190h-171v-100h-93v589h93v-100zM442 290v17c0 63 -29 107 -117 107h-167v-238h165c86 0 119 43 119 114z" />
    <glyph glyph-name="q.sc" horiz-adv-x="650" 
d="M325 603c176 0 280 -105 280 -303v-9c0 -184 -88 -288 -239 -303v-94h-82v94c-151 15 -238 119 -238 303v9c0 198 103 303 279 303zM513 293v4c0 155 -71 225 -188 225c-116 0 -187 -70 -187 -225v-4c0 -156 71 -225 187 -225c117 0 188 69 188 225z" />
    <glyph glyph-name="r.sc" horiz-adv-x="578" 
d="M501 157l16 -88c7 -30 13 -51 27 -69h-98c-9 14 -17 39 -22 67l-15 83c-10 45 -33 76 -119 76h-132v-226h-93v589h264c127 0 201 -56 201 -173v-6c0 -77 -33 -131 -94 -160v-2c33 -12 55 -41 65 -91zM158 513v-215h159c95 0 122 48 122 107v6c0 56 -27 102 -122 102h-159
z" />
    <glyph glyph-name="racute.sc" horiz-adv-x="578" 
d="M308 808h98l-134 -138h-61zM501 157l16 -88c7 -30 13 -51 27 -69h-98c-9 14 -17 39 -22 67l-15 83c-10 45 -33 76 -119 76h-132v-226h-93v589h264c127 0 201 -56 201 -173v-6c0 -77 -33 -131 -94 -160v-2c33 -12 55 -41 65 -91zM158 513v-215h159c95 0 122 48 122 107v6
c0 56 -27 102 -122 102h-159z" />
    <glyph glyph-name="rcaron.sc" horiz-adv-x="578" 
d="M432 806l-104 -139h-85l-103 139h57l89 -92l88 92h58zM501 157l16 -88c7 -30 13 -51 27 -69h-98c-9 14 -17 39 -22 67l-15 83c-10 45 -33 76 -119 76h-132v-226h-93v589h264c127 0 201 -56 201 -173v-6c0 -77 -33 -131 -94 -160v-2c33 -12 55 -41 65 -91zM158 513v-215
h159c95 0 122 48 122 107v6c0 56 -27 102 -122 102h-159z" />
    <glyph glyph-name="uni0157.sc" horiz-adv-x="578" 
d="M501 157l16 -88c7 -30 13 -51 27 -69h-98c-9 14 -17 39 -22 67l-15 83c-10 45 -33 76 -119 76h-132v-226h-93v589h264c127 0 201 -56 201 -173v-6c0 -77 -33 -131 -94 -160v-2c33 -12 55 -41 65 -91zM158 513v-215h159c95 0 122 48 122 107v6c0 56 -27 102 -122 102h-159
zM278 -46c42 0 61 -12 61 -39c0 -81 -47 -96 -109 -92v29c38 -1 50 7 51 34c-39 0 -59 10 -59 34s19 34 56 34z" />
    <glyph glyph-name="s.sc" horiz-adv-x="591" 
d="M304 -14c-179 0 -253 89 -255 196h90c4 -73 59 -121 168 -121c98 0 146 37 146 96v1c0 71 -57 89 -164 109c-137 25 -224 62 -224 171v1c0 91 63 164 225 164c177 0 245 -94 246 -179h-91c-2 49 -45 104 -156 104c-88 0 -130 -34 -130 -87v-1c0 -68 63 -84 156 -100
c150 -24 231 -65 231 -179c0 -109 -87 -175 -242 -175z" />
    <glyph glyph-name="sacute.sc" horiz-adv-x="591" 
d="M416 808l-134 -138h-61l97 138h98zM304 -14c-179 0 -253 89 -255 196h90c4 -73 59 -121 168 -121c98 0 146 37 146 96v1c0 71 -57 89 -164 109c-137 25 -224 62 -224 171v1c0 91 63 164 225 164c177 0 245 -94 246 -179h-91c-2 49 -45 104 -156 104
c-88 0 -130 -34 -130 -87v-1c0 -68 63 -84 156 -100c150 -24 231 -65 231 -179c0 -109 -87 -175 -242 -175z" />
    <glyph glyph-name="scaron.sc" horiz-adv-x="591" 
d="M253 667l-103 139h57l89 -92l88 92h58l-104 -139h-85zM304 -14c-179 0 -253 89 -255 196h90c4 -73 59 -121 168 -121c98 0 146 37 146 96v1c0 71 -57 89 -164 109c-137 25 -224 62 -224 171v1c0 91 63 164 225 164c177 0 245 -94 246 -179h-91c-2 49 -45 104 -156 104
c-88 0 -130 -34 -130 -87v-1c0 -68 63 -84 156 -100c150 -24 231 -65 231 -179c0 -109 -87 -175 -242 -175z" />
    <glyph glyph-name="scedilla.sc" horiz-adv-x="591" 
d="M546 161c0 -107 -84 -172 -233 -175l-11 -31c32 6 86 -9 86 -65c0 -47 -36 -78 -94 -78c-57 0 -99 22 -100 83h54c0 -32 19 -41 46 -41c22 0 37 13 37 39s-22 42 -55 32l-21 15l16 47c-155 10 -220 95 -222 195h90c4 -73 59 -121 168 -121c98 0 146 37 146 96v1
c0 71 -57 89 -164 109c-137 25 -224 62 -224 171v1c0 91 63 164 225 164c177 0 245 -94 246 -179h-91c-2 49 -45 104 -156 104c-88 0 -130 -34 -130 -87v-1c0 -68 63 -84 156 -100c150 -24 231 -65 231 -179z" />
    <glyph glyph-name="scircumflex.sc" horiz-adv-x="591" 
d="M207 666h-57l103 139h85l104 -139h-58l-88 92zM304 -14c-179 0 -253 89 -255 196h90c4 -73 59 -121 168 -121c98 0 146 37 146 96v1c0 71 -57 89 -164 109c-137 25 -224 62 -224 171v1c0 91 63 164 225 164c177 0 245 -94 246 -179h-91c-2 49 -45 104 -156 104
c-88 0 -130 -34 -130 -87v-1c0 -68 63 -84 156 -100c150 -24 231 -65 231 -179c0 -109 -87 -175 -242 -175z" />
    <glyph glyph-name="uni0219.sc" horiz-adv-x="591" 
d="M304 -14c-179 0 -253 89 -255 196h90c4 -73 59 -121 168 -121c98 0 146 37 146 96v1c0 71 -57 89 -164 109c-137 25 -224 62 -224 171v1c0 91 63 164 225 164c177 0 245 -94 246 -179h-91c-2 49 -45 104 -156 104c-88 0 -130 -34 -130 -87v-1c0 -68 63 -84 156 -100
c150 -24 231 -65 231 -179c0 -109 -87 -175 -242 -175zM240 -177v29c38 -1 50 7 51 34c-39 0 -59 10 -59 34s19 34 56 34c42 0 61 -12 61 -39c0 -81 -47 -96 -109 -92z" />
    <glyph glyph-name="germandbls.sc" horiz-adv-x="584" 
d="M510 518l-139 -162c113 -11 167 -60 167 -147v-39c0 -102 -65 -171 -222 -171h-44v70h44c73 0 134 23 134 107v39c0 57 -31 90 -126 90h-44v53l138 160h-145c-105 0 -115 -53 -115 -125v-393h-93v387c0 120 34 202 204 202h241v-71z" />
    <glyph glyph-name="t.sc" horiz-adv-x="486" 
d="M289 0h-92v513h-197v76h486v-76h-197v-513z" />
    <glyph glyph-name="tbar.sc" horiz-adv-x="486" 
d="M486 589v-76h-197v-192h147v-69h-147v-252h-92v252h-147v69h147v192h-197v76h486z" />
    <glyph glyph-name="tcaron.sc" horiz-adv-x="486" 
d="M201 668l-103 139h57l89 -92l88 92h58l-104 -139h-85zM289 0h-92v513h-197v76h486v-76h-197v-513z" />
    <glyph glyph-name="uni021B.sc" horiz-adv-x="486" 
d="M289 0h-92v513h-197v76h486v-76h-197v-513zM187 -177v29c38 -1 50 7 51 34c-39 0 -59 10 -59 34s19 34 56 34c42 0 61 -12 61 -39c0 -81 -47 -96 -109 -92z" />
    <glyph glyph-name="u.sc" horiz-adv-x="609" 
d="M305 -14c-193 0 -253 115 -253 270v333h93v-333c0 -110 36 -193 160 -193c122 0 160 83 160 193v333h93v-334c0 -155 -61 -269 -253 -269z" />
    <glyph glyph-name="uacute.sc" horiz-adv-x="609" 
d="M425 809l-134 -138h-61l97 138h98zM305 -14c-193 0 -253 115 -253 270v333h93v-333c0 -110 36 -193 160 -193c122 0 160 83 160 193v333h93v-334c0 -155 -61 -269 -253 -269z" />
    <glyph glyph-name="ubreve.sc" horiz-adv-x="609" 
d="M305 667c-98 0 -139 50 -134 139h60c-4 -57 18 -85 74 -85c55 0 77 28 74 85h60c5 -90 -37 -139 -134 -139zM305 -14c-193 0 -253 115 -253 270v333h93v-333c0 -110 36 -193 160 -193c122 0 160 83 160 193v333h93v-334c0 -155 -61 -269 -253 -269z" />
    <glyph glyph-name="ucircumflex.sc" horiz-adv-x="609" 
d="M216 667h-57l103 139h85l104 -139h-58l-88 92zM305 -14c-193 0 -253 115 -253 270v333h93v-333c0 -110 36 -193 160 -193c122 0 160 83 160 193v333h93v-334c0 -155 -61 -269 -253 -269z" />
    <glyph glyph-name="udieresis.sc" horiz-adv-x="609" 
d="M199 668c-40 0 -60 17 -60 52c0 36 21 54 60 54c40 0 60 -18 60 -54c0 -35 -20 -52 -60 -52zM394 668c-39 0 -59 17 -59 52c0 36 20 54 59 54c41 0 60 -18 60 -54c0 -35 -19 -52 -60 -52zM305 -14c-193 0 -253 115 -253 270v333h93v-333c0 -110 36 -193 160 -193
c122 0 160 83 160 193v333h93v-334c0 -155 -61 -269 -253 -269z" />
    <glyph glyph-name="ugrave.sc" horiz-adv-x="609" 
d="M380 671h-62l-134 138h98zM305 -14c-193 0 -253 115 -253 270v333h93v-333c0 -110 36 -193 160 -193c122 0 160 83 160 193v333h93v-334c0 -155 -61 -269 -253 -269z" />
    <glyph glyph-name="uhungarumlaut.sc" horiz-adv-x="609" 
d="M332 808l-131 -139h-61l96 139h96zM474 808l-131 -139h-61l96 139h96zM305 -14c-193 0 -253 115 -253 270v333h93v-333c0 -110 36 -193 160 -193c122 0 160 83 160 193v333h93v-334c0 -155 -61 -269 -253 -269z" />
    <glyph glyph-name="umacron.sc" horiz-adv-x="609" 
d="M463 670h-316v64h316v-64zM305 -14c-193 0 -253 115 -253 270v333h93v-333c0 -110 36 -193 160 -193c122 0 160 83 160 193v333h93v-334c0 -155 -61 -269 -253 -269z" />
    <glyph glyph-name="uogonek.sc" horiz-adv-x="609" 
d="M465 256v333h93v-334c0 -120 -36 -215 -142 -252c-58 -27 -98 -57 -98 -97c0 -21 12 -36 40 -36c29 0 40 17 41 46h56c1 -53 -23 -95 -105 -95c-59 0 -95 27 -95 77c0 35 24 65 61 88h-11c-193 0 -253 115 -253 270v333h93v-333c0 -110 36 -193 160 -193
c122 0 160 83 160 193z" />
    <glyph glyph-name="uring.sc" horiz-adv-x="609" 
d="M304 664c-72 0 -107 30 -107 88c0 59 35 90 107 90s109 -31 109 -90c0 -58 -37 -88 -109 -88zM304 705c34 0 52 15 52 47c0 34 -18 50 -52 50c-33 0 -51 -16 -51 -50c0 -32 18 -47 51 -47zM305 -14c-193 0 -253 115 -253 270v333h93v-333c0 -110 36 -193 160 -193
c122 0 160 83 160 193v333h93v-334c0 -155 -61 -269 -253 -269z" />
    <glyph glyph-name="utilde.sc" horiz-adv-x="609" 
d="M374 666c-56 0 -95 47 -131 47c-21 0 -33 -12 -45 -39l-51 14c16 64 43 90 89 90c56 0 95 -47 130 -47c21 0 34 12 46 40l51 -15c-16 -63 -44 -90 -89 -90zM305 -14c-193 0 -253 115 -253 270v333h93v-333c0 -110 36 -193 160 -193c122 0 160 83 160 193v333h93v-334
c0 -155 -61 -269 -253 -269z" />
    <glyph glyph-name="v.sc" horiz-adv-x="583" 
d="M352 0h-121l-218 589h98l175 -493l5 -16h1l5 16l175 493h98z" />
    <glyph glyph-name="w.sc" horiz-adv-x="885" 
d="M300 0h-118l-169 589h97l131 -492l3 -16h2l4 16l139 492h108l138 -492l5 -16h1l4 16l131 492h97l-170 -589h-117l-139 491l-3 12h-2l-3 -12z" />
    </font>
</defs>
</svg>
