<?xml version="1.0" standalone="no"?>
<!DOCTYPE svg PUBLIC "-//W3C//DTD SVG 1.1//EN" "http://www.w3.org/Graphics/SVG/1.1/DTD/svg11.dtd" >
<svg xmlns="http://www.w3.org/2000/svg" xmlns:xlink="http://www.w3.org/1999/xlink" version="1.1">
<metadata>
Created by FontForge 20230101 at Mon Jun 12 09:36:39 2023
 By Unknown
Copyright (c) 2022 by Zamroni Hamzah. All rights reserved.
</metadata>
<defs>
<font id="HeadingRegular" horiz-adv-x="221" >
  <font-face 
    font-family="Heading"
    font-weight="400"
    font-stretch="normal"
    units-per-em="1000"
    panose-1="0 0 0 0 0 0 0 0 0 0"
    ascent="800"
    descent="-200"
    x-height="476"
    cap-height="699"
    bbox="-99 -280 1249 998"
    underline-thickness="0"
    underline-position="0"
    unicode-range="U+000A-FB01"
  />
<missing-glyph horiz-adv-x="527" 
d="M50 700h427v-700h-427v700zM78 680l185 -309l186 309h-371zM276 350l181 -303v605zM251 350l-180 300v-601zM264 329l-185 -308h370z" />
    <glyph glyph-name="uniF000" unicode="ti" horiz-adv-x="538" 
d="M440 568q-34 0 -58 24t-24 58t24 58t58 24t58 -24t24 -58t-24 -58t-58 -24zM38 476h343q51 0 85 -24t34 -62v-390h-121v377h-200l-2 -196q0 -31 15.5 -50t40.5 -19q22 0 47 16l36 -89q-64 -43 -124 -43t-98 46.5t-37 138.5l1 196h-41v100q29 11 43.5 40t14.5 65v59h100
v-51q0 -33 -26 -59t-54 -37.5t-57 -17.5z" />
    <glyph glyph-name="uniF005" unicode="rb" horiz-adv-x="851" 
d="M829 244q0 -63 -19 -117.5t-63 -92.5t-106 -38q-53 0 -96 26t-64 73v-95h-120v612h-164q-47 0 -71.5 -23.5t-24.5 -54.5q0 -36 27 -52l11 -4q3 -1 9 -1h125v-89h-79v-388h-121v388h-61v99h89q-32 17 -50 50.5t-18 70.5q0 52 33.5 88.5t97.5 36.5h199q50 0 84 -24t34 -62
v-284q10 57 51.5 88t95.5 31q79 0 139.5 -62.5t61.5 -175.5zM481 108q43 -45 98 -45q53 0 90.5 45t37.5 124q0 82 -39 125t-91 43q-32 0 -58 -16t-38 -45v-231z" />
    <glyph glyph-name="fi" unicode="fi" horiz-adv-x="497" 
d="M457 604q-24 -24 -58 -24t-58 24t-24 58t24 58t58 24t58 -24t24 -58t-24 -58zM338 476h2q51 0 85 -23.5t34 -61.5v-390h-121v387h-144v-388h-121v388h-61v99h89q-50 27 -65 86.5t19 109.5t109 50h92v-121h-59q-50 0 -75 -27t-21.5 -58.5t27.5 -44.5l11 -4q3 -1 9 -1h190
v-1z" />
    <glyph glyph-name=".notdef" horiz-adv-x="527" 
d="M50 700h427v-700h-427v700zM78 680l185 -309l186 309h-371zM276 350l181 -303v605zM251 350l-180 300v-601zM264 329l-185 -308h370z" />
    <glyph glyph-name="uni0000" horiz-adv-x="0" 
 />
    <glyph glyph-name="uni000D" unicode="&#xd;" horiz-adv-x="0" 
 />
    <glyph glyph-name="uni000A" unicode="&#xa;" horiz-adv-x="0" 
 />
    <glyph glyph-name="space" unicode=" " horiz-adv-x="275" 
 />
    <glyph glyph-name="exclam" unicode="!" horiz-adv-x="209" 
d="M117 162h-25l-53 563h131zM104 -3q-27 0 -46 19t-19 46t19 46.5t46 19.5q28 0 47 -19.5t19 -46.5t-19 -46t-47 -19z" />
    <glyph glyph-name="quotedbl" unicode="&#x22;" horiz-adv-x="277" 
d="M80 699q22 0 37.5 -15t15.5 -37q0 -14 -9 -30l-40 -76l-20 -1l2 56q-17 5 -27.5 19t-10.5 32q0 22 15 37t37 15zM195 699q22 0 37.5 -15t15.5 -37q0 -15 -10 -30l-39 -76l-20 -1l2 56q-17 5 -27.5 19t-10.5 32q0 22 15 37t37 15z" />
    <glyph glyph-name="numbersign" unicode="#" horiz-adv-x="716" 
d="M664 432h-110l-43 -193h123l-21 -110h-127l-29 -129h-131l29 129h-99l-29 -129h-131l29 129h-96l21 110h99l44 193h-113l21 110h117l35 157h131l-35 -157h99l35 157h131l-35 -157h106zM380 239l43 193h-99l-44 -193h100z" />
    <glyph glyph-name="dollar" unicode="$" horiz-adv-x="554" 
d="M188 512q0 -32 34 -56t83 -43t98 -43t83 -68t34 -106q0 -77 -50 -128.5t-129 -67.5v-108h-106v104q-115 13 -203 92l74 106q78 -79 171 -79q48 0 80 22t32 56q0 32 -34 57.5t-83 45.5t-98 45t-83 69.5t-34 104.5q0 75 47.5 122t121.5 62v104h106v-102q109 -15 161 -82
l-81 -88q-57 57 -125 57q-42 0 -70.5 -21.5t-28.5 -54.5z" />
    <glyph glyph-name="percent" unicode="%" horiz-adv-x="909" 
d="M395 516q0 -76 -54 -130t-130 -54t-130 54t-54 130t54 130t130 54t130 -54t54 -130zM583 699h120l-377 -699h-120zM118 516q0 -38 27.5 -65.5t65.5 -27.5t65.5 27.5t27.5 65.5q0 39 -27.5 66t-65.5 27t-65.5 -27t-27.5 -66zM697 366q76 0 130 -53.5t54 -129.5
q0 -77 -53.5 -130.5t-130.5 -53.5q-76 0 -130 54t-54 130t54 129.5t130 53.5zM697 89q39 0 66 27.5t27 66.5q0 38 -27 65.5t-66 27.5q-38 0 -65.5 -27.5t-27.5 -65.5q0 -39 27.5 -66.5t65.5 -27.5z" />
    <glyph glyph-name="ampersand" unicode="&#x26;" horiz-adv-x="697" 
d="M345 288h329v-99h-84l26 -189h-100l-24 175q-16 -91 -83 -138.5t-153 -47.5q-91 0 -157.5 51t-66.5 140q0 55 29 97t69 64t93 35.5t89 17.5t69 4h-42q-46 0 -80 4t-73 17t-60.5 43t-21.5 75q0 77 59 124.5t145 47.5q94 0 158 -56.5t64 -139.5q0 -48 -25.5 -81.5
t-63.5 -49.5t-82.5 -33.5t-82.5 -34t-63.5 -51t-25.5 -84.5q0 -48 31 -71.5t80 -23.5q55 0 107.5 29t69.5 76h-130v99zM316 438q34 0 58.5 20.5t24.5 50.5q0 31 -24.5 50t-59.5 19t-59.5 -19t-24.5 -49t25 -51t60 -21z" />
    <glyph glyph-name="quotesingle" unicode="'" horiz-adv-x="162" 
d="M80 699q22 0 37.5 -15t15.5 -37q0 -14 -9 -30l-40 -76l-20 -1l2 56q-17 5 -27.5 19t-10.5 32q0 22 15 37t37 15z" />
    <glyph glyph-name="parenleft" unicode="(" horiz-adv-x="359" 
d="M309 820v-131q-57 0 -97.5 -99.5t-40.5 -240.5q0 -140 40.5 -240t97.5 -100v-131q-62 0 -111 33.5t-78 84.5t-47.5 117t-25.5 124t-7 113q0 56 7 115t26.5 124t48.5 115t77.5 83t109.5 33z" />
    <glyph glyph-name="parenright" unicode=")" horiz-adv-x="359" 
d="M50 820q75 0 130.5 -48t84 -124t41.5 -151t13 -147q0 -55 -7 -113t-26 -124t-48 -117t-77.5 -84.5t-110.5 -33.5v131q39 0 68.5 42t43.5 103t20 111.5t6 85.5q0 140 -40.5 239t-97.5 99v131z" />
    <glyph glyph-name="asterisk" unicode="*" horiz-adv-x="206" 
d="M177 649l-47 -28l47 -29l-15 -24l-45 28v-53h-28v53l-45 -28l-15 24l47 29l-47 28l15 24l45 -27v53h28v-53l45 27z" />
    <glyph glyph-name="plus" unicode="+" horiz-adv-x="384" 
d="M247 409h105v-110h-105v-105h-110v105h-105v110h105v105h110v-105z" />
    <glyph glyph-name="comma" unicode="," horiz-adv-x="159" 
d="M79 104q22 0 37.5 -15t15.5 -37q0 -14 -9 -30l-40 -76l-20 -1l2 56q-17 5 -27.5 19t-10.5 32q0 22 15 37t37 15z" />
    <glyph glyph-name="hyphen" unicode="-" horiz-adv-x="277" 
d="M248 295h-220v110h220v-110z" />
    <glyph glyph-name="period" unicode="." horiz-adv-x="159" 
d="M79 0q-22 0 -37 15t-15 37t15 37.5t37 15.5t37.5 -15.5t15.5 -37.5t-15.5 -37t-37.5 -15z" />
    <glyph glyph-name="slash" unicode="/" horiz-adv-x="493" 
d="M312 700h131l-262 -701h-131z" />
    <glyph glyph-name="zero" unicode="0" horiz-adv-x="703" 
d="M351 704q131 0 224 -103.5t93 -249.5t-93 -249.5t-224 -103.5t-223.5 103.5t-92.5 249.5t93 249.5t223 103.5zM351 129q77 0 131.5 65t54.5 157t-54.5 157t-131.5 65q-76 0 -130.5 -65t-54.5 -157t54 -157t131 -65z" />
    <glyph glyph-name="one" unicode="1" 
d="M176 0h-131v699h131v-699z" />
    <glyph glyph-name="two" unicode="2" horiz-adv-x="488" 
d="M449 513q0 -54 -20.5 -97.5t-51 -70t-66.5 -54t-66.5 -50t-51 -56.5t-20.5 -75h273v-110h-403v110q0 59 28.5 107t69 80t80.5 62t68.5 69t28.5 85q0 33 -24.5 54.5t-61.5 21.5q-60 0 -117 -57l-81 88q33 41 86.5 63.5t111.5 22.5q90 0 153.5 -50t63.5 -143z" />
    <glyph glyph-name="three" unicode="3" horiz-adv-x="507" 
d="M373 372q95 -51 95 -168q0 -101 -70.5 -155t-168.5 -54q-62 0 -116.5 22t-86.5 62l66 91q56 -51 134 -51q48 0 79.5 23.5t31.5 69.5q0 93 -133 93l-1 110q48 0 78 20.5t30 61.5q0 38 -26 59.5t-65 21.5q-63 0 -113 -47l-65 91q32 41 83 62.5t108 21.5q86 0 147.5 -47.5
t61.5 -134.5q0 -95 -69 -152z" />
    <glyph glyph-name="four" unicode="4" horiz-adv-x="526" 
d="M353 537h131v-537h-131v182q-23 -44 -64.5 -66.5t-89.5 -22.5q-68 0 -118.5 41.5t-50.5 112.5q0 49 29 110.5t63.5 111t63.5 113.5t29 117h131q0 -58 -29 -127t-63.5 -120.5t-63.5 -108t-29 -93.5q0 -40 27.5 -67t68.5 -27q52 0 96 43v338z" />
    <glyph glyph-name="five" unicode="5" horiz-adv-x="520" 
d="M193 439q29 6 58 6q95 0 163.5 -57.5t68.5 -153.5q0 -112 -68 -175t-166 -63q-58 0 -114.5 24t-99.5 69l65 101q66 -65 144 -65q47 0 77.5 28t30.5 79t-31 79.5t-79 28.5q-60 0 -118 -44l-66 74l22 329h359v-109h-235z" />
    <glyph glyph-name="six" unicode="6" horiz-adv-x="575" 
d="M169 363q82 78 183 78q79 0 133 -52t54 -144q0 -111 -77 -181.5t-180 -70.5q-65 0 -114.5 31.5t-77 84t-40.5 112.5t-13 126q0 92 26.5 163t71.5 113t99.5 63t116.5 21q88 0 170 -41l-53 -104q-46 23 -101 23q-36 0 -68.5 -11.5t-61 -36.5t-47 -69.5t-21.5 -104.5z
M168 350q0 -49 11 -96t43.5 -86t80.5 -39q45 0 75 32t30 90q0 64 -36.5 98.5t-92.5 34.5q-55 0 -111 -34z" />
    <glyph glyph-name="seven" unicode="7" horiz-adv-x="453" 
d="M22 699h419v-110q-89 -103 -138.5 -267t-49.5 -322h-131q0 312 188 589h-288v110z" />
    <glyph glyph-name="eight" unicode="8" horiz-adv-x="555" 
d="M366 396q70 -30 111 -73.5t41 -118.5q0 -99 -72.5 -153.5t-171.5 -54.5q-97 0 -167.5 51t-70.5 141q0 58 31.5 100t86.5 64q-83 65 -83 178q0 82 65.5 129t153.5 47q82 0 141.5 -41t59.5 -114q0 -58 -38 -98.5t-87 -56.5zM413 495q0 42 -34.5 65.5t-80.5 23.5
q-40 0 -68.5 -18.5t-28.5 -51.5q0 -13 4.5 -24.5t14.5 -21.5t19 -17t25 -14t25 -11t26.5 -10t21.5 -8q34 9 55 32t21 55zM114 234q-1 -68 43 -102t105 -34q52 0 89 23.5t37 62.5q0 27 -22 49t-51 34.5t-73 33t-72 39.5q-27 -22 -41 -45.5t-15 -60.5z" />
    <glyph glyph-name="nine" unicode="9" horiz-adv-x="576" 
d="M538 361q0 -96 -25.5 -168.5t-70 -114.5t-98 -62.5t-114.5 -20.5q-92 0 -176 42l52 104q48 -23 101 -23q78 0 135 53.5t64 168.5q-82 -78 -182 -78q-79 0 -133.5 52.5t-54.5 143.5q0 109 74.5 178.5t172.5 69.5q49 0 93.5 -20t81.5 -60t58.5 -108.5t21.5 -156.5zM167 460
q0 -69 37 -104.5t94 -35.5q56 0 108 33q0 6 1 9q-1 103 -43 158t-97 55q-41 0 -70.5 -31t-29.5 -84z" />
    <glyph glyph-name="colon" unicode=":" horiz-adv-x="169" 
d="M84 257q-22 0 -37 15.5t-15 37.5t15 37t37 15t37.5 -15t15.5 -37t-15.5 -37.5t-37.5 -15.5zM84 -1q-22 0 -37 15.5t-15 37.5t15 37t37 15t37.5 -15t15.5 -37t-15.5 -37.5t-37.5 -15.5z" />
    <glyph glyph-name="semicolon" unicode=";" horiz-adv-x="169" 
d="M84 257q-22 0 -37 15.5t-15 37.5t15 37t37 15t37.5 -15t15.5 -37t-15.5 -37.5t-37.5 -15.5zM84 104q22 0 37.5 -15t15.5 -37q0 -14 -9 -30l-40 -76l-20 -1l2 56q-17 5 -27.5 19t-10.5 32q0 22 15 37t37 15z" />
    <glyph glyph-name="less" unicode="&#x3c;" horiz-adv-x="356" 
d="M324 473l-185 -124l185 -123l-54 -78l-240 159v85l240 159z" />
    <glyph glyph-name="equal" unicode="=" horiz-adv-x="388" 
d="M354 387h-320v110h320v-110zM354 211h-320v110h320v-110z" />
    <glyph glyph-name="greater" unicode="&#x3e;" horiz-adv-x="356" 
d="M325 392v-85l-240 -159l-54 78l186 123l-186 124l54 78z" />
    <glyph glyph-name="question" unicode="?" horiz-adv-x="515" 
d="M50 644q32 41 88 63t119 22q96 0 164 -51.5t65 -149.5q-1 -55 -27 -94.5t-62 -63t-72 -47.5t-61 -62t-25 -92h-25q1 66 16 117t36 80.5t41.5 54t34.5 53t13 62.5q-1 33 -29.5 54.5t-69.5 21.5q-68 0 -125 -57zM230 128q27 0 46.5 -19.5t19.5 -46.5t-19.5 -46t-46.5 -19
t-46 19t-19 46t19 46.5t46 19.5z" />
    <glyph glyph-name="at" unicode="@" horiz-adv-x="780" 
d="M254 264q0 59 41.5 90t96.5 31q30 0 53 -9v38q0 19 -17.5 31t-44.5 12q-50 0 -88 -38l-33 57q55 53 140 53q55 0 91 -29t36 -86v-107q0 -33 18.5 -52t51.5 -19q46 0 68.5 36t22.5 91q0 114 -88 199t-211 85t-210.5 -87t-87.5 -211t87.5 -211.5t210.5 -87.5q106 0 188 67
l36 -45q-98 -79 -224 -79q-147 0 -251.5 104.5t-104.5 251.5t104.5 251.5t251.5 104.5q146 0 251 -102.5t105 -240.5q0 -80 -39 -131.5t-112 -51.5q-47 0 -84 22t-54 56q-16 -33 -47.5 -50t-66.5 -17q-38 0 -64 19.5t-26 54.5zM445 305v41q-19 7 -37 7q-29 0 -49.5 -15.5
t-20.5 -46.5q0 -24 13 -37t32 -13q22 0 40.5 14.5t22.5 39.5q-1 3 -1 10z" />
    <glyph glyph-name="A" unicode="A" horiz-adv-x="548" 
d="M421 0l-45 140h-204l-45 -140h-131l240 700h76l240 -700h-131zM207 250h133l-66 207z" />
    <glyph glyph-name="B" unicode="B" horiz-adv-x="520" 
d="M354 377q70 -23 109 -73t39 -109q0 -82 -74.5 -141.5t-212.5 -59.5q-60 0 -102.5 3.5t-54.5 7.5l-13 4v678q40 16 169 16q123 0 188 -50.5t65 -121.5q0 -47 -29.5 -89t-83.5 -65zM176 597v-164h62q47 0 73.5 25t26.5 58t-26 57t-74 24h-62zM238 102q62 0 97 33.5t35 78.5
q0 44 -34.5 75.5t-97.5 31.5h-62v-219h62z" />
    <glyph glyph-name="C" unicode="C" horiz-adv-x="579" 
d="M491 182l90 -96q-89 -93 -227 -93q-63 0 -122 23t-107 66.5t-77 114t-29 157.5q0 85 27 153t72 110t100 64.5t115 22.5q116 0 196 -74l-70 -99q-52 46 -117 46q-77 0 -134.5 -62t-57.5 -165q0 -106 61 -166t143 -60t137 58z" />
    <glyph glyph-name="D" unicode="D" horiz-adv-x="547" 
d="M214 703q101 0 174 -53t106 -131.5t33 -171.5q0 -143 -79.5 -248t-219.5 -105q-59 0 -104.5 5t-61.5 11l-17 5v668q47 20 169 20zM238 104q75 0 116.5 72.5t41.5 172.5t-42 173.5t-116 73.5h-62v-492h62z" />
    <glyph glyph-name="E" unicode="E" horiz-adv-x="462" 
d="M176 110h273v-110h-404v699h384v-110h-253v-185h193v-109h-193v-185z" />
    <glyph glyph-name="F" unicode="F" horiz-adv-x="425" 
d="M421 589h-245v-239h170v-110h-170v-240h-131v699h376v-110z" />
    <glyph glyph-name="G" unicode="G" horiz-adv-x="576" 
d="M424 311h131v-225q-90 -93 -221 -93q-128 0 -221.5 94t-93.5 262q0 86 27 155.5t72 112t100.5 65t114.5 22.5q114 0 196 -74l-70 -99q-52 46 -117 46q-78 0 -135 -63.5t-57 -169.5q0 -103 54.5 -161.5t129.5 -58.5q49 0 90 25v162z" />
    <glyph glyph-name="H" unicode="H" horiz-adv-x="570" 
d="M393 699h131v-699h-131v254h-217v-254h-131v699h131v-335h217v335z" />
    <glyph glyph-name="I" unicode="I" 
d="M176 0h-131v699h131v-699z" />
    <glyph glyph-name="J" unicode="J" horiz-adv-x="313" 
d="M140 699h131v-506q0 -209 -172 -209q-46 0 -104 15l23 122q30 -15 56 -15q30 0 48 22t18 65v506z" />
    <glyph glyph-name="K" unicode="K" horiz-adv-x="514" 
d="M514 0h-147l-191 327v-327h-131v699h131v-327l191 327h146l-204 -350z" />
    <glyph glyph-name="L" unicode="L" horiz-adv-x="415" 
d="M176 110h242v-110h-373v699h131v-589z" />
    <glyph glyph-name="M" unicode="M" horiz-adv-x="695" 
d="M575 700h75v-700h-131v354l-139 -291h-76l-128 278v-341h-131v699h75l223 -470z" />
    <glyph glyph-name="N" unicode="N" horiz-adv-x="581" 
d="M404 699h131v-699h-132l-227 443v-443h-131v699h131l228 -446v446z" />
    <glyph glyph-name="O" unicode="O" horiz-adv-x="704" 
d="M352 702q139 0 237.5 -103.5t98.5 -249.5t-98.5 -249.5t-237.5 -103.5t-237.5 103.5t-98.5 249.5t98.5 249.5t237.5 103.5zM352 127q85 0 145 65t60 157t-60 157t-145 65t-145 -65t-60 -157t60 -157t145 -65z" />
    <glyph glyph-name="P" unicode="P" horiz-adv-x="512" 
d="M214 704q73 0 130 -23t89.5 -61.5t49 -82t16.5 -89.5q0 -120 -52 -182.5t-125 -62.5q-45 0 -84.5 24.5t-61.5 67.5v-295h-131v683q47 21 169 21zM176 313q43 -42 86 -42q44 0 73 46t29 131q0 59 -34 103.5t-92 44.5h-62v-283z" />
    <glyph glyph-name="Q" unicode="Q" horiz-adv-x="704" 
d="M375 -3q-41 -12 -41 -57q0 -33 27.5 -58t78.5 -25q64 0 147 43q4 -14 15.5 -61t17.5 -66q-114 -53 -205 -53q-86 0 -133.5 45t-47.5 105q0 43 25 78.5t71 48.5q-132 9 -223 110.5t-91 241.5q0 146 98.5 249.5t237.5 103.5t237.5 -103.5t98.5 -249.5q0 -139 -91 -240.5
t-222 -111.5zM147 349q0 -92 60 -157t145 -65t145 65t60 157t-60 157t-145 65t-145 -65t-60 -157z" />
    <glyph glyph-name="R" unicode="R" horiz-adv-x="517" 
d="M502 0h-142l-176 285v23q86 0 132 47t46 110q0 53 -33.5 92t-90.5 39h-62v-596h-131v683q47 21 169 21q138 0 210.5 -65.5t72.5 -157.5q0 -75 -47 -135t-127 -74z" />
    <glyph glyph-name="S" unicode="S" horiz-adv-x="515" 
d="M168 516q0 -24 18.5 -43t47.5 -33t64.5 -28t71 -32t64.5 -40.5t47.5 -58t18.5 -80.5q0 -93 -70.5 -148t-173.5 -55q-140 0 -244 94l74 106q78 -79 171 -79q48 0 80 22t32 56q0 24 -18.5 43.5t-47.5 34.5t-64.5 30t-71 34t-64.5 42t-47.5 59t-18.5 80q0 90 67.5 139.5
t161.5 49.5q62 0 118 -22.5t89 -63.5l-81 -88q-57 57 -125 57q-42 0 -70.5 -21.5t-28.5 -54.5z" />
    <glyph glyph-name="T" unicode="T" horiz-adv-x="455" 
d="M458 699v-110h-164v-589h-131v589h-167v110h462z" />
    <glyph glyph-name="U" unicode="U" horiz-adv-x="564" 
d="M526 246q0 -118 -72 -183t-171 -65q-100 0 -173 65.5t-73 182.5v453h131v-453q0 -65 34 -101.5t80 -36.5t79.5 36.5t33.5 101.5v453h131v-453z" />
    <glyph glyph-name="V" unicode="V" horiz-adv-x="548" 
d="M552 699l-240 -699h-76l-240 699h141l137 -424l136 424h142z" />
    <glyph glyph-name="W" unicode="W" horiz-adv-x="857" 
d="M858 700l-198 -700h-76l-155 418l-156 -418h-76l-198 700h141l106 -430l145 429h75l145 -429l106 430h141z" />
    <glyph glyph-name="X" unicode="X" horiz-adv-x="555" 
d="M557 696l-204 -362l189 -334h-151l-114 201l-113 -201h-151l189 334l-204 362h151l128 -228l129 228h151z" />
    <glyph glyph-name="Y" unicode="Y" horiz-adv-x="536" 
d="M546 699l-212 -391v-308h-131v306l-213 393h153l125 -242l125 242h153z" />
    <glyph glyph-name="Z" unicode="Z" horiz-adv-x="481" 
d="M178 110h295v-110h-462v75l264 514h-248v110h415v-76z" />
    <glyph glyph-name="bracketleft" unicode="[" 
d="M262 700h-86v-701h86v-110h-217v921h217v-110z" />
    <glyph glyph-name="backslash" unicode="\" horiz-adv-x="493" 
d="M181 700l262 -701h-131l-262 701h131z" />
    <glyph glyph-name="bracketright" unicode="]" 
d="M-41 810h217v-921h-217v110h86v701h-86v110z" />
    <glyph glyph-name="underscore" unicode="_" horiz-adv-x="376" 
d="M348 0h-320v110h320v-110z" />
    <glyph glyph-name="grave" unicode="`" horiz-adv-x="194" 
d="M114 696l51 -165l-61 -24l-78 151z" />
    <glyph glyph-name="a" unicode="a" horiz-adv-x="435" 
d="M400 316v-319h-2q-51 0 -85 24t-34 62v5q-19 -45 -63 -71t-92 -26q-46 0 -76 24t-30 70q0 49 39.5 87t87 57.5t89 42t45.5 43.5q0 24 -18 38t-47 14q-65 0 -134 -57l-47 103q91 67 189 67q77 0 127.5 -43.5t50.5 -120.5zM279 107v187q-6 -25 -30 -47.5t-48 -37.5
t-43.5 -40t-19.5 -55q0 -19 19 -30t45 -11q55 0 77 34z" />
    <glyph glyph-name="b" unicode="b" horiz-adv-x="530" 
d="M508 243q0 -99 -48 -173t-139 -74q-53 0 -96.5 26t-64.5 73v-95h-120v730h2q50 0 84 -24t34 -62v-282q10 57 51.5 88.5t95.5 31.5q79 0 140 -63t61 -176zM160 339v-231q44 -45 98 -45q53 0 91 45.5t38 125.5q0 81 -38.5 123.5t-91.5 42.5q-32 0 -58.5 -16t-38.5 -45z" />
    <glyph glyph-name="c" unicode="c" horiz-adv-x="450" 
d="M383 137l57 -79q-82 -65 -183 -65q-99 0 -167.5 64.5t-68.5 184.5q0 118 67 183.5t162 65.5q99 0 175 -67l-55 -84q-47 43 -104 43q-56 0 -96 -40t-40 -100q0 -63 44 -104t104 -41q57 0 105 39z" />
    <glyph glyph-name="d" unicode="d" horiz-adv-x="527" 
d="M368 730q51 0 85 -24t34 -62v-647h-2q-51 0 -85 23.5t-34 61.5v6q-22 -44 -64 -68t-92 -24q-91 0 -139.5 74t-48.5 173q0 114 60.5 176.5t139.5 62.5q51 0 90.5 -27.5t53.5 -77.5v353h2zM366 105v241q-29 54 -93 54q-52 0 -91 -42.5t-39 -124.5q0 -80 37.5 -125t90.5 -45
t95 42z" />
    <glyph glyph-name="e" unicode="e" horiz-adv-x="465" 
d="M391 143l59 -82q-86 -63 -191 -63q-100 0 -169.5 63t-69.5 176q0 114 68 179.5t156 65.5q82 0 133.5 -55t51.5 -135q0 -22 -5 -47l-1 -6q-1 -10 -9 -16.5t-18 -6.5h-247l-1 6q7 1 19.5 4t43.5 12.5t55 21t44 29.5t20 37q0 24 -26 42t-60 18q-47 0 -82 -34.5t-35 -103.5
q0 -73 40.5 -112t99.5 -39q67 0 124 46z" />
    <glyph glyph-name="f" unicode="f" horiz-adv-x="282" 
d="M142 478h131v-91h-79v-387h-121v387h-61v101h86q-31 18 -48.5 50.5t-17.5 69.5q0 52 34 88.5t98 36.5h101v-121h-68q-47 0 -71.5 -23t-24.5 -54q0 -32 23 -50z" />
    <glyph glyph-name="g" unicode="g" horiz-adv-x="478" 
d="M359 58q51 -7 79.5 -42.5t28.5 -84.5q0 -71 -57 -127.5t-158 -56.5q-88 0 -198 50q12 37 28 93q83 -48 148 -48q67 0 104 44.5t37 97.5q0 50 -30 65q-46 -19 -97 -19q-95 0 -161 65t-66 158q0 92 65.5 157.5t157.5 65.5h203q0 -33 -20 -50.5t-59 -28.5q43 -24 65.5 -69
t22.5 -97q0 -55 -24 -101.5t-69 -71.5zM240 142q46 0 78.5 32.5t32.5 78.5t-32.5 78.5t-78.5 32.5t-78 -32.5t-32 -78.5t32 -78.5t78 -32.5z" />
    <glyph glyph-name="h" unicode="h" horiz-adv-x="510" 
d="M474 340v-340h-121v303q0 47 -28 73.5t-67 26.5q-32 0 -59 -17t-39 -49v-337h-120v730h2q50 0 84 -24t34 -62v-282q18 56 63.5 87t100.5 31q61 0 105.5 -36t44.5 -104z" />
    <glyph glyph-name="i" unicode="i" horiz-adv-x="199" 
d="M182 688q0 -34 -24 -58t-58 -24t-58 24t-24 58t24 58t58 24t58 -24t24 -58zM40 482h2q50 0 84 -24t34 -62v-396h-120v482z" />
    <glyph glyph-name="j" unicode="j" horiz-adv-x="199" 
d="M173 690q0 -34 -24 -58t-58 -24t-58 24t-24 58t24 58t58 24t58 -24t24 -58zM42 483q50 0 84 -23.5t34 -61.5v-457q0 -90 -44.5 -132t-108.5 -42q-61 0 -106 32l32 94q16 -16 43 -16q26 0 45 17t19 47v542h2z" />
    <glyph glyph-name="k" unicode="k" horiz-adv-x="462" 
d="M274 237l186 -237h-130l-170 216v-216h-120v730h2q50 0 84 -24t34 -62v-386l163 219h130z" />
    <glyph glyph-name="l" unicode="l" horiz-adv-x="201" 
d="M42 730q50 0 84 -24t34 -62v-644h-120v730h2z" />
    <glyph glyph-name="m" unicode="m" horiz-adv-x="757" 
d="M570 482q62 0 106 -36.5t44 -104.5v-341h-120v305q0 48 -22.5 74t-54.5 26q-55 0 -82 -61v-344h-121v305q0 48 -22.5 74t-54.5 26q-56 0 -83 -63v-342h-120v476h2q50 0 84 -23.5t34 -61.5v-18q32 109 131 109q54 0 96.5 -29.5t51.5 -84.5q29 114 131 114z" />
    <glyph glyph-name="n" unicode="n" horiz-adv-x="510" 
d="M473 341v-341h-120l-1 304q0 47 -28 73.5t-67 26.5q-31 0 -58 -16.5t-39 -48.5v-339h-120v476h2q50 0 84 -23.5t34 -61.5v-26q18 55 63.5 85.5t100.5 30.5q61 0 105 -36t44 -104z" />
    <glyph glyph-name="o" unicode="o" horiz-adv-x="525" 
d="M262 483q101 0 172.5 -71.5t71.5 -172.5t-71.5 -172.5t-172.5 -71.5q-100 0 -172 71.5t-72 172.5t71.5 172.5t172.5 71.5zM262 101q58 0 98.5 40.5t40.5 97.5q0 58 -40.5 98.5t-98.5 40.5q-57 0 -98 -40.5t-41 -98.5q0 -57 41 -97.5t98 -40.5z" />
    <glyph glyph-name="p" unicode="p" horiz-adv-x="531" 
d="M508 243v-1q0 -120 -56.5 -183t-134.5 -63q-50 0 -93 26t-64 73v-344h-120v732h2q50 0 84 -24t34 -62v-35q10 57 51.5 88.5t95.5 31.5q79 0 140 -63t61 -176zM160 108q44 -45 97 -45q54 0 92 46.5t38 126.5q0 81 -38.5 122.5t-90.5 41.5q-32 0 -59 -16t-39 -45v-231z" />
    <glyph glyph-name="q" unicode="q" horiz-adv-x="530" 
d="M369 477h120v-732h-2q-50 0 -84 24t-34 62v281q-11 -55 -52 -85.5t-94 -30.5q-79 0 -140 64.5t-61 183.5q0 115 57 177t135 62q49 0 91.5 -26t63.5 -72v92zM369 137v234q-43 44 -98 44q-53 0 -90.5 -45t-37.5 -124q0 -82 39 -124.5t92 -42.5q31 0 57 15.5t38 42.5z" />
    <glyph glyph-name="r" unicode="r" horiz-adv-x="393" 
d="M160 387q15 45 46 69.5t68 24.5t68.5 -25t48.5 -73l-90 -56q-11 34 -31 52t-43 18q-45 0 -67 -49v-348h-120v476h2q50 0 84 -23.5t34 -61.5v-4z" />
    <glyph glyph-name="s" unicode="s" horiz-adv-x="379" 
d="M154 346q0 -21 21 -37.5t51.5 -30.5t61 -30t51.5 -44.5t21 -66.5q0 -64 -52.5 -101t-125.5 -37q-51 0 -95.5 19.5t-71.5 56.5l74 76q37 -52 92 -52q24 0 41 11.5t17 27.5q0 17 -21 32t-51.5 29.5t-61 32t-51.5 47t-21 67.5q0 63 50.5 100t118.5 37q47 0 87.5 -19.5
t62.5 -56.5l-85 -75q-36 52 -74 52q-17 0 -28 -11t-11 -27z" />
    <glyph glyph-name="t" unicode="t" horiz-adv-x="331" 
d="M286 128l36 -90q-64 -43 -124 -43t-97.5 46.5t-37.5 138.5v198h-49v99h9q28 12 43 41t15 64v59h99v-51q0 -46 -42.5 -74.5t-90.5 -38.5h228v-99h-91v-198q0 -31 15 -49.5t39 -18.5q23 0 48 16z" />
    <glyph glyph-name="u" unicode="u" horiz-adv-x="509" 
d="M349 476h120v-477h-2q-50 0 -84 24t-34 62v25q-18 -55 -63.5 -85t-99.5 -30q-61 0 -105.5 36t-44.5 104v337h120l1 -300q0 -47 28 -73.5t67 -26.5q31 0 58 16.5t39 48.5v339z" />
    <glyph glyph-name="v" unicode="v" horiz-adv-x="436" 
d="M313 481h120l-178 -481h-75l-178 481h120l97 -263z" />
    <glyph glyph-name="w" unicode="w" horiz-adv-x="685" 
d="M562 481h120l-173 -481h-75l-88 225l-100 -225h-75l-168 481h120l94 -274l96 216h75l82 -207z" />
    <glyph glyph-name="x" unicode="x" horiz-adv-x="436" 
d="M283 241l147 -241h-130l-82 134l-82 -134h-130l147 241l-146 240h130l81 -132l80 132h131z" />
    <glyph glyph-name="y" unicode="y" horiz-adv-x="453" 
d="M327 481h120l-210 -715h-114l81 285h-60l-141 430h120l109 -333z" />
    <glyph glyph-name="z" unicode="z" horiz-adv-x="378" 
d="M154 100h207v-100h-345v73l199 308h-180v100h318v-73z" />
    <glyph glyph-name="braceleft" unicode="{" horiz-adv-x="292" 
d="M234 666v-18q0 -70 -3 -110.5t-19.5 -95t-49.5 -93.5l7 -8q41 -47 53 -106t12 -145v-60q0 -31 28 -31h36v-110h-66q-54 0 -91.5 38.5t-37.5 92.5v28q0 68 -3 108t-19.5 92.5t-49.5 90.5v10l9 12q29 39 43.5 90.5t17 88t2.5 100.5v39q0 54 38.5 92.5t92.5 38.5h66v-110
h-33q-33 0 -33 -34z" />
    <glyph glyph-name="bar" unicode="|" 
d="M176 -111h-131v921h131v-921z" />
    <glyph glyph-name="braceright" unicode="}" horiz-adv-x="292" 
d="M252 361l9 -12v-10q-33 -38 -49.5 -90.5t-19.5 -92.5t-3 -108v-28q0 -54 -37.5 -92.5t-91.5 -38.5h-66v110h36q28 0 28 31v60q0 86 12 145t53 106l7 8q-33 39 -49.5 93.5t-19.5 95t-3 110.5v18q0 34 -33 34h-33v110h66q54 0 92.5 -38.5t38.5 -92.5v-39q0 -64 2.5 -100.5
t17 -88.5t43.5 -90z" />
    <glyph glyph-name="uni00A0" unicode="&#xa0;" horiz-adv-x="298" 
 />
    <glyph glyph-name="exclamdown" unicode="&#xa1;" horiz-adv-x="203" 
d="M101 440q-27 0 -46 19t-19 46t19 46.5t46 19.5q28 0 47 -19.5t19 -46.5t-19 -46t-47 -19zM89 405h25l53 -563h-131z" />
    <glyph glyph-name="cent" unicode="&#xa2;" horiz-adv-x="483" 
d="M394 152l59 -93q-62 -50 -145 -63v-102h-106v108q-74 20 -121 81.5t-47 158.5q0 99 47 161.5t121 81.5v114h106v-110q74 -14 130 -63l-60 -93q-49 45 -104 45q-50 0 -84.5 -37t-34.5 -96q0 -61 37.5 -98t91.5 -37q59 0 110 42z" />
    <glyph glyph-name="sterling" unicode="&#xa3;" horiz-adv-x="557" 
d="M151 110h376v-110h-489v110h92q19 50 19 97q0 36 -11 72h-100v99h65q-21 71 -21 132q0 92 69 143t164 51q61 0 116 -22.5t88 -64.5l-81 -88q-56 57 -125 57q-43 0 -71.5 -24t-28.5 -62q0 -34 11 -122h143v-99h-136q-2 -107 -80 -169z" />
    <glyph glyph-name="yen" unicode="&#xa5;" horiz-adv-x="656" 
d="M606 699l-201 -372h88v-100h-99v-49h99v-99h-99v-79h-131v79h-99v99h99v49h-99v100h87l-201 372h153l125 -243l125 243h153z" />
    <glyph glyph-name="section" unicode="&#xa7;" horiz-adv-x="466" 
d="M430 328q0 -77 -69 -119q17 -28 17 -65q0 -69 -52.5 -109t-125.5 -40q-50 0 -95 21t-72 61l74 83q38 -57 93 -57q24 0 40.5 12t16.5 30q0 19 -21 35.5t-51.5 32t-61 34.5t-51.5 51t-21 73q0 79 68 121q-16 29 -16 64q0 68 50 108t118 40q47 0 88 -21t63 -61l-85 -81
q-36 56 -75 56q-17 0 -27.5 -11.5t-10.5 -29.5q0 -23 21 -41t51.5 -33t61 -32.5t51.5 -48.5t21 -73zM263 288q20 3 33 14.5t13 26.5q0 10 -4.5 18.5t-17 17.5t-21 14.5t-29.5 16.5t-29 16q-16 -1 -26 -12.5t-10 -27.5q0 -9 3 -17t10 -15.5t12.5 -13t17 -12.5t16.5 -9.5
t17.5 -9t14.5 -7.5z" />
    <glyph glyph-name="dieresis" unicode="&#xa8;" horiz-adv-x="293" 
d="M81 570q-23 0 -38.5 16t-15.5 38t15.5 38t38.5 16t38.5 -16t15.5 -38t-15.5 -38t-38.5 -16zM265 624q0 -22 -15.5 -38t-37.5 -16q-23 0 -39 16t-16 38t16.5 38t38.5 16t37.5 -16t15.5 -38z" />
    <glyph glyph-name="copyright" unicode="&#xa9;" horiz-adv-x="783" 
d="M391 706q147 0 251.5 -104.5t104.5 -252.5q0 -147 -104.5 -251.5t-251.5 -104.5t-251.5 104.5t-104.5 251.5q0 148 104.5 252.5t251.5 104.5zM391 51q124 0 211.5 87.5t87.5 210.5q0 124 -87.5 211.5t-211.5 87.5q-123 0 -210.5 -87.5t-87.5 -211.5q0 -123 87.5 -210.5
t210.5 -87.5zM280 348q0 -64 36.5 -103t85.5 -39q50 0 84 41l54 -58q-54 -56 -137 -56q-82 0 -142 57.5t-60 160.5q0 100 56 156t133 56q70 0 119 -45l-42 -60q-35 32 -75 32q-46 0 -79 -39.5t-33 -102.5z" />
    <glyph glyph-name="ordfeminine" unicode="&#xaa;" horiz-adv-x="192" 
d="M160 644v-110q-18 0 -29.5 8.5t-11.5 21.5v2q-14 -34 -53 -34q-16 0 -26.5 8.5t-10.5 24.5q0 21 21.5 36t44 24.5t24.5 17.5v1q0 16 -26 16q-20 0 -42 -16l-17 33q30 23 65 23q26 0 43.5 -15t17.5 -41zM119 572v65q-3 -13 -26 -28.5t-23 -28.5q0 -19 25 -19q16 0 24 11z
" />
    <glyph glyph-name="guillemotleft" unicode="&#xab;" horiz-adv-x="602" 
d="M571 473l-186 -124l186 -123l-54 -78l-241 159v85l241 159zM324 473l-185 -124l185 -123l-54 -78l-240 159v85l240 159z" />
    <glyph glyph-name="uni00AD" unicode="&#xad;" horiz-adv-x="0" 
 />
    <glyph glyph-name="registered" unicode="&#xae;" horiz-adv-x="783" 
d="M391 706q147 0 251.5 -104.5t104.5 -252.5q0 -147 -104.5 -251.5t-251.5 -104.5t-251.5 104.5t-104.5 251.5q0 148 104.5 252.5t251.5 104.5zM391 51q124 0 211.5 87.5t87.5 210.5q0 124 -87.5 211.5t-211.5 87.5q-123 0 -210.5 -87.5t-87.5 -211.5q0 -123 87.5 -210.5
t210.5 -87.5zM374 546q77 0 116.5 -37t39.5 -89q0 -43 -26.5 -79t-70.5 -46l102 -144h-80l-101 149h-2v-150h-73v384q26 12 95 12zM352 323q48 1 75 29t27 64q0 29 -17.5 49.5t-49.5 20.5h-35v-163z" />
    <glyph glyph-name="degree" unicode="&#xb0;" horiz-adv-x="282" 
d="M141 700q45 0 77 -32.5t32 -77.5t-32 -77.5t-77 -32.5q-46 0 -78 32.5t-32 77.5t32 77.5t78 32.5zM141 554q15 0 25.5 10.5t10.5 25.5t-10.5 25.5t-25.5 10.5t-26 -10.5t-11 -25.5t11 -25.5t26 -10.5z" />
    <glyph glyph-name="twosuperior" unicode="&#xb2;" horiz-adv-x="158" 
d="M128 655q0 -23 -16.5 -38t-33 -27.5t-16.5 -29.5h65v-26h-96v26q0 22 16.5 37t32.5 27t16 27q0 10 -6 16t-15 6q-14 0 -27 -13l-19 21q17 20 47 20q21 0 36.5 -12t15.5 -34z" />
    <glyph glyph-name="threesuperior" unicode="&#xb3;" horiz-adv-x="163" 
d="M110 622q23 -12 23 -40q0 -24 -17 -37t-40 -13q-33 0 -48 20l16 22q12 -12 31 -12q27 0 27 22t-32 22v26q26 0 26 20q0 19 -22 19q-14 0 -27 -11l-15 21q16 20 46 20q20 0 34.5 -11t14.5 -31q0 -23 -17 -37z" />
    <glyph glyph-name="acute" unicode="&#xb4;" horiz-adv-x="194" 
d="M80 696l88 -38l-78 -151l-61 24z" />
    <glyph glyph-name="periodcentered" unicode="&#xb7;" horiz-adv-x="179" 
d="M89 272q-25 0 -43 18t-18 44q0 25 18 43t43 18t43.5 -18t18.5 -43q0 -26 -18.5 -44t-43.5 -18z" />
    <glyph glyph-name="cedilla" unicode="&#xb8;" horiz-adv-x="105" 
d="M77 -18q12 3 25 3q40 0 68.5 -26t28.5 -71t-28.5 -70.5t-69.5 -25.5q-55 0 -92 40l28 43q28 -28 61 -28q20 0 33 12t13 34t-13 33.5t-34 11.5q-26 0 -50 -18l-28 32l7 93h56z" />
    <glyph glyph-name="onesuperior" unicode="&#xb9;" horiz-adv-x="94" 
d="M62 534h-31v166h31v-166z" />
    <glyph glyph-name="ordmasculine" unicode="&#xba;" horiz-adv-x="224" 
d="M112 700q34 0 58 -25t24 -61q0 -35 -24 -60.5t-58 -25.5t-58 25.5t-24 60.5q0 36 24 61t58 25zM112 560q20 0 35 16t15 38t-15 38t-35 16q-21 0 -35.5 -15.5t-14.5 -38.5t14.5 -38.5t35.5 -15.5z" />
    <glyph glyph-name="guillemotright" unicode="&#xbb;" horiz-adv-x="602" 
d="M325 307l-240 -159l-54 78l186 123l-186 124l54 78l240 -159v-85zM572 392v-85l-240 -159l-55 78l186 123l-186 124l55 78z" />
    <glyph glyph-name="questiondown" unicode="&#xbf;" horiz-adv-x="399" 
d="M277 440q-27 0 -46 19t-19 46t19 46.5t46 19.5t46.5 -19.5t19.5 -46.5t-19.5 -46t-46.5 -19zM376 12l81 -88q-33 -41 -89.5 -63.5t-118.5 -22.5q-96 0 -163.5 51.5t-64.5 149.5q1 40 15.5 72t36 53t47.5 39l52 36t47.5 38t35 51.5t13.5 70.5h25q0 -66 -15 -117t-36 -80.5
t-42 -54.5t-35 -53.5t-13 -62.5q1 -33 29.5 -54.5t69.5 -21.5q68 0 125 57z" />
    <glyph glyph-name="Agrave" unicode="&#xc0;" horiz-adv-x="548" 
d="M253 934l51 -165l-61 -24l-78 151zM421 0l-45 140h-204l-45 -140h-131l240 700h76l240 -700h-131zM207 250h133l-66 207z" />
    <glyph glyph-name="Aacute" unicode="&#xc1;" horiz-adv-x="548" 
d="M296 934l88 -38l-78 -151l-61 24zM421 0l-45 140h-204l-45 -140h-131l240 700h76l240 -700h-131zM207 250h133l-66 207z" />
    <glyph glyph-name="Acircumflex" unicode="&#xc2;" horiz-adv-x="548" 
d="M317 928l91 -146l-52 -38l-81 88h-1l-80 -88l-53 38l92 146h84zM421 0l-45 140h-204l-45 -140h-131l240 700h76l240 -700h-131zM207 250h133l-66 207z" />
    <glyph glyph-name="Atilde" unicode="&#xc3;" horiz-adv-x="548" 
d="M379 831l29 -56q-35 -18 -70 -18q-27 0 -68 15q-29 11 -43 11q-23 0 -50 -20l-37 50q45 33 87 33q24 0 65 -15q29 -11 46 -11q19 0 41 11zM421 0l-45 140h-204l-45 -140h-131l240 700h76l240 -700h-131zM207 250h133l-66 207z" />
    <glyph glyph-name="Adieresis" unicode="&#xc4;" horiz-adv-x="548" 
d="M209 758q-23 0 -38.5 16t-15.5 38t15.5 38t38.5 16t38.5 -16t15.5 -38t-15.5 -38t-38.5 -16zM393 812q0 -22 -15.5 -38t-37.5 -16q-23 0 -39 16t-16 38t16.5 38t38.5 16t37.5 -16t15.5 -38zM421 0l-45 140h-204l-45 -140h-131l240 700h76l240 -700h-131zM207 250h133
l-66 207z" />
    <glyph glyph-name="Aring" unicode="&#xc5;" horiz-adv-x="548" 
d="M274 998q50 0 85.5 -36t35.5 -86t-35.5 -86t-85.5 -36t-86 36t-36 86t36 86t86 36zM274 817q24 0 41.5 17.5t17.5 41.5q0 25 -17.5 42t-41.5 17q-25 0 -42 -17.5t-17 -41.5t17 -41.5t42 -17.5zM421 0l-45 140h-204l-45 -140h-131l240 700h76l240 -700h-131zM207 250h133
l-66 207z" />
    <glyph glyph-name="AE" unicode="&#xc6;" horiz-adv-x="761" 
d="M475 110h272v-110h-403v119h-172l-48 -119h-131l287 699h448v-110h-253v-184h192v-110h-192v-185zM344 228v311l-127 -311h127z" />
    <glyph glyph-name="Ccedilla" unicode="&#xc7;" horiz-adv-x="579" 
d="M491 182l90 -96q-89 -93 -227 -93q-46 0 -89 12l-2 -23q12 3 25 3q40 0 68.5 -26t28.5 -71t-28.5 -70.5t-69.5 -25.5q-55 0 -92 40l28 43q28 -28 61 -28q20 0 33 12t13 34t-13 33.5t-34 11.5q-26 0 -50 -18l-28 32l5 72q-86 40 -138.5 124.5t-52.5 205.5q0 85 27 153
t72 110t100 64.5t115 22.5q116 0 196 -74l-70 -99q-52 46 -117 46q-77 0 -134.5 -62t-57.5 -165q0 -106 61 -166t143 -60t137 58z" />
    <glyph glyph-name="Egrave" unicode="&#xc8;" horiz-adv-x="462" 
d="M220 944l51 -165l-61 -24l-78 151zM176 110h273v-110h-404v699h384v-110h-253v-185h193v-109h-193v-185z" />
    <glyph glyph-name="Eacute" unicode="&#xc9;" horiz-adv-x="462" 
d="M263 944l88 -38l-78 -151l-61 24zM176 110h273v-110h-404v699h384v-110h-253v-185h193v-109h-193v-185z" />
    <glyph glyph-name="Ecircumflex" unicode="&#xca;" horiz-adv-x="462" 
d="M274 928l91 -146l-52 -38l-81 88h-1l-80 -88l-53 38l92 146h84zM176 110h273v-110h-404v699h384v-110h-253v-185h193v-109h-193v-185z" />
    <glyph glyph-name="Edieresis" unicode="&#xcb;" horiz-adv-x="462" 
d="M186 758q-22 0 -38 16t-16 38t16 38t38 16t38 -16t16 -38t-16 -38t-38 -16zM370 812q0 -22 -15.5 -38t-37.5 -16q-23 0 -39 16t-16 38t16.5 38t38.5 16t37.5 -16t15.5 -38zM176 110h273v-110h-404v699h384v-110h-253v-185h193v-109h-193v-185z" />
    <glyph glyph-name="Igrave" unicode="&#xcc;" 
d="M89 944l51 -165l-61 -24l-78 151zM176 0h-131v699h131v-699z" />
    <glyph glyph-name="Iacute" unicode="&#xcd;" 
d="M132 944l88 -38l-78 -151l-61 24zM176 0h-131v699h131v-699z" />
    <glyph glyph-name="Icircumflex" unicode="&#xce;" 
d="M153 928l91 -146l-52 -38l-81 88h-1l-80 -88l-53 38l92 146h84zM176 0h-131v699h131v-699z" />
    <glyph glyph-name="Idieresis" unicode="&#xcf;" 
d="M45 758q-23 0 -38.5 16t-15.5 38t15.5 38t38.5 16t38.5 -16t15.5 -38t-15.5 -38t-38.5 -16zM229 812q0 -22 -15.5 -38t-37.5 -16q-23 0 -39 16t-16 38t16.5 38t38.5 16t37.5 -16t15.5 -38zM176 0h-131v699h131v-699z" />
    <glyph glyph-name="Ntilde" unicode="&#xd1;" horiz-adv-x="581" 
d="M376 841l29 -56q-35 -18 -70 -18q-27 0 -68 15q-29 11 -43 11q-23 0 -50 -20l-37 50q45 33 87 33q24 0 65 -15q29 -11 46 -11q19 0 41 11zM404 699h131v-699h-132l-227 443v-443h-131v699h131l228 -446v446z" />
    <glyph glyph-name="Ograve" unicode="&#xd2;" horiz-adv-x="704" 
d="M321 954l51 -165l-61 -24l-78 151zM352 702q139 0 237.5 -103.5t98.5 -249.5t-98.5 -249.5t-237.5 -103.5t-237.5 103.5t-98.5 249.5t98.5 249.5t237.5 103.5zM352 127q85 0 145 65t60 157t-60 157t-145 65t-145 -65t-60 -157t60 -157t145 -65z" />
    <glyph glyph-name="Oacute" unicode="&#xd3;" horiz-adv-x="704" 
d="M374 954l88 -38l-78 -151l-61 24zM352 702q139 0 237.5 -103.5t98.5 -249.5t-98.5 -249.5t-237.5 -103.5t-237.5 103.5t-98.5 249.5t98.5 249.5t237.5 103.5zM352 127q85 0 145 65t60 157t-60 157t-145 65t-145 -65t-60 -157t60 -157t145 -65z" />
    <glyph glyph-name="Ocircumflex" unicode="&#xd4;" horiz-adv-x="704" 
d="M395 938l91 -146l-52 -38l-81 88h-1l-80 -88l-53 38l92 146h84zM352 702q139 0 237.5 -103.5t98.5 -249.5t-98.5 -249.5t-237.5 -103.5t-237.5 103.5t-98.5 249.5t98.5 249.5t237.5 103.5zM352 127q85 0 145 65t60 157t-60 157t-145 65t-145 -65t-60 -157t60 -157
t145 -65z" />
    <glyph glyph-name="Otilde" unicode="&#xd5;" horiz-adv-x="704" 
d="M457 851l29 -56q-35 -18 -70 -18q-27 0 -68 15q-29 11 -43 11q-23 0 -50 -20l-37 50q45 33 87 33q24 0 65 -15q29 -11 46 -11q19 0 41 11zM352 702q139 0 237.5 -103.5t98.5 -249.5t-98.5 -249.5t-237.5 -103.5t-237.5 103.5t-98.5 249.5t98.5 249.5t237.5 103.5z
M352 127q85 0 145 65t60 157t-60 157t-145 65t-145 -65t-60 -157t60 -157t145 -65z" />
    <glyph glyph-name="Odieresis" unicode="&#xd6;" horiz-adv-x="704" 
d="M287 768q-23 0 -38.5 16t-15.5 38t15.5 38t38.5 16t38.5 -16t15.5 -38t-15.5 -38t-38.5 -16zM471 822q0 -22 -15.5 -38t-37.5 -16q-23 0 -39 16t-16 38t16.5 38t38.5 16t37.5 -16t15.5 -38zM352 702q139 0 237.5 -103.5t98.5 -249.5t-98.5 -249.5t-237.5 -103.5
t-237.5 103.5t-98.5 249.5t98.5 249.5t237.5 103.5zM352 127q85 0 145 65t60 157t-60 157t-145 65t-145 -65t-60 -157t60 -157t145 -65z" />
    <glyph glyph-name="multiply" unicode="&#xd7;" horiz-adv-x="368" 
d="M336 428l-75 -74l75 -74l-78 -78l-74 74l-74 -74l-78 78l74 74l-74 74l78 78l74 -74l74 74z" />
    <glyph glyph-name="Oslash" unicode="&#xd8;" horiz-adv-x="738" 
d="M510 672q95 -41 153.5 -128.5t58.5 -194.5q0 -146 -104 -249.5t-252 -103.5q-29 0 -53 4l-33 -111h-106l42 142q-90 43 -145 129t-55 189q0 146 103.5 249.5t249.5 103.5q22 0 43 -3l30 101h106zM254 159l120 412q-94 0 -160.5 -64t-66.5 -157q0 -60 29 -110.5t78 -80.5z
M369 127q92 0 157 65t65 157q0 63 -32.5 115.5t-85.5 80.5l-123 -417q6 -1 19 -1z" />
    <glyph glyph-name="Ugrave" unicode="&#xd9;" horiz-adv-x="564" 
d="M271 944l51 -165l-61 -24l-78 151zM526 246q0 -118 -72 -183t-171 -65q-100 0 -173 65.5t-73 182.5v453h131v-453q0 -65 34 -101.5t80 -36.5t79.5 36.5t33.5 101.5v453h131v-453z" />
    <glyph glyph-name="Uacute" unicode="&#xda;" horiz-adv-x="564" 
d="M304 944l88 -38l-78 -151l-61 24zM526 246q0 -118 -72 -183t-171 -65q-100 0 -173 65.5t-73 182.5v453h131v-453q0 -65 34 -101.5t80 -36.5t79.5 36.5t33.5 101.5v453h131v-453z" />
    <glyph glyph-name="Ucircumflex" unicode="&#xdb;" horiz-adv-x="564" 
d="M325 938l91 -146l-52 -38l-81 88h-1l-80 -88l-53 38l92 146h84zM526 246q0 -118 -72 -183t-171 -65q-100 0 -173 65.5t-73 182.5v453h131v-453q0 -65 34 -101.5t80 -36.5t79.5 36.5t33.5 101.5v453h131v-453z" />
    <glyph glyph-name="Udieresis" unicode="&#xdc;" horiz-adv-x="564" 
d="M217 768q-23 0 -38.5 16t-15.5 38t15.5 38t38.5 16t38.5 -16t15.5 -38t-15.5 -38t-38.5 -16zM401 822q0 -22 -15.5 -38t-37.5 -16q-23 0 -39 16t-16 38t16.5 38t38.5 16t37.5 -16t15.5 -38zM526 246q0 -118 -72 -183t-171 -65q-100 0 -173 65.5t-73 182.5v453h131v-453
q0 -65 34 -101.5t80 -36.5t79.5 36.5t33.5 101.5v453h131v-453z" />
    <glyph glyph-name="Yacute" unicode="&#xdd;" horiz-adv-x="536" 
d="M290 944l88 -38l-78 -151l-61 24zM546 699l-212 -391v-308h-131v306l-213 393h153l125 -242l125 242h153z" />
    <glyph glyph-name="germandbls" unicode="&#xdf;" horiz-adv-x="506" 
d="M266 361q0 -26 23.5 -43t57 -27.5t66.5 -23t56.5 -37.5t23.5 -63q0 -75 -51.5 -121t-151.5 -46h-58v120h25q43 0 67 26.5t24 59.5q0 25 -17 44t-37 30t-37 32t-17 49q0 20 18.5 43t37 50t18.5 58q0 30 -16.5 51.5t-53.5 21.5h-7q-28 0 -47 -18.5t-19 -47.5v-519h-131v519
q0 83 45.5 134.5t129.5 51.5h44q93 0 144 -36.5t51 -95.5q0 -35 -19.5 -63.5t-47 -46.5t-55 -33.5t-47 -32.5t-19.5 -36z" />
    <glyph glyph-name="agrave" unicode="&#xe0;" horiz-adv-x="435" 
d="M196 726l51 -165l-61 -24l-78 151zM400 316v-319h-2q-51 0 -85 24t-34 62v5q-19 -45 -63 -71t-92 -26q-46 0 -76 24t-30 70q0 49 39.5 87t87 57.5t89 42t45.5 43.5q0 24 -18 38t-47 14q-65 0 -134 -57l-47 103q91 67 189 67q77 0 127.5 -43.5t50.5 -120.5zM279 107v187
q-6 -25 -30 -47.5t-48 -37.5t-43.5 -40t-19.5 -55q0 -19 19 -30t45 -11q55 0 77 34z" />
    <glyph glyph-name="aacute" unicode="&#xe1;" horiz-adv-x="435" 
d="M239 726l88 -38l-78 -151l-61 24zM400 316v-319h-2q-51 0 -85 24t-34 62v5q-19 -45 -63 -71t-92 -26q-46 0 -76 24t-30 70q0 49 39.5 87t87 57.5t89 42t45.5 43.5q0 24 -18 38t-47 14q-65 0 -134 -57l-47 103q91 67 189 67q77 0 127.5 -43.5t50.5 -120.5zM279 107v187
q-6 -25 -30 -47.5t-48 -37.5t-43.5 -40t-19.5 -55q0 -19 19 -30t45 -11q55 0 77 34z" />
    <glyph glyph-name="acircumflex" unicode="&#xe2;" horiz-adv-x="435" 
d="M260 710l91 -146l-52 -38l-81 88h-1l-80 -88l-53 38l92 146h84zM400 316v-319h-2q-51 0 -85 24t-34 62v5q-19 -45 -63 -71t-92 -26q-46 0 -76 24t-30 70q0 49 39.5 87t87 57.5t89 42t45.5 43.5q0 24 -18 38t-47 14q-65 0 -134 -57l-47 103q91 67 189 67q77 0 127.5 -43.5
t50.5 -120.5zM279 107v187q-6 -25 -30 -47.5t-48 -37.5t-43.5 -40t-19.5 -55q0 -19 19 -30t45 -11q55 0 77 34z" />
    <glyph glyph-name="atilde" unicode="&#xe3;" horiz-adv-x="435" 
d="M313 623l29 -56q-35 -18 -70 -18q-27 0 -68 15q-29 11 -43 11q-23 0 -50 -20l-37 50q45 33 87 33q24 0 65 -15q29 -11 46 -11q19 0 41 11zM400 316v-319h-2q-51 0 -85 24t-34 62v5q-19 -45 -63 -71t-92 -26q-46 0 -76 24t-30 70q0 49 39.5 87t87 57.5t89 42t45.5 43.5
q0 24 -18 38t-47 14q-65 0 -134 -57l-47 103q91 67 189 67q77 0 127.5 -43.5t50.5 -120.5zM279 107v187q-6 -25 -30 -47.5t-48 -37.5t-43.5 -40t-19.5 -55q0 -19 19 -30t45 -11q55 0 77 34z" />
    <glyph glyph-name="adieresis" unicode="&#xe4;" horiz-adv-x="435" 
d="M152 530q-22 0 -38 16t-16 38t16 38t38 16t38 -16t16 -38t-16 -38t-38 -16zM336 584q0 -22 -15.5 -38t-37.5 -16q-23 0 -39 16t-16 38t16.5 38t38.5 16t37.5 -16t15.5 -38zM400 316v-319h-2q-51 0 -85 24t-34 62v5q-19 -45 -63 -71t-92 -26q-46 0 -76 24t-30 70
q0 49 39.5 87t87 57.5t89 42t45.5 43.5q0 24 -18 38t-47 14q-65 0 -134 -57l-47 103q91 67 189 67q77 0 127.5 -43.5t50.5 -120.5zM279 107v187q-6 -25 -30 -47.5t-48 -37.5t-43.5 -40t-19.5 -55q0 -19 19 -30t45 -11q55 0 77 34z" />
    <glyph glyph-name="aring" unicode="&#xe5;" horiz-adv-x="435" 
d="M218 780q50 0 85.5 -36t35.5 -86t-35.5 -86t-85.5 -36t-86 36t-36 86t36 86t86 36zM218 599q24 0 41.5 17.5t17.5 41.5q0 25 -17.5 42t-41.5 17q-25 0 -42 -17.5t-17 -41.5t17 -41.5t42 -17.5zM400 316v-319h-2q-51 0 -85 24t-34 62v5q-19 -45 -63 -71t-92 -26
q-46 0 -76 24t-30 70q0 49 39.5 87t87 57.5t89 42t45.5 43.5q0 24 -18 38t-47 14q-65 0 -134 -57l-47 103q91 67 189 67q77 0 127.5 -43.5t50.5 -120.5zM279 107v187q-6 -25 -30 -47.5t-48 -37.5t-43.5 -40t-19.5 -55q0 -19 19 -30t45 -11q55 0 77 34z" />
    <glyph glyph-name="ae" unicode="&#xe6;" horiz-adv-x="741" 
d="M667 139l59 -83q-88 -63 -191 -63q-69 0 -126 31.5t-86 91.5q-20 -59 -69 -90.5t-105 -31.5q-54 0 -91.5 28.5t-37.5 78.5q0 84 60 129t139 45q41 0 77 -14v56q0 25 -20 39.5t-52 14.5q-73 0 -135 -62l-57 97q38 36 92 56t109 20q94 0 145 -55q63 52 144 52
q85 0 133.5 -56.5t48.5 -139.5q0 -19 -4 -43l-1 -6q-4 -23 -28 -23h-246l-1 6q7 1 19.5 4t43.5 13t55 21t44 29t20 38q0 24 -26 41.5t-60 17.5q-47 0 -82 -34.5t-35 -103.5q0 -73 40 -111.5t100 -38.5q67 0 124 46zM296 148v70q-25 11 -55 11q-42 0 -71.5 -23.5t-29.5 -70.5
q0 -35 17 -52t44 -17q32 0 60.5 22t34.5 60z" />
    <glyph glyph-name="ccedilla" unicode="&#xe7;" horiz-adv-x="450" 
d="M383 137l57 -79q-82 -65 -183 -65q-29 0 -58 6l-1 -17q12 3 25 3q40 0 68.5 -26t28.5 -71t-28.5 -70.5t-69.5 -25.5q-55 0 -92 40l28 43q28 -28 61 -28q20 0 33 12t13 34t-13.5 33.5t-33.5 11.5q-26 0 -50 -18l-28 32l5 66q-57 28 -90.5 85t-33.5 139q0 118 67 183.5
t162 65.5q99 0 175 -67l-55 -84q-47 43 -104 43q-56 0 -96 -40t-40 -100q0 -63 44 -104t104 -41q57 0 105 39z" />
    <glyph glyph-name="egrave" unicode="&#xe8;" horiz-adv-x="465" 
d="M221 726l51 -165l-61 -24l-78 151zM391 143l59 -82q-86 -63 -191 -63q-100 0 -169.5 63t-69.5 176q0 114 68 179.5t156 65.5q82 0 133.5 -55t51.5 -135q0 -22 -5 -47l-1 -6q-1 -10 -9 -16.5t-18 -6.5h-247l-1 6q7 1 19.5 4t43.5 12.5t55 21t44 29.5t20 37q0 24 -26 42
t-60 18q-47 0 -82 -34.5t-35 -103.5q0 -73 40.5 -112t99.5 -39q67 0 124 46z" />
    <glyph glyph-name="eacute" unicode="&#xe9;" horiz-adv-x="465" 
d="M264 726l88 -38l-78 -151l-61 24zM391 143l59 -82q-86 -63 -191 -63q-100 0 -169.5 63t-69.5 176q0 114 68 179.5t156 65.5q82 0 133.5 -55t51.5 -135q0 -22 -5 -47l-1 -6q-1 -10 -9 -16.5t-18 -6.5h-247l-1 6q7 1 19.5 4t43.5 12.5t55 21t44 29.5t20 37q0 24 -26 42
t-60 18q-47 0 -82 -34.5t-35 -103.5q0 -73 40.5 -112t99.5 -39q67 0 124 46z" />
    <glyph glyph-name="ecircumflex" unicode="&#xea;" horiz-adv-x="465" 
d="M275 710l91 -146l-52 -38l-81 88h-1l-80 -88l-53 38l92 146h84zM391 143l59 -82q-86 -63 -191 -63q-100 0 -169.5 63t-69.5 176q0 114 68 179.5t156 65.5q82 0 133.5 -55t51.5 -135q0 -22 -5 -47l-1 -6q-1 -10 -9 -16.5t-18 -6.5h-247l-1 6q7 1 19.5 4t43.5 12.5t55 21
t44 29.5t20 37q0 24 -26 42t-60 18q-47 0 -82 -34.5t-35 -103.5q0 -73 40.5 -112t99.5 -39q67 0 124 46z" />
    <glyph glyph-name="edieresis" unicode="&#xeb;" horiz-adv-x="465" 
d="M167 540q-23 0 -38.5 16t-15.5 38t15.5 38t38.5 16t38.5 -16t15.5 -38t-15.5 -38t-38.5 -16zM351 594q0 -22 -15.5 -38t-37.5 -16q-23 0 -39 16t-16 38t16.5 38t38.5 16t37.5 -16t15.5 -38zM391 143l59 -82q-86 -63 -191 -63q-100 0 -169.5 63t-69.5 176q0 114 68 179.5
t156 65.5q82 0 133.5 -55t51.5 -135q0 -22 -5 -47l-1 -6q-1 -10 -9 -16.5t-18 -6.5h-247l-1 6q7 1 19.5 4t43.5 12.5t55 21t44 29.5t20 37q0 24 -26 42t-60 18q-47 0 -82 -34.5t-35 -103.5q0 -73 40.5 -112t99.5 -39q67 0 124 46z" />
    <glyph glyph-name="igrave" unicode="&#xec;" horiz-adv-x="199" 
d="M78 728l51 -165l-61 -24l-78 151zM40 482h2q50 0 84 -24t34 -62v-396h-120v482z" />
    <glyph glyph-name="iacute" unicode="&#xed;" horiz-adv-x="199" 
d="M121 726l88 -38l-78 -151l-61 24zM40 482h2q50 0 84 -24t34 -62v-396h-120v482z" />
    <glyph glyph-name="icircumflex" unicode="&#xee;" horiz-adv-x="199" 
d="M142 710l91 -146l-52 -38l-81 88h-1l-80 -88l-53 38l92 146h84zM40 482h2q50 0 84 -24t34 -62v-396h-120v482z" />
    <glyph glyph-name="idieresis" unicode="&#xef;" horiz-adv-x="199" 
d="M34 530q-22 0 -38 16t-16 38t16 38t38 16t38 -16t16 -38t-16 -38t-38 -16zM218 584q0 -22 -15.5 -38t-37.5 -16q-23 0 -39 16t-16 38t16.5 38t38.5 16t37.5 -16t15.5 -38zM40 482h2q50 0 84 -24t34 -62v-396h-120v482z" />
    <glyph glyph-name="ntilde" unicode="&#xf1;" horiz-adv-x="510" 
d="M360 613l29 -56q-35 -18 -70 -18q-27 0 -68 15q-29 11 -43 11q-23 0 -50 -20l-37 50q45 33 87 33q24 0 65 -15q29 -11 46 -11q19 0 41 11zM473 341v-341h-120l-1 304q0 47 -28 73.5t-67 26.5q-31 0 -58 -16.5t-39 -48.5v-339h-120v476h2q50 0 84 -23.5t34 -61.5v-26
q18 55 63.5 85.5t100.5 30.5q61 0 105 -36t44 -104z" />
    <glyph glyph-name="ograve" unicode="&#xf2;" horiz-adv-x="525" 
d="M230 727l51 -165l-61 -24l-78 151zM262 483q101 0 172.5 -71.5t71.5 -172.5t-71.5 -172.5t-172.5 -71.5q-100 0 -172 71.5t-72 172.5t71.5 172.5t172.5 71.5zM262 101q58 0 98.5 40.5t40.5 97.5q0 58 -40.5 98.5t-98.5 40.5q-57 0 -98 -40.5t-41 -98.5q0 -57 41 -97.5
t98 -40.5z" />
    <glyph glyph-name="oacute" unicode="&#xf3;" horiz-adv-x="525" 
d="M280 728l88 -38l-78 -151l-61 24zM262 483q101 0 172.5 -71.5t71.5 -172.5t-71.5 -172.5t-172.5 -71.5q-100 0 -172 71.5t-72 172.5t71.5 172.5t172.5 71.5zM262 101q58 0 98.5 40.5t40.5 97.5q0 58 -40.5 98.5t-98.5 40.5q-57 0 -98 -40.5t-41 -98.5q0 -57 41 -97.5
t98 -40.5z" />
    <glyph glyph-name="ocircumflex" unicode="&#xf4;" horiz-adv-x="525" 
d="M305 710l91 -146l-52 -38l-81 88h-1l-80 -88l-53 38l92 146h84zM262 483q101 0 172.5 -71.5t71.5 -172.5t-71.5 -172.5t-172.5 -71.5q-100 0 -172 71.5t-72 172.5t71.5 172.5t172.5 71.5zM262 101q58 0 98.5 40.5t40.5 97.5q0 58 -40.5 98.5t-98.5 40.5q-57 0 -98 -40.5
t-41 -98.5q0 -57 41 -97.5t98 -40.5z" />
    <glyph glyph-name="otilde" unicode="&#xf5;" horiz-adv-x="525" 
d="M361 616l29 -56q-35 -18 -70 -18q-27 0 -68 15q-29 11 -43 11q-23 0 -50 -20l-37 50q45 33 87 33q24 0 65 -15q29 -11 46 -11q19 0 41 11zM262 483q101 0 172.5 -71.5t71.5 -172.5t-71.5 -172.5t-172.5 -71.5q-100 0 -172 71.5t-72 172.5t71.5 172.5t172.5 71.5zM262 101
q58 0 98.5 40.5t40.5 97.5q0 58 -40.5 98.5t-98.5 40.5q-57 0 -98 -40.5t-41 -98.5q0 -57 41 -97.5t98 -40.5z" />
    <glyph glyph-name="odieresis" unicode="&#xf6;" horiz-adv-x="525" 
d="M197 539q-23 0 -38.5 15.5t-15.5 38.5t15.5 38.5t38.5 15.5t38.5 -15.5t15.5 -38.5t-15.5 -38.5t-38.5 -15.5zM381 593q0 -22 -15.5 -38t-37.5 -16q-23 0 -39 16t-16 38t16.5 38t38.5 16t37.5 -16t15.5 -38zM262 483q101 0 172.5 -71.5t71.5 -172.5t-71.5 -172.5
t-172.5 -71.5q-100 0 -172 71.5t-72 172.5t71.5 172.5t172.5 71.5zM262 101q58 0 98.5 40.5t40.5 97.5q0 58 -40.5 98.5t-98.5 40.5q-57 0 -98 -40.5t-41 -98.5q0 -57 41 -97.5t98 -40.5z" />
    <glyph glyph-name="oslash" unicode="&#xf8;" horiz-adv-x="525" 
d="M391 448q53 -33 84 -88t31 -120q0 -100 -71 -172t-169 -72q-14 0 -32 2l-36 -104h-106l47 136q-55 32 -88 88t-33 122q0 101 71.5 173t172.5 72q17 0 35 -3l29 85h106zM180 148l76 216q-50 -3 -84 -38.5t-34 -84.5q0 -54 42 -93zM276 118q47 5 78.5 40t31.5 82
q0 53 -37 88z" />
    <glyph glyph-name="ugrave" unicode="&#xf9;" horiz-adv-x="509" 
d="M230 729l51 -165l-61 -24l-78 151zM349 476h120v-477h-2q-50 0 -84 24t-34 62v25q-18 -55 -63.5 -85t-99.5 -30q-61 0 -105.5 36t-44.5 104v337h120l1 -300q0 -47 28 -73.5t67 -26.5q31 0 58 16.5t39 48.5v339z" />
    <glyph glyph-name="uacute" unicode="&#xfa;" horiz-adv-x="509" 
d="M273 727l88 -38l-78 -151l-61 24zM349 476h120v-477h-2q-50 0 -84 24t-34 62v25q-18 -55 -63.5 -85t-99.5 -30q-61 0 -105.5 36t-44.5 104v337h120l1 -300q0 -47 28 -73.5t67 -26.5q31 0 58 16.5t39 48.5v339z" />
    <glyph glyph-name="ucircumflex" unicode="&#xfb;" horiz-adv-x="509" 
d="M295 725l91 -146l-52 -38l-81 88h-1l-80 -88l-53 38l92 146h84zM349 476h120v-477h-2q-50 0 -84 24t-34 62v25q-18 -55 -63.5 -85t-99.5 -30q-61 0 -105.5 36t-44.5 104v337h120l1 -300q0 -47 28 -73.5t67 -26.5q31 0 58 16.5t39 48.5v339z" />
    <glyph glyph-name="udieresis" unicode="&#xfc;" horiz-adv-x="509" 
d="M188 549q-22 0 -38 15.5t-16 38.5t16 38.5t38 15.5t38 -15.5t16 -38.5t-16 -38.5t-38 -15.5zM372 603q0 -22 -15.5 -38t-37.5 -16q-23 0 -39 16t-16 38t16.5 38t38.5 16t37.5 -16t15.5 -38zM349 476h120v-477h-2q-50 0 -84 24t-34 62v25q-18 -55 -63.5 -85t-99.5 -30
q-61 0 -105.5 36t-44.5 104v337h120l1 -300q0 -47 28 -73.5t67 -26.5q31 0 58 16.5t39 48.5v339z" />
    <glyph glyph-name="yacute" unicode="&#xfd;" horiz-adv-x="453" 
d="M244 737l88 -38l-78 -151l-61 24zM327 481h120l-210 -715h-114l81 285h-60l-141 430h120l109 -333z" />
    <glyph glyph-name="ydieresis" unicode="&#xff;" horiz-adv-x="453" 
d="M161 550q-23 0 -38.5 16t-15.5 38t15.5 38t38.5 16t38.5 -16t15.5 -38t-15.5 -38t-38.5 -16zM345 604q0 -22 -15.5 -38t-37.5 -16q-23 0 -39 16t-16 38t16.5 38t38.5 16t37.5 -16t15.5 -38zM327 481h120l-210 -715h-114l81 285h-60l-141 430h120l109 -333z" />
    <glyph glyph-name="dotlessi" unicode="&#x131;" horiz-adv-x="199" 
d="M40 482h2q50 0 84 -24t34 -62v-396h-120v482z" />
    <glyph glyph-name="OE" unicode="&#x152;" horiz-adv-x="780" 
d="M494 110h273v-110h-457q-95 0 -162.5 50t-98 125t-30.5 164q0 92 32 172.5t100 134t159 53.5h438v-110h-254v-184h193v-110h-193v-185zM363 131v437h-53q-74 0 -116 -65t-42 -154t41.5 -153.5t116.5 -64.5h53z" />
    <glyph glyph-name="oe" unicode="&#x153;" horiz-adv-x="847" 
d="M772 146l59 -82q-85 -63 -191 -63q-122 0 -189 85q-74 -90 -189 -90q-101 0 -172.5 71.5t-71.5 172.5q0 100 72 172t172 72q113 0 186 -86q32 43 79.5 65.5t99.5 22.5q85 0 133.5 -56t48.5 -139q0 -19 -4 -43l-1 -6q-5 -23 -28 -23h-246l-1 6q7 1 19.5 4t43.5 12.5t55 21
t44 29.5t20 37q0 24 -25.5 41.5t-59.5 17.5q-48 0 -83.5 -35.5t-34.5 -104.5q1 -72 40.5 -110t98.5 -38q68 0 125 46zM262 101q58 0 98.5 40.5t40.5 98.5q0 57 -40.5 97.5t-98.5 40.5q-57 0 -98 -40.5t-41 -97.5q0 -58 41 -98.5t98 -40.5z" />
    <glyph glyph-name="Scaron" unicode="&#x160;" horiz-adv-x="515" 
d="M338 967l52 -38l-91 -146h-84l-92 146l53 38l80 -88h1zM168 516q0 -24 18.5 -43t47.5 -33t64.5 -28t71 -32t64.5 -40.5t47.5 -58t18.5 -80.5q0 -93 -70.5 -148t-173.5 -55q-140 0 -244 94l74 106q78 -79 171 -79q48 0 80 22t32 56q0 24 -18.5 43.5t-47.5 34.5t-64.5 30
t-71 34t-64.5 42t-47.5 59t-18.5 80q0 90 67.5 139.5t161.5 49.5q62 0 118 -22.5t89 -63.5l-81 -88q-57 57 -125 57q-42 0 -70.5 -21.5t-28.5 -54.5z" />
    <glyph glyph-name="scaron" unicode="&#x161;" horiz-adv-x="379" 
d="M269 734l52 -38l-91 -146h-84l-92 146l53 38l80 -88h1zM154 346q0 -21 21 -37.5t51.5 -30.5t61 -30t51.5 -44.5t21 -66.5q0 -64 -52.5 -101t-125.5 -37q-51 0 -95.5 19.5t-71.5 56.5l74 76q37 -52 92 -52q24 0 41 11.5t17 27.5q0 17 -21 32t-51.5 29.5t-61 32t-51.5 47
t-21 67.5q0 63 50.5 100t118.5 37q47 0 87.5 -19.5t62.5 -56.5l-85 -75q-36 52 -74 52q-17 0 -28 -11t-11 -27z" />
    <glyph glyph-name="Ydieresis" unicode="&#x178;" horiz-adv-x="536" 
d="M203 768q-23 0 -38.5 16t-15.5 38t15.5 38t38.5 16t38.5 -16t15.5 -38t-15.5 -38t-38.5 -16zM387 822q0 -22 -15.5 -38t-37.5 -16q-23 0 -39 16t-16 38t16.5 38t38.5 16t37.5 -16t15.5 -38zM546 699l-212 -391v-308h-131v306l-213 393h153l125 -242l125 242h153z" />
    <glyph glyph-name="zcaron" unicode="&#x17e;" horiz-adv-x="378" 
d="M270 739l52 -38l-91 -146h-84l-92 146l53 38l80 -88h1zM154 100h207v-100h-345v73l199 308h-180v100h318v-73z" />
    <glyph glyph-name="circumflex" unicode="&#x2c6;" horiz-adv-x="322" 
d="M203 690l91 -146l-52 -38l-81 88h-1l-80 -88l-53 38l92 146h84z" />
    <glyph glyph-name="caron" unicode="&#x2c7;" horiz-adv-x="320" 
d="M241 690l52 -38l-91 -146h-84l-92 146l53 38l80 -88h1z" />
    <glyph glyph-name="ring" unicode="&#x2da;" horiz-adv-x="308" 
d="M154 700q50 0 85.5 -36t35.5 -86t-35.5 -86t-85.5 -36t-86 36t-36 86t36 86t86 36zM154 519q24 0 41.5 17.5t17.5 41.5q0 25 -17.5 42t-41.5 17q-25 0 -42 -17.5t-17 -41.5t17 -41.5t42 -17.5z" />
    <glyph glyph-name="tilde" unicode="&#x2dc;" horiz-adv-x="315" 
d="M263 673l29 -56q-35 -18 -70 -18q-27 0 -68 15q-29 11 -43 11q-23 0 -50 -20l-37 50q45 33 87 33q24 0 65 -15q29 -11 46 -11q19 0 41 11z" />
    <glyph glyph-name="endash" unicode="&#x2013;" horiz-adv-x="376" 
d="M348 295h-320v110h320v-110z" />
    <glyph glyph-name="emdash" unicode="&#x2014;" horiz-adv-x="622" 
d="M594 295h-566v110h566v-110z" />
    <glyph glyph-name="quoteleft" unicode="&#x2018;" horiz-adv-x="162" 
d="M96 643q17 -5 27.5 -18.5t10.5 -31.5q0 -22 -15.5 -37.5t-37.5 -15.5t-37 15.5t-15 36.5q0 14 9 30l40 77h20z" />
    <glyph glyph-name="quoteright" unicode="&#x2019;" horiz-adv-x="162" 
d="M80 699q22 0 37.5 -15t15.5 -37q0 -14 -9 -30l-40 -76l-20 -1l2 56q-17 5 -27.5 19t-10.5 32q0 22 15 37t37 15z" />
    <glyph glyph-name="quotesinglbase" unicode="&#x201a;" horiz-adv-x="159" 
d="M79 105q22 0 37.5 -15.5t15.5 -35.5q0 -13 -9 -31l-40 -76l-20 -1l2 56q-17 5 -27.5 19t-10.5 32q0 21 15 36.5t37 15.5z" />
    <glyph glyph-name="quotedblleft" unicode="&#x201c;" horiz-adv-x="277" 
d="M210 643q17 -5 28 -18.5t11 -31.5q0 -22 -15.5 -37.5t-37.5 -15.5t-37 15.5t-15 37.5q0 13 9 29l40 77h19zM96 643q17 -5 27.5 -18.5t10.5 -31.5q0 -22 -15.5 -37.5t-37.5 -15.5t-37 15.5t-15 37.5q0 13 9 29l40 77h20z" />
    <glyph glyph-name="quotedblright" unicode="&#x201d;" horiz-adv-x="277" 
d="M80 699q22 0 37.5 -15t15.5 -37q0 -14 -9 -30l-40 -76l-20 -1l2 56q-17 5 -27.5 19t-10.5 32q0 22 15 37t37 15zM195 699q22 0 37.5 -15t15.5 -35q0 -12 -10 -32l-39 -76l-20 -1l2 56q-17 5 -27.5 19t-10.5 32q0 22 15 37t37 15z" />
    <glyph glyph-name="quotedblbase" unicode="&#x201e;" horiz-adv-x="274" 
d="M79 105q22 0 37.5 -15.5t15.5 -35.5q0 -13 -9 -31l-40 -76l-20 -1l2 56q-17 5 -27.5 19t-10.5 32q0 21 15 36.5t37 15.5zM194 105q22 0 37.5 -15.5t15.5 -35.5q0 -13 -10 -31l-39 -76l-20 -1l2 56q-17 5 -27.5 19t-10.5 32q0 21 15 36.5t37 15.5z" />
    <glyph glyph-name="bullet" unicode="&#x2022;" horiz-adv-x="239" 
d="M209 335q0 -37 -26 -62.5t-63 -25.5t-63.5 26t-26.5 63t26.5 63.5t63.5 26.5t63 -26.5t26 -64.5z" />
    <glyph glyph-name="ellipsis" unicode="&#x2026;" horiz-adv-x="465" 
d="M79 0q-22 0 -37 15.5t-15 37.5q0 21 15 36.5t37 15.5t37.5 -15.5t15.5 -36.5q0 -22 -15.5 -37.5t-37.5 -15.5zM232 0q-22 0 -37 15.5t-15 37.5q0 21 15 36.5t37 15.5t37 -15.5t15 -36.5q0 -22 -15 -37.5t-37 -15.5zM385 0q-22 0 -37.5 15.5t-15.5 37.5q0 21 15.5 36.5
t37.5 15.5t37 -15.5t15 -36.5q0 -22 -15 -37.5t-37 -15.5z" />
    <glyph glyph-name="perthousand" unicode="&#x2030;" horiz-adv-x="1277" 
d="M395 518q0 -76 -54 -130t-130 -54t-130 54t-54 130t54 130t130 54t130 -54t54 -130zM568 699h120l-377 -699h-121zM118 518q0 -39 27.5 -66t65.5 -27t65.5 27t27.5 66q0 38 -27.5 65.5t-65.5 27.5t-65.5 -27.5t-27.5 -65.5zM674 368q76 0 130 -54t54 -130t-54 -130
t-130 -54t-130 54t-54 130t54 130t130 54zM1065 368q76 0 130 -54t54 -130t-54 -130t-130 -54t-130 54t-54 130t54 130t130 54zM674 91q39 0 66 27.5t27 65.5t-27 65.5t-66 27.5q-38 0 -65.5 -27.5t-27.5 -65.5t27.5 -65.5t65.5 -27.5zM1065 91q39 0 66 27.5t27 65.5
t-27 65.5t-66 27.5q-38 0 -65.5 -27.5t-27.5 -65.5t27.5 -65.5t65.5 -27.5z" />
    <glyph glyph-name="guilsinglleft" unicode="&#x2039;" horiz-adv-x="356" 
d="M324 473l-185 -124l185 -123l-54 -78l-240 159v85l240 159z" />
    <glyph glyph-name="guilsinglright" unicode="&#x203a;" horiz-adv-x="356" 
d="M325 392v-85l-240 -159l-54 78l186 123l-186 124l54 78z" />
    <glyph glyph-name="Euro" unicode="&#x20ac;" horiz-adv-x="676" 
d="M576 182l90 -96q-90 -93 -228 -93q-106 0 -194.5 61t-122.5 173h-88v99h71v35h-71v99h84q29 117 113.5 180.5t186.5 63.5q116 0 197 -74l-70 -99q-58 54 -125 54q-52 0 -96.5 -33.5t-67.5 -91.5h107v-99h-127v-11q0 -16 1 -24h126v-99h-99q27 -54 74.5 -84t100.5 -30
q82 0 138 69z" />
    <glyph glyph-name="trademark" unicode="&#x2122;" horiz-adv-x="316" 
d="M26 699h105v-25h-37v-135h-30v135h-38v25zM255 699h30v-160h-30v99l-36 -85h-10l-32 83v-97h-30v160h30l38 -97l40 96v1z" />
    </font>
</defs>
</svg>
