<?xml version="1.0" standalone="no"?>
<!DOCTYPE svg PUBLIC "-//W3C//DTD SVG 1.1//EN" "http://www.w3.org/Graphics/SVG/1.1/DTD/svg11.dtd" >
<svg xmlns="http://www.w3.org/2000/svg" xmlns:xlink="http://www.w3.org/1999/xlink" version="1.1">
<metadata>
Created by FontForge 20230101 at Tue Apr 13 00:55:26 2021
 By Unknown
Copyright \(c\) 2017 by Studio Kmzero &#38; Zetafonts. All rights reserved.
</metadata>
<defs>
<font id="HeadingNow-85MediumItalic" horiz-adv-x="0" >
  <font-face 
    font-family="Heading Now 85 Medium"
    font-weight="500"
    font-style="italic"
    font-stretch="normal"
    units-per-em="1000"
    panose-1="0 0 6 0 0 0 0 0 0 0"
    ascent="800"
    descent="-200"
    x-height="592"
    cap-height="743"
    bbox="-945 -310 1764.84 1164"
    underline-thickness="50"
    underline-position="-100"
    slope="-12"
    unicode-range="U+0020-267D"
  />
<missing-glyph horiz-adv-x="1170" 
 />
    <glyph glyph-name="f_f" unicode="ff" horiz-adv-x="943" 
d="M931 653c-67 0 -91 -25 -102 -61h179l-32 -151h-180l-94 -441h-204l94 441h-242l-94 -441h-204l94 441h-107l33 151h109c34 109 103 206 278 206c59 0 113 -9 150 -21l-34 -133c-33 6 -55 9 -90 9c-67 0 -91 -25 -102 -61h244c34 109 103 206 278 206
c58 0 113 -9 150 -21l-34 -133c-34 6 -55 9 -90 9z" />
    <glyph glyph-name=".notdef" horiz-adv-x="1170" 
 />
    <glyph glyph-name="space" unicode=" " horiz-adv-x="376" 
 />
    <glyph glyph-name="A" unicode="A" horiz-adv-x="935" 
d="M864 0h-243l-21 139h-328l-81 -139h-246l462 743h308zM504 540l-145 -251h218l-38 251l-4 60h-2z" />
    <glyph glyph-name="B" unicode="B" horiz-adv-x="903" 
d="M504 0h-486l158 743h463c165 0 278 -51 252 -186l-2 -10c-18 -83 -78 -137 -192 -154l-1 -3c118 -17 173 -82 154 -179l-2 -10c-32 -143 -152 -201 -344 -201zM366 580l-28 -130h218c69 0 103 20 111 57l1 9c10 44 -13 64 -77 64h-225zM308 309l-32 -146h224
c74 0 113 22 122 63l2 10c10 52 -21 73 -102 73h-214z" />
    <glyph glyph-name="C" unicode="C" horiz-adv-x="932" 
d="M414 -18c-281 0 -418 124 -363 381l4 21c53 251 236 375 501 375s402 -124 372 -315l-1 -4h-222l1 5c9 94 -57 145 -170 145c-122 0 -220 -56 -253 -207l-6 -31c-30 -144 46 -202 163 -202c106 0 205 45 236 147l2 8h221l-1 -7c-52 -191 -235 -316 -484 -316z" />
    <glyph glyph-name="D" unicode="D" horiz-adv-x="951" 
d="M441 0h-423l158 743h403c288 0 399 -149 352 -366l-4 -20c-44 -210 -172 -357 -486 -357zM367 577l-88 -411h158c147 0 232 50 261 193l7 31c28 137 -33 187 -181 187h-157z" />
    <glyph glyph-name="E" unicode="E" horiz-adv-x="792" 
d="M697 0h-679l158 743h671l-35 -165h-445l-26 -126h405l-31 -147h-405l-31 -140h453z" />
    <glyph glyph-name="F" unicode="F" horiz-adv-x="765" 
d="M244 0h-226l158 743h665l-34 -164h-439l-31 -143h397l-35 -162h-397z" />
    <glyph glyph-name="G" unicode="G" horiz-adv-x="934" 
d="M415 -18c-275 0 -421 124 -364 381l4 23c55 249 236 373 511 373c244 0 389 -118 367 -288l-2 -6h-223l1 6c6 72 -54 121 -172 121c-124 0 -222 -60 -253 -206l-8 -35c-30 -141 45 -203 170 -203c94 0 181 36 224 109l2 4h-230l29 140h447l-6 -32
c-53 -266 -236 -387 -497 -387z" />
    <glyph glyph-name="H" unicode="H" horiz-adv-x="975" 
d="M704 467l59 276h227l-158 -743h-227l64 301h-361l-64 -301h-226l158 743h226l-59 -276h361z" />
    <glyph glyph-name="I" unicode="I" horiz-adv-x="388" 
d="M244 0h-226l158 743h226z" />
    <glyph glyph-name="J" unicode="J" horiz-adv-x="665" 
d="M699 743l-92 -436c-54 -253 -226 -325 -432 -325c-88 0 -172 13 -220 25l45 162c42 -10 123 -22 188 -22c103 0 169 51 194 167l56 264h-293l36 165h518z" />
    <glyph glyph-name="K" unicode="K" horiz-adv-x="891" 
d="M244 0h-226l158 743h226l-60 -283h119l215 283h265l-303 -361l-1 -6l180 -376h-253l-126 296h-131z" />
    <glyph glyph-name="L" unicode="L" horiz-adv-x="728" 
d="M640 0h-622l158 743h226l-123 -577h396z" />
    <glyph glyph-name="M" unicode="M" horiz-adv-x="1171" 
d="M230 0h-212l158 743h266l136 -407l6 -39h2l24 39l303 407h272l-158 -743h-212l93 437l13 50h-2l-23 -40l-264 -343h-176l-116 343l-8 40h-1l-9 -50z" />
    <glyph glyph-name="N" unicode="N" horiz-adv-x="1009" 
d="M230 0h-212l158 743h244l277 -447l12 -33l8 40l94 440h212l-158 -743h-244l-277 447l-12 32l-8 -39z" />
    <glyph glyph-name="O" unicode="O" horiz-adv-x="955" 
d="M425 -18c-273 0 -431 126 -375 381l5 23c55 248 230 373 512 373c281 0 426 -134 369 -385l-4 -14c-58 -252 -226 -378 -507 -378zM445 151c129 0 225 62 257 206l5 21c34 151 -42 212 -171 212c-128 0 -220 -58 -251 -200l-7 -31c-32 -149 48 -208 167 -208z" />
    <glyph glyph-name="P" unicode="P" horiz-adv-x="870" 
d="M244 0h-226l158 743h421c207 0 330 -91 294 -264l-3 -14c-34 -159 -150 -262 -384 -262h-217zM367 577l-44 -209h203c78 0 122 37 137 108l2 12c10 48 -14 89 -95 89h-203z" />
    <glyph glyph-name="Q" unicode="Q" horiz-adv-x="955" 
d="M567 759c281 0 426 -134 369 -385l-4 -14c-52 -225 -191 -349 -420 -374l-29 -134h-191l29 137c-208 29 -319 153 -271 374l5 23c55 248 230 373 512 373zM702 357l5 21c34 151 -42 212 -171 212c-128 0 -220 -58 -251 -200l-7 -31c-32 -149 48 -208 167 -208
c129 0 225 62 257 206z" />
    <glyph glyph-name="R" unicode="R" horiz-adv-x="891" 
d="M244 0h-226l158 743h433c237 0 317 -89 288 -230l-2 -11c-20 -86 -93 -153 -200 -174l-1 -3c75 -20 101 -59 99 -163l-3 -53c-1 -49 2 -79 9 -109h-230c-5 21 -6 47 -5 108l1 53c2 51 -29 76 -124 76h-146zM367 578l-39 -184h196c76 0 128 30 142 93l2 12
c10 51 -24 79 -102 79h-199z" />
    <glyph glyph-name="S" unicode="S" horiz-adv-x="822" 
d="M361 -18c-267 0 -367 114 -339 263l1 6h218l-1 -6c-11 -63 18 -107 146 -107c105 0 150 27 160 70l2 9c9 44 -13 62 -166 88c-252 35 -299 114 -273 237l2 10c24 109 130 207 382 207c254 0 344 -105 322 -259v-5h-209v5c6 55 -16 103 -130 103c-95 0 -135 -26 -143 -64
l-2 -8c-6 -32 9 -55 125 -72c307 -43 339 -132 316 -242l-2 -10c-31 -146 -169 -225 -409 -225z" />
    <glyph glyph-name="T" unicode="T" horiz-adv-x="767" 
d="M434 0h-227l123 577h-264l36 166h753l-35 -166h-263z" />
    <glyph glyph-name="U" unicode="U" horiz-adv-x="925" 
d="M395 -18c-293 0 -377 115 -327 346l88 415h226l-89 -420c-25 -118 24 -172 139 -172s186 54 211 171l89 421h227l-88 -416c-48 -228 -179 -345 -476 -345z" />
    <glyph glyph-name="V" unicode="V" horiz-adv-x="928" 
d="M245 0l-142 743h239l83 -566l2 -22h3l11 22l326 566h248l-462 -743h-308z" />
    <glyph glyph-name="W" unicode="W" horiz-adv-x="1284" 
d="M450 0h-283l-64 743h223l29 -526l-1 -44h2l19 45l232 525h256l13 -525v-45h2l18 44l242 526h234l-380 -743h-283l-14 506l1 37h-2l-16 -37z" />
    <glyph glyph-name="X" unicode="X" horiz-adv-x="901" 
d="M220 0h-275l336 376l-156 367h272l80 -247l6 -33h3l20 33l185 247h275l-312 -367l176 -376h-271l-99 261l-8 31h-1l-21 -32z" />
    <glyph glyph-name="Y" unicode="Y" horiz-adv-x="891" 
d="M497 0h-227l44 206l-211 537h257l95 -320l6 -34l21 34l222 320h275l-438 -537z" />
    <glyph glyph-name="Z" unicode="Z" horiz-adv-x="795" 
d="M708 0h-745l32 150l546 429h-431l35 164h704l-32 -148l-540 -431h466z" />
    <glyph glyph-name="AE" unicode="&#xc6;" horiz-adv-x="1245" 
d="M1305 743l-35 -162h-417l-27 -129h376l-31 -146h-376l-31 -145h421l-35 -161h-646l36 167h-232l-127 -167h-236l579 743h781zM608 563l-191 -252h153l63 297h-4z" />
    <glyph glyph-name="OE" unicode="&#x152;" horiz-adv-x="1278" 
d="M715 743h618l-35 -165h-445v-13h-3l-23 -113h405l-31 -147h-405l-28 -128h4c-2 -4 -3 -8 -5 -12h451l-35 -165h-619c-44 -12 -96 -18 -154 -18c-303 0 -409 148 -364 360l13 58c44 212 213 359 516 359c55 0 102 -5 140 -16zM289 405l-15 -69c-25 -116 31 -189 171 -189
c31 0 61 4 93 15l89 416c-23 10 -51 18 -87 18c-139 0 -227 -77 -251 -191z" />
    <glyph glyph-name="Eth" unicode="&#xd0;" horiz-adv-x="951" 
d="M176 743h403c288 0 399 -149 352 -366l-4 -20c-44 -210 -172 -357 -486 -357h-423l65 307h-87l26 128h89zM698 359l7 31c28 137 -33 187 -181 187h-157l-30 -142h133l-26 -128h-135l-30 -141h158c147 0 232 50 261 193z" />
    <glyph glyph-name="Thorn" unicode="&#xde;" horiz-adv-x="799" 
d="M383 652h162c174 0 292 -97 257 -261l-6 -31c-35 -160 -156 -266 -350 -266h-182l-20 -94h-226l158 743h226zM571 365l6 30c15 73 -19 111 -112 111h-113l-57 -265h109c96 0 149 40 167 124z" />
    <glyph glyph-name="uni1E9E" unicode="&#x1e9e;" horiz-adv-x="857" 
d="M231 0h-222l102 484c38 178 161 259 345 259h402l-29 -137l-186 -175c149 -12 177 -96 157 -187l-2 -12c-35 -162 -163 -232 -372 -232h-64l34 161h21c104 0 150 15 166 90l2 7c15 70 -31 85 -157 85l21 97l149 142h-110c-90 0 -143 -44 -155 -101z" />
    <glyph glyph-name="a" unicode="a" horiz-adv-x="792" 
d="M457 610c277 0 313 -123 279 -283l-70 -327h-203l12 58l23 63h-4c-62 -87 -158 -139 -276 -139c-194 0 -228 100 -207 198l2 10c22 103 113 181 317 181c89 0 166 -17 204 -31l6 25c17 67 -17 113 -118 113c-91 0 -135 -42 -146 -81l-1 -5h-196l1 5
c29 96 122 213 377 213zM313 127c104 0 167 49 194 109c-36 17 -99 28 -149 28c-103 0 -137 -32 -144 -66l-2 -10c-7 -32 19 -61 101 -61z" />
    <glyph glyph-name="b" unicode="b" horiz-adv-x="825" 
d="M568 610c191 0 265 -120 225 -305l-3 -16c-39 -186 -164 -307 -355 -307c-98 0 -174 39 -203 125h-4l-9 -71l-8 -36h-204l163 765h204l-44 -206l-22 -75h3c67 85 158 126 257 126zM586 288l3 16c17 82 -9 155 -120 155c-104 0 -177 -73 -193 -152l-5 -23
c-17 -81 24 -151 127 -151c112 0 168 63 188 155z" />
    <glyph glyph-name="c" unicode="c" horiz-adv-x="776" 
d="M340 -17c-227 0 -350 104 -307 309l3 16c42 196 192 302 420 302c211 0 325 -95 302 -256v-3h-205l1 5c3 64 -36 103 -123 103c-92 0 -169 -52 -191 -152l-5 -23c-21 -102 34 -151 125 -151c90 0 146 41 170 104l1 7h204l-1 -5c-46 -165 -183 -256 -394 -256z" />
    <glyph glyph-name="d" unicode="d" horiz-adv-x="825" 
d="M607 559l44 206h204l-163 -765h-204l7 36l22 71h-5c-65 -86 -158 -125 -255 -125c-192 0 -264 121 -225 307l3 16c39 185 165 305 356 305c99 0 173 -41 202 -126h4zM549 284l5 23c17 79 -22 152 -127 152c-111 0 -170 -73 -188 -157l-3 -14c-20 -92 8 -155 120 -155
c103 0 176 70 193 151z" />
    <glyph glyph-name="e" unicode="e" horiz-adv-x="785" 
d="M453 610c228 0 338 -110 296 -311l-7 -30l-4 -18h-509c-7 -84 42 -121 128 -121c93 0 146 29 169 81l2 4h200l-2 -4c-44 -127 -167 -229 -396 -229c-221 0 -339 115 -297 308l5 28c38 178 192 292 415 292zM431 470c-81 0 -139 -28 -172 -102h302c1 67 -43 102 -130 102z
" />
    <glyph glyph-name="f" unicode="f" horiz-adv-x="497" 
d="M485 653c-67 0 -91 -25 -102 -61h179l-32 -151h-180l-94 -441h-204l94 441h-107l33 151h109c34 109 103 206 278 206c59 0 113 -9 150 -21l-34 -133c-33 6 -55 9 -90 9z" />
    <glyph glyph-name="g" unicode="g" horiz-adv-x="826" 
d="M607 555l8 37h203l-98 -461c-47 -220 -194 -329 -437 -329c-114 0 -205 15 -281 42l43 138c66 -25 165 -36 236 -36c127 0 205 49 228 132v1l17 63h-4c-69 -83 -155 -121 -256 -121c-191 0 -264 120 -229 289l2 14c36 174 162 286 352 286c99 0 176 -42 203 -124h5z
M555 307l3 17c12 57 -17 135 -131 135c-109 0 -169 -65 -184 -143l-4 -17c-16 -76 13 -131 125 -131c113 0 177 72 191 139z" />
    <glyph glyph-name="h" unicode="h" horiz-adv-x="846" 
d="M581 610c173 0 252 -80 209 -283l-70 -327h-204l65 303c21 99 -16 147 -106 147c-116 0 -186 -87 -205 -178l-59 -272h-204l163 765h204l-49 -229l-25 -71h4c72 102 171 145 277 145z" />
    <glyph glyph-name="i" unicode="i" horiz-adv-x="344" 
d="M250 657c-80 0 -113 27 -100 87c13 61 58 88 137 88s112 -27 99 -88c-13 -60 -57 -87 -136 -87zM211 0h-204l126 592h204z" />
    <glyph glyph-name="dotlessi" unicode="&#x131;" horiz-adv-x="344" 
d="M211 0h-204l126 592h204z" />
    <glyph glyph-name="j" unicode="j" horiz-adv-x="348" 
d="M253 657c-80 0 -113 27 -100 87c13 61 58 88 137 88s112 -27 99 -88c-13 -60 -57 -87 -136 -87zM-111 -196c-64 0 -121 7 -158 14l35 134c25 -3 65 -7 92 -7c104 0 152 56 172 149l106 498h204l-107 -504c-36 -167 -131 -284 -344 -284z" />
    <glyph glyph-name="uni0237" unicode="&#x237;" horiz-adv-x="348" 
d="M-111 -196c-64 0 -121 7 -158 14l35 134c25 -3 65 -7 92 -7c104 0 152 56 172 149l106 498h204l-107 -504c-36 -167 -131 -284 -344 -284z" />
    <glyph glyph-name="k" unicode="k" horiz-adv-x="772" 
d="M211 0h-204l163 765h204l-80 -377h118l169 204h226l-246 -279l139 -313h-231l-91 241h-115z" />
    <glyph glyph-name="l" unicode="l" horiz-adv-x="344" 
d="M211 0h-204l163 765h204z" />
    <glyph glyph-name="m" unicode="m" horiz-adv-x="1292" 
d="M211 0h-204l126 592h204l-12 -55l-24 -73h4c63 89 161 146 274 146c133 0 186 -69 196 -145h5c67 91 170 145 275 145c230 0 199 -193 179 -288l-68 -322h-204l62 295c17 77 12 155 -86 155c-100 0 -173 -90 -191 -173l-59 -277h-204l65 303c14 66 6 147 -90 147
c-98 0 -172 -93 -189 -175z" />
    <glyph glyph-name="n" unicode="n" horiz-adv-x="846" 
d="M581 610c160 0 251 -80 208 -284l-69 -326h-204l65 303c20 99 -16 147 -107 147c-115 0 -185 -87 -205 -179l-58 -271h-204l126 592h204l-12 -55l-24 -73h2c65 90 155 146 278 146z" />
    <glyph glyph-name="o" unicode="o" horiz-adv-x="806" 
d="M346 -18c-232 0 -354 106 -313 309l3 17c40 196 192 302 424 302c233 0 355 -106 314 -308l-4 -17c-40 -198 -191 -303 -424 -303zM368 133c97 0 173 39 199 157l4 19c25 110 -40 150 -132 150c-97 0 -173 -40 -199 -157l-4 -19c-25 -111 40 -150 132 -150z" />
    <glyph glyph-name="p" unicode="p" horiz-adv-x="825" 
d="M562 610c192 0 271 -119 230 -311l-3 -16c-38 -179 -164 -301 -354 -301c-99 0 -174 39 -202 125h-8l-7 -74l-45 -213h-204l164 772h204l-8 -36l-24 -72h8c62 84 151 126 249 126zM586 290l4 17c17 82 -11 152 -121 152c-109 0 -175 -68 -194 -155l-5 -24
c-16 -76 12 -147 128 -147c111 0 169 66 188 157z" />
    <glyph glyph-name="q" unicode="q" horiz-adv-x="825" 
d="M606 556l8 36h204l-164 -772h-204l45 213l25 74h-8c-65 -86 -157 -125 -255 -125c-191 0 -264 122 -224 308l3 16c39 185 163 304 355 304c98 0 174 -42 202 -126h8zM550 283l4 24c18 84 -18 152 -127 152c-110 0 -169 -70 -188 -154l-3 -18c-19 -88 14 -154 120 -154
c117 0 177 71 194 150z" />
    <glyph glyph-name="r" unicode="r" horiz-adv-x="576" 
d="M563 610c26 0 48 -3 67 -8l-36 -168c-25 4 -53 7 -82 7c-129 0 -222 -70 -248 -194l-53 -247h-204l126 592h204l-12 -57l-25 -70h5c62 90 150 145 258 145z" />
    <glyph glyph-name="s" unicode="s" horiz-adv-x="739" 
d="M327 -17c-234 0 -323 94 -298 220l1 5h195l-1 -5c-10 -69 50 -85 122 -85c89 0 119 16 125 43l1 7c8 34 -25 47 -140 63c-213 28 -267 86 -245 193l2 8c19 92 107 178 340 178c231 0 299 -100 284 -202v-3h-197l1 3c0 43 -42 65 -124 65c-73 0 -96 -18 -101 -39l-2 -7
c-6 -36 20 -49 124 -60c224 -23 285 -88 263 -193l-2 -9c-24 -114 -126 -182 -348 -182z" />
    <glyph glyph-name="t" unicode="t" horiz-adv-x="527" 
d="M523 441h-179l-42 -196c-15 -70 -8 -115 69 -115c33 0 67 4 91 9l-9 -134c-49 -15 -111 -23 -180 -23c-178 0 -209 101 -181 233l48 226h-101l32 151h101l28 134h204l-28 -134h179z" />
    <glyph glyph-name="u" unicode="u" horiz-adv-x="846" 
d="M577 321l58 271h204l-126 -592h-204l12 55l24 72h-3c-64 -89 -155 -145 -277 -145c-160 0 -252 80 -208 283l69 327h204l-65 -304c-21 -98 16 -147 107 -147c115 0 185 87 205 180z" />
    <glyph glyph-name="v" unicode="v" horiz-adv-x="765" 
d="M459 0h-280l-109 592h222l51 -357l3 -95h6l44 95l204 357h221z" />
    <glyph glyph-name="w" unicode="w" horiz-adv-x="1158" 
d="M393 0h-262l-61 592h216l19 -351l-3 -99h6l39 91l178 359h235l24 -359l2 -91h5l39 99l169 351h215l-313 -592h-262l-26 350v92h-6l-38 -92z" />
    <glyph glyph-name="x" unicode="x" horiz-adv-x="770" 
d="M193 0h-245l281 311l-127 281h243l42 -154l15 -57h4l36 57l109 154h243l-245 -281l147 -311h-245l-63 175l-15 54h-4l-39 -54z" />
    <glyph glyph-name="y" unicode="y" horiz-adv-x="765" 
d="M93 -196l-7 123c84 18 144 42 184 97l6 9h-80l-126 559h222l61 -377v-46h4l19 46l223 377h222l-370 -572c-84 -128 -194 -198 -358 -216z" />
    <glyph glyph-name="z" unicode="z" horiz-adv-x="674" 
d="M589 0h-625l28 129l413 316h-321l31 147h584l-28 -132l-406 -314h355z" />
    <glyph glyph-name="ae" unicode="&#xe6;" horiz-adv-x="1276" 
d="M945 610c228 0 338 -110 295 -311l-6 -30l-4 -18h-509c-8 -84 41 -121 127 -121c94 0 146 29 170 81l2 4h200l-2 -4c-44 -127 -167 -229 -396 -229c-151 0 -255 54 -292 150h-7c-69 -90 -194 -150 -307 -150c-195 0 -226 100 -205 195v1c23 112 115 193 319 193
c89 0 166 -17 204 -31l6 25c17 67 -17 113 -118 113c-91 0 -135 -42 -147 -83v-1h-197l1 1c30 98 123 215 378 215c118 0 190 -24 231 -66c69 43 156 66 257 66zM923 470c-82 0 -140 -28 -173 -102h303c0 67 -44 102 -130 102zM321 130c107 0 169 55 191 112
c-42 15 -110 29 -155 29c-97 0 -133 -30 -141 -66v-1c-9 -44 17 -74 105 -74z" />
    <glyph glyph-name="oe" unicode="&#x153;" horiz-adv-x="1336" 
d="M1005 610c228 0 337 -110 295 -311l-6 -30l-4 -18h-510c-7 -84 42 -121 128 -121c94 0 146 29 169 81l2 4h201l-2 -4c-45 -127 -167 -229 -396 -229c-110 0 -195 28 -247 81c-72 -54 -170 -81 -289 -81c-232 0 -354 106 -313 309l3 17c40 196 192 302 424 302
c119 0 210 -28 264 -82c71 52 167 82 281 82zM983 470c-82 0 -139 -28 -172 -101h302c0 67 -44 101 -130 101zM567 290l4 19c25 110 -40 150 -132 150c-97 0 -173 -40 -199 -157l-4 -19c-25 -111 40 -150 132 -150c97 0 173 39 199 157z" />
    <glyph glyph-name="eth" unicode="&#xf0;" horiz-adv-x="806" 
d="M719 807l-48 -54c102 -63 162 -176 119 -374l-16 -75v-2l-2 -9c-40 -189 -189 -308 -434 -308s-345 116 -308 291l2 9c32 152 175 268 384 268c130 0 215 -39 243 -108c12 100 -26 160 -86 198l-52 -59l-65 39l46 52c-39 13 -82 21 -124 27l68 118c54 -6 107 -16 155 -34
l52 58zM562 262l5 24c12 58 -19 124 -140 124c-120 0 -178 -66 -192 -130l-4 -21c-15 -72 18 -131 137 -131s178 62 194 134z" />
    <glyph glyph-name="thorn" unicode="&#xfe;" horiz-adv-x="828" 
d="M568 610c191 0 265 -120 224 -308l-2 -15c-39 -184 -164 -305 -355 -305c-98 0 -174 39 -203 125h-7l-6 -71l-46 -216h-204l201 945h204l-44 -206l-25 -75h6c67 85 158 126 257 126zM586 289l4 17c16 80 -10 158 -121 158s-177 -78 -194 -161l-5 -23
c-16 -77 19 -152 128 -152c112 0 168 68 188 161z" />
    <glyph glyph-name="germandbls" unicode="&#xdf;" horiz-adv-x="795" 
d="M196 0h-223l103 479c39 185 156 300 399 300c225 0 315 -85 290 -211l-3 -11c-16 -72 -53 -119 -126 -149c113 -25 125 -98 108 -179l-3 -16c-32 -153 -168 -213 -382 -213h-72l35 162h69c80 0 118 11 131 71l3 20c9 40 -17 67 -105 67h-57l28 138h16c97 0 141 22 152 76
l2 8c8 38 -17 74 -107 74c-111 0 -138 -54 -153 -121z" />
    <glyph glyph-name="zero" unicode="0" horiz-adv-x="915" 
d="M394 -18c-275 0 -397 131 -348 359l14 67c47 221 218 351 493 351c278 0 397 -132 349 -358l-15 -68c-46 -220 -217 -351 -493 -351zM426 146c120 0 210 70 235 191l16 75c24 113 -35 183 -155 183s-209 -66 -235 -190l-16 -75c-25 -117 35 -184 155 -184z" />
    <glyph glyph-name="one" unicode="1" horiz-adv-x="524" 
d="M380 0h-202l118 553c-62 -32 -148 -60 -246 -72l34 162c109 16 201 51 276 100h178z" />
    <glyph glyph-name="two" unicode="2" horiz-adv-x="785" 
d="M684 0h-709l33 157c175 103 540 235 567 360l2 9c8 40 -34 75 -119 75c-128 0 -160 -50 -174 -121l-1 -4h-206l1 4c35 169 161 279 408 279c220 0 342 -84 312 -225l-2 -9c-38 -182 -350 -300 -482 -362h404z" />
    <glyph glyph-name="three" unicode="3" horiz-adv-x="802" 
d="M342 -18c-226 0 -356 76 -316 264l2 7h208l-2 -6c-14 -69 42 -105 135 -105c90 0 152 29 165 86l1 8c10 48 -14 74 -112 74h-105l30 142h104c87 0 123 24 133 68l1 7c8 40 -17 73 -120 73c-90 0 -154 -40 -167 -105l-1 -5h-206l1 5c32 153 164 264 405 264
c226 0 337 -82 312 -202l-1 -8c-19 -86 -91 -143 -182 -160l-1 -4c93 -18 143 -73 121 -176l-2 -9c-31 -145 -170 -218 -403 -218z" />
    <glyph glyph-name="four" unicode="4" horiz-adv-x="813" 
d="M617 0h-214l25 116h-439l26 123l381 504h224l-357 -468h199l36 170h213l-36 -170h106l-33 -159h-107z" />
    <glyph glyph-name="five" unicode="5" horiz-adv-x="786" 
d="M334 -18c-253 0 -339 121 -309 259l2 11h203l-1 -6c-13 -56 33 -104 129 -104c88 0 151 36 168 119l2 7c12 60 -7 112 -118 112c-47 0 -127 -13 -165 -59l-3 -4l-184 11l114 415h619l-33 -158h-433l-35 -126c44 25 123 45 202 45c186 0 287 -75 250 -249l-1 -6
c-39 -176 -162 -267 -407 -267z" />
    <glyph glyph-name="six" unicode="6" horiz-adv-x="809" 
d="M354 -18c-291 0 -354 138 -312 340l17 81c45 220 185 356 449 356c272 0 318 -139 295 -251l-1 -5h-207l1 5c8 40 -9 94 -125 94c-100 0 -175 -52 -199 -166l-6 -31h3c57 42 123 70 235 70c231 0 286 -112 262 -224l-2 -11c-28 -134 -139 -258 -410 -258zM374 142
c127 0 174 60 183 106l2 10c8 35 -6 96 -141 96c-115 0 -169 -44 -180 -98l-2 -10c-11 -47 30 -104 138 -104z" />
    <glyph glyph-name="seven" unicode="7" horiz-adv-x="753" 
d="M340 0h-238l443 581h-248l-23 -105h-205l57 267h715l-32 -150z" />
    <glyph glyph-name="eight" unicode="8" horiz-adv-x="807" 
d="M340 -18c-233 0 -354 77 -321 231l2 10c15 73 73 138 190 171l1 3c-84 34 -110 88 -95 161l2 10c23 105 143 191 381 191c234 0 325 -85 301 -201l-2 -10c-13 -63 -66 -119 -161 -151l-1 -4c104 -32 134 -96 116 -180l-2 -10c-31 -144 -180 -221 -411 -221zM438 462
c87 0 132 25 143 78l2 9c9 39 -27 64 -112 64c-86 0 -132 -24 -143 -73l-1 -9c-9 -44 25 -69 111 -69zM369 135c94 0 153 32 165 91l2 9c12 58 -35 89 -127 89c-93 0 -151 -31 -166 -98l-2 -9c-10 -49 34 -82 128 -82z" />
    <glyph glyph-name="nine" unicode="9" horiz-adv-x="809" 
d="M487 759c290 0 354 -137 312 -339l-17 -82c-45 -219 -185 -356 -449 -356c-272 0 -318 140 -295 252l1 5h207l-1 -5c-8 -40 9 -94 125 -94c100 0 174 52 198 166l7 31h-3c-57 -42 -123 -70 -235 -70c-232 0 -287 111 -262 224l2 11c28 134 139 257 410 257zM467 599
c-127 0 -174 -60 -184 -106l-2 -9c-7 -36 7 -96 141 -96c116 0 170 44 181 98l2 10c10 47 -31 103 -138 103z" />
    <glyph glyph-name="Aacute" unicode="&#xc1;" horiz-adv-x="935" 
d="M500 968h194l-139 -163h-121zM864 0h-243l-21 139h-328l-81 -139h-246l462 743h308zM504 540l-145 -251h218l-38 251l-4 60h-2z" />
    <glyph glyph-name="Abreve" unicode="&#x102;" horiz-adv-x="935" 
d="M571 799c-140 0 -186 60 -152 182h121c-18 -59 -3 -87 51 -87s81 28 89 87h120c-17 -122 -90 -182 -229 -182zM864 0h-243l-21 139h-328l-81 -139h-246l462 743h308zM504 540l-145 -251h218l-38 251l-4 60h-2z" />
    <glyph glyph-name="uni1EAE" unicode="&#x1eae;" horiz-adv-x="935" 
d="M617 1115l155 2l-165 -131l-98 -1zM569 790c-140 0 -186 60 -152 182h120c-17 -59 -2 -87 52 -87c53 0 81 28 89 87h120c-17 -122 -89 -182 -229 -182zM864 0h-243l-21 139h-328l-81 -139h-246l462 743h308zM504 540l-145 -251h218l-38 251l-4 60h-2z" />
    <glyph glyph-name="uni1EB6" unicode="&#x1eb6;" horiz-adv-x="935" 
d="M571 799c-140 0 -186 60 -152 182h121c-18 -59 -3 -87 51 -87s81 28 89 87h120c-17 -122 -90 -182 -229 -182zM715 743l149 -743h-243l-21 139h-328l-81 -139h-246l462 743h308zM504 540l-145 -251h218l-38 251l-4 60h-2zM405 -38c67 0 90 -19 81 -58
c-8 -39 -39 -58 -106 -58s-91 19 -83 58c9 39 41 58 108 58z" />
    <glyph glyph-name="uni1EB0" unicode="&#x1eb0;" horiz-adv-x="935" 
d="M659 1115l52 -130l-97 1l-109 131zM570 790c-141 0 -188 60 -153 182h120c-17 -59 -2 -87 52 -87s81 28 89 87h120c-17 -122 -89 -182 -228 -182zM864 0h-243l-21 139h-328l-81 -139h-246l462 743h308zM504 540l-145 -251h218l-38 251l-4 60h-2z" />
    <glyph glyph-name="uni1EB2" unicode="&#x1eb2;" horiz-adv-x="935" 
d="M636 1067c-11 0 -18 -4 -23 -25h-56c11 54 45 82 98 82c49 0 69 -23 62 -55c-6 -26 -25 -53 -52 -83h-67c33 32 48 54 51 68c3 9 -4 13 -13 13zM568 789c-139 0 -186 59 -151 181h120c-18 -59 -3 -87 51 -87s81 28 89 87h120c-17 -122 -89 -181 -229 -181zM864 0h-243
l-21 139h-328l-81 -139h-246l462 743h308zM504 540l-145 -251h218l-38 251l-4 60h-2z" />
    <glyph glyph-name="uni1EB4" unicode="&#x1eb4;" horiz-adv-x="935" 
d="M585 1050c-18 0 -31 -11 -43 -33l-73 13c26 73 62 112 119 112c59 0 86 -39 114 -39c18 0 31 11 43 33l73 -14c-26 -73 -63 -112 -120 -112c-58 0 -85 40 -113 40zM567 789c-139 0 -186 60 -151 181h120c-18 -59 -3 -87 51 -87s81 28 89 87h120
c-17 -122 -89 -181 -229 -181zM864 0h-243l-21 139h-328l-81 -139h-246l462 743h308zM504 540l-145 -251h218l-38 251l-4 60h-2z" />
    <glyph glyph-name="uni01CD" unicode="&#x1cd;" horiz-adv-x="935" 
d="M799 963l-148 -163h-159l-81 163h110l68 -79l100 79h110zM864 0h-243l-21 139h-328l-81 -139h-246l462 743h308zM504 540l-145 -251h218l-38 251l-4 60h-2z" />
    <glyph glyph-name="Acircumflex" unicode="&#xc2;" horiz-adv-x="935" 
d="M656 806l-67 78l-101 -78h-110l149 162h159l80 -162h-110zM864 0h-243l-21 139h-328l-81 -139h-246l462 743h308zM504 540l-145 -251h218l-38 251l-4 60h-2z" />
    <glyph glyph-name="uni1EA4" unicode="&#x1ea4;" horiz-adv-x="935" 
d="M831 1008h134l-148 -129h-85zM655 807l-67 78l-101 -78h-110l149 162h159l80 -162h-110zM-55 0l462 743h308l149 -743h-243l-21 139h-328l-81 -139h-246zM504 540l-145 -251h218l-38 251l-4 60h-2z" />
    <glyph glyph-name="uni1EAC" unicode="&#x1eac;" horiz-adv-x="935" 
d="M656 806l-67 78l-101 -78h-110l149 162h159l80 -162h-110zM715 743l149 -743h-243l-21 139h-328l-81 -139h-246l462 743h308zM504 540l-145 -251h218l-38 251l-4 60h-2zM405 -38c67 0 90 -19 81 -58c-8 -39 -39 -58 -106 -58s-91 19 -83 58c9 39 41 58 108 58z" />
    <glyph glyph-name="uni1EA6" unicode="&#x1ea6;" horiz-adv-x="935" 
d="M804 1082l42 -130h-84l-94 130h136zM657 805l-68 78l-100 -78h-110l149 162h159l80 -162h-110zM864 0h-243l-21 139h-328l-81 -139h-246l462 743h308zM504 540l-145 -251h218l-38 251l-4 60h-2z" />
    <glyph glyph-name="uni1EA8" unicode="&#x1ea8;" horiz-adv-x="935" 
d="M822 1038c50 0 70 -24 63 -56c-6 -25 -25 -52 -52 -83h-68c34 32 49 54 52 68c2 9 -4 13 -13 13c-11 0 -19 -4 -23 -25h-56c10 54 45 83 97 83zM655 807l-67 78l-101 -78h-110l149 162h159l80 -162h-110zM-55 0l462 743h308l149 -743h-243l-21 139h-328l-81 -139h-246z
M504 540l-145 -251h218l-38 251l-4 60h-2z" />
    <glyph glyph-name="uni1EAA" unicode="&#x1eaa;" horiz-adv-x="935" 
d="M593 1046c-16 0 -27 -10 -38 -31l-67 13c23 66 56 102 109 102s78 -36 103 -36c17 0 29 10 40 30l66 -13c-23 -66 -57 -102 -109 -102c-53 0 -78 37 -104 37zM656 806l-67 79l-101 -79h-110l149 163h159l80 -163h-110zM864 0h-243l-21 139h-328l-81 -139h-246l462 743
h308zM504 540l-145 -251h218l-38 251l-4 60h-2z" />
    <glyph glyph-name="Adieresis" unicode="&#xc4;" horiz-adv-x="935" 
d="M450 801c-63 0 -88 26 -77 76c11 52 46 77 109 77c64 0 87 -25 76 -77c-10 -50 -44 -76 -108 -76zM704 801c-63 0 -88 26 -78 76c11 52 46 77 109 77c65 0 87 -25 77 -77c-11 -50 -44 -76 -108 -76zM864 0h-243l-21 139h-328l-81 -139h-246l462 743h308zM504 540
l-145 -251h218l-38 251l-4 60h-2z" />
    <glyph glyph-name="uni1EA0" unicode="&#x1ea0;" horiz-adv-x="935" 
d="M715 743l149 -743h-243l-21 139h-328l-81 -139h-246l462 743h308zM504 540l-145 -251h218l-38 251l-4 60h-2zM405 -38c67 0 90 -19 81 -58c-8 -39 -39 -58 -106 -58s-91 19 -83 58c9 39 41 58 108 58z" />
    <glyph glyph-name="Agrave" unicode="&#xc0;" horiz-adv-x="935" 
d="M648 968l66 -163h-121l-139 163h194zM864 0h-243l-21 139h-328l-81 -139h-246l462 743h308zM504 540l-145 -251h218l-38 251l-4 60h-2z" />
    <glyph glyph-name="uni1EA2" unicode="&#x1ea2;" horiz-adv-x="935" 
d="M588 904c-14 0 -23 -5 -29 -32h-71c13 69 57 105 124 105c63 0 89 -30 80 -70c-7 -33 -33 -67 -67 -107h-86c43 42 62 70 66 87c3 12 -5 17 -17 17zM864 0h-243l-21 139h-328l-81 -139h-246l462 743h308zM504 540l-145 -251h218l-38 251l-4 60h-2z" />
    <glyph glyph-name="Amacron" unicode="&#x100;" horiz-adv-x="935" 
d="M383 916h422l-24 -114h-422zM864 0h-243l-21 139h-328l-81 -139h-246l462 743h308zM504 540l-145 -251h218l-38 251l-4 60h-2z" />
    <glyph glyph-name="Aogonek" unicode="&#x104;" horiz-adv-x="935" 
d="M782 -78h109c-19 -89 -73 -128 -185 -128c-97 0 -134 36 -122 94c10 47 64 86 168 112h-131l-21 139h-328l-81 -139h-246l462 743h308l149 -743h-4c-100 -36 -139 -65 -146 -97c-3 -13 2 -25 24 -25c21 0 37 14 44 44zM504 540l-145 -251h218l-38 251l-4 60h-2z" />
    <glyph glyph-name="Aring" unicode="&#xc5;" horiz-adv-x="935" 
d="M569 799c-110 0 -153 32 -139 99c15 68 73 100 183 100s153 -32 138 -100c-15 -67 -72 -99 -182 -99zM540 898c-6 -28 12 -39 43 -39c30 0 52 11 58 39c6 29 -11 40 -42 40c-30 0 -53 -11 -59 -40zM864 0h-243l-21 139h-328l-81 -139h-246l462 743h308zM504 540
l-145 -251h218l-38 251l-4 60h-2z" />
    <glyph glyph-name="Aringacute" unicode="&#x1fa;" horiz-adv-x="935" 
d="M582 1113h135l-97 -114h-85zM569 799c-110 0 -153 32 -139 99c15 68 73 100 184 100c109 0 152 -32 137 -100c-14 -67 -72 -99 -182 -99zM541 898c-6 -28 12 -39 42 -39c31 0 52 11 58 39c6 29 -11 40 -41 40c-31 0 -53 -11 -59 -40zM864 0h-243l-21 139h-328l-81 -139
h-246l462 743h308zM504 540l-145 -251h218l-38 251l-4 60h-2z" />
    <glyph glyph-name="Atilde" unicode="&#xc3;" horiz-adv-x="935" 
d="M512 851c-23 0 -40 -15 -56 -44l-95 18c33 95 81 146 156 146c76 0 111 -51 148 -51c23 0 40 14 56 43l95 -18c-33 -95 -81 -146 -156 -146c-76 0 -111 52 -148 52zM864 0h-243l-21 139h-328l-81 -139h-246l462 743h308zM504 540l-145 -251h218l-38 251l-4 60h-2z" />
    <glyph glyph-name="AEacute" unicode="&#x1fc;" horiz-adv-x="1245" 
d="M850 968h194l-139 -163h-121zM1305 743l-35 -162h-417l-27 -129h376l-31 -146h-376l-31 -145h421l-35 -161h-646l36 167h-232l-127 -167h-236l579 743h781zM608 563l-191 -252h153l63 297h-4z" />
    <glyph glyph-name="Cacute" unicode="&#x106;" horiz-adv-x="932" 
d="M698 968l-139 -163h-121l66 163h194zM414 -18c-281 0 -418 124 -363 381l4 21c53 251 236 375 501 375s402 -124 372 -315l-1 -4h-222l1 5c9 94 -57 145 -170 145c-122 0 -220 -56 -253 -207l-6 -31c-30 -144 46 -202 163 -202c106 0 205 45 236 147l2 8h221l-1 -7
c-52 -191 -235 -316 -484 -316z" />
    <glyph glyph-name="Ccaron" unicode="&#x10c;" horiz-adv-x="932" 
d="M496 800l-81 163h110l68 -79l100 79h110l-148 -163h-159zM414 -18c-281 0 -418 124 -363 381l4 21c53 251 236 375 501 375s402 -124 372 -315l-1 -4h-222l1 5c9 94 -57 145 -170 145c-122 0 -220 -56 -253 -207l-6 -31c-30 -144 46 -202 163 -202c106 0 205 45 236 147
l2 8h221l-1 -7c-52 -191 -235 -316 -484 -316z" />
    <glyph glyph-name="Ccedilla" unicode="&#xc7;" horiz-adv-x="932" 
d="M556 759c265 0 402 -124 372 -315l-1 -4h-222l1 5c9 94 -57 145 -170 145c-122 0 -220 -56 -253 -207l-6 -31c-30 -144 46 -202 163 -202c106 0 205 45 236 147l2 8h221l-1 -7c-51 -187 -228 -311 -469 -316l-13 -22c44 8 125 -6 110 -78c-11 -53 -70 -92 -165 -92
s-143 31 -129 111h100c-6 -33 13 -41 42 -41c17 0 36 9 40 31c5 26 -18 38 -55 30l-22 20l26 42c-246 15 -364 139 -312 380l4 21c53 251 236 375 501 375z" />
    <glyph glyph-name="Ccircumflex" unicode="&#x108;" horiz-adv-x="932" 
d="M492 806h-110l149 162h159l80 -162h-110l-67 78zM414 -18c-281 0 -418 124 -363 381l4 21c53 251 236 375 501 375s402 -124 372 -315l-1 -4h-222l1 5c9 94 -57 145 -170 145c-122 0 -220 -56 -253 -207l-6 -31c-30 -144 46 -202 163 -202c106 0 205 45 236 147l2 8h221
l-1 -7c-52 -191 -235 -316 -484 -316z" />
    <glyph glyph-name="Cdotaccent" unicode="&#x10a;" horiz-adv-x="932" 
d="M574 799c-62 0 -85 21 -76 63s40 63 103 63s84 -21 75 -63c-8 -42 -38 -63 -102 -63zM414 -18c-281 0 -418 124 -363 381l4 21c53 251 236 375 501 375s402 -124 372 -315l-1 -4h-222l1 5c9 94 -57 145 -170 145c-122 0 -220 -56 -253 -207l-6 -31
c-30 -144 46 -202 163 -202c106 0 205 45 236 147l2 8h221l-1 -7c-52 -191 -235 -316 -484 -316z" />
    <glyph glyph-name="Dcaron" unicode="&#x10e;" horiz-adv-x="951" 
d="M507 800l-81 163h110l68 -79l100 79h110l-148 -163h-159zM441 0h-423l158 743h403c288 0 399 -149 352 -366l-4 -20c-44 -210 -172 -357 -486 -357zM367 577l-88 -411h158c147 0 232 50 261 193l7 31c28 137 -33 187 -181 187h-157z" />
    <glyph glyph-name="Dcroat" unicode="&#x110;" horiz-adv-x="951" 
d="M176 743h403c288 0 399 -149 352 -366l-4 -20c-44 -210 -172 -357 -486 -357h-423l65 307h-87l26 128h89zM698 359l7 31c28 137 -33 187 -181 187h-157l-30 -142h133l-26 -128h-135l-30 -141h158c147 0 232 50 261 193z" />
    <glyph glyph-name="uni1E0C" unicode="&#x1e0c;" horiz-adv-x="951" 
d="M441 0h-423l158 743h403c288 0 399 -149 352 -366l-4 -20c-44 -210 -172 -357 -486 -357zM367 577l-88 -411h158c147 0 232 50 261 193l7 31c28 137 -33 187 -181 187h-157zM402 -154c-67 0 -91 19 -83 58c9 39 41 58 108 58s90 -19 81 -58c-8 -39 -39 -58 -106 -58z" />
    <glyph glyph-name="uni1E0E" unicode="&#x1e0e;" horiz-adv-x="951" 
d="M441 0h-423l158 743h403c288 0 399 -149 352 -366l-4 -20c-44 -210 -172 -357 -486 -357zM367 577l-88 -411h158c147 0 232 50 261 193l7 31c28 137 -33 187 -181 187h-157zM629 -131h-423l24 90h422z" />
    <glyph glyph-name="Eacute" unicode="&#xc9;" horiz-adv-x="792" 
d="M634 968l-139 -163h-121l66 163h194zM697 0h-679l158 743h671l-35 -165h-445l-26 -126h405l-31 -147h-405l-31 -140h453z" />
    <glyph glyph-name="Ebreve" unicode="&#x114;" horiz-adv-x="792" 
d="M511 799c-140 0 -186 60 -152 182h121c-18 -59 -3 -87 51 -87s81 28 89 87h120c-17 -122 -90 -182 -229 -182zM697 0h-679l158 743h671l-35 -165h-445l-26 -126h405l-31 -147h-405l-31 -140h453z" />
    <glyph glyph-name="Ecaron" unicode="&#x11a;" horiz-adv-x="792" 
d="M432 800l-81 163h110l68 -79l100 79h110l-148 -163h-159zM697 0h-679l158 743h671l-35 -165h-445l-26 -126h405l-31 -147h-405l-31 -140h453z" />
    <glyph glyph-name="Ecircumflex" unicode="&#xca;" horiz-adv-x="792" 
d="M428 806h-110l149 162h159l80 -162h-110l-67 78zM697 0h-679l158 743h671l-35 -165h-445l-26 -126h405l-31 -147h-405l-31 -140h453z" />
    <glyph glyph-name="uni1EBE" unicode="&#x1ebe;" horiz-adv-x="792" 
d="M905 1008l-148 -129h-85l99 129h134zM427 807h-110l149 162h159l80 -162h-110l-67 78zM697 0h-679l158 743h671l-35 -165h-445l-26 -126h405l-31 -147h-405l-31 -140h453z" />
    <glyph glyph-name="uni1EC6" unicode="&#x1ec6;" horiz-adv-x="792" 
d="M428 806h-110l149 162h159l80 -162h-110l-67 78zM697 0h-679l158 743h671l-35 -165h-445l-26 -126h405l-31 -147h-405l-31 -140h453zM339 -154c-67 0 -91 19 -83 58c9 39 41 58 108 58s90 -19 81 -58c-8 -39 -39 -58 -106 -58z" />
    <glyph glyph-name="uni1EC0" unicode="&#x1ec0;" horiz-adv-x="792" 
d="M786 952h-84l-94 130h136zM627 967l80 -162h-110l-68 78l-100 -78h-110l149 162h159zM697 0h-679l158 743h671l-35 -165h-445l-26 -126h405l-31 -147h-405l-31 -140h453z" />
    <glyph glyph-name="uni1EC2" unicode="&#x1ec2;" horiz-adv-x="792" 
d="M773 899h-68c34 32 49 54 52 68c2 9 -4 13 -13 13c-11 0 -19 -4 -23 -25h-56c10 54 45 83 97 83c50 0 70 -24 63 -56c-6 -25 -25 -52 -52 -83zM427 807h-110l149 162h159l80 -162h-110l-67 78zM697 0h-679l158 743h671l-35 -165h-445l-26 -126h405l-31 -147h-405
l-31 -140h453z" />
    <glyph glyph-name="uni1EC4" unicode="&#x1ec4;" horiz-adv-x="792" 
d="M637 1009c-53 0 -78 37 -104 37c-16 0 -27 -10 -38 -31l-67 13c23 66 56 102 109 102s78 -36 103 -36c17 0 29 10 40 30l66 -13c-23 -66 -57 -102 -109 -102zM428 806h-110l149 163h159l80 -163h-110l-67 79zM697 0h-679l158 743h671l-35 -165h-445l-26 -126h405
l-31 -147h-405l-31 -140h453z" />
    <glyph glyph-name="Edieresis" unicode="&#xcb;" horiz-adv-x="792" 
d="M390 801c-63 0 -88 26 -77 76c11 52 46 77 109 77c64 0 87 -25 76 -77c-10 -50 -44 -76 -108 -76zM644 801c-63 0 -88 26 -78 76c11 52 46 77 109 77c65 0 87 -25 77 -77c-11 -50 -44 -76 -108 -76zM697 0h-679l158 743h671l-35 -165h-445l-26 -126h405l-31 -147h-405
l-31 -140h453z" />
    <glyph glyph-name="Edotaccent" unicode="&#x116;" horiz-adv-x="792" 
d="M511 799c-62 0 -85 21 -76 63s40 63 103 63s84 -21 75 -63c-8 -42 -38 -63 -102 -63zM697 0h-679l158 743h671l-35 -165h-445l-26 -126h405l-31 -147h-405l-31 -140h453z" />
    <glyph glyph-name="uni1EB8" unicode="&#x1eb8;" horiz-adv-x="792" 
d="M697 0h-679l158 743h671l-35 -165h-445l-26 -126h405l-31 -147h-405l-31 -140h453zM339 -154c-67 0 -91 19 -83 58c9 39 41 58 108 58s90 -19 81 -58c-8 -39 -39 -58 -106 -58z" />
    <glyph glyph-name="Egrave" unicode="&#xc8;" horiz-adv-x="792" 
d="M654 805h-121l-139 163h194zM697 0h-679l158 743h671l-35 -165h-445l-26 -126h405l-31 -147h-405l-31 -140h453z" />
    <glyph glyph-name="uni1EBA" unicode="&#x1eba;" horiz-adv-x="792" 
d="M565 800h-86c43 42 62 70 66 87c3 12 -5 17 -17 17c-14 0 -23 -5 -29 -32h-71c13 69 57 105 124 105c63 0 89 -30 80 -70c-7 -33 -33 -67 -67 -107zM697 0h-679l158 743h671l-35 -165h-445l-26 -126h405l-31 -147h-405l-31 -140h453z" />
    <glyph glyph-name="Emacron" unicode="&#x112;" horiz-adv-x="792" 
d="M721 802h-422l24 114h422zM697 0h-679l158 743h671l-35 -165h-445l-26 -126h405l-31 -147h-405l-31 -140h453z" />
    <glyph glyph-name="Eogonek" unicode="&#x118;" horiz-adv-x="792" 
d="M847 743l-35 -165h-445l-26 -126h405l-31 -147h-405l-31 -140h453l-35 -165c-100 -36 -139 -65 -146 -97c-3 -13 2 -25 24 -25c21 0 37 14 44 44h109c-19 -89 -73 -128 -185 -128c-97 0 -134 36 -122 94c10 47 64 86 168 112h-571l158 743h671z" />
    <glyph glyph-name="uni1EBC" unicode="&#x1ebc;" horiz-adv-x="792" 
d="M600 799c-76 0 -111 52 -148 52c-23 0 -40 -15 -56 -44l-95 18c33 95 81 146 156 146c76 0 111 -51 148 -51c23 0 40 14 56 43l95 -18c-33 -95 -81 -146 -156 -146zM697 0h-679l158 743h671l-35 -165h-445l-26 -126h405l-31 -147h-405l-31 -140h453z" />
    <glyph glyph-name="Gbreve" unicode="&#x11e;" horiz-adv-x="934" 
d="M576 799c-140 0 -186 60 -152 182h121c-18 -59 -3 -87 51 -87s81 28 89 87h120c-17 -122 -90 -182 -229 -182zM415 -18c-275 0 -421 124 -364 381l4 23c55 249 236 373 511 373c244 0 389 -118 367 -288l-2 -6h-223l1 6c6 72 -54 121 -172 121c-124 0 -222 -60 -253 -206
l-8 -35c-30 -141 45 -203 170 -203c94 0 181 36 224 109l2 4h-230l29 140h447l-6 -32c-53 -266 -236 -387 -497 -387z" />
    <glyph glyph-name="Gcaron" unicode="&#x1e6;" horiz-adv-x="934" 
d="M497 800l-81 163h110l68 -79l100 79h110l-148 -163h-159zM415 -18c-275 0 -421 124 -364 381l4 23c55 249 236 373 511 373c244 0 389 -118 367 -288l-2 -6h-223l1 6c6 72 -54 121 -172 121c-124 0 -222 -60 -253 -206l-8 -35c-30 -141 45 -203 170 -203
c94 0 181 36 224 109l2 4h-230l29 140h447l-6 -32c-53 -266 -236 -387 -497 -387z" />
    <glyph glyph-name="Gcircumflex" unicode="&#x11c;" horiz-adv-x="934" 
d="M493 806h-110l149 162h159l80 -162h-110l-67 78zM415 -18c-275 0 -421 124 -364 381l4 23c55 249 236 373 511 373c244 0 389 -118 367 -288l-2 -6h-223l1 6c6 72 -54 121 -172 121c-124 0 -222 -60 -253 -206l-8 -35c-30 -141 45 -203 170 -203c94 0 181 36 224 109l2 4
h-230l29 140h447l-6 -32c-53 -266 -236 -387 -497 -387z" />
    <glyph glyph-name="uni0122" unicode="&#x122;" horiz-adv-x="934" 
d="M415 -18c-275 0 -421 124 -364 381l4 23c55 249 236 373 511 373c244 0 389 -118 367 -288l-2 -6h-223l1 6c6 72 -54 121 -172 121c-124 0 -222 -60 -253 -206l-8 -35c-30 -141 45 -203 170 -203c94 0 181 36 224 109l2 4h-230l29 140h447l-6 -32
c-53 -266 -236 -387 -497 -387zM280 -199l15 45c60 -2 79 3 87 30c-68 0 -96 14 -84 51c12 39 50 53 118 53c72 0 100 -17 85 -64c-32 -99 -114 -125 -221 -115z" />
    <glyph glyph-name="Gdotaccent" unicode="&#x120;" horiz-adv-x="934" 
d="M576 799c-62 0 -85 21 -76 63s40 63 103 63s84 -21 75 -63c-8 -42 -38 -63 -102 -63zM415 -18c-275 0 -421 124 -364 381l4 23c55 249 236 373 511 373c244 0 389 -118 367 -288l-2 -6h-223l1 6c6 72 -54 121 -172 121c-124 0 -222 -60 -253 -206l-8 -35
c-30 -141 45 -203 170 -203c94 0 181 36 224 109l2 4h-230l29 140h447l-6 -32c-53 -266 -236 -387 -497 -387z" />
    <glyph glyph-name="uni1E20" unicode="&#x1e20;" horiz-adv-x="934" 
d="M786 802h-422l24 114h422zM415 -18c-275 0 -421 124 -364 381l4 23c55 249 236 373 511 373c244 0 389 -118 367 -288l-2 -6h-223l1 6c6 72 -54 121 -172 121c-124 0 -222 -60 -253 -206l-8 -35c-30 -141 45 -203 170 -203c94 0 181 36 224 109l2 4h-230l29 140h447
l-6 -32c-53 -266 -236 -387 -497 -387z" />
    <glyph glyph-name="Hbar" unicode="&#x126;" horiz-adv-x="975" 
d="M966 630h68l-31 -87h-56l-115 -543h-227l64 301h-361l-64 -301h-226l115 543h-56l31 87h44l24 113h226l-24 -113h361l24 113h227zM343 467h361l16 76h-361z" />
    <glyph glyph-name="uni1E2A" unicode="&#x1e2a;" horiz-adv-x="975" 
d="M704 467l59 276h227l-158 -743h-227l64 301h-361l-64 -301h-226l158 743h226l-59 -276h361zM430 -94c39 0 60 20 66 61h88c-12 -86 -66 -127 -170 -127c-103 0 -137 42 -112 127h89c-13 -41 -1 -61 39 -61z" />
    <glyph glyph-name="Hcircumflex" unicode="&#x124;" horiz-adv-x="975" 
d="M675 806l-67 78l-101 -78h-110l149 162h159l80 -162h-110zM704 467l59 276h227l-158 -743h-227l64 301h-361l-64 -301h-226l158 743h226l-59 -276h361z" />
    <glyph glyph-name="uni1E24" unicode="&#x1e24;" horiz-adv-x="975" 
d="M704 467l59 276h227l-158 -743h-227l64 301h-361l-64 -301h-226l158 743h226l-59 -276h361zM431 -38c67 0 90 -19 81 -58c-8 -39 -39 -58 -106 -58s-91 19 -83 58c9 39 41 58 108 58z" />
    <glyph glyph-name="IJ" unicode="&#x132;" horiz-adv-x="1053" 
d="M18 0l158 743h226l-158 -743h-226zM1087 743l-92 -436c-54 -253 -226 -325 -432 -325c-88 0 -172 13 -220 25l45 162c42 -10 123 -22 188 -22c103 0 169 51 194 167l56 264h-293l36 165h518z" />
    <glyph glyph-name="Iacute" unicode="&#xcd;" horiz-adv-x="388" 
d="M425 968l-139 -163h-121l66 163h194zM244 0h-226l158 743h226z" />
    <glyph glyph-name="Ibreve" unicode="&#x12c;" horiz-adv-x="388" 
d="M301 799c-140 0 -186 60 -152 182h121c-18 -59 -3 -87 51 -87s81 28 89 87h120c-17 -122 -90 -182 -229 -182zM244 0h-226l158 743h226z" />
    <glyph glyph-name="uni01CF" unicode="&#x1cf;" horiz-adv-x="388" 
d="M223 800l-81 163h110l68 -79l100 79h110l-148 -163h-159zM244 0h-226l158 743h226z" />
    <glyph glyph-name="Icircumflex" unicode="&#xce;" horiz-adv-x="388" 
d="M219 806h-110l149 162h159l80 -162h-110l-67 78zM244 0h-226l158 743h226z" />
    <glyph glyph-name="Idieresis" unicode="&#xcf;" horiz-adv-x="388" 
d="M180 801c-63 0 -88 26 -77 76c11 52 46 77 109 77c64 0 87 -25 76 -77c-10 -50 -44 -76 -108 -76zM434 801c-63 0 -88 26 -78 76c11 52 46 77 109 77c65 0 87 -25 77 -77c-11 -50 -44 -76 -108 -76zM244 0h-226l158 743h226z" />
    <glyph glyph-name="Idotaccent" unicode="&#x130;" horiz-adv-x="388" 
d="M301 799c-62 0 -85 21 -76 63s40 63 103 63s84 -21 75 -63c-8 -42 -38 -63 -102 -63zM244 0h-226l158 743h226z" />
    <glyph glyph-name="uni1ECA" unicode="&#x1eca;" horiz-adv-x="388" 
d="M244 0h-226l158 743h226zM118 -154c-67 0 -91 19 -83 58c9 39 41 58 108 58s90 -19 81 -58c-8 -39 -39 -58 -106 -58z" />
    <glyph glyph-name="Igrave" unicode="&#xcc;" horiz-adv-x="388" 
d="M445 805h-121l-139 163h194zM244 0h-226l158 743h226z" />
    <glyph glyph-name="uni1EC8" unicode="&#x1ec8;" horiz-adv-x="388" 
d="M356 800h-86c43 42 62 70 66 87c3 12 -5 17 -17 17c-14 0 -23 -5 -29 -32h-71c13 69 57 105 124 105c63 0 89 -30 80 -70c-7 -33 -33 -67 -67 -107zM244 0h-226l158 743h226z" />
    <glyph glyph-name="Imacron" unicode="&#x12a;" horiz-adv-x="388" 
d="M511 802h-422l24 114h422zM244 0h-226l158 743h226z" />
    <glyph glyph-name="Iogonek" unicode="&#x12e;" horiz-adv-x="388" 
d="M244 0h-41c-100 -36 -139 -65 -146 -97c-3 -13 2 -25 24 -25c21 0 37 14 44 44h109c-19 -89 -73 -128 -185 -128c-97 0 -134 36 -122 94c10 47 64 86 168 112h-77l158 743h226z" />
    <glyph glyph-name="Itilde" unicode="&#x128;" horiz-adv-x="388" 
d="M390 799c-76 0 -111 52 -148 52c-23 0 -40 -15 -56 -44l-95 18c33 95 81 146 156 146c76 0 111 -51 148 -51c23 0 40 14 56 43l95 -18c-33 -95 -81 -146 -156 -146zM244 0h-226l158 743h226z" />
    <glyph glyph-name="Jcircumflex" unicode="&#x134;" horiz-adv-x="665" 
d="M694 806l-67 78l-101 -78h-110l149 162h159l80 -162h-110zM181 743h518l-92 -436c-54 -253 -226 -325 -432 -325c-88 0 -172 13 -220 25l45 162c42 -10 123 -22 188 -22c103 0 169 51 194 167l56 264h-293z" />
    <glyph glyph-name="uni0136" unicode="&#x136;" horiz-adv-x="891" 
d="M244 0h-226l158 743h226l-60 -283h119l215 283h265l-303 -361l-1 -6l180 -376h-253l-126 296h-131zM257 -199l15 45c60 -2 79 3 87 30c-68 0 -96 14 -84 51c12 39 50 53 118 53c72 0 100 -17 85 -64c-32 -99 -114 -125 -221 -115z" />
    <glyph glyph-name="Lacute" unicode="&#x139;" horiz-adv-x="728" 
d="M430 968l-139 -163h-121l66 163h194zM640 0h-622l158 743h226l-123 -577h396z" />
    <glyph glyph-name="Lcaron" unicode="&#x13d;" horiz-adv-x="710" 
d="M640 0h-622l158 743h226l-123 -577h396zM763 743l-66 -249h-108l40 249h134z" />
    <glyph glyph-name="uni013B" unicode="&#x13b;" horiz-adv-x="728" 
d="M640 0h-622l158 743h226l-123 -577h396zM178 -199l15 45c60 -2 79 3 87 30c-68 0 -96 14 -84 51c12 39 50 53 118 53c72 0 100 -17 85 -64c-32 -99 -114 -125 -221 -115z" />
    <glyph glyph-name="Ldot" unicode="&#x13f;" horiz-adv-x="730" 
d="M640 0h-622l158 743h226l-123 -577h396zM574 397c-58 0 -83 21 -73 70c9 49 43 71 100 71c58 0 82 -22 73 -71c-10 -49 -42 -70 -100 -70z" />
    <glyph glyph-name="uni1E36" unicode="&#x1e36;" horiz-adv-x="728" 
d="M640 0h-622l158 743h226l-123 -577h396zM290 -154c-67 0 -91 19 -83 58c9 39 41 58 108 58s90 -19 81 -58c-8 -39 -39 -58 -106 -58z" />
    <glyph glyph-name="uni1E38" unicode="&#x1e38;" horiz-adv-x="728" 
d="M517 802h-422l24 114h422zM640 0h-622l158 743h226l-123 -577h396zM290 -154c-67 0 -91 19 -83 58c9 39 41 58 108 58s90 -19 81 -58c-8 -39 -39 -58 -106 -58z" />
    <glyph glyph-name="uni1E3A" unicode="&#x1e3a;" horiz-adv-x="728" 
d="M640 0h-622l158 743h226l-123 -577h396zM517 -131h-423l24 90h422z" />
    <glyph glyph-name="Lslash" unicode="&#x141;" horiz-adv-x="737" 
d="M340 407l-51 -241h395l-35 -166h-622l69 326l-61 -21l-11 76l90 30l71 332h226l-53 -250l79 27l12 -76z" />
    <glyph glyph-name="uni1E42" unicode="&#x1e42;" horiz-adv-x="1171" 
d="M230 0h-212l158 743h266l136 -407l6 -39h2l24 39l303 407h272l-158 -743h-212l93 437l13 50h-2l-23 -40l-264 -343h-176l-116 343l-8 40h-1l-9 -50zM505 -154c-67 0 -91 19 -83 58c9 39 41 58 108 58s90 -19 81 -58c-8 -39 -39 -58 -106 -58z" />
    <glyph glyph-name="Nacute" unicode="&#x143;" horiz-adv-x="1009" 
d="M733 968l-139 -163h-121l66 163h194zM230 0h-212l158 743h244l277 -447l12 -33l8 40l94 440h212l-158 -743h-244l-277 447l-12 32l-8 -39z" />
    <glyph glyph-name="Ncaron" unicode="&#x147;" horiz-adv-x="1009" 
d="M531 800l-81 163h110l68 -79l100 79h110l-148 -163h-159zM230 0h-212l158 743h244l277 -447l12 -33l8 40l94 440h212l-158 -743h-244l-277 447l-12 32l-8 -39z" />
    <glyph glyph-name="uni0145" unicode="&#x145;" horiz-adv-x="1009" 
d="M230 0h-212l158 743h244l277 -447l12 -33l8 40l94 440h212l-158 -743h-244l-277 447l-12 32l-8 -39zM314 -199l15 45c60 -2 79 3 87 30c-68 0 -96 14 -84 51c12 39 50 53 118 53c72 0 100 -17 85 -64c-32 -99 -114 -125 -221 -115z" />
    <glyph glyph-name="uni1E44" unicode="&#x1e44;" horiz-adv-x="1009" 
d="M610 799c-62 0 -85 21 -76 63s40 63 103 63s84 -21 75 -63c-8 -42 -38 -63 -102 -63zM230 0h-212l158 743h244l277 -447l12 -33l8 40l94 440h212l-158 -743h-244l-277 447l-12 32l-8 -39z" />
    <glyph glyph-name="uni1E46" unicode="&#x1e46;" horiz-adv-x="1009" 
d="M230 0h-212l158 743h244l277 -447l12 -33l8 40l94 440h212l-158 -743h-244l-277 447l-12 32l-8 -39zM426 -154c-67 0 -91 19 -83 58c9 39 41 58 108 58s90 -19 81 -58c-8 -39 -39 -58 -106 -58z" />
    <glyph glyph-name="Eng" unicode="&#x14a;" horiz-adv-x="1009" 
d="M717 303l94 440h212l-158 -743c-26 -127 -119 -192 -384 -192l20 94c97 0 153 36 166 98h-46l-277 447l-12 32l-8 -39l-94 -440h-212l158 743h244l277 -447l12 -33z" />
    <glyph glyph-name="uni019D" unicode="&#x19d;" horiz-adv-x="1134" 
d="M842 303l94 440h212l-158 -743h-244l-277 447l-12 32l-8 -39l-94 -440h-17c-27 -127 -128 -192 -361 -192l20 93c84 0 131 30 146 99l158 743h244l277 -447l12 -33z" />
    <glyph glyph-name="uni1E48" unicode="&#x1e48;" horiz-adv-x="1009" 
d="M230 0h-212l158 743h244l277 -447l12 -33l8 40l94 440h212l-158 -743h-244l-277 447l-12 32l-8 -39zM653 -131h-423l24 90h422z" />
    <glyph glyph-name="Ntilde" unicode="&#xd1;" horiz-adv-x="1009" 
d="M699 799c-76 0 -111 52 -148 52c-23 0 -40 -15 -56 -44l-95 18c33 95 81 146 156 146c76 0 111 -51 148 -51c23 0 40 14 56 43l95 -18c-33 -95 -81 -146 -156 -146zM230 0h-212l158 743h244l277 -447l12 -33l8 40l94 440h212l-158 -743h-244l-277 447l-12 32l-8 -39z" />
    <glyph glyph-name="Oacute" unicode="&#xd3;" horiz-adv-x="955" 
d="M712 968l-139 -163h-121l66 163h194zM425 -18c-273 0 -431 126 -375 381l5 23c55 248 230 373 512 373c281 0 426 -134 369 -385l-4 -14c-58 -252 -226 -378 -507 -378zM445 151c129 0 225 62 257 206l5 21c34 151 -42 212 -171 212c-128 0 -220 -58 -251 -200l-7 -31
c-32 -149 48 -208 167 -208z" />
    <glyph glyph-name="Obreve" unicode="&#x14e;" horiz-adv-x="955" 
d="M589 799c-140 0 -186 60 -152 182h121c-18 -59 -3 -87 51 -87s81 28 89 87h120c-17 -122 -90 -182 -229 -182zM425 -18c-273 0 -431 126 -375 381l5 23c55 248 230 373 512 373c281 0 426 -134 369 -385l-4 -14c-58 -252 -226 -378 -507 -378zM445 151
c129 0 225 62 257 206l5 21c34 151 -42 212 -171 212c-128 0 -220 -58 -251 -200l-7 -31c-32 -149 48 -208 167 -208z" />
    <glyph glyph-name="uni01D1" unicode="&#x1d1;" horiz-adv-x="955" 
d="M510 800l-81 163h110l68 -79l100 79h110l-148 -163h-159zM425 -18c-273 0 -431 126 -375 381l5 23c55 248 230 373 512 373c281 0 426 -134 369 -385l-4 -14c-58 -252 -226 -378 -507 -378zM445 151c129 0 225 62 257 206l5 21c34 151 -42 212 -171 212
c-128 0 -220 -58 -251 -200l-7 -31c-32 -149 48 -208 167 -208z" />
    <glyph glyph-name="Ocircumflex" unicode="&#xd4;" horiz-adv-x="955" 
d="M506 806h-110l149 162h159l80 -162h-110l-67 78zM425 -18c-273 0 -431 126 -375 381l5 23c55 248 230 373 512 373c281 0 426 -134 369 -385l-4 -14c-58 -252 -226 -378 -507 -378zM445 151c129 0 225 62 257 206l5 21c34 151 -42 212 -171 212
c-128 0 -220 -58 -251 -200l-7 -31c-32 -149 48 -208 167 -208z" />
    <glyph glyph-name="uni1ED0" unicode="&#x1ed0;" horiz-adv-x="955" 
d="M983 1008l-148 -129h-85l99 129h134zM505 807h-110l149 162h159l80 -162h-110l-67 78zM425 -18c-273 0 -431 126 -375 381l5 23c55 248 230 373 512 373c281 0 426 -134 369 -385l-4 -14c-58 -252 -226 -378 -507 -378zM445 151c129 0 225 62 257 206l5 21
c34 151 -42 212 -171 212c-128 0 -220 -58 -251 -200l-7 -31c-32 -149 48 -208 167 -208z" />
    <glyph glyph-name="uni1ED8" unicode="&#x1ed8;" horiz-adv-x="955" 
d="M506 806h-110l149 162h159l80 -162h-110l-67 78zM425 -18c-273 0 -431 126 -375 381l5 23c55 248 230 373 512 373c281 0 426 -134 369 -385l-4 -14c-58 -252 -226 -378 -507 -378zM445 151c129 0 225 62 257 206l5 21c34 151 -42 212 -171 212
c-128 0 -220 -58 -251 -200l-7 -31c-32 -149 48 -208 167 -208zM405 -154c-67 0 -91 19 -83 58c9 39 41 58 108 58s90 -19 81 -58c-8 -39 -39 -58 -106 -58z" />
    <glyph glyph-name="uni1ED2" unicode="&#x1ed2;" horiz-adv-x="955" 
d="M864 952h-84l-94 130h136zM705 967l80 -162h-110l-68 78l-100 -78h-110l149 162h159zM425 -18c-273 0 -431 126 -375 381l5 23c55 248 230 373 512 373c281 0 426 -134 369 -385l-4 -14c-58 -252 -226 -378 -507 -378zM445 151c129 0 225 62 257 206l5 21
c34 151 -42 212 -171 212c-128 0 -220 -58 -251 -200l-7 -31c-32 -149 48 -208 167 -208z" />
    <glyph glyph-name="uni1ED4" unicode="&#x1ed4;" horiz-adv-x="955" 
d="M851 899h-68c34 32 49 54 52 68c2 9 -4 13 -13 13c-11 0 -19 -4 -23 -25h-56c10 54 45 83 97 83c50 0 70 -24 63 -56c-6 -25 -25 -52 -52 -83zM505 807h-110l149 162h159l80 -162h-110l-67 78zM425 -18c-273 0 -431 126 -375 381l5 23c55 248 230 373 512 373
c281 0 426 -134 369 -385l-4 -14c-58 -252 -226 -378 -507 -378zM445 151c129 0 225 62 257 206l5 21c34 151 -42 212 -171 212c-128 0 -220 -58 -251 -200l-7 -31c-32 -149 48 -208 167 -208z" />
    <glyph glyph-name="uni1ED6" unicode="&#x1ed6;" horiz-adv-x="955" 
d="M715 1009c-53 0 -78 37 -104 37c-16 0 -27 -10 -38 -31l-67 13c23 66 56 102 109 102s78 -36 103 -36c17 0 29 10 40 30l66 -13c-23 -66 -57 -102 -109 -102zM506 806h-110l149 163h159l80 -163h-110l-67 79zM425 -18c-273 0 -431 126 -375 381l5 23
c55 248 230 373 512 373c281 0 426 -134 369 -385l-4 -14c-58 -252 -226 -378 -507 -378zM445 151c129 0 225 62 257 206l5 21c34 151 -42 212 -171 212c-128 0 -220 -58 -251 -200l-7 -31c-32 -149 48 -208 167 -208z" />
    <glyph glyph-name="Odieresis" unicode="&#xd6;" horiz-adv-x="955" 
d="M468 801c-63 0 -88 26 -77 76c11 52 46 77 109 77c64 0 87 -25 76 -77c-10 -50 -44 -76 -108 -76zM722 801c-63 0 -88 26 -78 76c11 52 46 77 109 77c65 0 87 -25 77 -77c-11 -50 -44 -76 -108 -76zM425 -18c-273 0 -431 126 -375 381l5 23c55 248 230 373 512 373
c281 0 426 -134 369 -385l-4 -14c-58 -252 -226 -378 -507 -378zM445 151c129 0 225 62 257 206l5 21c34 151 -42 212 -171 212c-128 0 -220 -58 -251 -200l-7 -31c-32 -149 48 -208 167 -208z" />
    <glyph glyph-name="uni1ECC" unicode="&#x1ecc;" horiz-adv-x="955" 
d="M425 -18c-273 0 -431 126 -375 381l5 23c55 248 230 373 512 373c281 0 426 -134 369 -385l-4 -14c-58 -252 -226 -378 -507 -378zM445 151c129 0 225 62 257 206l5 21c34 151 -42 212 -171 212c-128 0 -220 -58 -251 -200l-7 -31c-32 -149 48 -208 167 -208zM405 -154
c-67 0 -91 19 -83 58c9 39 41 58 108 58s90 -19 81 -58c-8 -39 -39 -58 -106 -58z" />
    <glyph glyph-name="Ograve" unicode="&#xd2;" horiz-adv-x="955" 
d="M732 805h-121l-139 163h194zM425 -18c-273 0 -431 126 -375 381l5 23c55 248 230 373 512 373c281 0 426 -134 369 -385l-4 -14c-58 -252 -226 -378 -507 -378zM445 151c129 0 225 62 257 206l5 21c34 151 -42 212 -171 212c-128 0 -220 -58 -251 -200l-7 -31
c-32 -149 48 -208 167 -208z" />
    <glyph glyph-name="uni1ECE" unicode="&#x1ece;" horiz-adv-x="955" 
d="M643 800h-86c43 42 62 70 66 87c3 12 -5 17 -17 17c-14 0 -23 -5 -29 -32h-71c13 69 57 105 124 105c63 0 89 -30 80 -70c-7 -33 -33 -67 -67 -107zM425 -18c-273 0 -431 126 -375 381l5 23c55 248 230 373 512 373c281 0 426 -134 369 -385l-4 -14
c-58 -252 -226 -378 -507 -378zM445 151c129 0 225 62 257 206l5 21c34 151 -42 212 -171 212c-128 0 -220 -58 -251 -200l-7 -31c-32 -149 48 -208 167 -208z" />
    <glyph glyph-name="Ohorn" unicode="&#x1a0;" horiz-adv-x="955" 
d="M832 697c99 -62 139 -171 104 -323l-4 -14c-58 -252 -226 -378 -507 -378c-273 0 -431 126 -375 381l5 23c55 248 230 373 512 373c37 0 72 -2 104 -7c88 1 128 32 131 121l122 7c0 -96 -34 -152 -92 -183zM702 357l5 21c34 151 -42 212 -171 212
c-128 0 -220 -58 -251 -200l-7 -31c-32 -149 48 -208 167 -208c129 0 225 62 257 206z" />
    <glyph glyph-name="uni1EDA" unicode="&#x1eda;" horiz-adv-x="955" 
d="M513 968h194l-139 -163h-121zM832 697c99 -62 139 -171 104 -323l-4 -14c-58 -252 -226 -378 -507 -378c-273 0 -431 126 -375 381l5 23c55 248 230 373 512 373c37 0 72 -2 104 -7c88 1 128 32 131 121l122 7c0 -96 -34 -152 -92 -183zM702 357l5 21
c34 151 -42 212 -171 212c-128 0 -220 -58 -251 -200l-7 -31c-32 -149 48 -208 167 -208c129 0 225 62 257 206z" />
    <glyph glyph-name="uni1EE2" unicode="&#x1ee2;" horiz-adv-x="955" 
d="M832 697c99 -62 139 -171 104 -323l-4 -14c-58 -252 -226 -378 -507 -378c-273 0 -431 126 -375 381l5 23c55 248 230 373 512 373c37 0 72 -2 104 -7c88 1 128 32 131 121l122 7c0 -96 -34 -152 -92 -183zM702 357l5 21c34 151 -42 212 -171 212
c-128 0 -220 -58 -251 -200l-7 -31c-32 -149 48 -208 167 -208c129 0 225 62 257 206zM425 -38c67 0 90 -19 81 -58c-8 -39 -39 -58 -106 -58s-91 19 -83 58c9 39 41 58 108 58z" />
    <glyph glyph-name="uni1EDC" unicode="&#x1edc;" horiz-adv-x="955" 
d="M661 968l66 -163h-121l-139 163h194zM832 697c99 -62 139 -171 104 -323l-4 -14c-58 -252 -226 -378 -507 -378c-273 0 -431 126 -375 381l5 23c55 248 230 373 512 373c37 0 72 -2 104 -7c88 1 128 32 131 121l122 7c0 -96 -34 -152 -92 -183zM702 357l5 21
c34 151 -42 212 -171 212c-128 0 -220 -58 -251 -200l-7 -31c-32 -149 48 -208 167 -208c129 0 225 62 257 206z" />
    <glyph glyph-name="uni1EDE" unicode="&#x1ede;" horiz-adv-x="955" 
d="M601 904c-14 0 -23 -5 -29 -32h-71c13 69 57 105 124 105c63 0 89 -30 80 -70c-7 -33 -33 -67 -67 -107h-86c43 42 62 70 66 87c3 12 -5 17 -17 17zM832 697c99 -62 139 -171 104 -323l-4 -14c-58 -252 -226 -378 -507 -378c-273 0 -431 126 -375 381l5 23
c55 248 230 373 512 373c37 0 72 -2 104 -7c88 1 128 32 131 121l122 7c0 -96 -34 -152 -92 -183zM702 357l5 21c34 151 -42 212 -171 212c-128 0 -220 -58 -251 -200l-7 -31c-32 -149 48 -208 167 -208c129 0 225 62 257 206z" />
    <glyph glyph-name="uni1EE0" unicode="&#x1ee0;" horiz-adv-x="955" 
d="M525 851c-23 0 -40 -15 -56 -44l-95 18c33 95 81 146 156 146c76 0 111 -51 148 -51c23 0 40 14 56 43l95 -18c-33 -95 -81 -146 -156 -146c-76 0 -111 52 -148 52zM832 697c99 -62 139 -171 104 -323l-4 -14c-58 -252 -226 -378 -507 -378c-273 0 -431 126 -375 381
l5 23c55 248 230 373 512 373c37 0 72 -2 104 -7c88 1 128 32 131 121l122 7c0 -96 -34 -152 -92 -183zM702 357l5 21c34 151 -42 212 -171 212c-128 0 -220 -58 -251 -200l-7 -31c-32 -149 48 -208 167 -208c129 0 225 62 257 206z" />
    <glyph glyph-name="Ohungarumlaut" unicode="&#x150;" horiz-adv-x="955" 
d="M652 968l-132 -163h-115l63 163h184zM854 968l-132 -163h-115l63 163h184zM425 -18c-273 0 -431 126 -375 381l5 23c55 248 230 373 512 373c281 0 426 -134 369 -385l-4 -14c-58 -252 -226 -378 -507 -378zM445 151c129 0 225 62 257 206l5 21c34 151 -42 212 -171 212
c-128 0 -220 -58 -251 -200l-7 -31c-32 -149 48 -208 167 -208z" />
    <glyph glyph-name="Omacron" unicode="&#x14c;" horiz-adv-x="955" 
d="M798 802h-422l24 114h422zM425 -18c-273 0 -431 126 -375 381l5 23c55 248 230 373 512 373c281 0 426 -134 369 -385l-4 -14c-58 -252 -226 -378 -507 -378zM445 151c129 0 225 62 257 206l5 21c34 151 -42 212 -171 212c-128 0 -220 -58 -251 -200l-7 -31
c-32 -149 48 -208 167 -208z" />
    <glyph glyph-name="uni01EA" unicode="&#x1ea;" horiz-adv-x="955" 
d="M567 759c281 0 426 -134 369 -385l-4 -14c-44 -193 -154 -312 -329 -357c-72 -30 -102 -55 -108 -83c-3 -13 2 -25 24 -25c21 0 37 14 44 44h109c-19 -89 -73 -128 -185 -128c-97 0 -134 36 -122 94c6 29 30 55 71 77h-11c-273 0 -431 126 -375 381l5 23
c55 248 230 373 512 373zM702 357l5 21c34 151 -42 212 -171 212c-128 0 -220 -58 -251 -200l-7 -31c-32 -149 48 -208 167 -208c129 0 225 62 257 206z" />
    <glyph glyph-name="Oslash" unicode="&#xd8;" horiz-adv-x="955" 
d="M899 764l-60 -71c94 -63 131 -171 97 -319l-4 -14c-58 -252 -226 -378 -507 -378c-62 0 -118 6 -166 19l-78 -92l-85 71l56 67c-94 62 -135 167 -102 316l5 23c55 248 230 373 512 373c61 0 116 -6 163 -19l79 95zM285 390l-7 -31c-14 -63 -7 -110 14 -144l308 369
c-20 4 -41 6 -64 6c-128 0 -220 -58 -251 -200zM702 357l5 21c14 63 9 111 -11 144l-307 -366c17 -3 36 -5 56 -5c129 0 225 62 257 206z" />
    <glyph glyph-name="Otilde" unicode="&#xd5;" horiz-adv-x="955" 
d="M678 799c-76 0 -111 52 -148 52c-23 0 -40 -15 -56 -44l-95 18c33 95 81 146 156 146c76 0 111 -51 148 -51c23 0 40 14 56 43l95 -18c-33 -95 -81 -146 -156 -146zM425 -18c-273 0 -431 126 -375 381l5 23c55 248 230 373 512 373c281 0 426 -134 369 -385l-4 -14
c-58 -252 -226 -378 -507 -378zM445 151c129 0 225 62 257 206l5 21c34 151 -42 212 -171 212c-128 0 -220 -58 -251 -200l-7 -31c-32 -149 48 -208 167 -208z" />
    <glyph glyph-name="Racute" unicode="&#x154;" horiz-adv-x="891" 
d="M686 968l-139 -163h-121l66 163h194zM244 0h-226l158 743h433c237 0 317 -89 288 -230l-2 -11c-20 -86 -93 -153 -200 -174l-1 -3c75 -20 101 -59 99 -163l-3 -53c-1 -49 2 -79 9 -109h-230c-5 21 -6 47 -5 108l1 53c2 51 -29 76 -124 76h-146zM367 578l-39 -184h196
c76 0 128 30 142 93l2 12c10 51 -24 79 -102 79h-199z" />
    <glyph glyph-name="Rcaron" unicode="&#x158;" horiz-adv-x="891" 
d="M484 800l-81 163h110l68 -79l100 79h110l-148 -163h-159zM244 0h-226l158 743h433c237 0 317 -89 288 -230l-2 -11c-20 -86 -93 -153 -200 -174l-1 -3c75 -20 101 -59 99 -163l-3 -53c-1 -49 2 -79 9 -109h-230c-5 21 -6 47 -5 108l1 53c2 51 -29 76 -124 76h-146z
M367 578l-39 -184h196c76 0 128 30 142 93l2 12c10 51 -24 79 -102 79h-199z" />
    <glyph glyph-name="uni0156" unicode="&#x156;" horiz-adv-x="891" 
d="M244 0h-226l158 743h433c237 0 317 -89 288 -230l-2 -11c-20 -86 -93 -153 -200 -174l-1 -3c75 -20 101 -59 99 -163l-3 -53c-1 -49 2 -79 9 -109h-230c-5 21 -6 47 -5 108l1 53c2 51 -29 76 -124 76h-146zM367 578l-39 -184h196c76 0 128 30 142 93l2 12
c10 51 -24 79 -102 79h-199zM266 -199l15 45c60 -2 79 3 87 30c-68 0 -96 14 -84 51c12 39 50 53 118 53c72 0 100 -17 85 -64c-32 -99 -114 -125 -221 -115z" />
    <glyph glyph-name="uni1E5A" unicode="&#x1e5a;" horiz-adv-x="891" 
d="M244 0h-226l158 743h433c237 0 317 -89 288 -230l-2 -11c-20 -86 -93 -153 -200 -174l-1 -3c75 -20 101 -59 99 -163l-3 -53c-1 -49 2 -79 9 -109h-230c-5 21 -6 47 -5 108l1 53c2 51 -29 76 -124 76h-146zM367 578l-39 -184h196c76 0 128 30 142 93l2 12
c10 51 -24 79 -102 79h-199zM379 -154c-67 0 -91 19 -83 58c9 39 41 58 108 58s90 -19 81 -58c-8 -39 -39 -58 -106 -58z" />
    <glyph glyph-name="uni1E5C" unicode="&#x1e5c;" horiz-adv-x="891" 
d="M772 802h-422l24 114h422zM244 0h-226l158 743h433c237 0 317 -89 288 -230l-2 -11c-20 -86 -93 -153 -200 -174l-1 -3c75 -20 101 -59 99 -163l-3 -53c-1 -49 2 -79 9 -109h-230c-5 21 -6 47 -5 108l1 53c2 51 -29 76 -124 76h-146zM367 578l-39 -184h196
c76 0 128 30 142 93l2 12c10 51 -24 79 -102 79h-199zM379 -154c-67 0 -91 19 -83 58c9 39 41 58 108 58s90 -19 81 -58c-8 -39 -39 -58 -106 -58z" />
    <glyph glyph-name="uni1E5E" unicode="&#x1e5e;" horiz-adv-x="891" 
d="M244 0h-226l158 743h433c237 0 317 -89 288 -230l-2 -11c-20 -86 -93 -153 -200 -174l-1 -3c75 -20 101 -59 99 -163l-3 -53c-1 -49 2 -79 9 -109h-230c-5 21 -6 47 -5 108l1 53c2 51 -29 76 -124 76h-146zM367 578l-39 -184h196c76 0 128 30 142 93l2 12
c10 51 -24 79 -102 79h-199zM605 -131h-423l24 90h422z" />
    <glyph glyph-name="Sacute" unicode="&#x15a;" horiz-adv-x="822" 
d="M642 968l-139 -163h-121l66 163h194zM361 -18c-267 0 -367 114 -339 263l1 6h218l-1 -6c-11 -63 18 -107 146 -107c105 0 150 27 160 70l2 9c9 44 -13 62 -166 88c-252 35 -299 114 -273 237l2 10c24 109 130 207 382 207c254 0 344 -105 322 -259v-5h-209v5
c6 55 -16 103 -130 103c-95 0 -135 -26 -143 -64l-2 -8c-6 -32 9 -55 125 -72c307 -43 339 -132 316 -242l-2 -10c-31 -146 -169 -225 -409 -225z" />
    <glyph glyph-name="Scaron" unicode="&#x160;" horiz-adv-x="822" 
d="M440 800l-81 163h110l68 -79l100 79h110l-148 -163h-159zM361 -18c-267 0 -367 114 -339 263l1 6h218l-1 -6c-11 -63 18 -107 146 -107c105 0 150 27 160 70l2 9c9 44 -13 62 -166 88c-252 35 -299 114 -273 237l2 10c24 109 130 207 382 207c254 0 344 -105 322 -259v-5
h-209v5c6 55 -16 103 -130 103c-95 0 -135 -26 -143 -64l-2 -8c-6 -32 9 -55 125 -72c307 -43 339 -132 316 -242l-2 -10c-31 -146 -169 -225 -409 -225z" />
    <glyph glyph-name="Scedilla" unicode="&#x15e;" horiz-adv-x="822" 
d="M493 759c254 0 344 -105 322 -259v-5h-209v5c6 55 -16 103 -130 103c-95 0 -135 -26 -143 -64l-2 -8c-6 -32 9 -55 125 -72c307 -43 339 -132 316 -242l-2 -10c-30 -144 -165 -222 -397 -225l-13 -22c44 8 125 -6 110 -78c-11 -53 -70 -92 -165 -92s-143 31 -129 111h100
c-6 -33 13 -41 42 -41c17 0 36 9 40 31c5 26 -18 38 -55 30l-22 20l26 43c-226 14 -311 122 -285 261l1 6h218l-1 -6c-11 -63 18 -107 146 -107c105 0 150 27 160 70l2 9c9 44 -13 62 -166 88c-252 35 -299 114 -273 237l2 10c24 109 130 207 382 207z" />
    <glyph glyph-name="Scircumflex" unicode="&#x15c;" horiz-adv-x="822" 
d="M436 806h-110l149 162h159l80 -162h-110l-67 78zM361 -18c-267 0 -367 114 -339 263l1 6h218l-1 -6c-11 -63 18 -107 146 -107c105 0 150 27 160 70l2 9c9 44 -13 62 -166 88c-252 35 -299 114 -273 237l2 10c24 109 130 207 382 207c254 0 344 -105 322 -259v-5h-209v5
c6 55 -16 103 -130 103c-95 0 -135 -26 -143 -64l-2 -8c-6 -32 9 -55 125 -72c307 -43 339 -132 316 -242l-2 -10c-31 -146 -169 -225 -409 -225z" />
    <glyph glyph-name="uni0218" unicode="&#x218;" horiz-adv-x="822" 
d="M361 -18c-267 0 -367 114 -339 263l1 6h218l-1 -6c-11 -63 18 -107 146 -107c105 0 150 27 160 70l2 9c9 44 -13 62 -166 88c-252 35 -299 114 -273 237l2 10c24 109 130 207 382 207c254 0 344 -105 322 -259v-5h-209v5c6 55 -16 103 -130 103c-95 0 -135 -26 -143 -64
l-2 -8c-6 -32 9 -55 125 -72c307 -43 339 -132 316 -242l-2 -10c-31 -146 -169 -225 -409 -225zM222 -199l15 45c60 -2 79 3 87 30c-68 0 -96 14 -84 51c12 39 50 53 118 53c72 0 100 -17 85 -64c-32 -99 -114 -125 -221 -115z" />
    <glyph glyph-name="uni1E60" unicode="&#x1e60;" horiz-adv-x="822" 
d="M518 799c-62 0 -85 21 -76 63s40 63 103 63s84 -21 75 -63c-8 -42 -38 -63 -102 -63zM361 -18c-267 0 -367 114 -339 263l1 6h218l-1 -6c-11 -63 18 -107 146 -107c105 0 150 27 160 70l2 9c9 44 -13 62 -166 88c-252 35 -299 114 -273 237l2 10c24 109 130 207 382 207
c254 0 344 -105 322 -259v-5h-209v5c6 55 -16 103 -130 103c-95 0 -135 -26 -143 -64l-2 -8c-6 -32 9 -55 125 -72c307 -43 339 -132 316 -242l-2 -10c-31 -146 -169 -225 -409 -225z" />
    <glyph glyph-name="uni1E62" unicode="&#x1e62;" horiz-adv-x="822" 
d="M361 -18c-267 0 -367 114 -339 263l1 6h218l-1 -6c-11 -63 18 -107 146 -107c105 0 150 27 160 70l2 9c9 44 -13 62 -166 88c-252 35 -299 114 -273 237l2 10c24 109 130 207 382 207c254 0 344 -105 322 -259v-5h-209v5c6 55 -16 103 -130 103c-95 0 -135 -26 -143 -64
l-2 -8c-6 -32 9 -55 125 -72c307 -43 339 -132 316 -242l-2 -10c-31 -146 -169 -225 -409 -225zM335 -154c-67 0 -91 19 -83 58c9 39 41 58 108 58s90 -19 81 -58c-8 -39 -39 -58 -106 -58z" />
    <glyph glyph-name="uni018F" unicode="&#x18f;" horiz-adv-x="934" 
d="M391 -17c-250 0 -401 128 -344 369l11 54h635l3 12c13 111 -48 179 -174 179c-108 0 -197 -54 -228 -144l-1 -4h-225l1 4c62 179 231 306 481 306c287 0 420 -130 371 -358l-14 -66c-48 -223 -232 -352 -516 -352zM427 143c107 0 182 54 225 135l1 6h-387l-2 -9
c4 -95 73 -132 163 -132z" />
    <glyph glyph-name="Tbar" unicode="&#x166;" horiz-adv-x="767" 
d="M855 743l-35 -166h-263l-37 -172h142l-29 -132h-141l-58 -273h-227l58 273h-116l28 132h116l37 172h-264l36 166h753z" />
    <glyph glyph-name="Tcaron" unicode="&#x164;" horiz-adv-x="767" 
d="M413 800l-81 163h110l68 -79l100 79h110l-148 -163h-159zM434 0h-227l123 577h-264l36 166h753l-35 -166h-263z" />
    <glyph glyph-name="uni0162" unicode="&#x162;" horiz-adv-x="767" 
d="M66 577l36 166h753l-35 -166h-263l-123 -577h-79l-24 -42c44 8 125 -6 110 -78c-11 -53 -70 -92 -165 -92s-143 31 -129 111h100c-6 -33 13 -41 42 -41c17 0 36 9 40 31c5 26 -18 38 -55 30l-22 20l37 61h-82l123 577h-264z" />
    <glyph glyph-name="uni021A" unicode="&#x21a;" horiz-adv-x="767" 
d="M434 0h-227l123 577h-264l36 166h753l-35 -166h-263zM194 -201l15 45c60 -2 79 3 87 30c-68 0 -96 14 -84 51c12 39 50 53 118 53c72 0 100 -17 85 -64c-32 -99 -114 -125 -221 -115z" />
    <glyph glyph-name="uni1E6C" unicode="&#x1e6c;" horiz-adv-x="767" 
d="M434 0h-227l123 577h-264l36 166h753l-35 -166h-263zM306 -156c-67 0 -91 19 -83 58c9 39 41 58 108 58s90 -19 81 -58c-8 -39 -39 -58 -106 -58z" />
    <glyph glyph-name="uni1E6E" unicode="&#x1e6e;" horiz-adv-x="767" 
d="M434 0h-227l123 577h-264l36 166h753l-35 -166h-263zM533 -133h-423l24 90h422z" />
    <glyph glyph-name="Uacute" unicode="&#xda;" horiz-adv-x="925" 
d="M691 968l-139 -163h-121l66 163h194zM395 -18c-293 0 -377 115 -327 346l88 415h226l-89 -420c-25 -118 24 -172 139 -172s186 54 211 171l89 421h227l-88 -416c-48 -228 -179 -345 -476 -345z" />
    <glyph glyph-name="Ubreve" unicode="&#x16c;" horiz-adv-x="925" 
d="M568 799c-140 0 -186 60 -152 182h121c-18 -59 -3 -87 51 -87s81 28 89 87h120c-17 -122 -90 -182 -229 -182zM395 -18c-293 0 -377 115 -327 346l88 415h226l-89 -420c-25 -118 24 -172 139 -172s186 54 211 171l89 421h227l-88 -416c-48 -228 -179 -345 -476 -345z" />
    <glyph glyph-name="uni01D3" unicode="&#x1d3;" horiz-adv-x="925" 
d="M489 800l-81 163h110l68 -79l100 79h110l-148 -163h-159zM395 -18c-293 0 -377 115 -327 346l88 415h226l-89 -420c-25 -118 24 -172 139 -172s186 54 211 171l89 421h227l-88 -416c-48 -228 -179 -345 -476 -345z" />
    <glyph glyph-name="Ucircumflex" unicode="&#xdb;" horiz-adv-x="925" 
d="M485 806h-110l149 162h159l80 -162h-110l-67 78zM395 -18c-293 0 -377 115 -327 346l88 415h226l-89 -420c-25 -118 24 -172 139 -172s186 54 211 171l89 421h227l-88 -416c-48 -228 -179 -345 -476 -345z" />
    <glyph glyph-name="Udieresis" unicode="&#xdc;" horiz-adv-x="925" 
d="M447 801c-63 0 -88 26 -77 76c11 52 46 77 109 77c64 0 87 -25 76 -77c-10 -50 -44 -76 -108 -76zM701 801c-63 0 -88 26 -78 76c11 52 46 77 109 77c65 0 87 -25 77 -77c-11 -50 -44 -76 -108 -76zM395 -18c-293 0 -377 115 -327 346l88 415h226l-89 -420
c-25 -118 24 -172 139 -172s186 54 211 171l89 421h227l-88 -416c-48 -228 -179 -345 -476 -345z" />
    <glyph glyph-name="uni01D7" unicode="&#x1d7;" horiz-adv-x="925" 
d="M729 1164l-139 -163h-121l66 163h194zM447 801c-63 0 -88 26 -77 76c11 52 46 77 109 77c64 0 87 -25 76 -77c-10 -50 -44 -76 -108 -76zM701 801c-63 0 -88 26 -78 76c11 52 46 77 109 77c65 0 87 -25 77 -77c-11 -50 -44 -76 -108 -76zM395 -18
c-293 0 -377 115 -327 346l88 415h226l-89 -420c-25 -118 24 -172 139 -172s186 54 211 171l89 421h227l-88 -416c-48 -228 -179 -345 -476 -345z" />
    <glyph glyph-name="uni01D9" unicode="&#x1d9;" horiz-adv-x="925" 
d="M527 996l-81 163h110l68 -79l100 79h110l-148 -163h-159zM447 801c-63 0 -88 26 -77 76c11 52 46 77 109 77c64 0 87 -25 76 -77c-10 -50 -44 -76 -108 -76zM701 801c-63 0 -88 26 -78 76c11 52 46 77 109 77c65 0 87 -25 77 -77c-11 -50 -44 -76 -108 -76zM395 -18
c-293 0 -377 115 -327 346l88 415h226l-89 -420c-25 -118 24 -172 139 -172s186 54 211 171l89 421h227l-88 -416c-48 -228 -179 -345 -476 -345z" />
    <glyph glyph-name="uni01DB" unicode="&#x1db;" horiz-adv-x="925" 
d="M749 1001h-121l-139 163h194zM447 801c-63 0 -88 26 -77 76c11 52 46 77 109 77c64 0 87 -25 76 -77c-10 -50 -44 -76 -108 -76zM701 801c-63 0 -88 26 -78 76c11 52 46 77 109 77c65 0 87 -25 77 -77c-11 -50 -44 -76 -108 -76zM395 -18c-293 0 -377 115 -327 346
l88 415h226l-89 -420c-25 -118 24 -172 139 -172s186 54 211 171l89 421h227l-88 -416c-48 -228 -179 -345 -476 -345z" />
    <glyph glyph-name="uni01D5" unicode="&#x1d5;" horiz-adv-x="925" 
d="M815 998h-422l24 114h422zM447 801c-63 0 -88 26 -77 76c11 52 46 77 109 77c64 0 87 -25 76 -77c-10 -50 -44 -76 -108 -76zM701 801c-63 0 -88 26 -78 76c11 52 46 77 109 77c65 0 87 -25 77 -77c-11 -50 -44 -76 -108 -76zM395 -18c-293 0 -377 115 -327 346l88 415
h226l-89 -420c-25 -118 24 -172 139 -172s186 54 211 171l89 421h227l-88 -416c-48 -228 -179 -345 -476 -345z" />
    <glyph glyph-name="uni1EE4" unicode="&#x1ee4;" horiz-adv-x="925" 
d="M395 -18c-293 0 -377 115 -327 346l88 415h226l-89 -420c-25 -118 24 -172 139 -172s186 54 211 171l89 421h227l-88 -416c-48 -228 -179 -345 -476 -345zM384 -154c-67 0 -91 19 -83 58c9 39 41 58 108 58s90 -19 81 -58c-8 -39 -39 -58 -106 -58z" />
    <glyph glyph-name="Ugrave" unicode="&#xd9;" horiz-adv-x="925" 
d="M711 805h-121l-139 163h194zM395 -18c-293 0 -377 115 -327 346l88 415h226l-89 -420c-25 -118 24 -172 139 -172s186 54 211 171l89 421h227l-88 -416c-48 -228 -179 -345 -476 -345z" />
    <glyph glyph-name="uni1EE6" unicode="&#x1ee6;" horiz-adv-x="925" 
d="M622 800h-86c43 42 62 70 66 87c3 12 -5 17 -17 17c-14 0 -23 -5 -29 -32h-71c13 69 57 105 124 105c63 0 89 -30 80 -70c-7 -33 -33 -67 -67 -107zM395 -18c-293 0 -377 115 -327 346l88 415h226l-89 -420c-25 -118 24 -172 139 -172s186 54 211 171l89 421h227
l-88 -416c-48 -228 -179 -345 -476 -345z" />
    <glyph glyph-name="Uhorn" unicode="&#x1af;" horiz-adv-x="999" 
d="M984 863l122 8c0 -131 -63 -188 -163 -206l-72 -338c-48 -228 -179 -345 -476 -345c-293 0 -377 115 -327 346l88 415h226l-89 -420c-25 -118 24 -172 139 -172s186 54 211 171l89 421h144c72 6 106 39 108 120z" />
    <glyph glyph-name="uni1EE8" unicode="&#x1ee8;" horiz-adv-x="999" 
d="M501 968h194l-139 -163h-121zM984 863l122 8c0 -131 -63 -188 -163 -206l-72 -338c-48 -228 -179 -345 -476 -345c-293 0 -377 115 -327 346l88 415h226l-89 -420c-25 -118 24 -172 139 -172s186 54 211 171l89 421h144c72 6 106 39 108 120z" />
    <glyph glyph-name="uni1EF0" unicode="&#x1ef0;" horiz-adv-x="999" 
d="M984 863l122 8c0 -131 -63 -188 -163 -206l-72 -338c-48 -228 -179 -345 -476 -345c-293 0 -377 115 -327 346l88 415h226l-89 -420c-25 -118 24 -172 139 -172s186 54 211 171l89 421h144c72 6 106 39 108 120zM413 -38c67 0 90 -19 81 -58c-8 -39 -39 -58 -106 -58
s-91 19 -83 58c9 39 41 58 108 58z" />
    <glyph glyph-name="uni1EEA" unicode="&#x1eea;" horiz-adv-x="999" 
d="M649 968l66 -163h-121l-139 163h194zM984 863l122 8c0 -131 -63 -188 -163 -206l-72 -338c-48 -228 -179 -345 -476 -345c-293 0 -377 115 -327 346l88 415h226l-89 -420c-25 -118 24 -172 139 -172s186 54 211 171l89 421h144c72 6 106 39 108 120z" />
    <glyph glyph-name="uni1EEC" unicode="&#x1eec;" horiz-adv-x="999" 
d="M589 904c-14 0 -23 -5 -29 -32h-71c13 69 57 105 124 105c63 0 89 -30 80 -70c-7 -33 -33 -67 -67 -107h-86c43 42 62 70 66 87c3 12 -5 17 -17 17zM984 863l122 8c0 -131 -63 -188 -163 -206l-72 -338c-48 -228 -179 -345 -476 -345c-293 0 -377 115 -327 346l88 415
h226l-89 -420c-25 -118 24 -172 139 -172s186 54 211 171l89 421h144c72 6 106 39 108 120z" />
    <glyph glyph-name="uni1EEE" unicode="&#x1eee;" horiz-adv-x="999" 
d="M513 851c-23 0 -40 -15 -56 -44l-95 18c33 95 81 146 156 146c76 0 111 -51 148 -51c23 0 40 14 56 43l95 -18c-33 -95 -81 -146 -156 -146c-76 0 -111 52 -148 52zM984 863l122 8c0 -131 -63 -188 -163 -206l-72 -338c-48 -228 -179 -345 -476 -345
c-293 0 -377 115 -327 346l88 415h226l-89 -420c-25 -118 24 -172 139 -172s186 54 211 171l89 421h144c72 6 106 39 108 120z" />
    <glyph glyph-name="Uhungarumlaut" unicode="&#x170;" horiz-adv-x="925" 
d="M631 968l-132 -163h-115l63 163h184zM833 968l-132 -163h-115l63 163h184zM395 -18c-293 0 -377 115 -327 346l88 415h226l-89 -420c-25 -118 24 -172 139 -172s186 54 211 171l89 421h227l-88 -416c-48 -228 -179 -345 -476 -345z" />
    <glyph glyph-name="Umacron" unicode="&#x16a;" horiz-adv-x="925" 
d="M778 802h-422l24 114h422zM395 -18c-293 0 -377 115 -327 346l88 415h226l-89 -420c-25 -118 24 -172 139 -172s186 54 211 171l89 421h227l-88 -416c-48 -228 -179 -345 -476 -345z" />
    <glyph glyph-name="Uogonek" unicode="&#x172;" horiz-adv-x="925" 
d="M643 322l89 421h227l-88 -416c-32 -152 -101 -254 -230 -306c-100 -36 -139 -65 -146 -97c-3 -13 2 -25 24 -25c21 0 37 14 44 44h109c-19 -89 -73 -128 -185 -128c-97 0 -134 36 -122 94c6 28 27 52 65 74c-11 -1 -23 -1 -35 -1c-293 0 -377 115 -327 346l88 415h226
l-89 -420c-25 -118 24 -172 139 -172s186 54 211 171z" />
    <glyph glyph-name="Uring" unicode="&#x16e;" horiz-adv-x="925" 
d="M567 799c-110 0 -153 32 -139 99c15 68 73 100 183 100s153 -32 138 -100c-15 -67 -72 -99 -182 -99zM581 859c30 0 52 11 58 39c6 29 -11 40 -42 40c-30 0 -53 -11 -59 -40c-6 -28 12 -39 43 -39zM395 -18c-293 0 -377 115 -327 346l88 415h226l-89 -420
c-25 -118 24 -172 139 -172s186 54 211 171l89 421h227l-88 -416c-48 -228 -179 -345 -476 -345z" />
    <glyph glyph-name="Utilde" unicode="&#x168;" horiz-adv-x="925" 
d="M657 799c-76 0 -111 52 -148 52c-23 0 -40 -15 -56 -44l-95 18c33 95 81 146 156 146c76 0 111 -51 148 -51c23 0 40 14 56 43l95 -18c-33 -95 -81 -146 -156 -146zM395 -18c-293 0 -377 115 -327 346l88 415h226l-89 -420c-25 -118 24 -172 139 -172s186 54 211 171
l89 421h227l-88 -416c-48 -228 -179 -345 -476 -345z" />
    <glyph glyph-name="Wacute" unicode="&#x1e82;" horiz-adv-x="1284" 
d="M868 968l-139 -163h-121l66 163h194zM450 0h-283l-64 743h223l29 -526l-1 -44h2l19 45l232 525h256l13 -525v-45h2l18 44l242 526h234l-380 -743h-283l-14 506l1 37h-2l-16 -37z" />
    <glyph glyph-name="Wcircumflex" unicode="&#x174;" horiz-adv-x="1284" 
d="M662 806h-110l149 162h159l80 -162h-110l-67 78zM450 0h-283l-64 743h223l29 -526l-1 -44h2l19 45l232 525h256l13 -525v-45h2l18 44l242 526h234l-380 -743h-283l-14 506l1 37h-2l-16 -37z" />
    <glyph glyph-name="Wdieresis" unicode="&#x1e84;" horiz-adv-x="1284" 
d="M623 801c-63 0 -88 26 -77 76c11 52 46 77 109 77c64 0 87 -25 76 -77c-10 -50 -44 -76 -108 -76zM877 801c-63 0 -88 26 -78 76c11 52 46 77 109 77c65 0 87 -25 77 -77c-11 -50 -44 -76 -108 -76zM450 0h-283l-64 743h223l29 -526l-1 -44h2l19 45l232 525h256l13 -525
v-45h2l18 44l242 526h234l-380 -743h-283l-14 506l1 37h-2l-16 -37z" />
    <glyph glyph-name="Wgrave" unicode="&#x1e80;" horiz-adv-x="1284" 
d="M888 805h-121l-139 163h194zM450 0h-283l-64 743h223l29 -526l-1 -44h2l19 45l232 525h256l13 -525v-45h2l18 44l242 526h234l-380 -743h-283l-14 506l1 37h-2l-16 -37z" />
    <glyph glyph-name="Yacute" unicode="&#xdd;" horiz-adv-x="891" 
d="M678 968l-139 -163h-121l66 163h194zM497 0h-227l44 206l-211 537h257l95 -320l6 -34l21 34l222 320h275l-438 -537z" />
    <glyph glyph-name="Ycircumflex" unicode="&#x176;" horiz-adv-x="891" 
d="M472 806h-110l149 162h159l80 -162h-110l-67 78zM497 0h-227l44 206l-211 537h257l95 -320l6 -34l21 34l222 320h275l-438 -537z" />
    <glyph glyph-name="Ydieresis" unicode="&#x178;" horiz-adv-x="891" 
d="M434 801c-63 0 -88 26 -77 76c11 52 46 77 109 77c64 0 87 -25 76 -77c-10 -50 -44 -76 -108 -76zM688 801c-63 0 -88 26 -78 76c11 52 46 77 109 77c65 0 87 -25 77 -77c-11 -50 -44 -76 -108 -76zM497 0h-227l44 206l-211 537h257l95 -320l6 -34l21 34l222 320h275
l-438 -537z" />
    <glyph glyph-name="uni1E8E" unicode="&#x1e8e;" horiz-adv-x="891" 
d="M555 799c-62 0 -85 21 -76 63s40 63 103 63s84 -21 75 -63c-8 -42 -38 -63 -102 -63zM497 0h-227l44 206l-211 537h257l95 -320l6 -34l21 34l222 320h275l-438 -537z" />
    <glyph glyph-name="uni1EF4" unicode="&#x1ef4;" horiz-adv-x="891" 
d="M497 0h-227l44 206l-211 537h257l95 -320l6 -34l21 34l222 320h275l-438 -537zM369 -154c-67 0 -91 19 -83 58c9 39 41 58 108 58s90 -19 81 -58c-8 -39 -39 -58 -106 -58z" />
    <glyph glyph-name="Ygrave" unicode="&#x1ef2;" horiz-adv-x="891" 
d="M698 805h-121l-139 163h194zM497 0h-227l44 206l-211 537h257l95 -320l6 -34l21 34l222 320h275l-438 -537z" />
    <glyph glyph-name="uni1EF6" unicode="&#x1ef6;" horiz-adv-x="891" 
d="M610 800h-86c43 42 62 70 66 87c3 12 -5 17 -17 17c-14 0 -23 -5 -29 -32h-71c13 69 57 105 124 105c63 0 89 -30 80 -70c-7 -33 -33 -67 -67 -107zM497 0h-227l44 206l-211 537h257l95 -320l6 -34l21 34l222 320h275l-438 -537z" />
    <glyph glyph-name="uni0232" unicode="&#x232;" horiz-adv-x="891" 
d="M765 802h-422l24 114h422zM497 0h-227l44 206l-211 537h257l95 -320l6 -34l21 34l222 320h275l-438 -537z" />
    <glyph glyph-name="uni1EF8" unicode="&#x1ef8;" horiz-adv-x="891" 
d="M644 799c-76 0 -111 52 -148 52c-23 0 -40 -15 -56 -44l-95 18c33 95 81 146 156 146c76 0 111 -51 148 -51c23 0 40 14 56 43l95 -18c-33 -95 -81 -146 -156 -146zM497 0h-227l44 206l-211 537h257l95 -320l6 -34l21 34l222 320h275l-438 -537z" />
    <glyph glyph-name="Zacute" unicode="&#x179;" horiz-adv-x="795" 
d="M627 968l-139 -163h-121l66 163h194zM708 0h-745l32 150l546 429h-431l35 164h704l-32 -148l-540 -431h466z" />
    <glyph glyph-name="Zcaron" unicode="&#x17d;" horiz-adv-x="795" 
d="M425 800l-81 163h110l68 -79l100 79h110l-148 -163h-159zM708 0h-745l32 150l546 429h-431l35 164h704l-32 -148l-540 -431h466z" />
    <glyph glyph-name="Zdotaccent" unicode="&#x17b;" horiz-adv-x="795" 
d="M504 799c-62 0 -85 21 -76 63s40 63 103 63s84 -21 75 -63c-8 -42 -38 -63 -102 -63zM708 0h-745l32 150l546 429h-431l35 164h704l-32 -148l-540 -431h466z" />
    <glyph glyph-name="uni1E92" unicode="&#x1e92;" horiz-adv-x="795" 
d="M708 0h-745l32 150l546 429h-431l35 164h704l-32 -148l-540 -431h466zM320 -154c-67 0 -91 19 -83 58c9 39 41 58 108 58s90 -19 81 -58c-8 -39 -39 -58 -106 -58z" />
    <glyph glyph-name="J.001" horiz-adv-x="888" 
d="M373 -18c-201 0 -379 100 -331 326l4 17h208l-4 -18c-22 -102 40 -161 150 -161c106 0 183 63 210 189l52 244h-432l35 164h657l-84 -398c-55 -258 -238 -363 -465 -363z" />
    <glyph glyph-name="G.ss03" horiz-adv-x="937" 
d="M573 759c259 0 383 -122 359 -289l-1 -4h-222l1 5c5 74 -61 126 -169 126c-129 0 -228 -66 -255 -191l-15 -75c-27 -124 45 -188 172 -188c119 0 207 48 233 128h-232l27 130h450l-85 -401h-125l38 182h-5c-50 -109 -144 -199 -357 -199c-252 0 -390 120 -342 357l15 68
c48 229 241 351 513 351z" />
    <glyph glyph-name="Gbreve.ss03" horiz-adv-x="937" 
d="M575 799c-140 0 -186 60 -152 182h121c-18 -59 -3 -87 51 -87s81 28 89 87h120c-17 -122 -90 -182 -229 -182zM573 759c259 0 383 -122 359 -289l-1 -4h-222l1 5c5 74 -61 126 -169 126c-129 0 -228 -66 -255 -191l-15 -75c-27 -124 45 -188 172 -188
c119 0 207 48 233 128h-232l27 130h450l-85 -401h-125l38 182h-5c-50 -109 -144 -199 -357 -199c-252 0 -390 120 -342 357l15 68c48 229 241 351 513 351z" />
    <glyph glyph-name="Gcaron.ss03" horiz-adv-x="937" 
d="M804 963l-148 -163h-159l-81 163h110l68 -79l100 79h110zM573 759c259 0 383 -122 359 -289l-1 -4h-222l1 5c5 74 -61 126 -169 126c-129 0 -228 -66 -255 -191l-15 -75c-27 -124 45 -188 172 -188c119 0 207 48 233 128h-232l27 130h450l-85 -401h-125l38 182h-5
c-50 -109 -144 -199 -357 -199c-252 0 -390 120 -342 357l15 68c48 229 241 351 513 351z" />
    <glyph glyph-name="Gcircumflex.ss03" horiz-adv-x="937" 
d="M661 806l-67 78l-101 -78h-110l149 162h159l80 -162h-110zM573 759c259 0 383 -122 359 -289l-1 -4h-222l1 5c5 74 -61 126 -169 126c-129 0 -228 -66 -255 -191l-15 -75c-27 -124 45 -188 172 -188c119 0 207 48 233 128h-232l27 130h450l-85 -401h-125l38 182h-5
c-50 -109 -144 -199 -357 -199c-252 0 -390 120 -342 357l15 68c48 229 241 351 513 351z" />
    <glyph glyph-name="uni0122.ss03" horiz-adv-x="937" 
d="M573 759c259 0 383 -122 359 -289l-1 -4h-222l1 5c5 74 -61 126 -169 126c-129 0 -228 -66 -255 -191l-15 -75c-27 -124 45 -188 172 -188c119 0 207 48 233 128h-232l27 130h450l-85 -401h-125l38 182h-5c-50 -109 -144 -199 -357 -199c-252 0 -390 120 -342 357l15 68
c48 229 241 351 513 351zM415 -20c72 0 100 -17 85 -64c-32 -99 -114 -125 -221 -115l15 45c60 -2 79 3 87 30c-68 0 -96 14 -84 51c12 39 50 53 118 53z" />
    <glyph glyph-name="Gdotaccent.ss03" horiz-adv-x="937" 
d="M575 799c-62 0 -85 21 -76 63s40 63 103 63s84 -21 75 -63c-8 -42 -38 -63 -102 -63zM573 759c259 0 383 -122 359 -289l-1 -4h-222l1 5c5 74 -61 126 -169 126c-129 0 -228 -66 -255 -191l-15 -75c-27 -124 45 -188 172 -188c119 0 207 48 233 128h-232l27 130h450
l-85 -401h-125l38 182h-5c-50 -109 -144 -199 -357 -199c-252 0 -390 120 -342 357l15 68c48 229 241 351 513 351z" />
    <glyph glyph-name="uni1E20.ss03" horiz-adv-x="937" 
d="M387 916h422l-24 -114h-422zM573 759c259 0 383 -122 359 -289l-1 -4h-222l1 5c5 74 -61 126 -169 126c-129 0 -228 -66 -255 -191l-15 -75c-27 -124 45 -188 172 -188c119 0 207 48 233 128h-232l27 130h450l-85 -401h-125l38 182h-5c-50 -109 -144 -199 -357 -199
c-252 0 -390 120 -342 357l15 68c48 229 241 351 513 351z" />
    <glyph glyph-name="I.ss03" horiz-adv-x="474" 
d="M562 743l-34 -162h-124l-89 -417h124l-35 -164h-460l35 164h123l89 417h-124l35 162h460z" />
    <glyph glyph-name="Iacute.ss03" horiz-adv-x="474" 
d="M274 968h194l-139 -163h-121zM562 743l-34 -162h-124l-89 -417h124l-35 -164h-460l35 164h123l89 417h-124l35 162h460z" />
    <glyph glyph-name="Ibreve.ss03" horiz-adv-x="474" 
d="M345 799c-140 0 -186 60 -152 182h121c-18 -59 -3 -87 51 -87s81 28 89 87h120c-17 -122 -90 -182 -229 -182zM102 743h460l-34 -162h-124l-89 -417h124l-35 -164h-460l35 164h123l89 417h-124z" />
    <glyph glyph-name="uni01CF.ss03" horiz-adv-x="474" 
d="M573 963l-148 -163h-159l-81 163h110l68 -79l100 79h110zM102 743h460l-34 -162h-124l-89 -417h124l-35 -164h-460l35 164h123l89 417h-124z" />
    <glyph glyph-name="Icircumflex.ss03" horiz-adv-x="474" 
d="M430 806l-67 78l-101 -78h-110l149 162h159l80 -162h-110zM562 743l-34 -162h-124l-89 -417h124l-35 -164h-460l35 164h123l89 417h-124l35 162h460z" />
    <glyph glyph-name="Idieresis.ss03" horiz-adv-x="474" 
d="M223 801c-63 0 -88 26 -77 76c11 52 46 77 109 77c64 0 87 -25 76 -77c-10 -50 -44 -76 -108 -76zM508 954c65 0 87 -25 77 -77c-11 -50 -44 -76 -108 -76c-63 0 -88 26 -78 76c11 52 46 77 109 77zM102 743h460l-34 -162h-124l-89 -417h124l-35 -164h-460l35 164h123
l89 417h-124z" />
    <glyph glyph-name="Idotaccent.ss03" horiz-adv-x="474" 
d="M344 799c-62 0 -85 21 -76 63s40 63 103 63s84 -21 75 -63c-8 -42 -38 -63 -102 -63zM562 743l-34 -162h-124l-89 -417h124l-35 -164h-460l35 164h123l89 417h-124l35 162h460z" />
    <glyph glyph-name="uni1ECA.ss03" horiz-adv-x="474" 
d="M562 743l-34 -162h-124l-89 -417h124l-35 -164h-460l35 164h123l89 417h-124l35 162h460zM186 -38c67 0 90 -19 81 -58c-8 -39 -39 -58 -106 -58s-91 19 -83 58c9 39 41 58 108 58z" />
    <glyph glyph-name="Igrave.ss03" horiz-adv-x="474" 
d="M422 968l66 -163h-121l-139 163h194zM562 743l-34 -162h-124l-89 -417h124l-35 -164h-460l35 164h123l89 417h-124l35 162h460z" />
    <glyph glyph-name="uni1EC8.ss03" horiz-adv-x="474" 
d="M362 904c-14 0 -23 -5 -29 -32h-71c13 69 57 105 124 105c63 0 89 -30 80 -70c-7 -33 -33 -67 -67 -107h-86c43 42 62 70 66 87c3 12 -5 17 -17 17zM562 743l-34 -162h-124l-89 -417h124l-35 -164h-460l35 164h123l89 417h-124l35 162h460z" />
    <glyph glyph-name="Imacron.ss03" horiz-adv-x="474" 
d="M156 916h422l-24 -114h-422zM102 743h460l-34 -162h-124l-89 -417h124l-35 -164h-460l35 164h123l89 417h-124z" />
    <glyph glyph-name="Iogonek.ss03" horiz-adv-x="474" 
d="M562 743l-34 -162h-124l-89 -417h124l-35 -164h-53c-100 -36 -139 -65 -146 -97c-3 -13 2 -25 24 -25c21 0 37 14 44 44h109c-19 -89 -73 -128 -185 -128c-97 0 -134 36 -122 94c10 47 64 86 168 112h-299l35 164h123l89 417h-124l35 162h460z" />
    <glyph glyph-name="Itilde.ss03" horiz-adv-x="474" 
d="M286 851c-23 0 -40 -15 -56 -44l-95 18c33 95 81 146 156 146c76 0 111 -51 148 -51c23 0 40 14 56 43l95 -18c-33 -95 -81 -146 -156 -146c-76 0 -111 52 -148 52zM102 743h460l-34 -162h-124l-89 -417h124l-35 -164h-460l35 164h123l89 417h-124z" />
    <glyph glyph-name="J.ss03" horiz-adv-x="671" 
d="M186 -18c-98 0 -180 19 -227 39l66 155c34 -13 100 -29 165 -29c106 0 174 51 198 166l91 430h226l-92 -436c-53 -249 -229 -325 -427 -325z" />
    <glyph glyph-name="Jcircumflex.ss03" horiz-adv-x="671" 
d="M476 806h-110l149 162h159l80 -162h-110l-67 78zM186 -18c-98 0 -180 19 -227 39l66 155c34 -13 100 -29 165 -29c106 0 174 51 198 166l91 430h226l-92 -436c-53 -249 -229 -325 -427 -325z" />
    <glyph glyph-name="K.ss03" horiz-adv-x="891" 
d="M244 0h-226l158 743h226l-76 -359h3l45 49l306 310h261l-324 -312l200 -431h-259l-100 238l-21 49h-2l-158 -135z" />
    <glyph glyph-name="uni0136.ss03" horiz-adv-x="891" 
d="M244 0h-226l158 743h226l-76 -359h3l45 49l306 310h261l-324 -312l200 -431h-259l-100 238l-21 49h-2l-158 -135zM257 -199l15 45c60 -2 79 3 87 30c-68 0 -96 14 -84 51c12 39 50 53 118 53c72 0 100 -17 85 -64c-32 -99 -114 -125 -221 -115z" />
    <glyph glyph-name="R.ss03" horiz-adv-x="879" 
d="M244 0h-226l158 743h427c224 0 322 -97 294 -232l-3 -12c-21 -100 -93 -150 -190 -175v-3c63 -17 76 -59 76 -134l5 -187h-228l-1 147c-1 67 -24 90 -122 90h-139zM368 581l-40 -190h199c74 0 123 25 139 96l2 13c11 48 -25 81 -106 81h-194z" />
    <glyph glyph-name="Racute.ss03" horiz-adv-x="879" 
d="M685 968l-139 -163h-121l66 163h194zM244 0h-226l158 743h427c224 0 322 -97 294 -232l-3 -12c-21 -100 -93 -150 -190 -175v-3c63 -17 76 -59 76 -134l5 -187h-228l-1 147c-1 67 -24 90 -122 90h-139zM368 581l-40 -190h199c74 0 123 25 139 96l2 13
c11 48 -25 81 -106 81h-194z" />
    <glyph glyph-name="Rcaron.ss03" horiz-adv-x="879" 
d="M483 800l-81 163h110l68 -79l100 79h110l-148 -163h-159zM244 0h-226l158 743h427c224 0 322 -97 294 -232l-3 -12c-21 -100 -93 -150 -190 -175v-3c63 -17 76 -59 76 -134l5 -187h-228l-1 147c-1 67 -24 90 -122 90h-139zM368 581l-40 -190h199c74 0 123 25 139 96l2 13
c11 48 -25 81 -106 81h-194z" />
    <glyph glyph-name="uni0156.ss03" horiz-adv-x="879" 
d="M244 0h-226l158 743h427c224 0 322 -97 294 -232l-3 -12c-21 -100 -93 -150 -190 -175v-3c63 -17 76 -59 76 -134l5 -187h-228l-1 147c-1 67 -24 90 -122 90h-139zM368 581l-40 -190h199c74 0 123 25 139 96l2 13c11 48 -25 81 -106 81h-194zM266 -199l15 45
c60 -2 79 3 87 30c-68 0 -96 14 -84 51c12 39 50 53 118 53c72 0 100 -17 85 -64c-32 -99 -114 -125 -221 -115z" />
    <glyph glyph-name="uni1E5A.ss03" horiz-adv-x="879" 
d="M244 0h-226l158 743h427c224 0 322 -97 294 -232l-3 -12c-21 -100 -93 -150 -190 -175v-3c63 -17 76 -59 76 -134l5 -187h-228l-1 147c-1 67 -24 90 -122 90h-139zM368 581l-40 -190h199c74 0 123 25 139 96l2 13c11 48 -25 81 -106 81h-194zM378 -154
c-67 0 -91 19 -83 58c9 39 41 58 108 58s90 -19 81 -58c-8 -39 -39 -58 -106 -58z" />
    <glyph glyph-name="uni1E5C.ss03" horiz-adv-x="879" 
d="M772 802h-422l24 114h422zM244 0h-226l158 743h427c224 0 322 -97 294 -232l-3 -12c-21 -100 -93 -150 -190 -175v-3c63 -17 76 -59 76 -134l5 -187h-228l-1 147c-1 67 -24 90 -122 90h-139zM368 581l-40 -190h199c74 0 123 25 139 96l2 13c11 48 -25 81 -106 81h-194z
M378 -154c-67 0 -91 19 -83 58c9 39 41 58 108 58s90 -19 81 -58c-8 -39 -39 -58 -106 -58z" />
    <glyph glyph-name="uni1E5E.ss03" horiz-adv-x="879" 
d="M244 0h-226l158 743h427c224 0 322 -97 294 -232l-3 -12c-21 -100 -93 -150 -190 -175v-3c63 -17 76 -59 76 -134l5 -187h-228l-1 147c-1 67 -24 90 -122 90h-139zM368 581l-40 -190h199c74 0 123 25 139 96l2 13c11 48 -25 81 -106 81h-194zM605 -131h-423l24 90h422z
" />
    <glyph glyph-name="J.ss04" horiz-adv-x="600" 
 />
    <glyph glyph-name="aacute" unicode="&#xe1;" horiz-adv-x="792" 
d="M441 831h193l-138 -163h-122zM457 610c277 0 313 -123 279 -283l-70 -327h-203l12 58l23 63h-4c-62 -87 -158 -139 -276 -139c-194 0 -228 100 -207 198l2 10c22 103 113 181 317 181c89 0 166 -17 204 -31l6 25c17 67 -17 113 -118 113c-91 0 -135 -42 -146 -81l-1 -5
h-196l1 5c29 96 122 213 377 213zM313 127c104 0 167 49 194 109c-36 17 -99 28 -149 28c-103 0 -137 -32 -144 -66l-2 -10c-7 -32 19 -61 101 -61z" />
    <glyph glyph-name="abreve" unicode="&#x103;" horiz-adv-x="792" 
d="M473 665c-139 0 -186 59 -151 181h120c-18 -59 -2 -87 51 -87c54 0 81 28 89 87h120c-17 -122 -89 -181 -229 -181zM457 610c277 0 313 -123 279 -283l-70 -327h-203l12 58l23 63h-4c-62 -87 -158 -139 -276 -139c-194 0 -228 100 -207 198l2 10c22 103 113 181 317 181
c89 0 166 -17 204 -31l6 25c17 67 -17 113 -118 113c-91 0 -135 -42 -146 -81l-1 -5h-196l1 5c29 96 122 213 377 213zM313 127c104 0 167 49 194 109c-36 17 -99 28 -149 28c-103 0 -137 -32 -144 -66l-2 -10c-7 -32 19 -61 101 -61z" />
    <glyph glyph-name="uni1EAF" unicode="&#x1eaf;" horiz-adv-x="792" 
d="M521 989l155 1l-165 -131l-97 -1zM473 665c-139 0 -186 59 -152 181h121c-18 -59 -3 -87 51 -87c53 0 81 28 89 87h120c-17 -123 -89 -181 -229 -181zM457 610c277 0 313 -123 279 -283l-70 -327h-203l12 58l23 63h-4c-62 -87 -158 -139 -276 -139
c-194 0 -228 100 -207 198l2 10c22 103 113 181 317 181c89 0 166 -17 204 -31l6 25c17 67 -17 113 -118 113c-91 0 -135 -42 -146 -81l-1 -5h-196l1 5c29 96 122 213 377 213zM313 127c104 0 167 49 194 109c-36 17 -99 28 -149 28c-103 0 -137 -32 -144 -66l-2 -10
c-7 -32 19 -61 101 -61z" />
    <glyph glyph-name="uni1EB7" unicode="&#x1eb7;" horiz-adv-x="792" 
d="M473 665c-139 0 -186 59 -151 181h120c-18 -59 -2 -87 51 -87c54 0 81 28 89 87h120c-17 -122 -89 -181 -229 -181zM457 610c277 0 313 -123 279 -283l-70 -327h-203l12 58l23 63h-4c-62 -87 -158 -139 -276 -139c-194 0 -228 100 -207 198l2 10c22 103 113 181 317 181
c89 0 166 -17 204 -31l6 25c17 67 -17 113 -118 113c-91 0 -135 -42 -146 -81l-1 -5h-196l1 5c29 96 122 213 377 213zM313 127c104 0 167 49 194 109c-36 17 -99 28 -149 28c-103 0 -137 -32 -144 -66l-2 -10c-7 -32 19 -61 101 -61zM344 -38c67 0 90 -19 81 -58
c-8 -39 -39 -58 -106 -58s-91 19 -83 58c9 39 41 58 108 58z" />
    <glyph glyph-name="uni1EB1" unicode="&#x1eb1;" horiz-adv-x="792" 
d="M563 989l52 -131l-97 1l-109 131zM474 665c-140 0 -188 58 -153 181h120c-17 -59 -2 -87 52 -87s81 28 89 87h120c-17 -122 -89 -181 -228 -181zM457 610c277 0 313 -123 279 -283l-70 -327h-203l12 58l23 63h-4c-62 -87 -158 -139 -276 -139c-194 0 -228 100 -207 198
l2 10c22 103 113 181 317 181c89 0 166 -17 204 -31l6 25c17 67 -17 113 -118 113c-91 0 -135 -42 -146 -81l-1 -5h-196l1 5c29 96 122 213 377 213zM313 127c104 0 167 49 194 109c-36 17 -99 28 -149 28c-103 0 -137 -32 -144 -66l-2 -10c-7 -32 19 -61 101 -61z" />
    <glyph glyph-name="uni1EB3" unicode="&#x1eb3;" horiz-adv-x="792" 
d="M541 943c-11 0 -18 -4 -23 -25h-56c11 54 45 82 98 82c49 0 69 -23 62 -55c-6 -26 -25 -52 -52 -83h-67c33 32 48 54 51 68c3 9 -4 13 -13 13zM473 665c-139 0 -186 59 -151 181h120c-18 -59 -2 -87 51 -87c54 0 81 28 89 87h120c-17 -122 -89 -181 -229 -181zM457 610
c277 0 313 -123 279 -283l-70 -327h-203l12 58l23 63h-4c-62 -87 -158 -139 -276 -139c-194 0 -228 100 -207 198l2 10c22 103 113 181 317 181c89 0 166 -17 204 -31l6 25c17 67 -17 113 -118 113c-91 0 -135 -42 -146 -81l-1 -5h-196l1 5c29 96 122 213 377 213zM313 127
c104 0 167 49 194 109c-36 17 -99 28 -149 28c-103 0 -137 -32 -144 -66l-2 -10c-7 -32 19 -61 101 -61z" />
    <glyph glyph-name="uni1EB5" unicode="&#x1eb5;" horiz-adv-x="792" 
d="M490 926c-18 0 -31 -11 -43 -33l-73 13c26 73 62 112 119 112c59 0 86 -39 114 -39c18 0 31 11 43 33l73 -14c-26 -73 -62 -112 -120 -112s-85 40 -113 40zM472 665c-139 0 -186 59 -151 181h120c-18 -59 -2 -87 51 -87c54 0 81 28 89 87h120
c-17 -122 -89 -181 -229 -181zM457 610c277 0 313 -123 279 -283l-70 -327h-203l12 58l23 63h-4c-62 -87 -158 -139 -276 -139c-194 0 -228 100 -207 198l2 10c22 103 113 181 317 181c89 0 166 -17 204 -31l6 25c17 67 -17 113 -118 113c-91 0 -135 -42 -146 -81l-1 -5
h-196l1 5c29 96 122 213 377 213zM313 127c104 0 167 49 194 109c-36 17 -99 28 -149 28c-103 0 -137 -32 -144 -66l-2 -10c-7 -32 19 -61 101 -61z" />
    <glyph glyph-name="uni01CE" unicode="&#x1ce;" horiz-adv-x="792" 
d="M703 828l-149 -163h-159l-80 163h110l67 -79l101 79h110zM457 610c277 0 313 -123 279 -283l-70 -327h-203l12 58l23 63h-4c-62 -87 -158 -139 -276 -139c-194 0 -228 100 -207 198l2 10c22 103 113 181 317 181c89 0 166 -17 204 -31l6 25c17 67 -17 113 -118 113
c-91 0 -135 -42 -146 -81l-1 -5h-196l1 5c29 96 122 213 377 213zM313 127c104 0 167 49 194 109c-36 17 -99 28 -149 28c-103 0 -137 -32 -144 -66l-2 -10c-7 -32 19 -61 101 -61z" />
    <glyph glyph-name="acircumflex" unicode="&#xe2;" horiz-adv-x="792" 
d="M558 667l-67 79l-101 -79h-110l149 163h159l80 -163h-110zM457 610c277 0 313 -123 279 -283l-70 -327h-203l12 58l23 63h-4c-62 -87 -158 -139 -276 -139c-194 0 -228 100 -207 198l2 10c22 103 113 181 317 181c89 0 166 -17 204 -31l6 25c17 67 -17 113 -118 113
c-91 0 -135 -42 -146 -81l-1 -5h-196l1 5c29 96 122 213 377 213zM313 127c104 0 167 49 194 109c-36 17 -99 28 -149 28c-103 0 -137 -32 -144 -66l-2 -10c-7 -32 19 -61 101 -61z" />
    <glyph glyph-name="uni1EA5" unicode="&#x1ea5;" horiz-adv-x="792" 
d="M735 869l135 -1l-148 -128h-85zM559 667l-67 79l-101 -79h-110l150 163h159l79 -163h-110zM457 610c277 0 313 -123 279 -283l-70 -327h-203l12 58l23 63h-4c-62 -87 -158 -139 -276 -139c-194 0 -228 100 -207 198l2 10c22 103 113 181 317 181c89 0 166 -17 204 -31
l6 25c17 67 -17 113 -118 113c-91 0 -135 -42 -146 -81l-1 -5h-196l1 5c29 96 122 213 377 213zM313 127c104 0 167 49 194 109c-36 17 -99 28 -149 28c-103 0 -137 -32 -144 -66l-2 -10c-7 -32 19 -61 101 -61z" />
    <glyph glyph-name="uni1EAD" unicode="&#x1ead;" horiz-adv-x="792" 
d="M558 667l-67 79l-101 -79h-110l149 163h159l80 -163h-110zM457 610c277 0 313 -123 279 -283l-70 -327h-203l12 58l23 63h-4c-62 -87 -158 -139 -276 -139c-194 0 -228 100 -207 198l2 10c22 103 113 181 317 181c89 0 166 -17 204 -31l6 25c17 67 -17 113 -118 113
c-91 0 -135 -42 -146 -81l-1 -5h-196l1 5c29 96 122 213 377 213zM313 127c104 0 167 49 194 109c-36 17 -99 28 -149 28c-103 0 -137 -32 -144 -66l-2 -10c-7 -32 19 -61 101 -61zM344 -38c67 0 90 -19 81 -58c-8 -39 -39 -58 -106 -58s-91 19 -83 58c9 39 41 58 108 58z
" />
    <glyph glyph-name="uni1EA7" unicode="&#x1ea7;" horiz-adv-x="792" 
d="M704 945l43 -131h-85l-93 131h135zM558 667l-67 79l-101 -79h-110l149 163h159l80 -163h-110zM457 610c277 0 313 -123 279 -283l-70 -327h-203l12 58l23 63h-4c-62 -87 -158 -139 -276 -139c-194 0 -228 100 -207 198l2 10c22 103 113 181 317 181c89 0 166 -17 204 -31
l6 25c17 67 -17 113 -118 113c-91 0 -135 -42 -146 -81l-1 -5h-196l1 5c29 96 122 213 377 213zM313 127c104 0 167 49 194 109c-36 17 -99 28 -149 28c-103 0 -137 -32 -144 -66l-2 -10c-7 -32 19 -61 101 -61z" />
    <glyph glyph-name="uni1EA9" unicode="&#x1ea9;" horiz-adv-x="792" 
d="M726 898c50 0 70 -24 62 -55c-5 -26 -25 -53 -52 -84h-67c33 32 48 54 51 68c3 10 -3 14 -13 14c-11 0 -18 -5 -23 -26h-56c11 54 45 83 98 83zM559 667l-68 79l-100 -79h-110l149 163h159l80 -163h-110zM457 610c277 0 313 -123 279 -283l-70 -327h-203l12 58l23 63h-4
c-62 -87 -158 -139 -276 -139c-194 0 -228 100 -207 198l2 10c22 103 113 181 317 181c89 0 166 -17 204 -31l6 25c17 67 -17 113 -118 113c-91 0 -135 -42 -146 -81l-1 -5h-196l1 5c29 96 122 213 377 213zM313 127c104 0 167 49 194 109c-36 17 -99 28 -149 28
c-103 0 -137 -32 -144 -66l-2 -10c-7 -32 19 -61 101 -61z" />
    <glyph glyph-name="uni1EAB" unicode="&#x1eab;" horiz-adv-x="792" 
d="M496 906c-16 0 -28 -10 -39 -30l-67 12c23 67 57 103 109 103c53 0 78 -36 104 -36c16 0 28 10 39 30l67 -13c-23 -66 -57 -102 -109 -102c-54 0 -78 36 -104 36zM559 667l-68 79l-100 -79h-110l149 163h159l80 -163h-110zM457 610c277 0 313 -123 279 -283l-70 -327
h-203l12 58l23 63h-4c-62 -87 -158 -139 -276 -139c-194 0 -228 100 -207 198l2 10c22 103 113 181 317 181c89 0 166 -17 204 -31l6 25c17 67 -17 113 -118 113c-91 0 -135 -42 -146 -81l-1 -5h-196l1 5c29 96 122 213 377 213zM313 127c104 0 167 49 194 109
c-36 17 -99 28 -149 28c-103 0 -137 -32 -144 -66l-2 -10c-7 -32 19 -61 101 -61z" />
    <glyph glyph-name="adieresis" unicode="&#xe4;" horiz-adv-x="792" 
d="M344 667c-71 0 -101 27 -89 87c11 61 52 88 122 88c71 0 100 -27 89 -88c-12 -60 -52 -87 -122 -87zM623 667c-70 0 -100 27 -89 87c12 61 53 88 123 88c71 0 100 -27 89 -88c-12 -60 -52 -87 -123 -87zM457 610c277 0 313 -123 279 -283l-70 -327h-203l12 58l23 63h-4
c-62 -87 -158 -139 -276 -139c-194 0 -228 100 -207 198l2 10c22 103 113 181 317 181c89 0 166 -17 204 -31l6 25c17 67 -17 113 -118 113c-91 0 -135 -42 -146 -81l-1 -5h-196l1 5c29 96 122 213 377 213zM313 127c104 0 167 49 194 109c-36 17 -99 28 -149 28
c-103 0 -137 -32 -144 -66l-2 -10c-7 -32 19 -61 101 -61z" />
    <glyph glyph-name="uni1EA1" unicode="&#x1ea1;" horiz-adv-x="792" 
d="M457 610c277 0 313 -123 279 -283l-70 -327h-203l12 58l23 63h-4c-62 -87 -158 -139 -276 -139c-194 0 -228 100 -207 198l2 10c22 103 113 181 317 181c89 0 166 -17 204 -31l6 25c17 67 -17 113 -118 113c-91 0 -135 -42 -146 -81l-1 -5h-196l1 5
c29 96 122 213 377 213zM313 127c104 0 167 49 194 109c-36 17 -99 28 -149 28c-103 0 -137 -32 -144 -66l-2 -10c-7 -32 19 -61 101 -61zM344 -38c67 0 90 -19 81 -58c-8 -39 -39 -58 -106 -58s-91 19 -83 58c9 39 41 58 108 58z" />
    <glyph glyph-name="agrave" unicode="&#xe0;" horiz-adv-x="792" 
d="M551 831l66 -163h-121l-139 163h194zM457 610c277 0 313 -123 279 -283l-70 -327h-203l12 58l23 63h-4c-62 -87 -158 -139 -276 -139c-194 0 -228 100 -207 198l2 10c22 103 113 181 317 181c89 0 166 -17 204 -31l6 25c17 67 -17 113 -118 113c-91 0 -135 -42 -146 -81
l-1 -5h-196l1 5c29 96 122 213 377 213zM313 127c104 0 167 49 194 109c-36 17 -99 28 -149 28c-103 0 -137 -32 -144 -66l-2 -10c-7 -32 19 -61 101 -61z" />
    <glyph glyph-name="uni1EA3" unicode="&#x1ea3;" horiz-adv-x="792" 
d="M493 773c-14 0 -23 -5 -29 -32h-71c13 69 57 105 124 105c63 0 89 -30 80 -71c-7 -33 -33 -67 -67 -106h-86c43 41 62 69 66 87c3 12 -5 17 -17 17zM457 610c277 0 313 -123 279 -283l-70 -327h-203l12 58l23 63h-4c-62 -87 -158 -139 -276 -139
c-194 0 -228 100 -207 198l2 10c22 103 113 181 317 181c89 0 166 -17 204 -31l6 25c17 67 -17 113 -118 113c-91 0 -135 -42 -146 -81l-1 -5h-196l1 5c29 96 122 213 377 213zM313 127c104 0 167 49 194 109c-36 17 -99 28 -149 28c-103 0 -137 -32 -144 -66l-2 -10
c-7 -32 19 -61 101 -61z" />
    <glyph glyph-name="amacron" unicode="&#x101;" horiz-adv-x="792" 
d="M287 781h422l-24 -113h-422zM457 610c277 0 313 -123 279 -283l-70 -327h-203l12 58l23 63h-4c-62 -87 -158 -139 -276 -139c-194 0 -228 100 -207 198l2 10c22 103 113 181 317 181c89 0 166 -17 204 -31l6 25c17 67 -17 113 -118 113c-91 0 -135 -42 -146 -81l-1 -5
h-196l1 5c29 96 122 213 377 213zM313 127c104 0 167 49 194 109c-36 17 -99 28 -149 28c-103 0 -137 -32 -144 -66l-2 -10c-7 -32 19 -61 101 -61z" />
    <glyph glyph-name="aogonek" unicode="&#x105;" horiz-adv-x="792" 
d="M666 0h-1c-100 -36 -139 -65 -146 -97c-3 -13 2 -25 24 -25c21 0 37 14 44 44h109c-19 -89 -73 -128 -185 -128c-97 0 -134 36 -122 94c10 47 64 86 168 112h-94l12 58l23 63h-4c-62 -87 -158 -139 -276 -139c-194 0 -228 100 -207 198l2 10c22 103 113 181 317 181
c89 0 166 -17 204 -31l6 25c17 67 -17 113 -118 113c-91 0 -135 -42 -146 -81l-1 -5h-196l1 5c29 96 122 213 377 213c277 0 313 -123 279 -283zM313 127c104 0 167 49 194 109c-36 17 -99 28 -149 28c-103 0 -137 -32 -144 -66l-2 -10c-7 -32 19 -61 101 -61z" />
    <glyph glyph-name="aring" unicode="&#xe5;" horiz-adv-x="792" 
d="M473 662c-111 0 -154 35 -138 109c16 73 73 109 184 109c110 0 153 -36 137 -109c-16 -74 -74 -109 -183 -109zM446 771c-7 -31 10 -43 41 -43c30 0 52 12 59 43c6 31 -11 43 -41 43c-31 0 -53 -12 -59 -43zM457 610c277 0 313 -123 279 -283l-70 -327h-203l12 58l23 63
h-4c-62 -87 -158 -139 -276 -139c-194 0 -228 100 -207 198l2 10c22 103 113 181 317 181c89 0 166 -17 204 -31l6 25c17 67 -17 113 -118 113c-91 0 -135 -42 -146 -81l-1 -5h-196l1 5c29 96 122 213 377 213zM313 127c104 0 167 49 194 109c-36 17 -99 28 -149 28
c-103 0 -137 -32 -144 -66l-2 -10c-7 -32 19 -61 101 -61z" />
    <glyph glyph-name="aringacute" unicode="&#x1fb;" horiz-adv-x="792" 
d="M550 1011h135l-144 -113h-86zM474 668c-110 0 -153 35 -137 108c15 74 73 110 184 110c109 0 152 -36 137 -110c-16 -73 -75 -108 -184 -108zM447 776c-7 -30 11 -42 41 -42c31 0 53 12 59 42c7 32 -10 44 -40 44c-31 0 -54 -12 -60 -44zM457 610
c277 0 313 -123 279 -283l-70 -327h-203l12 58l23 63h-4c-62 -87 -158 -139 -276 -139c-194 0 -228 100 -207 198l2 10c22 103 113 181 317 181c89 0 166 -17 204 -31l6 25c17 67 -17 113 -118 113c-91 0 -135 -42 -146 -81l-1 -5h-196l1 5c29 96 122 213 377 213zM313 127
c104 0 167 49 194 109c-36 17 -99 28 -149 28c-103 0 -137 -32 -144 -66l-2 -10c-7 -32 19 -61 101 -61z" />
    <glyph glyph-name="atilde" unicode="&#xe3;" horiz-adv-x="792" 
d="M415 716c-23 0 -40 -14 -56 -43l-95 17c33 96 81 146 155 146c76 0 112 -51 149 -51c23 0 40 14 55 43l96 -18c-33 -95 -82 -146 -156 -146c-76 0 -111 52 -148 52zM457 610c277 0 313 -123 279 -283l-70 -327h-203l12 58l23 63h-4c-62 -87 -158 -139 -276 -139
c-194 0 -228 100 -207 198l2 10c22 103 113 181 317 181c89 0 166 -17 204 -31l6 25c17 67 -17 113 -118 113c-91 0 -135 -42 -146 -81l-1 -5h-196l1 5c29 96 122 213 377 213zM313 127c104 0 167 49 194 109c-36 17 -99 28 -149 28c-103 0 -137 -32 -144 -66l-2 -10
c-7 -32 19 -61 101 -61z" />
    <glyph glyph-name="aeacute" unicode="&#x1fd;" horiz-adv-x="1276" 
d="M640 831h193l-138 -163h-122zM945 610c228 0 338 -110 295 -311l-6 -30l-4 -18h-509c-8 -84 41 -121 127 -121c94 0 146 29 170 81l2 4h200l-2 -4c-44 -127 -167 -229 -396 -229c-151 0 -255 54 -292 150h-7c-69 -90 -194 -150 -307 -150c-195 0 -226 100 -205 195v1
c23 112 115 193 319 193c89 0 166 -17 204 -31l6 25c17 67 -17 113 -118 113c-91 0 -135 -42 -147 -83v-1h-197l1 1c30 98 123 215 378 215c118 0 190 -24 231 -66c69 43 156 66 257 66zM923 470c-82 0 -140 -28 -173 -102h303c0 67 -44 102 -130 102zM321 130
c107 0 169 55 191 112c-42 15 -110 29 -155 29c-97 0 -133 -30 -141 -66v-1c-9 -44 17 -74 105 -74z" />
    <glyph glyph-name="cacute" unicode="&#x107;" horiz-adv-x="776" 
d="M632 831l-138 -163h-122l67 163h193zM340 -17c-227 0 -350 104 -307 309l3 16c42 196 192 302 420 302c211 0 325 -95 302 -256v-3h-205l1 5c3 64 -36 103 -123 103c-92 0 -169 -52 -191 -152l-5 -23c-21 -102 34 -151 125 -151c90 0 146 41 170 104l1 7h204l-1 -5
c-46 -165 -183 -256 -394 -256z" />
    <glyph glyph-name="ccaron" unicode="&#x10d;" horiz-adv-x="776" 
d="M393 665l-80 163h110l67 -79l101 79h110l-149 -163h-159zM340 -17c-227 0 -350 104 -307 309l3 16c42 196 192 302 420 302c211 0 325 -95 302 -256v-3h-205l1 5c3 64 -36 103 -123 103c-92 0 -169 -52 -191 -152l-5 -23c-21 -102 34 -151 125 -151c90 0 146 41 170 104
l1 7h204l-1 -5c-46 -165 -183 -256 -394 -256z" />
    <glyph glyph-name="ccedilla" unicode="&#xe7;" horiz-adv-x="776" 
d="M456 610c211 0 325 -95 302 -256v-3h-205l1 5c3 64 -36 103 -123 103c-92 0 -169 -52 -191 -152l-5 -23c-21 -102 34 -151 125 -151c90 0 146 41 170 104l1 7h204l-1 -5c-45 -161 -177 -252 -380 -256l-13 -23c44 8 125 -6 110 -78c-11 -53 -70 -92 -165 -92
s-143 31 -129 111h100c-6 -33 13 -41 42 -41c17 0 36 9 40 31c5 26 -18 38 -55 30l-22 20l27 44c-194 15 -296 118 -256 307l3 16c42 196 192 302 420 302z" />
    <glyph glyph-name="ccircumflex" unicode="&#x109;" horiz-adv-x="776" 
d="M388 667h-110l149 163h159l80 -163h-110l-67 79zM340 -17c-227 0 -350 104 -307 309l3 16c42 196 192 302 420 302c211 0 325 -95 302 -256v-3h-205l1 5c3 64 -36 103 -123 103c-92 0 -169 -52 -191 -152l-5 -23c-21 -102 34 -151 125 -151c90 0 146 41 170 104l1 7h204
l-1 -5c-46 -165 -183 -256 -394 -256z" />
    <glyph glyph-name="cdotaccent" unicode="&#x10b;" horiz-adv-x="776" 
d="M473 669c-79 0 -107 23 -97 70s48 70 127 70c78 0 105 -23 95 -70c-9 -47 -46 -70 -125 -70zM340 -17c-227 0 -350 104 -307 309l3 16c42 196 192 302 420 302c211 0 325 -95 302 -256v-3h-205l1 5c3 64 -36 103 -123 103c-92 0 -169 -52 -191 -152l-5 -23
c-21 -102 34 -151 125 -151c90 0 146 41 170 104l1 7h204l-1 -5c-46 -165 -183 -256 -394 -256z" />
    <glyph glyph-name="dcaron" unicode="&#x10f;" horiz-adv-x="918" 
d="M597 484l10 75l44 206h204l-163 -765h-204l7 36l22 71h-5c-65 -86 -158 -125 -255 -125c-192 0 -264 121 -225 307l3 16c39 185 165 305 356 305c99 0 173 -41 202 -126h4zM875 552l32 213h105l-52 -213h-85zM549 284l5 23c17 79 -22 152 -127 152
c-111 0 -170 -73 -188 -157l-3 -14c-20 -92 8 -155 120 -155c103 0 176 70 193 151z" />
    <glyph glyph-name="dcroat" unicode="&#x111;" horiz-adv-x="825" 
d="M846 725h52l-29 -94h-43l-134 -631h-204l7 36l22 71h-5c-65 -86 -158 -125 -255 -125c-192 0 -264 121 -225 307l3 16c39 185 165 305 356 305c99 0 173 -41 202 -126h4l10 75l15 72h-237l28 94h229l9 40h204zM549 284l5 23c17 79 -22 152 -127 152
c-111 0 -170 -73 -188 -157l-3 -14c-20 -92 8 -155 120 -155c103 0 176 70 193 151z" />
    <glyph glyph-name="uni1E0D" unicode="&#x1e0d;" horiz-adv-x="825" 
d="M607 559l44 206h204l-163 -765h-204l7 36l22 71h-5c-65 -86 -158 -125 -255 -125c-192 0 -264 121 -225 307l3 16c39 185 165 305 356 305c99 0 173 -41 202 -126h4zM549 284l5 23c17 79 -22 152 -127 152c-111 0 -170 -73 -188 -157l-3 -14c-20 -92 8 -155 120 -155
c103 0 176 70 193 151zM360 -38c67 0 90 -19 81 -58c-8 -39 -39 -58 -106 -58s-91 19 -83 58c9 39 41 58 108 58z" />
    <glyph glyph-name="uni1E0F" unicode="&#x1e0f;" horiz-adv-x="825" 
d="M607 559l44 206h204l-163 -765h-204l7 36l22 71h-5c-65 -86 -158 -125 -255 -125c-192 0 -264 121 -225 307l3 16c39 185 165 305 356 305c99 0 173 -41 202 -126h4zM549 284l5 23c17 79 -22 152 -127 152c-111 0 -170 -73 -188 -157l-3 -14c-20 -92 8 -155 120 -155
c103 0 176 70 193 151zM562 -131h-423l24 90h422z" />
    <glyph glyph-name="eacute" unicode="&#xe9;" horiz-adv-x="785" 
d="M440 831h193l-138 -163h-122zM453 610c228 0 338 -110 296 -311l-7 -30l-4 -18h-509c-7 -84 42 -121 128 -121c93 0 146 29 169 81l2 4h200l-2 -4c-44 -127 -167 -229 -396 -229c-221 0 -339 115 -297 308l5 28c38 178 192 292 415 292zM431 470
c-81 0 -139 -28 -172 -102h302c1 67 -43 102 -130 102z" />
    <glyph glyph-name="ebreve" unicode="&#x115;" horiz-adv-x="785" 
d="M472 665c-139 0 -186 59 -151 181h120c-18 -59 -2 -87 51 -87c54 0 81 28 89 87h120c-17 -122 -89 -181 -229 -181zM453 610c228 0 338 -110 296 -311l-7 -30l-4 -18h-509c-7 -84 42 -121 128 -121c93 0 146 29 169 81l2 4h200l-2 -4c-44 -127 -167 -229 -396 -229
c-221 0 -339 115 -297 308l5 28c38 178 192 292 415 292zM431 470c-81 0 -139 -28 -172 -102h302c1 67 -43 102 -130 102z" />
    <glyph glyph-name="ecaron" unicode="&#x11b;" horiz-adv-x="785" 
d="M701 828l-149 -163h-159l-80 163h110l67 -79l101 79h110zM453 610c228 0 338 -110 296 -311l-7 -30l-4 -18h-509c-7 -84 42 -121 128 -121c93 0 146 29 169 81l2 4h200l-2 -4c-44 -127 -167 -229 -396 -229c-221 0 -339 115 -297 308l5 28c38 178 192 292 415 292z
M431 470c-81 0 -139 -28 -172 -102h302c1 67 -43 102 -130 102z" />
    <glyph glyph-name="ecircumflex" unicode="&#xea;" horiz-adv-x="785" 
d="M557 667l-67 79l-101 -79h-110l149 163h159l80 -163h-110zM453 610c228 0 338 -110 296 -311l-7 -30l-4 -18h-509c-7 -84 42 -121 128 -121c93 0 146 29 169 81l2 4h200l-2 -4c-44 -127 -167 -229 -396 -229c-221 0 -339 115 -297 308l5 28c38 178 192 292 415 292z
M431 470c-81 0 -139 -28 -172 -102h302c1 67 -43 102 -130 102z" />
    <glyph glyph-name="uni1EBF" unicode="&#x1ebf;" horiz-adv-x="785" 
d="M733 869l135 -1l-148 -128h-85zM557 667l-67 79l-101 -79h-110l150 163h159l79 -163h-110zM453 610c228 0 338 -110 296 -311l-7 -30l-4 -18h-509c-7 -84 42 -121 128 -121c93 0 146 29 169 81l2 4h200l-2 -4c-44 -127 -167 -229 -396 -229c-221 0 -339 115 -297 308
l5 28c38 178 192 292 415 292zM431 470c-81 0 -139 -28 -172 -102h302c1 67 -43 102 -130 102z" />
    <glyph glyph-name="uni1EC7" unicode="&#x1ec7;" horiz-adv-x="785" 
d="M557 667l-67 79l-101 -79h-110l149 163h159l80 -163h-110zM453 610c228 0 338 -110 296 -311l-7 -30l-4 -18h-509c-7 -84 42 -121 128 -121c93 0 146 29 169 81l2 4h200l-2 -4c-44 -127 -167 -229 -396 -229c-221 0 -339 115 -297 308l5 28c38 178 192 292 415 292z
M431 470c-81 0 -139 -28 -172 -102h302c1 67 -43 102 -130 102zM342 -38c67 0 90 -19 81 -58c-8 -39 -39 -58 -106 -58s-91 19 -83 58c9 39 41 58 108 58z" />
    <glyph glyph-name="uni1EC1" unicode="&#x1ec1;" horiz-adv-x="785" 
d="M703 945l43 -131h-85l-93 131h135zM557 667l-67 79l-101 -79h-110l149 163h159l80 -163h-110zM453 610c228 0 338 -110 296 -311l-7 -30l-4 -18h-509c-7 -84 42 -121 128 -121c93 0 146 29 169 81l2 4h200l-2 -4c-44 -127 -167 -229 -396 -229c-221 0 -339 115 -297 308
l5 28c38 178 192 292 415 292zM431 470c-81 0 -139 -28 -172 -102h302c1 67 -43 102 -130 102z" />
    <glyph glyph-name="uni1EC3" unicode="&#x1ec3;" horiz-adv-x="785" 
d="M725 898c50 0 70 -24 62 -55c-5 -26 -25 -53 -52 -84h-67c33 32 48 54 51 68c3 10 -3 14 -13 14c-11 0 -18 -5 -23 -26h-56c11 54 45 83 98 83zM558 667l-68 79l-100 -79h-110l149 163h159l80 -163h-110zM453 610c228 0 338 -110 296 -311l-7 -30l-4 -18h-509
c-7 -84 42 -121 128 -121c93 0 146 29 169 81l2 4h200l-2 -4c-44 -127 -167 -229 -396 -229c-221 0 -339 115 -297 308l5 28c38 178 192 292 415 292zM431 470c-81 0 -139 -28 -172 -102h302c1 67 -43 102 -130 102z" />
    <glyph glyph-name="uni1EC5" unicode="&#x1ec5;" horiz-adv-x="785" 
d="M494 906c-16 0 -28 -10 -39 -30l-67 12c23 67 57 103 109 103c53 0 78 -36 104 -36c16 0 28 10 39 30l67 -13c-23 -66 -57 -102 -109 -102c-54 0 -78 36 -104 36zM557 667l-68 79l-100 -79h-110l149 163h159l80 -163h-110zM453 610c228 0 338 -110 296 -311l-7 -30
l-4 -18h-509c-7 -84 42 -121 128 -121c93 0 146 29 169 81l2 4h200l-2 -4c-44 -127 -167 -229 -396 -229c-221 0 -339 115 -297 308l5 28c38 178 192 292 415 292zM431 470c-81 0 -139 -28 -172 -102h302c1 67 -43 102 -130 102z" />
    <glyph glyph-name="edieresis" unicode="&#xeb;" horiz-adv-x="785" 
d="M343 667c-71 0 -101 27 -89 87c11 61 52 88 122 88c71 0 100 -27 89 -88c-12 -60 -52 -87 -122 -87zM622 667c-70 0 -100 27 -89 87c12 61 53 88 123 88c71 0 100 -27 89 -88c-12 -60 -52 -87 -123 -87zM453 610c228 0 338 -110 296 -311l-7 -30l-4 -18h-509
c-7 -84 42 -121 128 -121c93 0 146 29 169 81l2 4h200l-2 -4c-44 -127 -167 -229 -396 -229c-221 0 -339 115 -297 308l5 28c38 178 192 292 415 292zM431 470c-81 0 -139 -28 -172 -102h302c1 67 -43 102 -130 102z" />
    <glyph glyph-name="edotaccent" unicode="&#x117;" horiz-adv-x="785" 
d="M473 669c-79 0 -107 23 -97 70s48 70 127 70c78 0 105 -23 95 -70c-9 -47 -46 -70 -125 -70zM453 610c228 0 338 -110 296 -311l-7 -30l-4 -18h-509c-7 -84 42 -121 128 -121c93 0 146 29 169 81l2 4h200l-2 -4c-44 -127 -167 -229 -396 -229c-221 0 -339 115 -297 308
l5 28c38 178 192 292 415 292zM431 470c-81 0 -139 -28 -172 -102h302c1 67 -43 102 -130 102z" />
    <glyph glyph-name="uni1EB9" unicode="&#x1eb9;" horiz-adv-x="785" 
d="M453 610c228 0 338 -110 296 -311l-7 -30l-4 -18h-509c-7 -84 42 -121 128 -121c93 0 146 29 169 81l2 4h200l-2 -4c-44 -127 -167 -229 -396 -229c-221 0 -339 115 -297 308l5 28c38 178 192 292 415 292zM431 470c-81 0 -139 -28 -172 -102h302c1 67 -43 102 -130 102z
M342 -38c67 0 90 -19 81 -58c-8 -39 -39 -58 -106 -58s-91 19 -83 58c9 39 41 58 108 58z" />
    <glyph glyph-name="egrave" unicode="&#xe8;" horiz-adv-x="785" 
d="M549 831l66 -163h-121l-139 163h194zM453 610c228 0 338 -110 296 -311l-7 -30l-4 -18h-509c-7 -84 42 -121 128 -121c93 0 146 29 169 81l2 4h200l-2 -4c-44 -127 -167 -229 -396 -229c-221 0 -339 115 -297 308l5 28c38 178 192 292 415 292zM431 470
c-81 0 -139 -28 -172 -102h302c1 67 -43 102 -130 102z" />
    <glyph glyph-name="uni1EBB" unicode="&#x1ebb;" horiz-adv-x="785" 
d="M491 773c-14 0 -23 -5 -29 -32h-71c13 69 57 105 124 105c63 0 89 -30 80 -71c-7 -33 -33 -67 -67 -106h-86c43 41 62 69 66 87c3 12 -5 17 -17 17zM453 610c228 0 338 -110 296 -311l-7 -30l-4 -18h-509c-7 -84 42 -121 128 -121c93 0 146 29 169 81l2 4h200l-2 -4
c-44 -127 -167 -229 -396 -229c-221 0 -339 115 -297 308l5 28c38 178 192 292 415 292zM431 470c-81 0 -139 -28 -172 -102h302c1 67 -43 102 -130 102z" />
    <glyph glyph-name="emacron" unicode="&#x113;" horiz-adv-x="785" 
d="M286 781h422l-24 -113h-422zM453 610c228 0 338 -110 296 -311l-7 -30l-4 -18h-509c-7 -84 42 -121 128 -121c93 0 146 29 169 81l2 4h200l-2 -4c-44 -127 -167 -229 -396 -229c-221 0 -339 115 -297 308l5 28c38 178 192 292 415 292zM431 470c-81 0 -139 -28 -172 -102
h302c1 67 -43 102 -130 102z" />
    <glyph glyph-name="eogonek" unicode="&#x119;" horiz-adv-x="785" 
d="M453 610c228 0 338 -110 296 -311l-7 -30l-4 -18h-509c-7 -84 42 -121 128 -121c93 0 146 29 169 81l2 4h200l-2 -4c-32 -93 -106 -172 -233 -208c-80 -32 -113 -58 -119 -87c-3 -13 2 -25 24 -25c21 0 37 14 44 44h109c-19 -89 -73 -128 -185 -128
c-97 0 -134 36 -122 94c7 31 33 58 79 81c-216 2 -332 117 -290 308l5 28c38 178 192 292 415 292zM431 470c-81 0 -139 -28 -172 -102h302c1 67 -43 102 -130 102z" />
    <glyph glyph-name="uni1EBD" unicode="&#x1ebd;" horiz-adv-x="785" 
d="M414 716c-23 0 -40 -14 -56 -43l-95 17c33 96 81 146 155 146c76 0 112 -51 149 -51c23 0 40 14 55 43l96 -18c-33 -95 -82 -146 -156 -146c-76 0 -111 52 -148 52zM453 610c228 0 338 -110 296 -311l-7 -30l-4 -18h-509c-7 -84 42 -121 128 -121c93 0 146 29 169 81l2 4
h200l-2 -4c-44 -127 -167 -229 -396 -229c-221 0 -339 115 -297 308l5 28c38 178 192 292 415 292zM431 470c-81 0 -139 -28 -172 -102h302c1 67 -43 102 -130 102z" />
    <glyph glyph-name="uni0259" unicode="&#x259;" horiz-adv-x="785" 
d="M455 610c221 0 339 -115 297 -308l-5 -28c-38 -178 -192 -292 -415 -292c-228 0 -338 110 -296 311l7 30l4 18h509c7 84 -42 121 -128 121c-93 0 -146 -29 -169 -81l-2 -4h-200l2 4c44 127 167 229 396 229zM354 122c81 0 139 28 172 102h-302c-1 -67 43 -102 130 -102z
" />
    <glyph glyph-name="gbreve" unicode="&#x11f;" horiz-adv-x="826" 
d="M491 665c-139 0 -186 59 -151 181h120c-18 -59 -2 -87 51 -87c54 0 81 28 89 87h120c-17 -122 -89 -181 -229 -181zM607 555l8 37h203l-98 -461c-47 -220 -194 -329 -437 -329c-114 0 -205 15 -281 42l43 138c66 -25 165 -36 236 -36c127 0 205 49 228 132v1l17 63h-4
c-69 -83 -155 -121 -256 -121c-191 0 -264 120 -229 289l2 14c36 174 162 286 352 286c99 0 176 -42 203 -124h5zM555 307l3 17c12 57 -17 135 -131 135c-109 0 -169 -65 -184 -143l-4 -17c-16 -76 13 -131 125 -131c113 0 177 72 191 139z" />
    <glyph glyph-name="gcaron" unicode="&#x1e7;" horiz-adv-x="826" 
d="M721 828l-149 -163h-159l-80 163h110l67 -79l101 79h110zM607 555l8 37h203l-98 -461c-47 -220 -194 -329 -437 -329c-114 0 -205 15 -281 42l43 138c66 -25 165 -36 236 -36c127 0 205 49 228 132v1l17 63h-4c-69 -83 -155 -121 -256 -121c-191 0 -264 120 -229 289
l2 14c36 174 162 286 352 286c99 0 176 -42 203 -124h5zM555 307l3 17c12 57 -17 135 -131 135c-109 0 -169 -65 -184 -143l-4 -17c-16 -76 13 -131 125 -131c113 0 177 72 191 139z" />
    <glyph glyph-name="gcircumflex" unicode="&#x11d;" horiz-adv-x="826" 
d="M576 667l-67 79l-101 -79h-110l149 163h159l80 -163h-110zM607 555l8 37h203l-98 -461c-47 -220 -194 -329 -437 -329c-114 0 -205 15 -281 42l43 138c66 -25 165 -36 236 -36c127 0 205 49 228 132v1l17 63h-4c-69 -83 -155 -121 -256 -121c-191 0 -264 120 -229 289
l2 14c36 174 162 286 352 286c99 0 176 -42 203 -124h5zM555 307l3 17c12 57 -17 135 -131 135c-109 0 -169 -65 -184 -143l-4 -17c-16 -76 13 -131 125 -131c113 0 177 72 191 139z" />
    <glyph glyph-name="uni0123" unicode="&#x123;" horiz-adv-x="826" 
d="M493 656c-56 0 -77 20 -65 74c24 115 87 146 169 134l-11 -52c-46 2 -61 -4 -67 -35c52 0 74 -17 65 -59c-10 -46 -39 -62 -91 -62zM607 555l8 37h203l-98 -461c-47 -220 -194 -329 -437 -329c-114 0 -205 15 -281 42l43 138c66 -25 165 -36 236 -36
c127 0 205 49 228 132v1l17 63h-4c-69 -83 -155 -121 -256 -121c-191 0 -264 120 -229 289l2 14c36 174 162 286 352 286c99 0 176 -42 203 -124h5zM555 307l3 17c12 57 -17 135 -131 135c-109 0 -169 -65 -184 -143l-4 -17c-16 -76 13 -131 125 -131c113 0 177 72 191 139z
" />
    <glyph glyph-name="gdotaccent" unicode="&#x121;" horiz-adv-x="826" 
d="M493 669c-79 0 -107 23 -97 70s48 70 127 70c78 0 105 -23 95 -70c-9 -47 -46 -70 -125 -70zM607 555l8 37h203l-98 -461c-47 -220 -194 -329 -437 -329c-114 0 -205 15 -281 42l43 138c66 -25 165 -36 236 -36c127 0 205 49 228 132v1l17 63h-4
c-69 -83 -155 -121 -256 -121c-191 0 -264 120 -229 289l2 14c36 174 162 286 352 286c99 0 176 -42 203 -124h5zM555 307l3 17c12 57 -17 135 -131 135c-109 0 -169 -65 -184 -143l-4 -17c-16 -76 13 -131 125 -131c113 0 177 72 191 139z" />
    <glyph glyph-name="uni1E21" unicode="&#x1e21;" horiz-adv-x="826" 
d="M305 781h422l-24 -113h-422zM607 555l8 37h203l-98 -461c-47 -220 -194 -329 -437 -329c-114 0 -205 15 -281 42l43 138c66 -25 165 -36 236 -36c127 0 205 49 228 132v1l17 63h-4c-69 -83 -155 -121 -256 -121c-191 0 -264 120 -229 289l2 14c36 174 162 286 352 286
c99 0 176 -42 203 -124h5zM555 307l3 17c12 57 -17 135 -131 135c-109 0 -169 -65 -184 -143l-4 -17c-16 -76 13 -131 125 -131c113 0 177 72 191 139z" />
    <glyph glyph-name="hbar" unicode="&#x127;" horiz-adv-x="824" 
d="M559 610c172 0 252 -80 208 -283l-69 -327h-205l65 303c21 99 -16 147 -105 147c-116 0 -187 -87 -206 -178l-58 -272h-204l132 620h-39l29 95h30l11 50h204l-11 -50h250l-28 -95h-242l-18 -84l-26 -71h5c72 102 170 145 277 145z" />
    <glyph glyph-name="uni1E2B" unicode="&#x1e2b;" horiz-adv-x="846" 
d="M581 610c173 0 252 -80 209 -283l-70 -327h-204l65 303c21 99 -16 147 -106 147c-116 0 -186 -87 -205 -178l-59 -272h-204l163 765h204l-49 -229l-25 -71h4c72 102 171 145 277 145zM368 -94c39 0 60 20 66 61h88c-12 -86 -66 -127 -170 -127c-103 0 -137 42 -112 127
h89c-13 -41 -1 -61 39 -61z" />
    <glyph glyph-name="hcircumflex" unicode="&#x125;" horiz-adv-x="846" 
d="M362 785l-67 78l-101 -78h-110l149 162h159l80 -162h-110zM581 610c173 0 252 -80 209 -283l-70 -327h-204l65 303c21 99 -16 147 -106 147c-116 0 -186 -87 -205 -178l-59 -272h-204l163 765h204l-49 -229l-25 -71h4c72 102 171 145 277 145z" />
    <glyph glyph-name="uni1E25" unicode="&#x1e25;" horiz-adv-x="846" 
d="M581 610c173 0 252 -80 209 -283l-70 -327h-204l65 303c21 99 -16 147 -106 147c-116 0 -186 -87 -205 -178l-59 -272h-204l163 765h204l-49 -229l-25 -71h4c72 102 171 145 277 145zM369 -38c67 0 90 -19 81 -58c-8 -39 -39 -58 -106 -58s-91 19 -83 58
c9 39 41 58 108 58z" />
    <glyph glyph-name="iacute" unicode="&#xed;" horiz-adv-x="344" 
d="M411 831l-138 -163h-122l67 163h193zM211 0h-204l126 592h204z" />
    <glyph glyph-name="ibreve" unicode="&#x12d;" horiz-adv-x="344" 
d="M250 665c-139 0 -186 59 -151 181h120c-18 -59 -2 -87 51 -87c54 0 81 28 89 87h120c-17 -122 -89 -181 -229 -181zM211 0h-204l126 592h204z" />
    <glyph glyph-name="uni01D0" unicode="&#x1d0;" horiz-adv-x="344" 
d="M172 665l-80 163h110l67 -79l101 79h110l-149 -163h-159zM211 0h-204l126 592h204z" />
    <glyph glyph-name="icircumflex" unicode="&#xee;" horiz-adv-x="344" 
d="M167 667h-110l149 163h159l80 -163h-110l-67 79zM211 0h-204l126 592h204z" />
    <glyph glyph-name="idieresis" unicode="&#xef;" horiz-adv-x="344" 
d="M121 667c-71 0 -101 27 -89 87c11 61 52 88 122 88c71 0 100 -27 89 -88c-12 -60 -52 -87 -122 -87zM400 667c-70 0 -100 27 -89 87c12 61 53 88 123 88c71 0 100 -27 89 -88c-12 -60 -52 -87 -123 -87zM211 0h-204l126 592h204z" />
    <glyph glyph-name="i.loclTRK" horiz-adv-x="344" 
d="M252 669c-79 0 -107 23 -97 70s48 70 127 70c78 0 105 -23 95 -70c-9 -47 -46 -70 -125 -70zM211 0h-204l126 592h204z" />
    <glyph glyph-name="uni1ECB" unicode="&#x1ecb;" horiz-adv-x="344" 
d="M250 657c-80 0 -113 27 -100 87c13 61 58 88 137 88s112 -27 99 -88c-13 -60 -57 -87 -136 -87zM211 0h-204l126 592h204zM95 -154c-67 0 -91 19 -83 58c9 39 41 58 108 58s90 -19 81 -58c-8 -39 -39 -58 -106 -58z" />
    <glyph glyph-name="igrave" unicode="&#xec;" horiz-adv-x="344" 
d="M394 668h-121l-139 163h194zM211 0h-204l126 592h204z" />
    <glyph glyph-name="uni1EC9" unicode="&#x1ec9;" horiz-adv-x="344" 
d="M307 669h-86c43 41 62 69 66 87c3 12 -5 17 -17 17c-14 0 -23 -5 -29 -32h-71c13 69 57 105 124 105c63 0 89 -30 80 -71c-7 -33 -33 -67 -67 -106zM211 0h-204l126 592h204z" />
    <glyph glyph-name="ij" unicode="&#x133;" horiz-adv-x="692" 
d="M250 657c-80 0 -113 27 -100 87c13 61 58 88 137 88s112 -27 99 -88c-13 -60 -57 -87 -136 -87zM597 657c-80 0 -113 27 -100 87c13 61 58 88 137 88s112 -27 99 -88c-13 -60 -57 -87 -136 -87zM211 0h-204l126 592h204zM233 -196c-64 0 -121 7 -158 14l35 134
c25 -3 65 -7 92 -7c104 0 152 56 172 149l106 498h204l-107 -504c-36 -167 -131 -284 -344 -284z" />
    <glyph glyph-name="imacron" unicode="&#x12b;" horiz-adv-x="344" 
d="M462 668h-422l24 113h422zM211 0h-204l126 592h204z" />
    <glyph glyph-name="iogonek" unicode="&#x12f;" horiz-adv-x="344" 
d="M287 832c79 0 112 -27 99 -88c-13 -60 -57 -87 -136 -87c-80 0 -113 27 -100 87c13 61 58 88 137 88zM67 0h-60l126 592h204l-126 -592h-36c-100 -36 -139 -65 -146 -97c-3 -13 2 -25 24 -25c21 0 37 14 44 44h109c-19 -89 -73 -128 -185 -128c-97 0 -134 36 -122 94
c10 47 64 86 168 112z" />
    <glyph glyph-name="itilde" unicode="&#x129;" horiz-adv-x="344" 
d="M341 664c-76 0 -111 52 -148 52c-23 0 -40 -14 -56 -43l-95 17c33 96 81 146 155 146c76 0 112 -51 149 -51c23 0 40 14 55 43l96 -18c-33 -95 -82 -146 -156 -146zM211 0h-204l126 592h204z" />
    <glyph glyph-name="jcircumflex" unicode="&#x135;" horiz-adv-x="348" 
d="M170 667h-110l149 163h159l80 -163h-110l-67 79zM-111 -196c-64 0 -121 7 -158 14l35 134c25 -3 65 -7 92 -7c104 0 152 56 172 149l106 498h204l-107 -504c-36 -167 -131 -284 -344 -284z" />
    <glyph glyph-name="uni0137" unicode="&#x137;" horiz-adv-x="772" 
d="M211 0h-204l163 765h204l-80 -377h118l169 204h226l-246 -279l139 -313h-231l-91 241h-115zM197 -199l15 45c60 -2 79 3 87 30c-68 0 -96 14 -84 51c12 39 50 53 118 53c72 0 100 -17 85 -64c-32 -99 -114 -125 -221 -115z" />
    <glyph glyph-name="kgreenlandic" unicode="&#x138;" horiz-adv-x="772" 
d="M211 0h-204l126 592h204l-43 -204h116l170 204h227l-246 -279l139 -313h-229l-91 241h-117z" />
    <glyph glyph-name="lacute" unicode="&#x13a;" horiz-adv-x="344" 
d="M400 951l-139 -163h-121l66 163h194zM211 0h-204l163 765h204z" />
    <glyph glyph-name="lcaron" unicode="&#x13e;" horiz-adv-x="465" 
d="M557 766l-66 -249h-108l41 249h133zM211 0h-204l163 765h204z" />
    <glyph glyph-name="uni013C" unicode="&#x13c;" horiz-adv-x="344" 
d="M211 0h-204l163 765h204zM-17 -199l15 45c60 -2 79 3 87 30c-68 0 -96 14 -84 51c12 39 50 53 118 53c72 0 100 -17 85 -64c-32 -99 -114 -125 -221 -115z" />
    <glyph glyph-name="ldot" unicode="&#x140;" horiz-adv-x="487" 
d="M211 0h-204l163 765h204zM433 349c-45 0 -64 17 -57 54c7 36 33 53 78 53c44 0 63 -17 56 -53c-8 -37 -33 -54 -77 -54z" />
    <glyph glyph-name="uni1E37" unicode="&#x1e37;" horiz-adv-x="344" 
d="M211 0h-204l163 765h204zM96 -154c-67 0 -91 19 -83 58c9 39 41 58 108 58s90 -19 81 -58c-8 -39 -39 -58 -106 -58z" />
    <glyph glyph-name="uni1E39" unicode="&#x1e39;" horiz-adv-x="344" 
d="M486 785h-422l24 114h422zM211 0h-204l163 765h204zM96 -154c-67 0 -91 19 -83 58c9 39 41 58 108 58s90 -19 81 -58c-8 -39 -39 -58 -106 -58z" />
    <glyph glyph-name="uni1E3B" unicode="&#x1e3b;" horiz-adv-x="344" 
d="M211 0h-204l163 765h204zM322 -131h-423l24 90h422z" />
    <glyph glyph-name="lslash" unicode="&#x142;" horiz-adv-x="404" 
d="M414 504l17 -75l-108 -44l-82 -385h-203l63 295l-75 -30l-16 76l110 44l81 380h203l-62 -290z" />
    <glyph glyph-name="uni1E43" unicode="&#x1e43;" horiz-adv-x="1292" 
d="M211 0h-204l126 592h204l-12 -55l-24 -73h4c63 89 161 146 274 146c133 0 186 -69 196 -145h5c67 91 170 145 275 145c230 0 199 -193 179 -288l-68 -322h-204l62 295c17 77 12 155 -86 155c-100 0 -173 -90 -191 -173l-59 -277h-204l65 303c14 66 6 147 -90 147
c-98 0 -172 -93 -189 -175zM566 -154c-67 0 -91 19 -83 58c9 39 41 58 108 58s90 -19 81 -58c-8 -39 -39 -58 -106 -58z" />
    <glyph glyph-name="nacute" unicode="&#x144;" horiz-adv-x="846" 
d="M465 831h193l-138 -163h-122zM581 610c160 0 251 -80 208 -284l-69 -326h-204l65 303c20 99 -16 147 -107 147c-115 0 -185 -87 -205 -179l-58 -271h-204l126 592h204l-12 -55l-24 -73h2c65 90 155 146 278 146z" />
    <glyph glyph-name="ncaron" unicode="&#x148;" horiz-adv-x="846" 
d="M726 828l-149 -163h-159l-80 163h110l67 -79l101 79h110zM581 610c160 0 251 -80 208 -284l-69 -326h-204l65 303c20 99 -16 147 -107 147c-115 0 -185 -87 -205 -179l-58 -271h-204l126 592h204l-12 -55l-24 -73h2c65 90 155 146 278 146z" />
    <glyph glyph-name="uni0146" unicode="&#x146;" horiz-adv-x="846" 
d="M581 610c160 0 251 -80 208 -284l-69 -326h-204l65 303c20 99 -16 147 -107 147c-115 0 -185 -87 -205 -179l-58 -271h-204l126 592h204l-12 -55l-24 -73h2c65 90 155 146 278 146zM366 -20c72 0 100 -17 85 -64c-32 -99 -114 -125 -221 -115l15 45c60 -2 79 3 87 30
c-68 0 -96 14 -84 51c12 39 50 53 118 53z" />
    <glyph glyph-name="uni1E45" unicode="&#x1e45;" horiz-adv-x="846" 
d="M499 669c-79 0 -107 23 -97 70s48 70 127 70c78 0 105 -23 95 -70c-9 -47 -46 -70 -125 -70zM581 610c160 0 251 -80 208 -284l-69 -326h-204l65 303c20 99 -16 147 -107 147c-115 0 -185 -87 -205 -179l-58 -271h-204l126 592h204l-12 -55l-24 -73h2
c65 90 155 146 278 146z" />
    <glyph glyph-name="uni1E47" unicode="&#x1e47;" horiz-adv-x="846" 
d="M581 610c160 0 251 -80 208 -284l-69 -326h-204l65 303c20 99 -16 147 -107 147c-115 0 -185 -87 -205 -179l-58 -271h-204l126 592h204l-12 -55l-24 -73h2c65 90 155 146 278 146zM367 -38c67 0 90 -19 81 -58c-8 -39 -39 -58 -106 -58s-91 19 -83 58c9 39 41 58 108 58
z" />
    <glyph glyph-name="eng" unicode="&#x14b;" horiz-adv-x="846" 
d="M581 610c160 0 251 -80 208 -284l-69 -326c-27 -127 -125 -192 -390 -192l20 94c97 0 153 36 166 98l65 303c20 99 -16 147 -107 147c-115 0 -185 -87 -205 -179l-58 -271h-204l126 592h204l-12 -55l-24 -73h2c65 90 155 146 278 146z" />
    <glyph glyph-name="uni0272" unicode="&#x272;" horiz-adv-x="846" 
d="M581 610c160 0 251 -80 208 -284l-69 -326h-204l65 303c20 99 -16 147 -107 147c-115 0 -185 -87 -205 -179l-58 -271c-27 -127 -125 -192 -390 -192l20 94c97 0 153 36 166 98l126 592h204l-12 -55l-24 -73h2c65 90 155 146 278 146z" />
    <glyph glyph-name="uni1E49" unicode="&#x1e49;" horiz-adv-x="846" 
d="M581 610c160 0 251 -80 208 -284l-69 -326h-204l65 303c20 99 -16 147 -107 147c-115 0 -185 -87 -205 -179l-58 -271h-204l126 592h204l-12 -55l-24 -73h2c65 90 155 146 278 146zM569 -131h-423l24 90h422z" />
    <glyph glyph-name="ntilde" unicode="&#xf1;" horiz-adv-x="846" 
d="M439 716c-23 0 -40 -14 -56 -43l-95 17c33 96 81 146 155 146c76 0 112 -51 149 -51c23 0 40 14 55 43l96 -18c-33 -95 -82 -146 -156 -146c-76 0 -111 52 -148 52zM581 610c160 0 251 -80 208 -284l-69 -326h-204l65 303c20 99 -16 147 -107 147
c-115 0 -185 -87 -205 -179l-58 -271h-204l126 592h204l-12 -55l-24 -73h2c65 90 155 146 278 146z" />
    <glyph glyph-name="oacute" unicode="&#xf3;" horiz-adv-x="806" 
d="M642 831l-138 -163h-122l67 163h193zM346 -18c-232 0 -354 106 -313 309l3 17c40 196 192 302 424 302c233 0 355 -106 314 -308l-4 -17c-40 -198 -191 -303 -424 -303zM368 133c97 0 173 39 199 157l4 19c25 110 -40 150 -132 150c-97 0 -173 -40 -199 -157l-4 -19
c-25 -111 40 -150 132 -150z" />
    <glyph glyph-name="obreve" unicode="&#x14f;" horiz-adv-x="806" 
d="M481 665c-139 0 -186 59 -151 181h120c-18 -59 -2 -87 51 -87c54 0 81 28 89 87h120c-17 -122 -89 -181 -229 -181zM346 -18c-232 0 -354 106 -313 309l3 17c40 196 192 302 424 302c233 0 355 -106 314 -308l-4 -17c-40 -198 -191 -303 -424 -303zM368 133
c97 0 173 39 199 157l4 19c25 110 -40 150 -132 150c-97 0 -173 -40 -199 -157l-4 -19c-25 -111 40 -150 132 -150z" />
    <glyph glyph-name="uni01D2" unicode="&#x1d2;" horiz-adv-x="806" 
d="M403 665l-80 163h110l67 -79l101 79h110l-149 -163h-159zM346 -18c-232 0 -354 106 -313 309l3 17c40 196 192 302 424 302c233 0 355 -106 314 -308l-4 -17c-40 -198 -191 -303 -424 -303zM368 133c97 0 173 39 199 157l4 19c25 110 -40 150 -132 150
c-97 0 -173 -40 -199 -157l-4 -19c-25 -111 40 -150 132 -150z" />
    <glyph glyph-name="ocircumflex" unicode="&#xf4;" horiz-adv-x="806" 
d="M398 667h-110l149 163h159l80 -163h-110l-67 79zM346 -18c-232 0 -354 106 -313 309l3 17c40 196 192 302 424 302c233 0 355 -106 314 -308l-4 -17c-40 -198 -191 -303 -424 -303zM368 133c97 0 173 39 199 157l4 19c25 110 -40 150 -132 150c-97 0 -173 -40 -199 -157
l-4 -19c-25 -111 40 -150 132 -150z" />
    <glyph glyph-name="uni1ED1" unicode="&#x1ed1;" horiz-adv-x="806" 
d="M878 868l-148 -128h-85l98 129zM399 667h-110l150 163h159l79 -163h-110l-67 79zM346 -18c-232 0 -354 106 -313 309l3 17c40 196 192 302 424 302c233 0 355 -106 314 -308l-4 -17c-40 -198 -191 -303 -424 -303zM368 133c97 0 173 39 199 157l4 19
c25 110 -40 150 -132 150c-97 0 -173 -40 -199 -157l-4 -19c-25 -111 40 -150 132 -150z" />
    <glyph glyph-name="uni1ED9" unicode="&#x1ed9;" horiz-adv-x="806" 
d="M398 667h-110l149 163h159l80 -163h-110l-67 79zM346 -18c-232 0 -354 106 -313 309l3 17c40 196 192 302 424 302c233 0 355 -106 314 -308l-4 -17c-40 -198 -191 -303 -424 -303zM368 133c97 0 173 39 199 157l4 19c25 110 -40 150 -132 150c-97 0 -173 -40 -199 -157
l-4 -19c-25 -111 40 -150 132 -150zM327 -154c-67 0 -91 19 -83 58c9 39 41 58 108 58s90 -19 81 -58c-8 -39 -39 -58 -106 -58z" />
    <glyph glyph-name="uni1ED3" unicode="&#x1ed3;" horiz-adv-x="806" 
d="M756 814h-85l-93 131h135zM597 830l80 -163h-110l-67 79l-101 -79h-110l149 163h159zM346 -18c-232 0 -354 106 -313 309l3 17c40 196 192 302 424 302c233 0 355 -106 314 -308l-4 -17c-40 -198 -191 -303 -424 -303zM368 133c97 0 173 39 199 157l4 19
c25 110 -40 150 -132 150c-97 0 -173 -40 -199 -157l-4 -19c-25 -111 40 -150 132 -150z" />
    <glyph glyph-name="uni1ED5" unicode="&#x1ed5;" horiz-adv-x="806" 
d="M744 759h-67c33 32 48 54 51 68c3 10 -3 14 -13 14c-11 0 -18 -5 -23 -26h-56c11 54 45 83 98 83c50 0 70 -24 62 -55c-5 -26 -25 -53 -52 -84zM399 667h-110l149 163h159l80 -163h-110l-68 79zM346 -18c-232 0 -354 106 -313 309l3 17c40 196 192 302 424 302
c233 0 355 -106 314 -308l-4 -17c-40 -198 -191 -303 -424 -303zM368 133c97 0 173 39 199 157l4 19c25 110 -40 150 -132 150c-97 0 -173 -40 -199 -157l-4 -19c-25 -111 40 -150 132 -150z" />
    <glyph glyph-name="uni1ED7" unicode="&#x1ed7;" horiz-adv-x="806" 
d="M608 870c-54 0 -78 36 -104 36c-16 0 -28 -10 -39 -30l-67 12c23 67 57 103 109 103c53 0 78 -36 104 -36c16 0 28 10 39 30l67 -13c-23 -66 -57 -102 -109 -102zM399 667h-110l149 163h159l80 -163h-110l-68 79zM346 -18c-232 0 -354 106 -313 309l3 17
c40 196 192 302 424 302c233 0 355 -106 314 -308l-4 -17c-40 -198 -191 -303 -424 -303zM368 133c97 0 173 39 199 157l4 19c25 110 -40 150 -132 150c-97 0 -173 -40 -199 -157l-4 -19c-25 -111 40 -150 132 -150z" />
    <glyph glyph-name="odieresis" unicode="&#xf6;" horiz-adv-x="806" 
d="M352 667c-71 0 -101 27 -89 87c11 61 52 88 122 88c71 0 100 -27 89 -88c-12 -60 -52 -87 -122 -87zM631 667c-70 0 -100 27 -89 87c12 61 53 88 123 88c71 0 100 -27 89 -88c-12 -60 -52 -87 -123 -87zM346 -18c-232 0 -354 106 -313 309l3 17c40 196 192 302 424 302
c233 0 355 -106 314 -308l-4 -17c-40 -198 -191 -303 -424 -303zM368 133c97 0 173 39 199 157l4 19c25 110 -40 150 -132 150c-97 0 -173 -40 -199 -157l-4 -19c-25 -111 40 -150 132 -150z" />
    <glyph glyph-name="uni1ECD" unicode="&#x1ecd;" horiz-adv-x="806" 
d="M346 -18c-232 0 -354 106 -313 309l3 17c40 196 192 302 424 302c233 0 355 -106 314 -308l-4 -17c-40 -198 -191 -303 -424 -303zM368 133c97 0 173 39 199 157l4 19c25 110 -40 150 -132 150c-97 0 -173 -40 -199 -157l-4 -19c-25 -111 40 -150 132 -150zM327 -154
c-67 0 -91 19 -83 58c9 39 41 58 108 58s90 -19 81 -58c-8 -39 -39 -58 -106 -58z" />
    <glyph glyph-name="ograve" unicode="&#xf2;" horiz-adv-x="806" 
d="M625 668h-121l-139 163h194zM346 -18c-232 0 -354 106 -313 309l3 17c40 196 192 302 424 302c233 0 355 -106 314 -308l-4 -17c-40 -198 -191 -303 -424 -303zM368 133c97 0 173 39 199 157l4 19c25 110 -40 150 -132 150c-97 0 -173 -40 -199 -157l-4 -19
c-25 -111 40 -150 132 -150z" />
    <glyph glyph-name="uni1ECF" unicode="&#x1ecf;" horiz-adv-x="806" 
d="M538 669h-86c43 41 62 69 66 87c3 12 -5 17 -17 17c-14 0 -23 -5 -29 -32h-71c13 69 57 105 124 105c63 0 89 -30 80 -71c-7 -33 -33 -67 -67 -106zM346 -18c-232 0 -354 106 -313 309l3 17c40 196 192 302 424 302c233 0 355 -106 314 -308l-4 -17
c-40 -198 -191 -303 -424 -303zM368 133c97 0 173 39 199 157l4 19c25 110 -40 150 -132 150c-97 0 -173 -40 -199 -157l-4 -19c-25 -111 40 -150 132 -150z" />
    <glyph glyph-name="ohorn" unicode="&#x1a1;" horiz-adv-x="806" 
d="M660 572c98 -47 141 -138 114 -270l-4 -17c-40 -198 -191 -303 -424 -303c-232 0 -354 106 -313 309l3 17c40 196 192 302 424 302h10v0c90 0 131 31 134 121l122 7c0 -81 -24 -133 -66 -166zM567 290l4 19c25 110 -40 150 -132 150c-97 0 -173 -40 -199 -157l-4 -19
c-25 -111 40 -150 132 -150c97 0 173 39 199 157z" />
    <glyph glyph-name="uni1EDB" unicode="&#x1edb;" horiz-adv-x="806" 
d="M445 831h193l-138 -163h-122zM660 572c98 -47 141 -138 114 -270l-4 -17c-40 -198 -191 -303 -424 -303c-232 0 -354 106 -313 309l3 17c40 196 192 302 424 302h10v0c90 0 131 31 134 121l122 7c0 -81 -24 -133 -66 -166zM567 290l4 19c25 110 -40 150 -132 150
c-97 0 -173 -40 -199 -157l-4 -19c-25 -111 40 -150 132 -150c97 0 173 39 199 157z" />
    <glyph glyph-name="uni1EE3" unicode="&#x1ee3;" horiz-adv-x="806" 
d="M660 572c98 -47 141 -138 114 -270l-4 -17c-40 -198 -191 -303 -424 -303c-232 0 -354 106 -313 309l3 17c40 196 192 302 424 302h10v0c90 0 131 31 134 121l122 7c0 -81 -24 -133 -66 -166zM567 290l4 19c25 110 -40 150 -132 150c-97 0 -173 -40 -199 -157l-4 -19
c-25 -111 40 -150 132 -150c97 0 173 39 199 157zM348 -38c67 0 90 -19 81 -58c-8 -39 -39 -58 -106 -58s-91 19 -83 58c9 39 41 58 108 58z" />
    <glyph glyph-name="uni1EDD" unicode="&#x1edd;" horiz-adv-x="806" 
d="M660 572c98 -47 141 -138 114 -270l-4 -17c-40 -198 -191 -303 -424 -303c-232 0 -354 106 -313 309l3 17c40 196 192 302 424 302h10v0c64 0 104 16 122 58h-92l-139 163h194l48 -118c0 6 1 12 1 18l122 7c0 -81 -24 -133 -66 -166zM567 290l4 19
c25 110 -40 150 -132 150c-97 0 -173 -40 -199 -157l-4 -19c-25 -111 40 -150 132 -150c97 0 173 39 199 157z" />
    <glyph glyph-name="uni1EDF" unicode="&#x1edf;" horiz-adv-x="806" 
d="M497 773c-14 0 -23 -5 -29 -32h-71c13 69 57 105 124 105c63 0 89 -30 80 -71c-7 -33 -33 -67 -67 -106h-86c43 41 62 69 66 87c3 12 -5 17 -17 17zM660 572c98 -47 141 -138 114 -270l-4 -17c-40 -198 -191 -303 -424 -303c-232 0 -354 106 -313 309l3 17
c40 196 192 302 424 302h10v0c90 0 131 31 134 121l122 7c0 -81 -24 -133 -66 -166zM567 290l4 19c25 110 -40 150 -132 150c-97 0 -173 -40 -199 -157l-4 -19c-25 -111 40 -150 132 -150c97 0 173 39 199 157z" />
    <glyph glyph-name="uni1EE1" unicode="&#x1ee1;" horiz-adv-x="806" 
d="M660 572c98 -47 141 -138 114 -270l-4 -17c-40 -198 -191 -303 -424 -303c-232 0 -354 106 -313 309l3 17c40 196 192 302 424 302h10v0c63 0 102 15 121 56c-7 -1 -15 -2 -23 -2c-76 0 -111 52 -148 52c-23 0 -40 -14 -56 -43l-95 17c33 96 81 146 155 146
c76 0 112 -51 149 -51c23 0 40 14 55 43l96 -18c-10 -29 -21 -54 -35 -74l37 2c0 -81 -24 -133 -66 -166zM567 290l4 19c25 110 -40 150 -132 150c-97 0 -173 -40 -199 -157l-4 -19c-25 -111 40 -150 132 -150c97 0 173 39 199 157z" />
    <glyph glyph-name="ohungarumlaut" unicode="&#x151;" horiz-adv-x="806" 
d="M549 830l-131 -162h-116l64 162h183zM752 830l-132 -162h-115l63 162h184zM346 -18c-232 0 -354 106 -313 309l3 17c40 196 192 302 424 302c233 0 355 -106 314 -308l-4 -17c-40 -198 -191 -303 -424 -303zM368 133c97 0 173 39 199 157l4 19c25 110 -40 150 -132 150
c-97 0 -173 -40 -199 -157l-4 -19c-25 -111 40 -150 132 -150z" />
    <glyph glyph-name="omacron" unicode="&#x14d;" horiz-adv-x="806" 
d="M693 668h-422l24 113h422zM346 -18c-232 0 -354 106 -313 309l3 17c40 196 192 302 424 302c233 0 355 -106 314 -308l-4 -17c-40 -198 -191 -303 -424 -303zM368 133c97 0 173 39 199 157l4 19c25 110 -40 150 -132 150c-97 0 -173 -40 -199 -157l-4 -19
c-25 -111 40 -150 132 -150z" />
    <glyph glyph-name="uni01EB" unicode="&#x1eb;" horiz-adv-x="806" 
d="M460 610c233 0 355 -106 314 -308l-4 -17c-31 -153 -128 -250 -277 -287c-69 -28 -97 -53 -103 -80c-3 -13 2 -25 24 -25c21 0 37 14 44 44h109c-19 -89 -73 -128 -185 -128c-97 0 -134 36 -122 94c7 30 31 57 75 79c-225 3 -342 109 -302 309l3 17
c40 196 192 302 424 302zM567 290l4 19c25 110 -40 150 -132 150c-97 0 -173 -40 -199 -157l-4 -19c-25 -111 40 -150 132 -150c97 0 173 39 199 157z" />
    <glyph glyph-name="oslash" unicode="&#xf8;" horiz-adv-x="806" 
d="M716 622l-44 -56c89 -48 128 -137 102 -264l-4 -17c-40 -198 -191 -303 -424 -303c-48 0 -92 5 -130 14l-56 -70l-69 43l45 56c-90 49 -129 138 -103 266l3 17c40 196 192 302 424 302c49 0 93 -5 131 -14l56 70zM240 302l-4 -19c-12 -51 -4 -87 17 -111l226 284
c-12 2 -26 3 -40 3c-97 0 -173 -40 -199 -157zM567 290l4 19c12 51 4 87 -17 111l-226 -284c12 -2 26 -3 40 -3c97 0 173 39 199 157z" />
    <glyph glyph-name="oslashacute" unicode="&#x1ff;" horiz-adv-x="806" 
d="M445 831h193l-138 -163h-122zM716 622l-44 -56c89 -48 128 -137 102 -264l-4 -17c-40 -198 -191 -303 -424 -303c-48 0 -92 5 -130 14l-56 -70l-69 43l45 56c-90 49 -129 138 -103 266l3 17c40 196 192 302 424 302c49 0 93 -5 131 -14l56 70zM240 302l-4 -19
c-12 -51 -4 -87 17 -111l226 284c-12 2 -26 3 -40 3c-97 0 -173 -40 -199 -157zM567 290l4 19c12 51 4 87 -17 111l-226 -284c12 -2 26 -3 40 -3c97 0 173 39 199 157z" />
    <glyph glyph-name="otilde" unicode="&#xf5;" horiz-adv-x="806" 
d="M572 664c-76 0 -111 52 -148 52c-23 0 -40 -14 -56 -43l-95 17c33 96 81 146 155 146c76 0 112 -51 149 -51c23 0 40 14 55 43l96 -18c-33 -95 -82 -146 -156 -146zM346 -18c-232 0 -354 106 -313 309l3 17c40 196 192 302 424 302c233 0 355 -106 314 -308l-4 -17
c-40 -198 -191 -303 -424 -303zM368 133c97 0 173 39 199 157l4 19c25 110 -40 150 -132 150c-97 0 -173 -40 -199 -157l-4 -19c-25 -111 40 -150 132 -150z" />
    <glyph glyph-name="racute" unicode="&#x155;" horiz-adv-x="576" 
d="M343 831h193l-138 -163h-122zM563 610c26 0 48 -3 67 -8l-36 -168c-25 4 -53 7 -82 7c-129 0 -222 -70 -248 -194l-53 -247h-204l126 592h204l-12 -57l-25 -70h5c62 90 150 145 258 145z" />
    <glyph glyph-name="rcaron" unicode="&#x159;" horiz-adv-x="576" 
d="M605 828l-149 -163h-159l-80 163h110l67 -79l101 79h110zM563 610c26 0 48 -3 67 -8l-36 -168c-25 4 -53 7 -82 7c-129 0 -222 -70 -248 -194l-53 -247h-204l126 592h204l-12 -57l-25 -70h5c62 90 150 145 258 145z" />
    <glyph glyph-name="uni0157" unicode="&#x157;" horiz-adv-x="576" 
d="M563 610c26 0 48 -3 67 -8l-36 -168c-25 4 -53 7 -82 7c-129 0 -222 -70 -248 -194l-53 -247h-204l126 592h204l-12 -57l-25 -70h5c62 90 150 145 258 145zM112 -20c72 0 100 -17 85 -64c-32 -99 -114 -125 -221 -115l15 45c60 -2 79 3 87 30c-68 0 -96 14 -84 51
c12 39 50 53 118 53z" />
    <glyph glyph-name="uni1E5B" unicode="&#x1e5b;" horiz-adv-x="576" 
d="M563 610c26 0 48 -3 67 -8l-36 -168c-25 4 -53 7 -82 7c-129 0 -222 -70 -248 -194l-53 -247h-204l126 592h204l-12 -57l-25 -70h5c62 90 150 145 258 145zM113 -38c67 0 90 -19 81 -58c-8 -39 -39 -58 -106 -58s-91 19 -83 58c9 39 41 58 108 58z" />
    <glyph glyph-name="uni1E5D" unicode="&#x1e5d;" horiz-adv-x="576" 
d="M190 781h422l-24 -113h-422zM563 610c26 0 48 -3 67 -8l-36 -168c-25 4 -53 7 -82 7c-129 0 -222 -70 -248 -194l-53 -247h-204l126 592h204l-12 -57l-25 -70h5c62 90 150 145 258 145zM113 -38c67 0 90 -19 81 -58c-8 -39 -39 -58 -106 -58s-91 19 -83 58
c9 39 41 58 108 58z" />
    <glyph glyph-name="uni1E5F" unicode="&#x1e5f;" horiz-adv-x="576" 
d="M563 610c26 0 48 -3 67 -8l-36 -168c-25 4 -53 7 -82 7c-129 0 -222 -70 -248 -194l-53 -247h-204l126 592h204l-12 -57l-25 -70h5c62 90 150 145 258 145zM315 -131h-423l24 90h422z" />
    <glyph glyph-name="sacute" unicode="&#x15b;" horiz-adv-x="739" 
d="M605 831l-138 -163h-122l67 163h193zM327 -17c-234 0 -323 94 -298 220l1 5h195l-1 -5c-10 -69 50 -85 122 -85c89 0 119 16 125 43l1 7c8 34 -25 47 -140 63c-213 28 -267 86 -245 193l2 8c19 92 107 178 340 178c231 0 299 -100 284 -202v-3h-197l1 3
c0 43 -42 65 -124 65c-73 0 -96 -18 -101 -39l-2 -7c-6 -36 20 -49 124 -60c224 -23 285 -88 263 -193l-2 -9c-24 -114 -126 -182 -348 -182z" />
    <glyph glyph-name="scaron" unicode="&#x161;" horiz-adv-x="739" 
d="M366 665l-80 163h110l67 -79l101 79h110l-149 -163h-159zM327 -17c-234 0 -323 94 -298 220l1 5h195l-1 -5c-10 -69 50 -85 122 -85c89 0 119 16 125 43l1 7c8 34 -25 47 -140 63c-213 28 -267 86 -245 193l2 8c19 92 107 178 340 178c231 0 299 -100 284 -202v-3h-197
l1 3c0 43 -42 65 -124 65c-73 0 -96 -18 -101 -39l-2 -7c-6 -36 20 -49 124 -60c224 -23 285 -88 263 -193l-2 -9c-24 -114 -126 -182 -348 -182z" />
    <glyph glyph-name="scedilla" unicode="&#x15f;" horiz-adv-x="739" 
d="M429 610c231 0 299 -100 284 -202v-3h-197l1 3c0 43 -42 65 -124 65c-73 0 -96 -18 -101 -39l-2 -7c-6 -36 20 -49 124 -60c224 -23 285 -88 263 -193l-2 -9c-24 -114 -126 -182 -347 -182l-13 -23c44 8 125 -6 110 -78c-11 -53 -70 -92 -165 -92s-143 31 -129 111h100
c-6 -33 13 -41 42 -41c17 0 36 9 40 31c5 26 -18 38 -55 30l-22 20l27 45c-186 15 -257 103 -234 217l1 5h195l-1 -5c-10 -69 50 -85 122 -85c89 0 119 16 125 43l1 7c8 34 -25 47 -140 63c-213 28 -267 86 -245 193l2 8c19 92 107 178 340 178z" />
    <glyph glyph-name="scircumflex" unicode="&#x15d;" horiz-adv-x="739" 
d="M362 667h-110l149 163h159l80 -163h-110l-67 79zM327 -17c-234 0 -323 94 -298 220l1 5h195l-1 -5c-10 -69 50 -85 122 -85c89 0 119 16 125 43l1 7c8 34 -25 47 -140 63c-213 28 -267 86 -245 193l2 8c19 92 107 178 340 178c231 0 299 -100 284 -202v-3h-197l1 3
c0 43 -42 65 -124 65c-73 0 -96 -18 -101 -39l-2 -7c-6 -36 20 -49 124 -60c224 -23 285 -88 263 -193l-2 -9c-24 -114 -126 -182 -348 -182z" />
    <glyph glyph-name="uni0219" unicode="&#x219;" horiz-adv-x="739" 
d="M327 -17c-234 0 -323 94 -298 220l1 5h195l-1 -5c-10 -69 50 -85 122 -85c89 0 119 16 125 43l1 7c8 34 -25 47 -140 63c-213 28 -267 86 -245 193l2 8c19 92 107 178 340 178c231 0 299 -100 284 -202v-3h-197l1 3c0 43 -42 65 -124 65c-73 0 -96 -18 -101 -39l-2 -7
c-6 -36 20 -49 124 -60c224 -23 285 -88 263 -193l-2 -9c-24 -114 -126 -182 -348 -182zM177 -199l15 45c60 -2 79 3 87 30c-68 0 -96 14 -84 51c12 39 50 53 118 53c72 0 100 -17 85 -64c-32 -99 -114 -125 -221 -115z" />
    <glyph glyph-name="uni1E61" unicode="&#x1e61;" horiz-adv-x="739" 
d="M446 669c-79 0 -107 23 -97 70s48 70 127 70c78 0 105 -23 95 -70c-9 -47 -46 -70 -125 -70zM327 -17c-234 0 -323 94 -298 220l1 5h195l-1 -5c-10 -69 50 -85 122 -85c89 0 119 16 125 43l1 7c8 34 -25 47 -140 63c-213 28 -267 86 -245 193l2 8c19 92 107 178 340 178
c231 0 299 -100 284 -202v-3h-197l1 3c0 43 -42 65 -124 65c-73 0 -96 -18 -101 -39l-2 -7c-6 -36 20 -49 124 -60c224 -23 285 -88 263 -193l-2 -9c-24 -114 -126 -182 -348 -182z" />
    <glyph glyph-name="uni1E63" unicode="&#x1e63;" horiz-adv-x="739" 
d="M327 -17c-234 0 -323 94 -298 220l1 5h195l-1 -5c-10 -69 50 -85 122 -85c89 0 119 16 125 43l1 7c8 34 -25 47 -140 63c-213 28 -267 86 -245 193l2 8c19 92 107 178 340 178c231 0 299 -100 284 -202v-3h-197l1 3c0 43 -42 65 -124 65c-73 0 -96 -18 -101 -39l-2 -7
c-6 -36 20 -49 124 -60c224 -23 285 -88 263 -193l-2 -9c-24 -114 -126 -182 -348 -182zM290 -154c-67 0 -91 19 -83 58c9 39 41 58 108 58s90 -19 81 -58c-8 -39 -39 -58 -106 -58z" />
    <glyph glyph-name="tbar" unicode="&#x167;" horiz-adv-x="527" 
d="M555 592l-32 -151h-179l-16 -74h125l-24 -110h-124l-3 -12c-15 -70 -8 -115 69 -115c33 0 67 4 91 9l-9 -134c-49 -15 -111 -23 -180 -23c-178 0 -209 101 -181 233l9 42h-84l24 110h83l16 74h-101l32 151h101l28 134h204l-28 -134h179z" />
    <glyph glyph-name="tcaron" unicode="&#x165;" horiz-adv-x="527" 
d="M461 711l41 187h134l-67 -187h-108zM200 726h204l-28 -134h179l-32 -151h-179l-42 -196c-15 -70 -8 -115 69 -115c33 0 67 4 91 9l-9 -134c-49 -15 -111 -23 -180 -23c-178 0 -209 101 -181 233l48 226h-101l32 151h101z" />
    <glyph glyph-name="uni0163" unicode="&#x163;" horiz-adv-x="527" 
d="M523 441h-179l-42 -196c-15 -70 -8 -115 69 -115c33 0 67 4 91 9l-9 -134c-47 -14 -106 -22 -172 -23l-13 -22c44 8 125 -6 110 -78c-11 -53 -70 -92 -165 -92s-143 31 -129 111h100c-6 -33 13 -41 42 -41c17 0 36 9 40 31c5 26 -18 38 -55 30l-22 20l28 45
c-128 20 -150 112 -125 229l48 226h-101l32 151h101l28 134h204l-28 -134h179z" />
    <glyph glyph-name="uni021B" unicode="&#x21b;" horiz-adv-x="527" 
d="M523 441h-179l-42 -196c-15 -70 -8 -115 69 -115c33 0 67 4 91 9l-9 -134c-49 -15 -111 -23 -180 -23c-178 0 -209 101 -181 233l48 226h-101l32 151h101l28 134h204l-28 -134h179zM267 -20c72 0 100 -17 85 -64c-32 -99 -114 -125 -221 -115l15 45c60 -2 79 3 87 30
c-68 0 -96 14 -84 51c12 39 50 53 118 53z" />
    <glyph glyph-name="uni1E97" unicode="&#x1e97;" horiz-adv-x="527" 
d="M183 727c-71 0 -101 27 -89 87c11 61 52 88 122 88c71 0 100 -27 89 -88c-12 -60 -52 -87 -122 -87zM496 902c71 0 100 -27 89 -88c-12 -60 -52 -87 -123 -87c-70 0 -100 27 -89 87c12 61 53 88 123 88zM200 726h204l-28 -134h179l-32 -151h-179l-42 -196
c-15 -70 -8 -115 69 -115c33 0 67 4 91 9l-9 -134c-49 -15 -111 -23 -180 -23c-178 0 -209 101 -181 233l48 226h-101l32 151h101z" />
    <glyph glyph-name="uni1E6D" unicode="&#x1e6d;" horiz-adv-x="527" 
d="M523 441h-179l-42 -196c-15 -70 -8 -115 69 -115c33 0 67 4 91 9l-9 -134c-49 -15 -111 -23 -180 -23c-178 0 -209 101 -181 233l48 226h-101l32 151h101l28 134h204l-28 -134h179zM268 -38c67 0 90 -19 81 -58c-8 -39 -39 -58 -106 -58s-91 19 -83 58c9 39 41 58 108 58
z" />
    <glyph glyph-name="uni1E6F" unicode="&#x1e6f;" horiz-adv-x="527" 
d="M404 726l-28 -134h179l-32 -151h-179l-42 -196c-15 -70 -8 -115 69 -115c33 0 67 4 91 9l-9 -134c-49 -15 -111 -23 -180 -23c-178 0 -209 101 -181 233l48 226h-101l32 151h101l28 134h204zM470 -131h-423l24 90h422z" />
    <glyph glyph-name="uacute" unicode="&#xfa;" horiz-adv-x="846" 
d="M465 831h193l-138 -163h-122zM577 321l58 271h204l-126 -592h-204l12 55l24 72h-3c-64 -89 -155 -145 -277 -145c-160 0 -252 80 -208 283l69 327h204l-65 -304c-21 -98 16 -147 107 -147c115 0 185 87 205 180z" />
    <glyph glyph-name="ubreve" unicode="&#x16d;" horiz-adv-x="846" 
d="M498 665c-139 0 -186 59 -151 181h120c-18 -59 -2 -87 51 -87c54 0 81 28 89 87h120c-17 -122 -89 -181 -229 -181zM577 321l58 271h204l-126 -592h-204l12 55l24 72h-3c-64 -89 -155 -145 -277 -145c-160 0 -252 80 -208 283l69 327h204l-65 -304
c-21 -98 16 -147 107 -147c115 0 185 87 205 180z" />
    <glyph glyph-name="uni01D4" unicode="&#x1d4;" horiz-adv-x="846" 
d="M727 828l-149 -163h-159l-80 163h110l67 -79l101 79h110zM577 321l58 271h204l-126 -592h-204l12 55l24 72h-3c-64 -89 -155 -145 -277 -145c-160 0 -252 80 -208 283l69 327h204l-65 -304c-21 -98 16 -147 107 -147c115 0 185 87 205 180z" />
    <glyph glyph-name="ucircumflex" unicode="&#xfb;" horiz-adv-x="846" 
d="M583 667l-67 79l-101 -79h-110l149 163h159l80 -163h-110zM577 321l58 271h204l-126 -592h-204l12 55l24 72h-3c-64 -89 -155 -145 -277 -145c-160 0 -252 80 -208 283l69 327h204l-65 -304c-21 -98 16 -147 107 -147c115 0 185 87 205 180z" />
    <glyph glyph-name="udieresis" unicode="&#xfc;" horiz-adv-x="846" 
d="M369 667c-71 0 -101 27 -89 87c11 61 52 88 122 88c71 0 100 -27 89 -88c-12 -60 -52 -87 -122 -87zM648 667c-70 0 -100 27 -89 87c12 61 53 88 123 88c71 0 100 -27 89 -88c-12 -60 -52 -87 -123 -87zM577 321l58 271h204l-126 -592h-204l12 55l24 72h-3
c-64 -89 -155 -145 -277 -145c-160 0 -252 80 -208 283l69 327h204l-65 -304c-21 -98 16 -147 107 -147c115 0 185 87 205 180z" />
    <glyph glyph-name="uni01D8" unicode="&#x1d8;" horiz-adv-x="846" 
d="M505 1061h193l-138 -163h-122zM369 667c-71 0 -101 27 -89 87c11 61 52 88 122 88c71 0 100 -27 89 -88c-12 -60 -52 -87 -122 -87zM559 754c12 61 53 88 123 88c71 0 100 -27 89 -88c-12 -60 -52 -87 -123 -87c-70 0 -100 27 -89 87zM577 321l58 271h204l-126 -592h-204
l12 55l24 72h-3c-64 -89 -155 -145 -277 -145c-160 0 -252 80 -208 283l69 327h204l-65 -304c-21 -98 16 -147 107 -147c115 0 185 87 205 180z" />
    <glyph glyph-name="uni01DA" unicode="&#x1da;" horiz-adv-x="846" 
d="M767 1058l-149 -163h-159l-80 163h110l67 -79l101 79h110zM369 667c-71 0 -101 27 -89 87c11 61 52 88 122 88c71 0 100 -27 89 -88c-12 -60 -52 -87 -122 -87zM682 842c71 0 100 -27 89 -88c-12 -60 -52 -87 -123 -87c-70 0 -100 27 -89 87c12 61 53 88 123 88zM577 321
l58 271h204l-126 -592h-204l12 55l24 72h-3c-64 -89 -155 -145 -277 -145c-160 0 -252 80 -208 283l69 327h204l-65 -304c-21 -98 16 -147 107 -147c115 0 185 87 205 180z" />
    <glyph glyph-name="uni01D6" unicode="&#x1d6;" horiz-adv-x="846" 
d="M352 1011h422l-24 -113h-422zM369 667c-71 0 -101 27 -89 87c11 61 52 88 122 88c71 0 100 -27 89 -88c-12 -60 -52 -87 -122 -87zM559 754c12 61 53 88 123 88c71 0 100 -27 89 -88c-12 -60 -52 -87 -123 -87c-70 0 -100 27 -89 87zM577 321l58 271h204l-126 -592h-204
l12 55l24 72h-3c-64 -89 -155 -145 -277 -145c-160 0 -252 80 -208 283l69 327h204l-65 -304c-21 -98 16 -147 107 -147c115 0 185 87 205 180z" />
    <glyph glyph-name="uni1EE5" unicode="&#x1ee5;" horiz-adv-x="846" 
d="M577 321l58 271h204l-126 -592h-204l12 55l24 72h-3c-64 -89 -155 -145 -277 -145c-160 0 -252 80 -208 283l69 327h204l-65 -304c-21 -98 16 -147 107 -147c115 0 185 87 205 180zM369 -38c67 0 90 -19 81 -58c-8 -39 -39 -58 -106 -58s-91 19 -83 58c9 39 41 58 108 58
z" />
    <glyph glyph-name="ugrave" unicode="&#xf9;" horiz-adv-x="846" 
d="M575 831l66 -163h-121l-139 163h194zM577 321l58 271h204l-126 -592h-204l12 55l24 72h-3c-64 -89 -155 -145 -277 -145c-160 0 -252 80 -208 283l69 327h204l-65 -304c-21 -98 16 -147 107 -147c115 0 185 87 205 180z" />
    <glyph glyph-name="uni1EE7" unicode="&#x1ee7;" horiz-adv-x="846" 
d="M517 773c-14 0 -23 -5 -29 -32h-71c13 69 57 105 124 105c63 0 89 -30 80 -71c-7 -33 -33 -67 -67 -106h-86c43 41 62 69 66 87c3 12 -5 17 -17 17zM577 321l58 271h204l-126 -592h-204l12 55l24 72h-3c-64 -89 -155 -145 -277 -145c-160 0 -252 80 -208 283l69 327h204
l-65 -304c-21 -98 16 -147 107 -147c115 0 185 87 205 180z" />
    <glyph glyph-name="uhorn" unicode="&#x1b0;" horiz-adv-x="902" 
d="M856 713l122 7c0 -128 -60 -184 -155 -204l-110 -516h-204l12 55l24 72h-3c-64 -89 -155 -145 -277 -145c-160 0 -252 80 -208 283l69 327h204l-65 -304c-21 -98 16 -147 107 -147c115 0 185 87 205 180l58 271h87c90 0 131 31 134 121z" />
    <glyph glyph-name="uni1EE9" unicode="&#x1ee9;" horiz-adv-x="902" 
d="M459 831h193l-138 -163h-122zM856 713l122 7c0 -128 -60 -184 -155 -204l-110 -516h-204l12 55l24 72h-3c-64 -89 -155 -145 -277 -145c-160 0 -252 80 -208 283l69 327h204l-65 -304c-21 -98 16 -147 107 -147c115 0 185 87 205 180l58 271h87c90 0 131 31 134 121z" />
    <glyph glyph-name="uni1EF1" unicode="&#x1ef1;" horiz-adv-x="902" 
d="M856 713l122 7c0 -128 -60 -184 -155 -204l-110 -516h-204l12 55l24 72h-3c-64 -89 -155 -145 -277 -145c-160 0 -252 80 -208 283l69 327h204l-65 -304c-21 -98 16 -147 107 -147c115 0 185 87 205 180l58 271h87c90 0 131 31 134 121zM362 -38c67 0 90 -19 81 -58
c-8 -39 -39 -58 -106 -58s-91 19 -83 58c9 39 41 58 108 58z" />
    <glyph glyph-name="uni1EEB" unicode="&#x1eeb;" horiz-adv-x="902" 
d="M569 831l66 -163h-121l-139 163h194zM856 713l122 7c0 -128 -60 -184 -155 -204l-110 -516h-204l12 55l24 72h-3c-64 -89 -155 -145 -277 -145c-160 0 -252 80 -208 283l69 327h204l-65 -304c-21 -98 16 -147 107 -147c115 0 185 87 205 180l58 271h87
c90 0 131 31 134 121z" />
    <glyph glyph-name="uni1EED" unicode="&#x1eed;" horiz-adv-x="902" 
d="M511 773c-14 0 -23 -5 -29 -32h-71c13 69 57 105 124 105c63 0 89 -30 80 -71c-7 -33 -33 -67 -67 -106h-86c43 41 62 69 66 87c3 12 -5 17 -17 17zM856 713l122 7c0 -128 -60 -184 -155 -204l-110 -516h-204l12 55l24 72h-3c-64 -89 -155 -145 -277 -145
c-160 0 -252 80 -208 283l69 327h204l-65 -304c-21 -98 16 -147 107 -147c115 0 185 87 205 180l58 271h87c90 0 131 31 134 121z" />
    <glyph glyph-name="uni1EEF" unicode="&#x1eef;" horiz-adv-x="902" 
d="M434 716c-23 0 -40 -14 -56 -43l-95 17c33 96 81 146 155 146c76 0 112 -51 149 -51c23 0 40 14 55 43l96 -18c-33 -95 -82 -146 -156 -146c-76 0 -111 52 -148 52zM856 713l122 7c0 -128 -60 -184 -155 -204l-110 -516h-204l12 55l24 72h-3c-64 -89 -155 -145 -277 -145
c-160 0 -252 80 -208 283l69 327h204l-65 -304c-21 -98 16 -147 107 -147c115 0 185 87 205 180l58 271h87c90 0 131 31 134 121z" />
    <glyph glyph-name="uhungarumlaut" unicode="&#x171;" horiz-adv-x="846" 
d="M382 830h183l-131 -162h-116zM768 830l-132 -162h-115l63 162h184zM577 321l58 271h204l-126 -592h-204l12 55l24 72h-3c-64 -89 -155 -145 -277 -145c-160 0 -252 80 -208 283l69 327h204l-65 -304c-21 -98 16 -147 107 -147c115 0 185 87 205 180z" />
    <glyph glyph-name="umacron" unicode="&#x16b;" horiz-adv-x="846" 
d="M312 781h422l-24 -113h-422zM577 321l58 271h204l-126 -592h-204l12 55l24 72h-3c-64 -89 -155 -145 -277 -145c-160 0 -252 80 -208 283l69 327h204l-65 -304c-21 -98 16 -147 107 -147c115 0 185 87 205 180z" />
    <glyph glyph-name="uogonek" unicode="&#x173;" horiz-adv-x="846" 
d="M590 -122c21 0 37 14 44 44h109c-19 -89 -73 -128 -185 -128c-97 0 -134 36 -122 94c10 47 64 86 168 112h-95l12 55l24 72h-3c-64 -89 -155 -145 -277 -145c-160 0 -252 80 -208 283l69 327h204l-65 -304c-21 -98 16 -147 107 -147c115 0 185 87 205 180l58 271h204
l-126 -592h-1c-100 -36 -139 -65 -146 -97c-3 -13 2 -25 24 -25z" />
    <glyph glyph-name="uring" unicode="&#x16f;" horiz-adv-x="846" 
d="M497 662c-111 0 -154 35 -138 109c16 73 73 109 184 109c110 0 153 -36 137 -109c-16 -74 -74 -109 -183 -109zM470 771c-7 -31 10 -43 41 -43c30 0 52 12 59 43c6 31 -11 43 -41 43c-31 0 -53 -12 -59 -43zM577 321l58 271h204l-126 -592h-204l12 55l24 72h-3
c-64 -89 -155 -145 -277 -145c-160 0 -252 80 -208 283l69 327h204l-65 -304c-21 -98 16 -147 107 -147c115 0 185 87 205 180z" />
    <glyph glyph-name="utilde" unicode="&#x169;" horiz-adv-x="846" 
d="M440 716c-23 0 -40 -14 -56 -43l-95 17c33 96 81 146 155 146c76 0 112 -51 149 -51c23 0 40 14 55 43l96 -18c-33 -95 -82 -146 -156 -146c-76 0 -111 52 -148 52zM577 321l58 271h204l-126 -592h-204l12 55l24 72h-3c-64 -89 -155 -145 -277 -145
c-160 0 -252 80 -208 283l69 327h204l-65 -304c-21 -98 16 -147 107 -147c115 0 185 87 205 180z" />
    <glyph glyph-name="wacute" unicode="&#x1e83;" horiz-adv-x="1158" 
d="M818 831l-138 -163h-122l67 163h193zM393 0h-262l-61 592h216l19 -351l-3 -99h6l39 91l178 359h235l24 -359l2 -91h5l39 99l169 351h215l-313 -592h-262l-26 350v92h-6l-38 -92z" />
    <glyph glyph-name="wcircumflex" unicode="&#x175;" horiz-adv-x="1158" 
d="M575 667h-110l149 163h159l80 -163h-110l-67 79zM393 0h-262l-61 592h216l19 -351l-3 -99h6l39 91l178 359h235l24 -359l2 -91h5l39 99l169 351h215l-313 -592h-262l-26 350v92h-6l-38 -92z" />
    <glyph glyph-name="wdieresis" unicode="&#x1e85;" horiz-adv-x="1158" 
d="M529 667c-71 0 -101 27 -89 87c11 61 52 88 122 88c71 0 100 -27 89 -88c-12 -60 -52 -87 -122 -87zM808 667c-70 0 -100 27 -89 87c12 61 53 88 123 88c71 0 100 -27 89 -88c-12 -60 -52 -87 -123 -87zM393 0h-262l-61 592h216l19 -351l-3 -99h6l39 91l178 359h235
l24 -359l2 -91h5l39 99l169 351h215l-313 -592h-262l-26 350v92h-6l-38 -92z" />
    <glyph glyph-name="wgrave" unicode="&#x1e81;" horiz-adv-x="1158" 
d="M801 668h-121l-139 163h194zM393 0h-262l-61 592h216l19 -351l-3 -99h6l39 91l178 359h235l24 -359l2 -91h5l39 99l169 351h215l-313 -592h-262l-26 350v92h-6l-38 -92z" />
    <glyph glyph-name="yacute" unicode="&#xfd;" horiz-adv-x="765" 
d="M622 831l-138 -163h-122l67 163h193zM93 -196l-7 123c84 18 144 42 184 97l6 9h-80l-126 559h222l61 -377v-46h4l19 46l223 377h222l-370 -572c-84 -128 -194 -198 -358 -216z" />
    <glyph glyph-name="ycircumflex" unicode="&#x177;" horiz-adv-x="765" 
d="M378 667h-110l149 163h159l80 -163h-110l-67 79zM93 -196l-7 123c84 18 144 42 184 97l6 9h-80l-126 559h222l61 -377v-46h4l19 46l223 377h222l-370 -572c-84 -128 -194 -198 -358 -216z" />
    <glyph glyph-name="ydieresis" unicode="&#xff;" horiz-adv-x="765" 
d="M332 667c-71 0 -101 27 -89 87c11 61 52 88 122 88c71 0 100 -27 89 -88c-12 -60 -52 -87 -122 -87zM611 667c-70 0 -100 27 -89 87c12 61 53 88 123 88c71 0 100 -27 89 -88c-12 -60 -52 -87 -123 -87zM93 -196l-7 123c84 18 144 42 184 97l6 9h-80l-126 559h222
l61 -377v-46h4l19 46l223 377h222l-370 -572c-84 -128 -194 -198 -358 -216z" />
    <glyph glyph-name="uni1E8F" unicode="&#x1e8f;" horiz-adv-x="765" 
d="M463 669c-79 0 -107 23 -97 70s48 70 127 70c78 0 105 -23 95 -70c-9 -47 -46 -70 -125 -70zM93 -196l-7 123c84 18 144 42 184 97l6 9h-80l-126 559h222l61 -377v-46h4l19 46l223 377h222l-370 -572c-84 -128 -194 -198 -358 -216z" />
    <glyph glyph-name="uni1EF5" unicode="&#x1ef5;" horiz-adv-x="765" 
d="M93 -196l-7 123c84 18 144 42 184 97l6 9h-80l-126 559h222l61 -377v-46h4l19 46l223 377h222l-370 -572c-84 -128 -194 -198 -358 -216zM273 -310c-67 0 -91 19 -83 58c9 39 41 58 108 58s90 -19 81 -58c-8 -39 -39 -58 -106 -58z" />
    <glyph glyph-name="ygrave" unicode="&#x1ef3;" horiz-adv-x="765" 
d="M605 668h-121l-139 163h194zM93 -196l-7 123c84 18 144 42 184 97l6 9h-80l-126 559h222l61 -377v-46h4l19 46l223 377h222l-370 -572c-84 -128 -194 -198 -358 -216z" />
    <glyph glyph-name="uni1EF7" unicode="&#x1ef7;" horiz-adv-x="765" 
d="M518 669h-86c43 41 62 69 66 87c3 12 -5 17 -17 17c-14 0 -23 -5 -29 -32h-71c13 69 57 105 124 105c63 0 89 -30 80 -71c-7 -33 -33 -67 -67 -106zM93 -196l-7 123c84 18 144 42 184 97l6 9h-80l-126 559h222l61 -377v-46h4l19 46l223 377h222l-370 -572
c-84 -128 -194 -198 -358 -216z" />
    <glyph glyph-name="uni0233" unicode="&#x233;" horiz-adv-x="765" 
d="M673 668h-422l24 113h422zM93 -196l-7 123c84 18 144 42 184 97l6 9h-80l-126 559h222l61 -377v-46h4l19 46l223 377h222l-370 -572c-84 -128 -194 -198 -358 -216z" />
    <glyph glyph-name="uni1EF9" unicode="&#x1ef9;" horiz-adv-x="765" 
d="M551 664c-76 0 -111 52 -148 52c-23 0 -40 -14 -56 -43l-95 17c33 96 81 146 155 146c76 0 112 -51 149 -51c23 0 40 14 55 43l96 -18c-33 -95 -82 -146 -156 -146zM93 -196l-7 123c84 18 144 42 184 97l6 9h-80l-126 559h222l61 -377v-46h4l19 46l223 377h222l-370 -572
c-84 -128 -194 -198 -358 -216z" />
    <glyph glyph-name="zacute" unicode="&#x17a;" horiz-adv-x="674" 
d="M578 831l-138 -163h-122l67 163h193zM589 0h-625l28 129l413 316h-321l31 147h584l-28 -132l-406 -314h355z" />
    <glyph glyph-name="zcaron" unicode="&#x17e;" horiz-adv-x="674" 
d="M338 665l-80 163h110l67 -79l101 79h110l-149 -163h-159zM589 0h-625l28 129l413 316h-321l31 147h584l-28 -132l-406 -314h355z" />
    <glyph glyph-name="zdotaccent" unicode="&#x17c;" horiz-adv-x="674" 
d="M419 669c-79 0 -107 23 -97 70s48 70 127 70c78 0 105 -23 95 -70c-9 -47 -46 -70 -125 -70zM589 0h-625l28 129l413 316h-321l31 147h584l-28 -132l-406 -314h355z" />
    <glyph glyph-name="uni1E93" unicode="&#x1e93;" horiz-adv-x="674" 
d="M589 0h-625l28 129l413 316h-321l31 147h584l-28 -132l-406 -314h355zM262 -154c-67 0 -91 19 -83 58c9 39 41 58 108 58s90 -19 81 -58c-8 -39 -39 -58 -106 -58z" />
    <glyph glyph-name="f.calt" horiz-adv-x="497" 
d="M485 653c-67 0 -91 -25 -102 -61h179l-31 -147h-180l-95 -445h-204l95 445h-107l32 147h109c34 109 103 206 278 206c59 0 113 -9 150 -21l-34 -133c-33 6 -55 9 -90 9z" />
    <glyph glyph-name="a.ss01" horiz-adv-x="829" 
d="M607 555l7 37h208l-126 -592h-208l9 37l24 71h-8c-58 -82 -157 -126 -269 -126c-176 0 -251 125 -212 309l4 17c39 185 166 302 355 302c101 0 177 -46 201 -126h9zM550 287l5 22c17 75 -16 155 -128 155c-113 0 -169 -73 -188 -159l-5 -21c-16 -80 8 -156 119 -156
c121 0 180 76 197 159z" />
    <glyph glyph-name="aacute.ss01" horiz-adv-x="829" 
d="M447 831h193l-138 -163h-122zM607 555l7 37h208l-126 -592h-208l9 37l24 71h-8c-58 -82 -157 -126 -269 -126c-176 0 -251 125 -212 309l4 17c39 185 166 302 355 302c101 0 177 -46 201 -126h9zM550 287l5 22c17 75 -16 155 -128 155c-113 0 -169 -73 -188 -159l-5 -21
c-16 -80 8 -156 119 -156c121 0 180 76 197 159z" />
    <glyph glyph-name="abreve.ss01" horiz-adv-x="829" 
d="M480 665c-139 0 -186 59 -151 181h120c-18 -59 -2 -87 51 -87c54 0 81 28 89 87h120c-17 -122 -89 -181 -229 -181zM607 555l7 37h208l-126 -592h-208l9 37l24 71h-8c-58 -82 -157 -126 -269 -126c-176 0 -251 125 -212 309l4 17c39 185 166 302 355 302
c101 0 177 -46 201 -126h9zM550 287l5 22c17 75 -16 155 -128 155c-113 0 -169 -73 -188 -159l-5 -21c-16 -80 8 -156 119 -156c121 0 180 76 197 159z" />
    <glyph glyph-name="uni1EAF.ss01" horiz-adv-x="829" 
d="M528 989l155 1l-165 -131l-97 -1zM480 665c-139 0 -186 59 -152 181h121c-18 -59 -3 -87 51 -87c53 0 81 28 89 87h120c-17 -123 -89 -181 -229 -181zM607 555l7 37h208l-126 -592h-208l9 37l24 71h-8c-58 -82 -157 -126 -269 -126c-176 0 -251 125 -212 309l4 17
c39 185 166 302 355 302c101 0 177 -46 201 -126h9zM550 287l5 22c17 75 -16 155 -128 155c-113 0 -169 -73 -188 -159l-5 -21c-16 -80 8 -156 119 -156c121 0 180 76 197 159z" />
    <glyph glyph-name="uni1EB7.ss01" horiz-adv-x="829" 
d="M480 665c-139 0 -186 59 -151 181h120c-18 -59 -2 -87 51 -87c54 0 81 28 89 87h120c-17 -122 -89 -181 -229 -181zM607 555l7 37h208l-126 -592h-208l9 37l24 71h-8c-58 -82 -157 -126 -269 -126c-176 0 -251 125 -212 309l4 17c39 185 166 302 355 302
c101 0 177 -46 201 -126h9zM550 287l5 22c17 75 -16 155 -128 155c-113 0 -169 -73 -188 -159l-5 -21c-16 -80 8 -156 119 -156c121 0 180 76 197 159zM350 -38c67 0 90 -19 81 -58c-8 -39 -39 -58 -106 -58s-91 19 -83 58c9 39 41 58 108 58z" />
    <glyph glyph-name="uni1EB1.ss01" horiz-adv-x="829" 
d="M570 989l52 -131l-97 1l-109 131zM481 665c-140 0 -188 58 -153 181h120c-17 -59 -2 -87 52 -87s81 28 89 87h120c-17 -122 -89 -181 -228 -181zM607 555l7 37h208l-126 -592h-208l9 37l24 71h-8c-58 -82 -157 -126 -269 -126c-176 0 -251 125 -212 309l4 17
c39 185 166 302 355 302c101 0 177 -46 201 -126h9zM550 287l5 22c17 75 -16 155 -128 155c-113 0 -169 -73 -188 -159l-5 -21c-16 -80 8 -156 119 -156c121 0 180 76 197 159z" />
    <glyph glyph-name="uni1EB3.ss01" horiz-adv-x="829" 
d="M548 943c-11 0 -18 -4 -23 -25h-56c11 54 45 82 98 82c49 0 69 -23 62 -55c-6 -26 -25 -52 -52 -83h-67c33 32 48 54 51 68c3 9 -4 13 -13 13zM480 665c-139 0 -186 59 -151 181h120c-18 -59 -2 -87 51 -87c54 0 81 28 89 87h120c-17 -122 -89 -181 -229 -181zM607 555
l7 37h208l-126 -592h-208l9 37l24 71h-8c-58 -82 -157 -126 -269 -126c-176 0 -251 125 -212 309l4 17c39 185 166 302 355 302c101 0 177 -46 201 -126h9zM550 287l5 22c17 75 -16 155 -128 155c-113 0 -169 -73 -188 -159l-5 -21c-16 -80 8 -156 119 -156
c121 0 180 76 197 159z" />
    <glyph glyph-name="uni1EB5.ss01" horiz-adv-x="829" 
d="M497 926c-18 0 -31 -11 -43 -33l-73 13c26 73 62 112 119 112c59 0 86 -39 114 -39c18 0 31 11 43 33l73 -14c-26 -73 -62 -112 -120 -112s-85 40 -113 40zM479 665c-139 0 -186 59 -151 181h120c-18 -59 -2 -87 51 -87c54 0 81 28 89 87h120
c-17 -122 -89 -181 -229 -181zM607 555l7 37h208l-126 -592h-208l9 37l24 71h-8c-58 -82 -157 -126 -269 -126c-176 0 -251 125 -212 309l4 17c39 185 166 302 355 302c101 0 177 -46 201 -126h9zM550 287l5 22c17 75 -16 155 -128 155c-113 0 -169 -73 -188 -159l-5 -21
c-16 -80 8 -156 119 -156c121 0 180 76 197 159z" />
    <glyph glyph-name="uni01CE.ss01" horiz-adv-x="829" 
d="M709 828l-149 -163h-159l-80 163h110l67 -79l101 79h110zM607 555l7 37h208l-126 -592h-208l9 37l24 71h-8c-58 -82 -157 -126 -269 -126c-176 0 -251 125 -212 309l4 17c39 185 166 302 355 302c101 0 177 -46 201 -126h9zM550 287l5 22c17 75 -16 155 -128 155
c-113 0 -169 -73 -188 -159l-5 -21c-16 -80 8 -156 119 -156c121 0 180 76 197 159z" />
    <glyph glyph-name="acircumflex.ss01" horiz-adv-x="829" 
d="M565 667l-67 79l-101 -79h-110l149 163h159l80 -163h-110zM607 555l7 37h208l-126 -592h-208l9 37l24 71h-8c-58 -82 -157 -126 -269 -126c-176 0 -251 125 -212 309l4 17c39 185 166 302 355 302c101 0 177 -46 201 -126h9zM550 287l5 22c17 75 -16 155 -128 155
c-113 0 -169 -73 -188 -159l-5 -21c-16 -80 8 -156 119 -156c121 0 180 76 197 159z" />
    <glyph glyph-name="uni1EA5.ss01" horiz-adv-x="829" 
d="M741 869l135 -1l-148 -128h-85zM565 667l-67 79l-101 -79h-110l150 163h159l79 -163h-110zM601 484l6 71l7 37h208l-126 -592h-208l9 37l24 71h-8c-58 -82 -157 -126 -269 -126c-176 0 -251 125 -212 309l4 17c39 185 166 302 355 302c101 0 177 -46 201 -126h9zM550 287
l5 22c17 75 -16 155 -128 155c-113 0 -169 -73 -188 -159l-5 -21c-16 -80 8 -156 119 -156c121 0 180 76 197 159z" />
    <glyph glyph-name="uni1EAD.ss01" horiz-adv-x="829" 
d="M565 667l-67 79l-101 -79h-110l149 163h159l80 -163h-110zM607 555l7 37h208l-126 -592h-208l9 37l24 71h-8c-58 -82 -157 -126 -269 -126c-176 0 -251 125 -212 309l4 17c39 185 166 302 355 302c101 0 177 -46 201 -126h9zM550 287l5 22c17 75 -16 155 -128 155
c-113 0 -169 -73 -188 -159l-5 -21c-16 -80 8 -156 119 -156c121 0 180 76 197 159zM350 -38c67 0 90 -19 81 -58c-8 -39 -39 -58 -106 -58s-91 19 -83 58c9 39 41 58 108 58z" />
    <glyph glyph-name="uni1EA7.ss01" horiz-adv-x="829" 
d="M711 945l43 -131h-85l-93 131h135zM565 667l-67 79l-101 -79h-110l149 163h159l80 -163h-110zM607 555l7 37h208l-126 -592h-208l9 37l24 71h-8c-58 -82 -157 -126 -269 -126c-176 0 -251 125 -212 309l4 17c39 185 166 302 355 302c101 0 177 -46 201 -126h9zM550 287
l5 22c17 75 -16 155 -128 155c-113 0 -169 -73 -188 -159l-5 -21c-16 -80 8 -156 119 -156c121 0 180 76 197 159z" />
    <glyph glyph-name="uni1EA9.ss01" horiz-adv-x="829" 
d="M714 841c-11 0 -18 -5 -23 -26h-56c11 54 45 83 98 83c50 0 70 -24 62 -55c-5 -26 -25 -53 -52 -84h-67c33 32 48 54 51 68c3 10 -3 14 -13 14zM566 667l-68 79l-100 -79h-110l149 163h159l80 -163h-110zM607 555l7 37h208l-126 -592h-208l9 37l24 71h-8
c-58 -82 -157 -126 -269 -126c-176 0 -251 125 -212 309l4 17c39 185 166 302 355 302c101 0 177 -46 201 -126h9zM550 287l5 22c17 75 -16 155 -128 155c-113 0 -169 -73 -188 -159l-5 -21c-16 -80 8 -156 119 -156c121 0 180 76 197 159z" />
    <glyph glyph-name="uni1EAB.ss01" horiz-adv-x="829" 
d="M502 906c-16 0 -28 -10 -39 -30l-67 12c23 67 57 103 109 103c53 0 78 -36 104 -36c16 0 28 10 39 30l67 -13c-23 -66 -57 -102 -109 -102c-54 0 -78 36 -104 36zM565 667l-68 79l-100 -79h-110l149 163h159l80 -163h-110zM607 555l7 37h208l-126 -592h-208l9 37l24 71
h-8c-58 -82 -157 -126 -269 -126c-176 0 -251 125 -212 309l4 17c39 185 166 302 355 302c101 0 177 -46 201 -126h9zM550 287l5 22c17 75 -16 155 -128 155c-113 0 -169 -73 -188 -159l-5 -21c-16 -80 8 -156 119 -156c121 0 180 76 197 159z" />
    <glyph glyph-name="adieresis.ss01" horiz-adv-x="829" 
d="M351 667c-71 0 -101 27 -89 87c11 61 52 88 122 88c71 0 100 -27 89 -88c-12 -60 -52 -87 -122 -87zM630 667c-70 0 -100 27 -89 87c12 61 53 88 123 88c71 0 100 -27 89 -88c-12 -60 -52 -87 -123 -87zM607 555l7 37h208l-126 -592h-208l9 37l24 71h-8
c-58 -82 -157 -126 -269 -126c-176 0 -251 125 -212 309l4 17c39 185 166 302 355 302c101 0 177 -46 201 -126h9zM550 287l5 22c17 75 -16 155 -128 155c-113 0 -169 -73 -188 -159l-5 -21c-16 -80 8 -156 119 -156c121 0 180 76 197 159z" />
    <glyph glyph-name="uni1EA1.ss01" horiz-adv-x="829" 
d="M607 555l7 37h208l-126 -592h-208l9 37l24 71h-8c-58 -82 -157 -126 -269 -126c-176 0 -251 125 -212 309l4 17c39 185 166 302 355 302c101 0 177 -46 201 -126h9zM550 287l5 22c17 75 -16 155 -128 155c-113 0 -169 -73 -188 -159l-5 -21c-16 -80 8 -156 119 -156
c121 0 180 76 197 159zM350 -38c67 0 90 -19 81 -58c-8 -39 -39 -58 -106 -58s-91 19 -83 58c9 39 41 58 108 58z" />
    <glyph glyph-name="agrave.ss01" horiz-adv-x="829" 
d="M557 831l66 -163h-121l-139 163h194zM607 555l7 37h208l-126 -592h-208l9 37l24 71h-8c-58 -82 -157 -126 -269 -126c-176 0 -251 125 -212 309l4 17c39 185 166 302 355 302c101 0 177 -46 201 -126h9zM550 287l5 22c17 75 -16 155 -128 155c-113 0 -169 -73 -188 -159
l-5 -21c-16 -80 8 -156 119 -156c121 0 180 76 197 159z" />
    <glyph glyph-name="uni1EA3.ss01" horiz-adv-x="829" 
d="M499 773c-14 0 -23 -5 -29 -32h-71c13 69 57 105 124 105c63 0 89 -30 80 -71c-7 -33 -33 -67 -67 -106h-86c43 41 62 69 66 87c3 12 -5 17 -17 17zM607 555l7 37h208l-126 -592h-208l9 37l24 71h-8c-58 -82 -157 -126 -269 -126c-176 0 -251 125 -212 309l4 17
c39 185 166 302 355 302c101 0 177 -46 201 -126h9zM550 287l5 22c17 75 -16 155 -128 155c-113 0 -169 -73 -188 -159l-5 -21c-16 -80 8 -156 119 -156c121 0 180 76 197 159z" />
    <glyph glyph-name="amacron.ss01" horiz-adv-x="829" 
d="M294 781h422l-24 -113h-422zM607 555l7 37h208l-126 -592h-208l9 37l24 71h-8c-58 -82 -157 -126 -269 -126c-176 0 -251 125 -212 309l4 17c39 185 166 302 355 302c101 0 177 -46 201 -126h9zM550 287l5 22c17 75 -16 155 -128 155c-113 0 -169 -73 -188 -159l-5 -21
c-16 -80 8 -156 119 -156c121 0 180 76 197 159z" />
    <glyph glyph-name="aogonek.ss01" horiz-adv-x="829" 
d="M573 -122c21 0 37 14 44 44h109c-19 -89 -73 -128 -185 -128c-97 0 -134 36 -122 94c10 47 64 86 168 112h-99l9 37l24 71h-8c-58 -82 -157 -126 -269 -126c-176 0 -251 125 -212 309l4 17c39 185 166 302 355 302c101 0 177 -46 201 -126h9l6 71l7 37h208l-126 -592h-1
c-100 -36 -139 -65 -146 -97c-3 -13 2 -25 24 -25zM550 287l5 22c17 75 -16 155 -128 155c-113 0 -169 -73 -188 -159l-5 -21c-16 -80 8 -156 119 -156c121 0 180 76 197 159z" />
    <glyph glyph-name="aring.ss01" horiz-adv-x="829" 
d="M480 662c-111 0 -154 35 -138 109c16 73 73 109 184 109c110 0 153 -36 137 -109c-16 -74 -74 -109 -183 -109zM453 771c-7 -31 10 -43 41 -43c30 0 52 12 59 43c6 31 -11 43 -41 43c-31 0 -53 -12 -59 -43zM607 555l7 37h208l-126 -592h-208l9 37l24 71h-8
c-58 -82 -157 -126 -269 -126c-176 0 -251 125 -212 309l4 17c39 185 166 302 355 302c101 0 177 -46 201 -126h9zM550 287l5 22c17 75 -16 155 -128 155c-113 0 -169 -73 -188 -159l-5 -21c-16 -80 8 -156 119 -156c121 0 180 76 197 159z" />
    <glyph glyph-name="aringacute.ss01" horiz-adv-x="829" 
d="M513 1139h193l-138 -163h-122zM480 662c-111 0 -154 35 -138 109c16 73 73 109 184 109c110 0 153 -36 137 -109c-16 -74 -74 -109 -183 -109zM453 771c-7 -31 10 -43 41 -43c30 0 52 12 59 43c6 31 -11 43 -41 43c-31 0 -53 -12 -59 -43zM607 555l7 37h208l-126 -592
h-208l9 37l24 71h-8c-58 -82 -157 -126 -269 -126c-176 0 -251 125 -212 309l4 17c39 185 166 302 355 302c101 0 177 -46 201 -126h9zM550 287l5 22c17 75 -16 155 -128 155c-113 0 -169 -73 -188 -159l-5 -21c-16 -80 8 -156 119 -156c121 0 180 76 197 159z" />
    <glyph glyph-name="atilde.ss01" horiz-adv-x="829" 
d="M422 716c-23 0 -40 -14 -56 -43l-95 17c33 96 81 146 155 146c76 0 112 -51 149 -51c23 0 40 14 55 43l96 -18c-33 -95 -82 -146 -156 -146c-76 0 -111 52 -148 52zM607 555l7 37h208l-126 -592h-208l9 37l24 71h-8c-58 -82 -157 -126 -269 -126
c-176 0 -251 125 -212 309l4 17c39 185 166 302 355 302c101 0 177 -46 201 -126h9zM550 287l5 22c17 75 -16 155 -128 155c-113 0 -169 -73 -188 -159l-5 -21c-16 -80 8 -156 119 -156c121 0 180 76 197 159z" />
    <glyph glyph-name="i.ss01" horiz-adv-x="389" 
d="M323 832c79 0 112 -27 99 -88c-13 -60 -57 -87 -136 -87c-80 0 -113 27 -100 87c13 61 58 88 137 88zM71 592h311l-126 -592h-204l95 445h-107z" />
    <glyph glyph-name="g.ss02" horiz-adv-x="775" 
d="M450 610h378l-31 -143c-31 9 -62 18 -93 26c25 -30 35 -66 27 -103l-2 -11c-24 -111 -143 -180 -362 -180c-58 0 -107 5 -148 14c-12 -9 -22 -20 -25 -34c-4 -17 15 -25 49 -27l215 -12c189 -12 260 -70 239 -166l-2 -10c-26 -128 -154 -160 -401 -160
c-292 0 -357 68 -340 151l2 10c8 38 47 73 90 95c-29 21 -37 49 -30 82c9 43 50 83 107 113c-46 34 -62 82 -49 142l4 17c25 116 157 196 358 196h14zM538 397l3 12c9 46 -31 75 -114 75c-87 0 -139 -24 -150 -79l-3 -13c-12 -53 30 -76 117 -76c82 0 134 19 147 81zM385 14
l-194 9c-9 0 -17 1 -25 2c-15 -11 -29 -26 -33 -46l-1 -9c-7 -27 23 -43 178 -43c159 0 188 10 193 37l2 9c5 20 -22 35 -120 41z" />
    <glyph glyph-name="gbreve.ss02" horiz-adv-x="775" 
d="M466 665c-139 0 -186 59 -151 181h120c-18 -59 -2 -87 51 -87c54 0 81 28 89 87h120c-17 -122 -89 -181 -229 -181zM450 610h378l-31 -143c-31 9 -62 18 -93 26c25 -30 35 -66 27 -103l-2 -11c-24 -111 -143 -180 -362 -180c-58 0 -107 5 -148 14c-12 -9 -22 -20 -25 -34
c-4 -17 15 -25 49 -27l215 -12c189 -12 260 -70 239 -166l-2 -10c-26 -128 -154 -160 -401 -160c-292 0 -357 68 -340 151l2 10c8 38 47 73 90 95c-29 21 -37 49 -30 82c9 43 50 83 107 113c-46 34 -62 82 -49 142l4 17c25 116 157 196 358 196h14zM538 397l3 12
c9 46 -31 75 -114 75c-87 0 -139 -24 -150 -79l-3 -13c-12 -53 30 -76 117 -76c82 0 134 19 147 81zM385 14l-194 9c-9 0 -17 1 -25 2c-15 -11 -29 -26 -33 -46l-1 -9c-7 -27 23 -43 178 -43c159 0 188 10 193 37l2 9c5 20 -22 35 -120 41z" />
    <glyph glyph-name="gcaron.ss02" horiz-adv-x="775" 
d="M696 828l-149 -163h-159l-80 163h110l67 -79l101 79h110zM450 610h378l-31 -143c-31 9 -62 18 -93 26c25 -30 35 -66 27 -103l-2 -11c-24 -111 -143 -180 -362 -180c-58 0 -107 5 -148 14c-12 -9 -22 -20 -25 -34c-4 -17 15 -25 49 -27l215 -12c189 -12 260 -70 239 -166
l-2 -10c-26 -128 -154 -160 -401 -160c-292 0 -357 68 -340 151l2 10c8 38 47 73 90 95c-29 21 -37 49 -30 82c9 43 50 83 107 113c-46 34 -62 82 -49 142l4 17c25 116 157 196 358 196h14zM538 397l3 12c9 46 -31 75 -114 75c-87 0 -139 -24 -150 -79l-3 -13
c-12 -53 30 -76 117 -76c82 0 134 19 147 81zM385 14l-194 9c-9 0 -17 1 -25 2c-15 -11 -29 -26 -33 -46l-1 -9c-7 -27 23 -43 178 -43c159 0 188 10 193 37l2 9c5 20 -22 35 -120 41z" />
    <glyph glyph-name="gcircumflex.ss02" horiz-adv-x="775" 
d="M551 667l-67 79l-101 -79h-110l149 163h159l80 -163h-110zM450 610h378l-31 -143c-31 9 -62 18 -93 26c25 -30 35 -66 27 -103l-2 -11c-24 -111 -143 -180 -362 -180c-58 0 -107 5 -148 14c-12 -9 -22 -20 -25 -34c-4 -17 15 -25 49 -27l215 -12
c189 -12 260 -70 239 -166l-2 -10c-26 -128 -154 -160 -401 -160c-292 0 -357 68 -340 151l2 10c8 38 47 73 90 95c-29 21 -37 49 -30 82c9 43 50 83 107 113c-46 34 -62 82 -49 142l4 17c25 116 157 196 358 196h14zM538 397l3 12c9 46 -31 75 -114 75
c-87 0 -139 -24 -150 -79l-3 -13c-12 -53 30 -76 117 -76c82 0 134 19 147 81zM385 14l-194 9c-9 0 -17 1 -25 2c-15 -11 -29 -26 -33 -46l-1 -9c-7 -27 23 -43 178 -43c159 0 188 10 193 37l2 9c5 20 -22 35 -120 41z" />
    <glyph glyph-name="uni0123.ss02" horiz-adv-x="775" 
d="M468 656c-56 0 -77 20 -65 74c24 115 87 146 169 134l-11 -52c-46 2 -61 -4 -67 -35c52 0 74 -17 65 -59c-10 -46 -39 -62 -91 -62zM450 610h378l-31 -143c-31 9 -62 18 -93 26c25 -30 35 -66 27 -103l-2 -11c-24 -111 -143 -180 -362 -180c-58 0 -107 5 -148 14
c-12 -9 -22 -20 -25 -34c-4 -17 15 -25 49 -27l215 -12c189 -12 260 -70 239 -166l-2 -10c-26 -128 -154 -160 -401 -160c-292 0 -357 68 -340 151l2 10c8 38 47 73 90 95c-29 21 -37 49 -30 82c9 43 50 83 107 113c-46 34 -62 82 -49 142l4 17c25 116 157 196 358 196h14z
M538 397l3 12c9 46 -31 75 -114 75c-87 0 -139 -24 -150 -79l-3 -13c-12 -53 30 -76 117 -76c82 0 134 19 147 81zM385 14l-194 9c-9 0 -17 1 -25 2c-15 -11 -29 -26 -33 -46l-1 -9c-7 -27 23 -43 178 -43c159 0 188 10 193 37l2 9c5 20 -22 35 -120 41z" />
    <glyph glyph-name="gdotaccent.ss02" horiz-adv-x="775" 
d="M468 669c-79 0 -107 23 -97 70s48 70 127 70c78 0 105 -23 95 -70c-9 -47 -46 -70 -125 -70zM450 610h378l-31 -143c-31 9 -62 18 -93 26c25 -30 35 -66 27 -103l-2 -11c-24 -111 -143 -180 -362 -180c-58 0 -107 5 -148 14c-12 -9 -22 -20 -25 -34c-4 -17 15 -25 49 -27
l215 -12c189 -12 260 -70 239 -166l-2 -10c-26 -128 -154 -160 -401 -160c-292 0 -357 68 -340 151l2 10c8 38 47 73 90 95c-29 21 -37 49 -30 82c9 43 50 83 107 113c-46 34 -62 82 -49 142l4 17c25 116 157 196 358 196h14zM538 397l3 12c9 46 -31 75 -114 75
c-87 0 -139 -24 -150 -79l-3 -13c-12 -53 30 -76 117 -76c82 0 134 19 147 81zM385 14l-194 9c-9 0 -17 1 -25 2c-15 -11 -29 -26 -33 -46l-1 -9c-7 -27 23 -43 178 -43c159 0 188 10 193 37l2 9c5 20 -22 35 -120 41z" />
    <glyph glyph-name="uni1E21.ss02" horiz-adv-x="775" 
d="M280 781h422l-24 -113h-422zM450 610h378l-31 -143c-31 9 -62 18 -93 26c25 -30 35 -66 27 -103l-2 -11c-24 -111 -143 -180 -362 -180c-58 0 -107 5 -148 14c-12 -9 -22 -20 -25 -34c-4 -17 15 -25 49 -27l215 -12c189 -12 260 -70 239 -166l-2 -10
c-26 -128 -154 -160 -401 -160c-292 0 -357 68 -340 151l2 10c8 38 47 73 90 95c-29 21 -37 49 -30 82c9 43 50 83 107 113c-46 34 -62 82 -49 142l4 17c25 116 157 196 358 196h14zM538 397l3 12c9 46 -31 75 -114 75c-87 0 -139 -24 -150 -79l-3 -13
c-12 -53 30 -76 117 -76c82 0 134 19 147 81zM385 14l-194 9c-9 0 -17 1 -25 2c-15 -11 -29 -26 -33 -46l-1 -9c-7 -27 23 -43 178 -43c159 0 188 10 193 37l2 9c5 20 -22 35 -120 41z" />
    <glyph glyph-name="e.ss03" horiz-adv-x="783" 
d="M451 610c228 0 341 -109 299 -306l-5 -23l-4 -19l-512 -10c-12 -87 46 -126 130 -126c92 0 145 34 169 93l2 3h200l-1 -3c-45 -136 -173 -237 -398 -237c-219 0 -341 106 -298 309l7 32c38 182 193 287 411 287zM433 472c-80 0 -145 -32 -176 -105l306 7
c-2 61 -42 98 -130 98z" />
    <glyph glyph-name="eacute.ss03" horiz-adv-x="783" 
d="M440 831h193l-138 -163h-122zM451 610c228 0 341 -109 299 -306l-5 -23l-4 -19l-512 -10c-12 -87 46 -126 130 -126c92 0 145 34 169 93l2 3h200l-1 -3c-45 -136 -173 -237 -398 -237c-219 0 -341 106 -298 309l7 32c38 182 193 287 411 287zM433 472
c-80 0 -145 -32 -176 -105l306 7c-2 61 -42 98 -130 98z" />
    <glyph glyph-name="ebreve.ss03" horiz-adv-x="783" 
d="M472 665c-139 0 -186 59 -151 181h120c-18 -59 -2 -87 51 -87c54 0 81 28 89 87h120c-17 -122 -89 -181 -229 -181zM451 610c228 0 341 -109 299 -306l-5 -23l-4 -19l-512 -10c-12 -87 46 -126 130 -126c92 0 145 34 169 93l2 3h200l-1 -3c-45 -136 -173 -237 -398 -237
c-219 0 -341 106 -298 309l7 32c38 182 193 287 411 287zM433 472c-80 0 -145 -32 -176 -105l306 7c-2 61 -42 98 -130 98z" />
    <glyph glyph-name="ecaron.ss03" horiz-adv-x="783" 
d="M701 828l-149 -163h-159l-80 163h110l67 -79l101 79h110zM451 610c228 0 341 -109 299 -306l-5 -23l-4 -19l-512 -10c-12 -87 46 -126 130 -126c92 0 145 34 169 93l2 3h200l-1 -3c-45 -136 -173 -237 -398 -237c-219 0 -341 106 -298 309l7 32c38 182 193 287 411 287z
M433 472c-80 0 -145 -32 -176 -105l306 7c-2 61 -42 98 -130 98z" />
    <glyph glyph-name="ecircumflex.ss03" horiz-adv-x="783" 
d="M557 667l-67 79l-101 -79h-110l149 163h159l80 -163h-110zM451 610c228 0 341 -109 299 -306l-5 -23l-4 -19l-512 -10c-12 -87 46 -126 130 -126c92 0 145 34 169 93l2 3h200l-1 -3c-45 -136 -173 -237 -398 -237c-219 0 -341 106 -298 309l7 32c38 182 193 287 411 287z
M433 472c-80 0 -145 -32 -176 -105l306 7c-2 61 -42 98 -130 98z" />
    <glyph glyph-name="uni1EBF.ss03" horiz-adv-x="783" 
d="M733 869l135 -1l-148 -128h-85zM557 667l-67 79l-101 -79h-110l150 163h159l79 -163h-110zM451 610c228 0 341 -109 299 -306l-5 -23l-4 -19l-512 -10c-12 -87 46 -126 130 -126c92 0 145 34 169 93l2 3h200l-1 -3c-45 -136 -173 -237 -398 -237
c-219 0 -341 106 -298 309l7 32c38 182 193 287 411 287zM433 472c-80 0 -145 -32 -176 -105l306 7c-2 61 -42 98 -130 98z" />
    <glyph glyph-name="uni1EC7.ss03" horiz-adv-x="783" 
d="M557 667l-67 79l-101 -79h-110l149 163h159l80 -163h-110zM451 610c228 0 341 -109 299 -306l-5 -23l-4 -19l-512 -10c-12 -87 46 -126 130 -126c92 0 145 34 169 93l2 3h200l-1 -3c-45 -136 -173 -237 -398 -237c-219 0 -341 106 -298 309l7 32c38 182 193 287 411 287z
M433 472c-80 0 -145 -32 -176 -105l306 7c-2 61 -42 98 -130 98zM342 -38c67 0 90 -19 81 -58c-8 -39 -39 -58 -106 -58s-91 19 -83 58c9 39 41 58 108 58z" />
    <glyph glyph-name="uni1EC1.ss03" horiz-adv-x="783" 
d="M703 945l43 -131h-85l-93 131h135zM557 667l-67 79l-101 -79h-110l149 163h159l80 -163h-110zM451 610c228 0 341 -109 299 -306l-5 -23l-4 -19l-512 -10c-12 -87 46 -126 130 -126c92 0 145 34 169 93l2 3h200l-1 -3c-45 -136 -173 -237 -398 -237
c-219 0 -341 106 -298 309l7 32c38 182 193 287 411 287zM433 472c-80 0 -145 -32 -176 -105l306 7c-2 61 -42 98 -130 98z" />
    <glyph glyph-name="uni1EC3.ss03" horiz-adv-x="783" 
d="M725 898c50 0 70 -24 62 -55c-5 -26 -25 -53 -52 -84h-67c33 32 48 54 51 68c3 10 -3 14 -13 14c-11 0 -18 -5 -23 -26h-56c11 54 45 83 98 83zM558 667l-68 79l-100 -79h-110l149 163h159l80 -163h-110zM451 610c228 0 341 -109 299 -306l-5 -23l-4 -19l-512 -10
c-12 -87 46 -126 130 -126c92 0 145 34 169 93l2 3h200l-1 -3c-45 -136 -173 -237 -398 -237c-219 0 -341 106 -298 309l7 32c38 182 193 287 411 287zM433 472c-80 0 -145 -32 -176 -105l306 7c-2 61 -42 98 -130 98z" />
    <glyph glyph-name="uni1EC5.ss03" horiz-adv-x="783" 
d="M494 906c-16 0 -28 -10 -39 -30l-67 12c23 67 57 103 109 103c53 0 78 -36 104 -36c16 0 28 10 39 30l67 -13c-23 -66 -57 -102 -109 -102c-54 0 -78 36 -104 36zM557 667l-68 79l-100 -79h-110l149 163h159l80 -163h-110zM451 610c228 0 341 -109 299 -306l-5 -23
l-4 -19l-512 -10c-12 -87 46 -126 130 -126c92 0 145 34 169 93l2 3h200l-1 -3c-45 -136 -173 -237 -398 -237c-219 0 -341 106 -298 309l7 32c38 182 193 287 411 287zM433 472c-80 0 -145 -32 -176 -105l306 7c-2 61 -42 98 -130 98z" />
    <glyph glyph-name="edieresis.ss03" horiz-adv-x="783" 
d="M343 667c-71 0 -101 27 -89 87c11 61 52 88 122 88c71 0 100 -27 89 -88c-12 -60 -52 -87 -122 -87zM622 667c-70 0 -100 27 -89 87c12 61 53 88 123 88c71 0 100 -27 89 -88c-12 -60 -52 -87 -123 -87zM451 610c228 0 341 -109 299 -306l-5 -23l-4 -19l-512 -10
c-12 -87 46 -126 130 -126c92 0 145 34 169 93l2 3h200l-1 -3c-45 -136 -173 -237 -398 -237c-219 0 -341 106 -298 309l7 32c38 182 193 287 411 287zM433 472c-80 0 -145 -32 -176 -105l306 7c-2 61 -42 98 -130 98z" />
    <glyph glyph-name="edotaccent.ss03" horiz-adv-x="783" 
d="M473 669c-79 0 -107 23 -97 70s48 70 127 70c78 0 105 -23 95 -70c-9 -47 -46 -70 -125 -70zM451 610c228 0 341 -109 299 -306l-5 -23l-4 -19l-512 -10c-12 -87 46 -126 130 -126c92 0 145 34 169 93l2 3h200l-1 -3c-45 -136 -173 -237 -398 -237
c-219 0 -341 106 -298 309l7 32c38 182 193 287 411 287zM433 472c-80 0 -145 -32 -176 -105l306 7c-2 61 -42 98 -130 98z" />
    <glyph glyph-name="uni1EB9.ss03" horiz-adv-x="783" 
d="M451 610c228 0 341 -109 299 -306l-5 -23l-4 -19l-512 -10c-12 -87 46 -126 130 -126c92 0 145 34 169 93l2 3h200l-1 -3c-45 -136 -173 -237 -398 -237c-219 0 -341 106 -298 309l7 32c38 182 193 287 411 287zM433 472c-80 0 -145 -32 -176 -105l306 7
c-2 61 -42 98 -130 98zM342 -38c67 0 90 -19 81 -58c-8 -39 -39 -58 -106 -58s-91 19 -83 58c9 39 41 58 108 58z" />
    <glyph glyph-name="egrave.ss03" horiz-adv-x="783" 
d="M549 831l66 -163h-121l-139 163h194zM451 610c228 0 341 -109 299 -306l-5 -23l-4 -19l-512 -10c-12 -87 46 -126 130 -126c92 0 145 34 169 93l2 3h200l-1 -3c-45 -136 -173 -237 -398 -237c-219 0 -341 106 -298 309l7 32c38 182 193 287 411 287zM433 472
c-80 0 -145 -32 -176 -105l306 7c-2 61 -42 98 -130 98z" />
    <glyph glyph-name="uni1EBB.ss03" horiz-adv-x="783" 
d="M491 773c-14 0 -23 -5 -29 -32h-71c13 69 57 105 124 105c63 0 89 -30 80 -71c-7 -33 -33 -67 -67 -106h-86c43 41 62 69 66 87c3 12 -5 17 -17 17zM451 610c228 0 341 -109 299 -306l-5 -23l-4 -19l-512 -10c-12 -87 46 -126 130 -126c92 0 145 34 169 93l2 3h200l-1 -3
c-45 -136 -173 -237 -398 -237c-219 0 -341 106 -298 309l7 32c38 182 193 287 411 287zM433 472c-80 0 -145 -32 -176 -105l306 7c-2 61 -42 98 -130 98z" />
    <glyph glyph-name="emacron.ss03" horiz-adv-x="783" 
d="M286 781h422l-24 -113h-422zM451 610c228 0 341 -109 299 -306l-5 -23l-4 -19l-512 -10c-12 -87 46 -126 130 -126c92 0 145 34 169 93l2 3h200l-1 -3c-45 -136 -173 -237 -398 -237c-219 0 -341 106 -298 309l7 32c38 182 193 287 411 287zM433 472
c-80 0 -145 -32 -176 -105l306 7c-2 61 -42 98 -130 98z" />
    <glyph glyph-name="eogonek.ss03" horiz-adv-x="783" 
d="M451 610c228 0 341 -109 299 -306l-5 -23l-4 -19l-512 -10c-12 -87 46 -126 130 -126c92 0 145 34 169 93l2 3h200l-1 -3c-32 -96 -105 -175 -226 -213c-86 -33 -120 -60 -127 -90c-3 -13 2 -25 24 -25c21 0 37 14 44 44h109c-19 -89 -73 -128 -185 -128
c-97 0 -134 36 -122 94c7 31 33 58 79 81c-215 2 -335 108 -292 309l7 32c38 182 193 287 411 287zM433 472c-80 0 -145 -32 -176 -105l306 7c-2 61 -42 98 -130 98z" />
    <glyph glyph-name="uni1EBD.ss03" horiz-adv-x="783" 
d="M414 716c-23 0 -40 -14 -56 -43l-95 17c33 96 81 146 155 146c76 0 112 -51 149 -51c23 0 40 14 55 43l96 -18c-33 -95 -82 -146 -156 -146c-76 0 -111 52 -148 52zM451 610c228 0 341 -109 299 -306l-5 -23l-4 -19l-512 -10c-12 -87 46 -126 130 -126
c92 0 145 34 169 93l2 3h200l-1 -3c-45 -136 -173 -237 -398 -237c-219 0 -341 106 -298 309l7 32c38 182 193 287 411 287zM433 472c-80 0 -145 -32 -176 -105l306 7c-2 61 -42 98 -130 98z" />
    <glyph glyph-name="i.ss03" horiz-adv-x="389" 
d="M318 809c78 0 105 -23 95 -70c-9 -47 -46 -70 -125 -70s-107 23 -97 70s48 70 127 70zM71 592h311l-126 -592h-204l95 445h-107z" />
    <glyph glyph-name="dotlessi.ss03" horiz-adv-x="389" 
d="M382 592l-126 -592h-204l95 445h-107l31 147h311z" />
    <glyph glyph-name="iacute.ss03" horiz-adv-x="389" 
d="M254 831h193l-138 -163h-122zM71 592h311l-126 -592h-204l95 445h-107z" />
    <glyph glyph-name="ibreve.ss03" horiz-adv-x="389" 
d="M395 846h120c-17 -122 -89 -181 -229 -181c-139 0 -186 59 -151 181h120c-18 -59 -2 -87 51 -87c54 0 81 28 89 87zM71 592h311l-126 -592h-204l95 445h-107z" />
    <glyph glyph-name="uni01D0.ss03" horiz-adv-x="389" 
d="M516 828l-149 -163h-159l-80 163h110l67 -79l101 79h110zM71 592h311l-126 -592h-204l95 445h-107z" />
    <glyph glyph-name="icircumflex.ss03" horiz-adv-x="389" 
d="M372 667l-67 79l-101 -79h-110l149 163h159l80 -163h-110zM71 592h311l-126 -592h-204l95 445h-107z" />
    <glyph glyph-name="idieresis.ss03" horiz-adv-x="389" 
d="M157 667c-71 0 -101 27 -89 87c11 61 52 88 122 88c71 0 100 -27 89 -88c-12 -60 -52 -87 -122 -87zM470 842c71 0 100 -27 89 -88c-12 -60 -52 -87 -123 -87c-70 0 -100 27 -89 87c12 61 53 88 123 88zM71 592h311l-126 -592h-204l95 445h-107z" />
    <glyph glyph-name="i.loclTRK.ss03" horiz-adv-x="389" 
d="M318 809c78 0 105 -23 95 -70c-9 -47 -46 -70 -125 -70s-107 23 -97 70s48 70 127 70zM71 592h311l-126 -592h-204l95 445h-107z" />
    <glyph glyph-name="uni1ECB.ss03" horiz-adv-x="344" 
d="M250 657c-80 0 -113 27 -100 87c13 61 58 88 137 88s112 -27 99 -88c-13 -60 -57 -87 -136 -87zM211 0h-204l126 592h204zM95 -154c-67 0 -91 19 -83 58c9 39 41 58 108 58s90 -19 81 -58c-8 -39 -39 -58 -106 -58z" />
    <glyph glyph-name="igrave.ss03" horiz-adv-x="389" 
d="M364 831l66 -163h-121l-139 163h194zM71 592h311l-126 -592h-204l95 445h-107z" />
    <glyph glyph-name="uni1EC9.ss03" horiz-adv-x="389" 
d="M330 846c63 0 89 -30 80 -71c-7 -33 -33 -67 -67 -106h-86c43 41 62 69 66 87c3 12 -5 17 -17 17c-14 0 -23 -5 -29 -32h-71c13 69 57 105 124 105zM71 592h311l-126 -592h-204l95 445h-107z" />
    <glyph glyph-name="imacron.ss03" horiz-adv-x="389" 
d="M77 668l24 113h422l-24 -113h-422zM71 592h311l-126 -592h-204l95 445h-107z" />
    <glyph glyph-name="iogonek.ss03" horiz-adv-x="389" 
d="M318 809c78 0 105 -23 95 -70c-9 -47 -46 -70 -125 -70s-107 23 -97 70s48 70 127 70zM256 0h-4c-98 -36 -136 -64 -143 -96c-3 -13 2 -25 24 -25c21 0 37 14 44 44h109c-19 -89 -73 -128 -185 -128c-97 0 -134 36 -122 94c10 46 63 85 164 111h-91l95 445h-107l31 147
h311z" />
    <glyph glyph-name="itilde.ss03" horiz-adv-x="389" 
d="M437 828l96 -18c-33 -95 -82 -146 -156 -146c-76 0 -111 52 -148 52c-23 0 -40 -14 -56 -43l-95 17c33 96 81 146 155 146c76 0 112 -51 149 -51c23 0 40 14 55 43zM71 592h311l-126 -592h-204l95 445h-107z" />
    <glyph glyph-name="j.ss03" horiz-adv-x="358" 
d="M311 832c79 0 112 -27 99 -88c-13 -60 -57 -87 -136 -87c-80 0 -113 27 -100 87c13 61 58 88 137 88zM46 592h311l-107 -504c-36 -167 -130 -284 -344 -284c-64 0 -121 7 -157 14l34 134c26 -3 65 -7 92 -7c104 0 152 56 172 149l75 351h-107z" />
    <glyph glyph-name="uni0237.ss03" horiz-adv-x="358" 
d="M357 592l-107 -504c-36 -167 -130 -284 -344 -284c-64 0 -121 7 -157 14l34 134c26 -3 65 -7 92 -7c104 0 152 56 172 149l75 351h-107l31 147h311z" />
    <glyph glyph-name="jcircumflex.ss03" horiz-adv-x="358" 
d="M231 830h159l80 -163h-110l-67 79l-101 -79h-110zM46 592h311l-107 -504c-36 -167 -130 -284 -344 -284c-64 0 -121 7 -157 14l34 134c26 -3 65 -7 92 -7c104 0 152 56 172 149l75 351h-107z" />
    <glyph glyph-name="k.ss03" horiz-adv-x="780" 
d="M576 592h242l-276 -237l166 -355h-225l-95 243l-147 -102l-30 -141h-204l163 765h204l-89 -417z" />
    <glyph glyph-name="uni0137.ss03" horiz-adv-x="780" 
d="M576 592h242l-276 -237l166 -355h-225l-95 243l-147 -102l-30 -141h-204l163 765h204l-89 -417zM339 -20c72 0 100 -17 85 -64c-32 -99 -114 -125 -221 -115l15 45c60 -2 79 3 87 30c-68 0 -96 14 -84 51c12 39 50 53 118 53z" />
    <glyph glyph-name="l.ss03" horiz-adv-x="389" 
d="M419 765l-163 -765h-204l132 619h-107l31 146h311z" />
    <glyph glyph-name="lacute.ss03" horiz-adv-x="389" 
d="M364 765h55l-163 -765h-204l132 619h-107l31 146h84l21 51h194z" />
    <glyph glyph-name="lcaron.ss03" horiz-adv-x="389" 
d="M419 765l-163 -765h-204l105 494h-68l21 125h-33l31 146h311z" />
    <glyph glyph-name="uni013C.ss03" horiz-adv-x="389" 
d="M419 765l-163 -765h-204l132 619h-107l31 146h311zM164 -20c72 0 100 -17 85 -64c-32 -99 -114 -125 -221 -115l15 45c60 -2 79 3 87 30c-68 0 -96 14 -84 51c12 39 50 53 118 53z" />
    <glyph glyph-name="ldot.ss03" horiz-adv-x="389" 
d="M419 765l-163 -765h-204l71 331c-54 8 -75 35 -64 86s44 79 100 87l25 115h-107l31 146h311z" />
    <glyph glyph-name="uni1E37.ss03" horiz-adv-x="389" 
d="M419 765l-163 -765h-204l132 619h-107l31 146h311zM166 -38c67 0 90 -19 81 -58c-8 -39 -39 -58 -106 -58s-91 19 -83 58c9 39 41 58 108 58z" />
    <glyph glyph-name="uni1E39.ss03" horiz-adv-x="389" 
d="M419 764h98l-24 -114h-99l-138 -650h-204l132 619h-107l7 31h-13l24 114h13v1h311v-1zM166 -38c67 0 90 -19 81 -58c-8 -39 -39 -58 -106 -58s-91 19 -83 58c9 39 41 58 108 58z" />
    <glyph glyph-name="uni1E3B.ss03" horiz-adv-x="389" 
d="M419 765l-163 -765h-204l132 619h-107l31 146h311zM367 -131h-423l24 90h422z" />
    <glyph glyph-name="lslash.ss03" horiz-adv-x="389" 
d="M440 456l16 -75l-130 -52l-70 -329h-204l51 239l-52 -21l-15 75l86 35l62 291h-107l31 146h311l-74 -347z" />
    <glyph glyph-name="a.sc" horiz-adv-x="761" 
d="M702 0h-216l-12 93h-251l-51 -93h-225l358 592h292zM410 431l-113 -204h160l-26 204l3 52h-4z" />
    <glyph glyph-name="aacute.sc" horiz-adv-x="761" 
d="M433 831h193l-138 -163h-122zM702 0h-216l-12 93h-251l-51 -93h-225l358 592h292zM410 431l-113 -204h160l-26 204l3 52h-4z" />
    <glyph glyph-name="abreve.sc" horiz-adv-x="761" 
d="M466 665c-139 0 -186 59 -151 181h120c-18 -59 -2 -87 51 -87c54 0 81 28 89 87h120c-17 -122 -89 -181 -229 -181zM702 0h-216l-12 93h-251l-51 -93h-225l358 592h292zM410 431l-113 -204h160l-26 204l3 52h-4z" />
    <glyph glyph-name="acircumflex.sc" horiz-adv-x="761" 
d="M551 667l-67 79l-101 -79h-110l149 163h159l80 -163h-110zM702 0h-216l-12 93h-251l-51 -93h-225l358 592h292zM410 431l-113 -204h160l-26 204l3 52h-4z" />
    <glyph glyph-name="adieresis.sc" horiz-adv-x="761" 
d="M337 667c-71 0 -101 27 -89 87c11 61 52 88 122 88c71 0 100 -27 89 -88c-12 -60 -52 -87 -122 -87zM650 842c71 0 100 -27 89 -88c-12 -60 -52 -87 -123 -87c-70 0 -100 27 -89 87c12 61 53 88 123 88zM-53 0l358 592h292l105 -592h-216l-12 93h-251l-51 -93h-225z
M410 431l-113 -204h160l-26 204l3 52h-4z" />
    <glyph glyph-name="agrave.sc" horiz-adv-x="761" 
d="M543 831l66 -163h-121l-139 163h194zM702 0h-216l-12 93h-251l-51 -93h-225l358 592h292zM410 431l-113 -204h160l-26 204l3 52h-4z" />
    <glyph glyph-name="amacron.sc" horiz-adv-x="761" 
d="M280 781h422l-24 -113h-422zM-53 0l358 592h292l105 -592h-216l-12 93h-251l-51 -93h-225zM410 431l-113 -204h160l-26 204l3 52h-4z" />
    <glyph glyph-name="aogonek.sc" horiz-adv-x="761" 
d="M624 -78h109c-19 -89 -73 -128 -185 -128c-97 0 -134 36 -122 94c10 47 64 86 168 112h-108l-12 93h-251l-51 -93h-225l358 592h292l105 -592c-100 -36 -139 -65 -146 -97c-3 -13 2 -25 24 -25c21 0 37 14 44 44zM410 431l-113 -204h160l-26 204l3 52h-4z" />
    <glyph glyph-name="aring.sc" horiz-adv-x="761" 
d="M466 662c-111 0 -154 35 -138 109c16 73 73 109 184 109c110 0 153 -36 137 -109c-16 -74 -74 -109 -183 -109zM439 771c-7 -31 10 -43 41 -43c30 0 52 12 59 43c6 31 -11 43 -41 43c-31 0 -53 -12 -59 -43zM702 0h-216l-12 93h-251l-51 -93h-225l358 592h292zM410 431
l-113 -204h160l-26 204l3 52h-4z" />
    <glyph glyph-name="atilde.sc" horiz-adv-x="761" 
d="M408 716c-23 0 -40 -14 -56 -43l-95 17c33 96 81 146 155 146c76 0 112 -51 149 -51c23 0 40 14 55 43l96 -18c-33 -95 -82 -146 -156 -146c-76 0 -111 52 -148 52zM-53 0l358 592h292l105 -592h-216l-12 93h-251l-51 -93h-225zM410 431l-113 -204h160l-26 204l3 52h-4z
" />
    <glyph glyph-name="ae.sc" horiz-adv-x="1017" 
d="M1042 592l-30 -143h-314l-21 -98h287l-23 -110h-287l-20 -97h321l-30 -144h-522l27 129h-170l-94 -129h-219l428 592h667zM477 429l-131 -181h110l45 211h-6z" />
    <glyph glyph-name="aeacute.sc" horiz-adv-x="1017" 
d="M678 831h193l-138 -163h-122zM1042 592l-30 -143h-314l-21 -98h287l-23 -110h-287l-20 -97h321l-30 -144h-522l27 129h-170l-94 -129h-219l428 592h667zM477 429l-131 -181h110l45 211h-6z" />
    <glyph glyph-name="b.sc" horiz-adv-x="738" 
d="M397 0h-408l126 592h401c137 0 215 -48 194 -150l-3 -12c-12 -58 -66 -107 -153 -119l-1 -2c93 -13 141 -65 123 -148l-3 -11c-21 -102 -123 -150 -276 -150zM289 457l-21 -97h172c41 0 67 19 72 44l2 9c6 27 -13 44 -52 44h-173zM244 249l-24 -114h171c48 0 83 12 92 53
l2 11c6 28 -18 50 -69 50h-172z" />
    <glyph glyph-name="c.sc" horiz-adv-x="776" 
d="M340 -17c-227 0 -350 104 -307 309l3 16c42 196 192 302 420 302c211 0 325 -95 302 -256v-3h-205l1 5c3 64 -36 103 -123 103c-92 0 -169 -52 -191 -152l-5 -23c-21 -102 34 -151 125 -151c90 0 146 41 170 104l1 7h204l-1 -5c-46 -165 -183 -256 -394 -256z" />
    <glyph glyph-name="cacute.sc" horiz-adv-x="776" 
d="M627 830l-138 -163h-122l67 163h193zM340 -17c-227 0 -350 104 -307 309l3 16c42 196 192 302 420 302c211 0 325 -95 302 -256v-3h-205l1 5c3 64 -36 103 -123 103c-92 0 -169 -52 -191 -152l-5 -23c-21 -102 34 -151 125 -151c90 0 146 41 170 104l1 7h204l-1 -5
c-46 -165 -183 -256 -394 -256z" />
    <glyph glyph-name="ccaron.sc" horiz-adv-x="776" 
d="M388 664l-80 163h110l67 -79l101 79h110l-149 -163h-159zM340 -17c-227 0 -350 104 -307 309l3 16c42 196 192 302 420 302c211 0 325 -95 302 -256v-3h-205l1 5c3 64 -36 103 -123 103c-92 0 -169 -52 -191 -152l-5 -23c-21 -102 34 -151 125 -151c90 0 146 41 170 104
l1 7h204l-1 -5c-46 -165 -183 -256 -394 -256z" />
    <glyph glyph-name="ccedilla.sc" horiz-adv-x="776" 
d="M456 610c211 0 325 -95 302 -256v-3h-205l1 5c3 64 -36 103 -123 103c-92 0 -169 -52 -191 -152l-5 -23c-21 -102 34 -151 125 -151c90 0 146 41 170 104l1 7h204l-1 -5c-45 -162 -179 -253 -384 -256l-13 -23c44 8 125 -6 110 -78c-11 -53 -70 -92 -165 -92
s-143 31 -129 111h100c-6 -33 13 -41 42 -41c17 0 36 9 40 31c5 26 -18 38 -55 30l-22 20l27 44c-191 16 -291 119 -252 307l3 16c42 196 192 302 420 302z" />
    <glyph glyph-name="ccircumflex.sc" horiz-adv-x="776" 
d="M383 666h-110l149 163h159l80 -163h-110l-67 79zM340 -17c-227 0 -350 104 -307 309l3 16c42 196 192 302 420 302c211 0 325 -95 302 -256v-3h-205l1 5c3 64 -36 103 -123 103c-92 0 -169 -52 -191 -152l-5 -23c-21 -102 34 -151 125 -151c90 0 146 41 170 104l1 7h204
l-1 -5c-46 -165 -183 -256 -394 -256z" />
    <glyph glyph-name="cdotaccent.sc" horiz-adv-x="776" 
d="M468 668c-79 0 -107 23 -97 70s48 70 127 70c78 0 105 -23 95 -70c-9 -47 -46 -70 -125 -70zM340 -17c-227 0 -350 104 -307 309l3 16c42 196 192 302 420 302c211 0 325 -95 302 -256v-3h-205l1 5c3 64 -36 103 -123 103c-92 0 -169 -52 -191 -152l-5 -23
c-21 -102 34 -151 125 -151c90 0 146 41 170 104l1 7h204l-1 -5c-46 -165 -183 -256 -394 -256z" />
    <glyph glyph-name="d.sc" horiz-adv-x="779" 
d="M334 0h-345l126 592h342c232 0 327 -113 289 -297l-5 -24c-34 -156 -148 -271 -407 -271zM287 445l-63 -299h119c105 0 176 44 196 140l4 21c19 85 -33 138 -138 138h-118z" />
    <glyph glyph-name="eth.sc" horiz-adv-x="794" 
d="M130 592h342c232 0 327 -113 289 -297l-5 -24c-34 -156 -148 -271 -407 -271h-345l49 232h-53l20 116h58zM554 286l4 21c19 85 -33 138 -138 138h-118l-20 -97h66l-19 -116h-72l-18 -86h119c105 0 176 44 196 140z" />
    <glyph glyph-name="dcaron.sc" horiz-adv-x="779" 
d="M380 664l-80 163h110l67 -79l101 79h110l-149 -163h-159zM334 0h-345l126 592h342c232 0 327 -113 289 -297l-5 -24c-34 -156 -148 -271 -407 -271zM287 445l-63 -299h119c105 0 176 44 196 140l4 21c19 85 -33 138 -138 138h-118z" />
    <glyph glyph-name="dcroat.sc" horiz-adv-x="794" 
d="M130 592h342c232 0 327 -113 289 -297l-5 -24c-34 -156 -148 -271 -407 -271h-345l49 232h-53l20 116h58zM554 286l4 21c19 85 -33 138 -138 138h-118l-20 -97h66l-19 -116h-72l-18 -86h119c105 0 176 44 196 140z" />
    <glyph glyph-name="e.sc" horiz-adv-x="629" 
d="M536 0h-547l126 592h540l-31 -145h-337l-21 -95h311l-24 -111h-310l-20 -96h344z" />
    <glyph glyph-name="eacute.sc" horiz-adv-x="629" 
d="M562 831l-138 -163h-122l67 163h193zM536 0h-547l126 592h540l-31 -145h-337l-21 -95h311l-24 -111h-310l-20 -96h344z" />
    <glyph glyph-name="ebreve.sc" horiz-adv-x="629" 
d="M401 665c-139 0 -186 59 -151 181h120c-18 -59 -2 -87 51 -87c54 0 81 28 89 87h120c-17 -122 -89 -181 -229 -181zM536 0h-547l126 592h540l-31 -145h-337l-21 -95h311l-24 -111h-310l-20 -96h344z" />
    <glyph glyph-name="ecaron.sc" horiz-adv-x="629" 
d="M323 665l-80 163h110l67 -79l101 79h110l-149 -163h-159zM536 0h-547l126 592h540l-31 -145h-337l-21 -95h311l-24 -111h-310l-20 -96h344z" />
    <glyph glyph-name="ecircumflex.sc" horiz-adv-x="629" 
d="M319 667h-110l149 163h159l80 -163h-110l-67 79zM536 0h-547l126 592h540l-31 -145h-337l-21 -95h311l-24 -111h-310l-20 -96h344z" />
    <glyph glyph-name="edieresis.sc" horiz-adv-x="629" 
d="M272 667c-71 0 -101 27 -89 87c11 61 52 88 122 88c71 0 100 -27 89 -88c-12 -60 -52 -87 -122 -87zM551 667c-70 0 -100 27 -89 87c12 61 53 88 123 88c71 0 100 -27 89 -88c-12 -60 -52 -87 -123 -87zM536 0h-547l126 592h540l-31 -145h-337l-21 -95h311l-24 -111h-310
l-20 -96h344z" />
    <glyph glyph-name="edotaccent.sc" horiz-adv-x="629" 
d="M403 669c-79 0 -107 23 -97 70s48 70 127 70c78 0 105 -23 95 -70c-9 -47 -46 -70 -125 -70zM536 0h-547l126 592h540l-31 -145h-337l-21 -95h311l-24 -111h-310l-20 -96h344z" />
    <glyph glyph-name="egrave.sc" horiz-adv-x="629" 
d="M545 668h-121l-139 163h194zM536 0h-547l126 592h540l-31 -145h-337l-21 -95h311l-24 -111h-310l-20 -96h344z" />
    <glyph glyph-name="emacron.sc" horiz-adv-x="629" 
d="M614 668h-422l24 113h422zM536 0h-547l126 592h540l-31 -145h-337l-21 -95h311l-24 -111h-310l-20 -96h344z" />
    <glyph glyph-name="eogonek.sc" horiz-adv-x="629" 
d="M655 592l-31 -145h-337l-21 -95h311l-24 -111h-310l-20 -96h344l-31 -145c-100 -36 -139 -65 -146 -97c-3 -13 2 -25 24 -25c21 0 37 14 44 44h109c-19 -89 -73 -128 -185 -128c-97 0 -134 36 -122 94c10 47 64 86 168 112h-439l126 592h540z" />
    <glyph glyph-name="f.sc" horiz-adv-x="619" 
d="M196 0h-207l126 592h541l-31 -147h-335l-24 -116h298l-26 -124h-299z" />
    <glyph glyph-name="g.sc" horiz-adv-x="781" 
d="M462 610c214 0 319 -93 298 -247l-1 -4h-204l1 4c7 64 -28 100 -122 100c-99 0 -174 -64 -192 -149l-9 -43c-16 -76 28 -142 127 -142c86 0 141 32 167 80h-158l23 111h361l-8 -37l-6 -26c-40 -175 -190 -274 -405 -274c-242 0 -340 121 -302 303l5 27
c38 177 184 297 425 297z" />
    <glyph glyph-name="gbreve.sc" horiz-adv-x="781" 
d="M470 664c-139 0 -186 59 -151 181h120c-18 -59 -2 -87 51 -87c54 0 81 28 89 87h120c-17 -122 -89 -181 -229 -181zM462 610c214 0 319 -93 298 -247l-1 -4h-204l1 4c7 64 -28 100 -122 100c-99 0 -174 -64 -192 -149l-9 -43c-16 -76 28 -142 127 -142
c86 0 141 32 167 80h-158l23 111h361l-8 -37l-6 -26c-40 -175 -190 -274 -405 -274c-242 0 -340 121 -302 303l5 27c38 177 184 297 425 297z" />
    <glyph glyph-name="gcircumflex.sc" horiz-adv-x="781" 
d="M555 666l-67 79l-101 -79h-110l149 163h159l80 -163h-110zM462 610c214 0 319 -93 298 -247l-1 -4h-204l1 4c7 64 -28 100 -122 100c-99 0 -174 -64 -192 -149l-9 -43c-16 -76 28 -142 127 -142c86 0 141 32 167 80h-158l23 111h361l-8 -37l-6 -26
c-40 -175 -190 -274 -405 -274c-242 0 -340 121 -302 303l5 27c38 177 184 297 425 297z" />
    <glyph glyph-name="uni0123.sc" horiz-adv-x="781" 
d="M462 610c214 0 319 -93 298 -247l-1 -4h-204l1 4c7 64 -28 100 -122 100c-99 0 -174 -64 -192 -149l-9 -43c-16 -76 28 -142 127 -142c86 0 141 32 167 80h-158l23 111h361l-8 -37l-6 -26c-40 -175 -190 -274 -405 -274c-242 0 -340 121 -302 303l5 27
c38 177 184 297 425 297zM339 -20c72 0 100 -17 85 -64c-32 -99 -114 -125 -221 -115l15 45c60 -2 79 3 87 30c-68 0 -96 14 -84 51c12 39 50 53 118 53z" />
    <glyph glyph-name="gdotaccent.sc" horiz-adv-x="781" 
d="M472 668c-79 0 -107 23 -97 70s48 70 127 70c78 0 105 -23 95 -70c-9 -47 -46 -70 -125 -70zM462 610c214 0 319 -93 298 -247l-1 -4h-204l1 4c7 64 -28 100 -122 100c-99 0 -174 -64 -192 -149l-9 -43c-16 -76 28 -142 127 -142c86 0 141 32 167 80h-158l23 111h361
l-8 -37l-6 -26c-40 -175 -190 -274 -405 -274c-242 0 -340 121 -302 303l5 27c38 177 184 297 425 297z" />
    <glyph glyph-name="h.sc" horiz-adv-x="776" 
d="M534 373l47 219h204l-126 -592h-204l49 228h-262l-49 -228h-204l126 592h204l-47 -219h262z" />
    <glyph glyph-name="hbar.sc" horiz-adv-x="784" 
d="M768 513h61l-26 -86h-53l-91 -427h-204l49 228h-262l-49 -228h-204l91 427h-46l26 86h38l17 79h204l-17 -79h262l17 79h204zM272 373h262l12 54h-262z" />
    <glyph glyph-name="hcircumflex.sc" horiz-adv-x="776" 
d="M550 667l-67 79l-101 -79h-110l149 163h159l80 -163h-110zM534 373l47 219h204l-126 -592h-204l49 228h-262l-49 -228h-204l126 592h204l-47 -219h262z" />
    <glyph glyph-name="i.sc" horiz-adv-x="310" 
d="M193 0h-204l126 592h204z" />
    <glyph glyph-name="iacute.sc" horiz-adv-x="310" 
d="M392 831l-138 -163h-122l67 163h193zM193 0h-204l126 592h204z" />
    <glyph glyph-name="ibreve.sc" horiz-adv-x="310" 
d="M231 665c-139 0 -186 59 -151 181h120c-18 -59 -2 -87 51 -87c54 0 81 28 89 87h120c-17 -122 -89 -181 -229 -181zM193 0h-204l126 592h204z" />
    <glyph glyph-name="icircumflex.sc" horiz-adv-x="310" 
d="M149 667h-110l149 163h159l80 -163h-110l-67 79zM193 0h-204l126 592h204z" />
    <glyph glyph-name="idieresis.sc" horiz-adv-x="310" 
d="M102 667c-71 0 -101 27 -89 87c11 61 52 88 122 88c71 0 100 -27 89 -88c-12 -60 -52 -87 -122 -87zM381 667c-70 0 -100 27 -89 87c12 61 53 88 123 88c71 0 100 -27 89 -88c-12 -60 -52 -87 -123 -87zM193 0h-204l126 592h204z" />
    <glyph glyph-name="i.sc.loclTRK" horiz-adv-x="310" 
d="M233 669c-79 0 -107 23 -97 70s48 70 127 70c78 0 105 -23 95 -70c-9 -47 -46 -70 -125 -70zM193 0h-204l126 592h204z" />
    <glyph glyph-name="igrave.sc" horiz-adv-x="310" 
d="M375 668h-121l-139 163h194zM193 0h-204l126 592h204z" />
    <glyph glyph-name="ij.sc" horiz-adv-x="851" 
d="M193 0h-204l126 592h204zM464 -18c-87 0 -170 23 -204 45l73 147c27 -13 74 -27 121 -27c80 0 128 34 143 106l40 190h-176l32 149h383l-77 -364c-34 -160 -153 -246 -335 -246z" />
    <glyph glyph-name="imacron.sc" horiz-adv-x="310" 
d="M444 668h-422l24 113h422zM193 0h-204l126 592h204z" />
    <glyph glyph-name="iogonek.sc" horiz-adv-x="310" 
d="M70 -122c21 0 37 14 44 44h109c-19 -89 -73 -128 -185 -128c-97 0 -134 36 -122 94c10 47 64 86 168 112h-95l126 592h204l-126 -592h-1c-100 -36 -139 -65 -146 -97c-3 -13 2 -25 24 -25z" />
    <glyph glyph-name="itilde.sc" horiz-adv-x="310" 
d="M322 664c-76 0 -111 52 -148 52c-23 0 -40 -14 -56 -43l-95 17c33 96 81 146 155 146c76 0 112 -51 149 -51c23 0 40 14 55 43l96 -18c-33 -95 -82 -146 -156 -146zM193 0h-204l126 592h204z" />
    <glyph glyph-name="j.sc" horiz-adv-x="541" 
d="M154 -18c-87 0 -170 23 -204 45l73 147c27 -13 74 -27 121 -27c80 0 128 34 143 106l40 190h-176l32 149h383l-77 -364c-34 -160 -153 -246 -335 -246z" />
    <glyph glyph-name="jcircumflex.sc" horiz-adv-x="541" 
d="M263 667h-110l149 163h159l80 -163h-110l-67 79zM154 -18c-87 0 -170 23 -204 45l73 147c27 -13 74 -27 121 -27c80 0 128 34 143 106l40 190h-176l32 149h383l-77 -364c-34 -160 -153 -246 -335 -246z" />
    <glyph glyph-name="k.sc" horiz-adv-x="737" 
d="M764 592l-231 -288l-1 -3l131 -301h-222l-82 225h-119l-47 -225h-204l126 592h204l-47 -222h97l168 222h227z" />
    <glyph glyph-name="uni0137.sc" horiz-adv-x="737" 
d="M764 592l-231 -288l-1 -3l131 -301h-222l-82 225h-119l-47 -225h-204l126 592h204l-47 -222h97l168 222h227zM301 -20c72 0 100 -17 85 -64c-32 -99 -114 -125 -221 -115l15 45c60 -2 79 3 87 30c-68 0 -96 14 -84 51c12 39 50 53 118 53z" />
    <glyph glyph-name="l.sc" horiz-adv-x="577" 
d="M494 0h-505l126 591h204l-94 -440h301z" />
    <glyph glyph-name="lacute.sc" horiz-adv-x="577" 
d="M395 831l-138 -163h-122l67 163h193zM494 0h-505l126 591h204l-94 -440h301z" />
    <glyph glyph-name="lcaron.sc" horiz-adv-x="577" 
d="M494 0h-505l126 591h204l-94 -440h301zM632 591l-67 -249h-108l41 249h134z" />
    <glyph glyph-name="uni013C.sc" horiz-adv-x="577" 
d="M494 0h-505l126 591h204l-94 -440h301zM97 -199l15 45c60 -2 79 3 87 30c-68 0 -96 14 -84 51c12 39 50 53 118 53c72 0 100 -17 85 -64c-32 -99 -114 -125 -221 -115z" />
    <glyph glyph-name="ldot.sc" horiz-adv-x="579" 
d="M494 0h-505l126 591h204l-94 -440h301zM483 296c-57 0 -81 20 -71 64c9 44 42 64 99 64s80 -20 71 -64c-10 -44 -42 -64 -99 -64z" />
    <glyph glyph-name="lslash.sc" horiz-adv-x="626" 
d="M306 327l-37 -176h301l-32 -151h-505l51 237l-63 -25l-15 75l96 39l57 265h203l-37 -175l85 34l16 -75z" />
    <glyph glyph-name="m.sc" horiz-adv-x="937" 
d="M184 0h-195l126 592h249l83 -336l2 -39h3l18 39l226 336h249l-126 -592h-195l68 316l17 57h-4l-25 -44l-169 -256h-183l-60 256l-7 44h-3l-7 -57z" />
    <glyph glyph-name="n.sc" horiz-adv-x="771" 
d="M173 0h-184l126 592h224l177 -333l8 -30h2l4 51l65 312h185l-126 -592h-224l-178 340l-8 30h-3l-3 -48z" />
    <glyph glyph-name="nacute.sc" horiz-adv-x="771" 
d="M623 831l-138 -163h-122l67 163h193zM173 0h-184l126 592h224l177 -333l8 -30h2l4 51l65 312h185l-126 -592h-224l-178 340l-8 30h-3l-3 -48z" />
    <glyph glyph-name="ncaron.sc" horiz-adv-x="771" 
d="M384 665l-80 163h110l67 -79l101 79h110l-149 -163h-159zM173 0h-184l126 592h224l177 -333l8 -30h2l4 51l65 312h185l-126 -592h-224l-178 340l-8 30h-3l-3 -48z" />
    <glyph glyph-name="uni0146.sc" horiz-adv-x="771" 
d="M173 0h-184l126 592h224l177 -333l8 -30h2l4 51l65 312h185l-126 -592h-224l-178 340l-8 30h-3l-3 -48zM196 -199l15 45c60 -2 79 3 87 30c-68 0 -96 14 -84 51c12 39 50 53 118 53c72 0 100 -17 85 -64c-32 -99 -114 -125 -221 -115z" />
    </font>
</defs>
</svg>
